<svg xmlns="http://www.w3.org/2000/svg" width="38.714" height="37.557" viewBox="0 0 38.714 37.557"><defs><style>.a{fill:#d81212;}</style></defs><g transform="translate(0 0)"><path class="a" d="M36.94,20.3H22.211V9.115A1.467,1.467,0,0,0,20.745,7.65H17.969A1.467,1.467,0,0,0,16.5,9.115V20.3H1.774A1.776,1.776,0,0,0,0,22.071V25.9a1.776,1.776,0,0,0,1.774,1.774h.255l2,14.207a3.888,3.888,0,0,0,3.833,3.331H30.853a3.888,3.888,0,0,0,3.833-3.331l2-14.207h.255A1.776,1.776,0,0,0,38.714,25.9V22.071A1.776,1.776,0,0,0,36.94,20.3ZM18.046,9.192h2.622v14.73H18.046V9.192ZM33.159,41.661a2.339,2.339,0,0,1-2.306,2H7.861a2.339,2.339,0,0,1-2.306-2L3.587,27.669H35.128ZM37.172,25.9a.232.232,0,0,1-.231.231H1.774a.232.232,0,0,1-.231-.231V22.071a.232.232,0,0,1,.231-.231H16.5V24a1.467,1.467,0,0,0,1.465,1.465h2.776A1.467,1.467,0,0,0,22.21,24V21.84H36.94a.232.232,0,0,1,.231.231V25.9Z" transform="translate(0 -7.65)"/><g transform="translate(7.558 21.825)"><path class="a" d="M100.723,296.287a.771.771,0,0,0-.771.771v10.8a.771.771,0,1,0,1.542,0v-10.8A.771.771,0,0,0,100.723,296.287Z" transform="translate(-99.952 -296.287)"/></g><g transform="translate(11.969 21.825)"><path class="a" d="M159.063,296.287a.771.771,0,0,0-.771.771v10.8a.771.771,0,0,0,1.542,0v-10.8A.771.771,0,0,0,159.063,296.287Z" transform="translate(-158.292 -296.287)"/></g><g transform="translate(16.38 21.825)"><path class="a" d="M217.4,296.287a.771.771,0,0,0-.771.771v10.8a.771.771,0,0,0,1.542,0v-10.8A.771.771,0,0,0,217.4,296.287Z" transform="translate(-216.631 -296.287)"/></g><g transform="translate(20.792 21.825)"><path class="a" d="M275.742,296.287a.771.771,0,0,0-.771.771v10.8a.771.771,0,0,0,1.542,0v-10.8A.771.771,0,0,0,275.742,296.287Z" transform="translate(-274.971 -296.287)"/></g><g transform="translate(25.203 21.825)"><path class="a" d="M334.081,296.287a.771.771,0,0,0-.771.771v10.8a.771.771,0,0,0,1.542,0v-10.8A.771.771,0,0,0,334.081,296.287Z" transform="translate(-333.31 -296.287)"/></g><g transform="translate(29.614 21.825)"><path class="a" d="M392.421,296.287a.771.771,0,0,0-.771.771v.617a.771.771,0,0,0,1.542,0v-.617A.771.771,0,0,0,392.421,296.287Z" transform="translate(-391.65 -296.287)"/></g><g transform="translate(29.614 25.372)"><path class="a" d="M392.421,343.2a.771.771,0,0,0-.771.771v7.249a.771.771,0,1,0,1.542,0v-7.249A.771.771,0,0,0,392.421,343.2Z" transform="translate(-391.65 -343.204)"/></g></g></svg>