<svg xmlns="http://www.w3.org/2000/svg" width="11.142" height="10.839" viewBox="0 0 11.142 10.839"><g transform="translate(0 0)"><g transform="translate(0 0)"><path d="M17.571,12A5.422,5.422,0,1,1,12,17.42,5.494,5.494,0,0,1,17.571,12Zm-.293,10.255v-.285a.293.293,0,0,1,.586,0v.285a4.916,4.916,0,0,0,4.677-4.55h-.293a.285.285,0,1,1,0-.57h.293a4.916,4.916,0,0,0-4.677-4.55v.285a.293.293,0,0,1-.586,0v-.285a4.916,4.916,0,0,0-4.677,4.55h.293a.285.285,0,1,1,0,.57H12.6A4.9,4.9,0,0,0,17.278,22.255Zm-1.466-3.123a.289.289,0,0,0,.41,0l1.554-1.512a.25.25,0,0,0,.088-.2V14a.293.293,0,0,0-.586,0v3.309l-1.466,1.426A.271.271,0,0,0,15.812,19.131Z" transform="translate(-12 -12)"/></g></g></svg>