<svg xmlns="http://www.w3.org/2000/svg" width="17.981" height="20.014" viewBox="0 0 17.981 20.014"><defs><style>.a{fill:#9a9a9a;}</style></defs><path class="a" d="M43.59,4.691H36.163V.391A.391.391,0,0,0,35.772,0H26.391A.391.391,0,0,0,26,.391V19.623a.391.391,0,0,0,.391.391h17.2a.391.391,0,0,0,.391-.391V5.082A.391.391,0,0,0,43.59,4.691Zm-7.427.782H43.2v9.85H36.163ZM29.909,19.232V16.1h2.345v3.127Zm2.736-3.909H29.518a.391.391,0,0,0-.391.391v3.518H26.782V.782h8.6v18.45H33.036V15.714A.391.391,0,0,0,32.645,15.323Zm3.518,3.909V16.1H43.2v3.127Z" transform="translate(-26 0)"/><path class="a" d="M136.39,41.565h.782a.391.391,0,0,0,.391-.391v-.782a.391.391,0,0,0-.391-.391h-.782a.391.391,0,0,0-.391.391v.782A.391.391,0,0,0,136.39,41.565Z" transform="translate(-131.699 -38.437)"/><path class="a" d="M136.39,111.565h.782a.391.391,0,0,0,.391-.391v-.782a.391.391,0,0,0-.391-.391h-.782a.391.391,0,0,0-.391.391v.782A.391.391,0,0,0,136.39,111.565Z" transform="translate(-131.699 -105.701)"/><path class="a" d="M136.39,181.565h.782a.391.391,0,0,0,.391-.391v-.782a.391.391,0,0,0-.391-.391h-.782a.391.391,0,0,0-.391.391v.782A.391.391,0,0,0,136.39,181.565Z" transform="translate(-131.699 -172.965)"/><path class="a" d="M136.39,251.564h.782a.391.391,0,0,0,.391-.391v-.782a.391.391,0,0,0-.391-.391h-.782a.391.391,0,0,0-.391.391v.782A.391.391,0,0,0,136.39,251.564Z" transform="translate(-131.699 -240.228)"/><path class="a" d="M136.39,321.564h.782a.391.391,0,0,0,.391-.391v-.782a.391.391,0,0,0-.391-.391h-.782a.391.391,0,0,0-.391.391v.782A.391.391,0,0,0,136.39,321.564Z" transform="translate(-131.699 -307.491)"/><path class="a" d="M66.392,41.565h.782a.391.391,0,0,0,.391-.391v-.782A.391.391,0,0,0,67.174,40h-.782a.391.391,0,0,0-.391.391v.782A.391.391,0,0,0,66.392,41.565Z" transform="translate(-64.437 -38.437)"/><path class="a" d="M66.392,111.565h.782a.391.391,0,0,0,.391-.391v-.782a.391.391,0,0,0-.391-.391h-.782a.391.391,0,0,0-.391.391v.782A.391.391,0,0,0,66.392,111.565Z" transform="translate(-64.437 -105.701)"/><path class="a" d="M66.392,181.565h.782a.391.391,0,0,0,.391-.391v-.782a.391.391,0,0,0-.391-.391h-.782a.391.391,0,0,0-.391.391v.782A.391.391,0,0,0,66.392,181.565Z" transform="translate(-64.437 -172.965)"/><path class="a" d="M66.392,251.564h.782a.391.391,0,0,0,.391-.391v-.782a.391.391,0,0,0-.391-.391h-.782a.391.391,0,0,0-.391.391v.782A.391.391,0,0,0,66.392,251.564Z" transform="translate(-64.437 -240.228)"/><path class="a" d="M66.392,321.564h.782a.391.391,0,0,0,.391-.391v-.782a.391.391,0,0,0-.391-.391h-.782a.391.391,0,0,0-.391.391v.782A.391.391,0,0,0,66.392,321.564Z" transform="translate(-64.437 -307.491)"/><path class="a" d="M207.174,40h-.782a.391.391,0,0,0-.391.391v.782a.391.391,0,0,0,.391.391h.782a.391.391,0,0,0,.391-.391v-.782A.391.391,0,0,0,207.174,40Z" transform="translate(-198.965 -38.437)"/><path class="a" d="M207.174,110h-.782a.391.391,0,0,0-.391.391v.782a.391.391,0,0,0,.391.391h.782a.391.391,0,0,0,.391-.391v-.782A.391.391,0,0,0,207.174,110Z" transform="translate(-198.965 -105.7)"/><path class="a" d="M207.174,180h-.782a.391.391,0,0,0-.391.391v.782a.391.391,0,0,0,.391.391h.782a.391.391,0,0,0,.391-.391v-.782A.391.391,0,0,0,207.174,180Z" transform="translate(-198.965 -172.964)"/><path class="a" d="M207.174,250h-.782a.391.391,0,0,0-.391.391v.782a.391.391,0,0,0,.391.391h.782a.391.391,0,0,0,.391-.391v-.782A.391.391,0,0,0,207.174,250Z" transform="translate(-198.965 -240.228)"/><path class="a" d="M207.174,320h-.782a.391.391,0,0,0-.391.391v.782a.391.391,0,0,0,.391.391h.782a.391.391,0,0,0,.391-.391v-.782A.391.391,0,0,0,207.174,320Z" transform="translate(-198.965 -307.491)"/><path class="a" d="M392.173,180h-.782a.391.391,0,0,0-.391.391v.782a.391.391,0,0,0,.391.391h.782a.391.391,0,0,0,.391-.391v-.782A.391.391,0,0,0,392.173,180Z" transform="translate(-376.732 -172.964)"/><path class="a" d="M392.173,250h-.782a.391.391,0,0,0-.391.391v.782a.391.391,0,0,0,.391.391h.782a.391.391,0,0,0,.391-.391v-.782A.391.391,0,0,0,392.173,250Z" transform="translate(-376.732 -240.228)"/><path class="a" d="M392.173,320h-.782a.391.391,0,0,0-.391.391v.782a.391.391,0,0,0,.391.391h.782a.391.391,0,0,0,.391-.391v-.782A.391.391,0,0,0,392.173,320Z" transform="translate(-376.732 -307.491)"/><path class="a" d="M322.175,180h-.782a.391.391,0,0,0-.391.391v.782a.391.391,0,0,0,.391.391h.782a.391.391,0,0,0,.391-.391v-.782A.391.391,0,0,0,322.175,180Z" transform="translate(-309.471 -172.964)"/><path class="a" d="M322.175,250h-.782a.391.391,0,0,0-.391.391v.782a.391.391,0,0,0,.391.391h.782a.391.391,0,0,0,.391-.391v-.782A.391.391,0,0,0,322.175,250Z" transform="translate(-309.471 -240.228)"/><path class="a" d="M322.175,320h-.782a.391.391,0,0,0-.391.391v.782a.391.391,0,0,0,.391.391h.782a.391.391,0,0,0,.391-.391v-.782A.391.391,0,0,0,322.175,320Z" transform="translate(-309.471 -307.491)"/></svg>