<svg xmlns="http://www.w3.org/2000/svg" width="18" height="15.112" viewBox="0 0 18 15.112"><defs><style>.a{fill:#ffc917;}</style></defs><g transform="translate(-0.128 -0.332)"><circle class="a" cx="0.5" cy="0.5" r="0.5" transform="translate(8.128 0.332)"/><ellipse class="a" cx="1" cy="0.5" rx="1" ry="0.5" transform="translate(16.128 3.332)"/><circle class="a" cx="0.5" cy="0.5" r="0.5" transform="translate(0.128 3.332)"/><path class="a" d="M9.463,58.37H22.832l1.445-6.506a.741.741,0,0,0-1.134-.777l-3.746,2.5L16.809,48.41a.741.741,0,0,0-1.325,0L12.9,53.585l-3.746-2.5a.741.741,0,0,0-1.134.777Z" transform="translate(-7.251 -45.889)"/><path class="a" d="M24,168v1.481a.741.741,0,0,0,.741.741H36.592a.741.741,0,0,0,.741-.741V168Z" transform="translate(-21.77 -154.778)"/></g></svg>