<svg xmlns="http://www.w3.org/2000/svg" width="84.197" height="75.927" viewBox="0 0 84.197 75.927"><defs><style>.a{stroke:#fff;stroke-width:1.5px;}.b{fill:#d81212;}</style></defs><g transform="translate(-1490.25 -1341.25)"><path class="a" d="M97.319,78.592H86.413L88.939,48.27h1.488a1.378,1.378,0,0,0,1.378-1.378V44.135A4.14,4.14,0,0,0,87.671,40H65.618a4.14,4.14,0,0,0-4.135,4.135v2.757a1.378,1.378,0,0,0,1.378,1.378H64.35l.689,8.27H40.809a1.378,1.378,0,0,0-1.337,1.044L36.715,68.61a1.376,1.376,0,0,0,0,.668l2.328,9.314H28.4a1.378,1.378,0,0,0-1.378,1.378V93.753H17.378A1.378,1.378,0,0,0,16,95.131v17.918a1.378,1.378,0,0,0,1.378,1.378H28.4a1.378,1.378,0,0,0,1.378-1.378v-1.378H58.558a7.47,7.47,0,0,0,3.566-.909l13.494-7.36h21.7a1.378,1.378,0,0,0,1.378-1.378V79.97A1.378,1.378,0,0,0,97.319,78.592ZM95.941,89.618H61.259a6.056,6.056,0,0,0-.49-2.757h8.983a1.378,1.378,0,0,0,1.337-1.044l1.117-4.469H95.941ZM59.8,84.105l-.689-2.757H69.366l-.689,2.757Zm-.314,9.456a6.078,6.078,0,0,0,.924-1.187h8.953l-.689,2.757H59.8l-.377-1.507ZM64.24,44.135a1.38,1.38,0,0,1,1.378-1.378H87.671a1.38,1.38,0,0,1,1.378,1.378v1.378H64.24ZM86.173,48.27l-.23,2.757h-18.6l-.229-2.757Zm-18.6,5.513H85.714L83.646,78.592H72.9l2.328-9.314a1.376,1.376,0,0,0,0-.668L72.469,57.583a1.378,1.378,0,0,0-1.337-1.044H67.805ZM41.885,59.3h28.17l2.067,8.27h-32.3ZM58.34,70.322l-.689,2.757H54.29L53.6,70.322Zm-18.522,0H50.759l1.117,4.469a1.378,1.378,0,0,0,1.337,1.044h5.513a1.378,1.378,0,0,0,1.337-1.044l1.117-4.469H72.123l-2.067,8.27H41.885ZM56.272,81.349l.519,2.075a6.074,6.074,0,0,0-5.319,1.056l-6.607,5.139H29.783v-8.27ZM29.783,95.131V92.375h5.893a7.448,7.448,0,0,0-3.116,5.513H29.783Zm-2.757,16.539h-8.27V96.51h8.27ZM60.8,108.341a4.7,4.7,0,0,1-2.246.573H29.783v-8.27H33.1a2.2,2.2,0,0,0,2.2-2.2,4.7,4.7,0,0,1,4.691-4.691h3.388a1.945,1.945,0,0,0,1.188-.407l8.6-6.691a3.313,3.313,0,0,1,4.376,4.957L49.053,100.1a1.934,1.934,0,0,0,1.368,3.3h19.44Zm-8.4-7.7L57.153,95.9l.237.946a1.378,1.378,0,0,0,1.337,1.044H69.753a1.378,1.378,0,0,0,1.337-1.044l1.117-4.469H95.941v8.27Z" transform="translate(1475 1302)"/><path class="b" d="M.744-.055,38.752.134l.311,1.4-.388,1.614L.819,3.2.4,1.482Z" transform="translate(1511.244 1369.446)"/><path class="b" d="M.3.444,24.509.5l-.241,2.677L.534,3.409Z" transform="translate(1539.252 1352.548)"/></g></svg>