<svg xmlns="http://www.w3.org/2000/svg" width="12.955" height="12.307" viewBox="0 0 12.955 12.307"><defs><style>.a{fill:#010300;}</style></defs><g transform="translate(0 0)"><path class="a" d="M28.11,32H24.618a.846.846,0,0,0-.845.845v3.819a8.335,8.335,0,0,1-1.092-.234.667.667,0,0,0-.779.343.217.217,0,0,0-.017.047l-.049.206a.214.214,0,0,0-.006.05v.507a.9.9,0,0,0,.722.878,3.014,3.014,0,0,0-.722,1.96v.648h-.311a6.1,6.1,0,0,1-.858-3.531l.077-1.239a1.085,1.085,0,0,0,.659-.412h.864a.648.648,0,1,0,0-1.3H21.4a1.985,1.985,0,0,0-.754-.426l-.467-.006h-1.8a.216.216,0,0,0-.216.216V36.1a.216.216,0,0,0,.216.216h1l-1.153,3.46A2.378,2.378,0,0,0,16,42.148a.216.216,0,0,0,.216.216h.711a1.511,1.511,0,1,0,2.9,0h5.308a1.511,1.511,0,1,0,2.9,0h.711a.216.216,0,0,0,.216-.216v-1.08a3.007,3.007,0,0,0-.216-1.122V38.673a.628.628,0,0,0-.628-.628h-.568a.861.861,0,0,0,0-.864h1.2a.216.216,0,0,0,.216-.216V32.845A.846.846,0,0,0,28.11,32Zm-7.36,3.023h1.511a.216.216,0,0,1,0,.432H20.75a.216.216,0,0,1,0-.432Zm-2.159.864v-1.3h1.943a.642.642,0,0,1,.107.009.648.648,0,0,0,0,1.277.642.642,0,0,1-.107.009Zm-.216,7.989a1.079,1.079,0,0,1-.989-1.511h1.978a1.079,1.079,0,0,1-.989,1.511Zm-1.931-1.943a1.943,1.943,0,0,1,3.863,0ZM26.58,43.876a1.079,1.079,0,0,1-.989-1.511h1.978a1.079,1.079,0,0,1-.989,1.511Zm-1.931-1.943a1.943,1.943,0,0,1,3.863,0Zm1.931-2.159a2.378,2.378,0,0,0-2.365,2.159H20.74a2.379,2.379,0,0,0-2.072-2.141l1.158-3.473H20.3l-.074,1.192a6.527,6.527,0,0,0,.985,3.888.216.216,0,0,0,.183.1h.648a.216.216,0,0,0,.216-.216v-.864a2.585,2.585,0,0,1,.877-1.943h1.238s.032.087,1.4,0A2.591,2.591,0,0,1,28.5,40.758,2.373,2.373,0,0,0,26.58,39.773Zm1.532-1.3a.2.2,0,0,1,.2.2V39.2a3.046,3.046,0,0,0-.82-.723Zm.412-1.727H25.932v.432H26.8a.432.432,0,1,1,0,.864H22.725a.463.463,0,0,1-.463-.463V37.1l.036-.153a.235.235,0,0,1,.264-.1,8.767,8.767,0,0,0,2.409.337h.961V36.75h-.961q-.384,0-.766-.035v-3.87a.414.414,0,0,1,.413-.413H28.11a.414.414,0,0,1,.413.413Z" transform="translate(-16 -32)"/></g></svg>