<svg xmlns="http://www.w3.org/2000/svg" width="16.019" height="21.292" viewBox="0 0 16.019 21.292"><defs><style>.a{fill:#fff;}.b{fill:#d81212;}.c{fill:#ebe7f2;}.d,.f{fill:none;}.d{stroke:#d81212;}.e{stroke:none;}</style></defs><path class="a" d="M73.68,28.779a.23.23,0,0,1-.169-.074c-.217-.233-5.314-5.775-5.314-10.722a5.483,5.483,0,1,1,10.965,0c0,4.947-5.1,10.488-5.314,10.722A.23.23,0,0,1,73.68,28.779Zm0-15.817a5.027,5.027,0,0,0-5.022,5.022c0,4.271,4.128,9.2,5.022,10.219.894-1.017,5.022-5.948,5.022-10.219A5.027,5.027,0,0,0,73.68,12.962Z" transform="translate(-65.7 -12.501)"/><g transform="translate(0 11.725)"><path class="b" d="M101.147,179.214c-1.529,0-2.726-.808-2.726-1.839a1.361,1.361,0,0,1,.249-.775.23.23,0,0,1,.381.259.909.909,0,0,0-.169.516c0,.747,1.038,1.379,2.266,1.379s2.266-.631,2.266-1.379a.929.929,0,0,0-.206-.567.23.23,0,0,1,.367-.279,1.4,1.4,0,0,1,.3.846C103.874,178.406,102.676,179.214,101.147,179.214Z" transform="translate(-93.138 -173.052)"/><path class="b" d="M49.115,149.269c-4.416,0-8.009-2.353-8.009-5.245,0-1.7,1.258-3.3,3.364-4.277a.23.23,0,1,1,.194.418c-1.94.9-3.1,2.345-3.1,3.859,0,2.638,3.386,4.784,7.549,4.784s7.549-2.146,7.549-4.784c0-1.528-1.175-2.979-3.143-3.88a.23.23,0,1,1,.192-.419c2.136.979,3.412,2.586,3.412,4.3C57.125,146.916,53.532,149.269,49.115,149.269Z" transform="translate(-41.106 -139.702)"/></g><path class="c" d="M76.263,164.44c-2.9,0-5.253-1.556-5.253-3.468a3.055,3.055,0,0,1,1.671-2.542.23.23,0,1,1,.241.393,2.618,2.618,0,0,0-1.451,2.15c0,1.658,2.15,3.007,4.792,3.007s4.792-1.349,4.792-3.007a2.67,2.67,0,0,0-1.492-2.174.23.23,0,0,1,.237-.4,3.112,3.112,0,0,1,1.716,2.569C81.516,162.884,79.159,164.44,76.263,164.44Z" transform="translate(-68.254 -144.924)"/><g class="d" transform="translate(5.345 3.097)"><ellipse class="e" cx="2.673" cy="2.673" rx="2.673" ry="2.673"/><ellipse class="f" cx="2.673" cy="2.673" rx="2.173" ry="2.173"/></g></svg>