<svg xmlns="http://www.w3.org/2000/svg" width="60.697" height="80.679" viewBox="0 0 60.697 80.679"><defs><style>.a{fill:#263238;}.b{fill:#d81212;}.c{fill:rgba(255,15,15,0.07);}.d,.f{fill:none;}.d{stroke:#d81212;stroke-width:3px;}.e{stroke:none;}</style></defs><path class="a" d="M88.971,74.18a.873.873,0,0,1-.64-.279C87.51,73.017,68.2,52.02,68.2,33.275a20.774,20.774,0,1,1,41.549,0c0,18.745-19.313,39.741-20.135,40.626A.873.873,0,0,1,88.971,74.18Zm0-59.933A19.05,19.05,0,0,0,69.943,33.275c0,16.183,15.642,34.868,19.028,38.722C92.357,68.143,108,49.458,108,33.275A19.05,19.05,0,0,0,88.971,14.247Z" transform="translate(-58.735 -12.501)"/><g transform="translate(0 44.426)"><path class="b" d="M108.752,186.957c-5.793,0-10.331-3.062-10.331-6.97a5.157,5.157,0,0,1,.944-2.938.873.873,0,0,1,1.444.982,3.445,3.445,0,0,0-.641,1.956c0,2.831,3.931,5.224,8.584,5.224s8.584-2.392,8.584-5.224a3.52,3.52,0,0,0-.78-2.148.873.873,0,1,1,1.391-1.056,5.3,5.3,0,0,1,1.135,3.2C119.082,183.9,114.545,186.957,108.752,186.957Z" transform="translate(-78.403 -163.607)"/><path class="b" d="M71.455,175.954c-16.734,0-30.349-8.915-30.349-19.873,0-6.434,4.765-12.493,12.747-16.207a.873.873,0,1,1,.737,1.583c-7.349,3.42-11.737,8.886-11.737,14.624,0,10,12.831,18.127,28.6,18.127s28.6-8.131,28.6-18.127c0-5.79-4.452-11.287-11.909-14.7a.873.873,0,1,1,.727-1.587c8.1,3.708,12.928,9.8,12.928,16.291,0,10.958-13.614,19.873-30.349,19.873Z" transform="translate(-41.106 -139.702)"/></g><path class="c" d="M90.914,181.37c-10.975,0-19.9-5.895-19.9-13.141,0-3.708,2.249-7.129,6.333-9.633a.873.873,0,1,1,.913,1.489c-3.546,2.175-5.5,5.067-5.5,8.145,0,6.283,8.145,11.394,18.158,11.394s18.158-5.111,18.158-11.394c0-3.083-2.06-6.085-5.652-8.237a.873.873,0,0,1,.9-1.5c4.131,2.476,6.5,6.024,6.5,9.735C110.819,175.475,101.889,181.37,90.914,181.37Z" transform="translate(-60.566 -107.424)"/><g class="d" transform="translate(20.254 11.734)"><ellipse class="e" cx="10.127" cy="10.127" rx="10.127" ry="10.127"/><ellipse class="f" cx="10.127" cy="10.127" rx="8.627" ry="8.627"/></g></svg>