<svg fill="#BBB" xmlns="http://www.w3.org/2000/svg" width="8.549" height="12.63" viewBox="0 0 8.549 12.63"><g transform="translate(0 0)"><g transform="translate(0 0)"><path d="M26.275,8A4.226,4.226,0,0,0,22,12.162c0,4.9,3.908,8.249,4.076,8.4a.325.325,0,0,0,.4,0c.168-.15,4.076-3.516,4.076-8.4A4.226,4.226,0,0,0,26.275,8Zm0,11.916c-.794-.751-3.664-3.757-3.664-7.754a3.666,3.666,0,0,1,7.328,0C29.939,16.159,27.069,19.164,26.275,19.916Zm0-10.113a2.4,2.4,0,1,0,2.443,2.4A2.431,2.431,0,0,0,26.275,9.8Zm0,4.207a1.8,1.8,0,1,1,1.832-1.8A1.823,1.823,0,0,1,26.275,14.01Z" transform="translate(-22 -8)"/></g></g></svg>
