<svg xmlns="http://www.w3.org/2000/svg" width="87.958" height="87.939" viewBox="0 0 87.958 87.939"><defs><style>.a{stroke:#fff;}.b{fill:#d81212;}</style></defs><g transform="translate(-0.499 0.42)"><g transform="translate(1 0.08)"><g transform="translate(0)"><path class="a" d="M84.55,30.217a40.555,40.555,0,0,0-37.2-24.344,40.12,40.12,0,0,0-23.069,7.242,4.658,4.658,0,0,1-.106-.942V8.77a1.448,1.448,0,0,0,1.448-1.448v-2.9A4.345,4.345,0,0,0,21.281.08H15.487a4.345,4.345,0,0,0-4.345,4.345v2.9A1.448,1.448,0,0,0,12.591,8.77v3.4a4.2,4.2,0,0,1-2.333,3.857A16,16,0,0,0,1,30.5V79.742a7.023,7.023,0,0,0,6.764,7.242,6.587,6.587,0,0,0,5.3-2.767,6.488,6.488,0,0,0,10.628,0,6.437,6.437,0,0,0,10.219.468A40.555,40.555,0,0,0,84.55,30.217ZM14.039,4.425a1.448,1.448,0,0,1,1.448-1.448h5.794a1.448,1.448,0,0,1,1.448,1.448V5.874h-8.69V4.425ZM3.9,30.5a13.094,13.094,0,0,1,7.572-11.835,7.1,7.1,0,0,0,4.015-6.487V8.77h5.794v3.4a7.1,7.1,0,0,0,4.012,6.485A13.1,13.1,0,0,1,32.868,30.5V36.29H9.694V30.5a1.448,1.448,0,0,0-2.9,0V36.29H3.9Zm0,8.69H6.8v8.69a1.448,1.448,0,0,0,2.9,0v-8.69H32.868V60.913H9.694V53.671a1.448,1.448,0,1,0-2.9,0v7.242H3.9ZM29,84.087a4.127,4.127,0,0,1-3.853-4.345,1.448,1.448,0,1,0-2.9,0,4.131,4.131,0,0,1-3.867,4.345,4.131,4.131,0,0,1-3.867-4.345,1.448,1.448,0,1,0-2.9,0,4.126,4.126,0,0,1-3.853,4.345A4.131,4.131,0,0,1,3.9,79.742V63.809H6.8v7.242a1.448,1.448,0,0,0,2.9,0V63.809H32.868V79.742A4.131,4.131,0,0,1,29,84.087ZM33.828,22.91a16.076,16.076,0,0,0-1.848-2.7A30.087,30.087,0,0,1,45.9,16.066V39.187a1.448,1.448,0,0,0,2.9,0v-23.1a30.235,30.235,0,0,1,18.974,7.869L51.455,40.277A1.448,1.448,0,1,0,53.5,42.325L69.824,26.006A30.253,30.253,0,0,1,77.694,44.98h-23.1a1.448,1.448,0,1,0,0,2.9h23.1a30.253,30.253,0,0,1-7.871,18.974L53.5,50.532a1.448,1.448,0,0,0-2.048,2.048L67.775,68.9A30.235,30.235,0,0,1,48.8,76.771v-23.1a1.448,1.448,0,1,0-2.9,0V76.807a29.866,29.866,0,0,1-10.139-2.271V60.064l7.484-7.484A1.448,1.448,0,0,0,41.2,50.532l-5.436,5.436V47.877H40.11a1.448,1.448,0,1,0,0-2.9H35.765V36.89L41.2,42.326a1.448,1.448,0,0,0,2.048-2.048l-6.97-6.971a5.728,5.728,0,0,0,.934.087A5.794,5.794,0,1,0,33.828,22.91ZM38.986,25.3a2.9,2.9,0,0,1-3.235,4.8,15.783,15.783,0,0,0-.724-4.357A2.9,2.9,0,0,1,38.986,25.3Zm8.366,58.791a37.474,37.474,0,0,1-11.984-2,7.612,7.612,0,0,0,.4-2.349V77.653a33.23,33.23,0,0,0,35.041-7.593,1.213,1.213,0,0,0,.107-.071c.03-.032.042-.074.071-.107a33.251,33.251,0,0,0,0-46.908c-.029-.033-.041-.075-.071-.107a1.243,1.243,0,0,0-.107-.071,33.168,33.168,0,0,0-40.958-4.668,15.856,15.856,0,0,0-3.341-2.1,3.729,3.729,0,0,1-.71-.435A37.246,37.246,0,0,1,47.352,8.77a37.658,37.658,0,1,1,0,75.317Z" transform="translate(-1 -0.08)"/><path class="b" d="M380.833,307.437a4.345,4.345,0,1,0-4.345-4.345A4.345,4.345,0,0,0,380.833,307.437Zm0-5.794a1.448,1.448,0,1,1-1.448,1.448A1.448,1.448,0,0,1,380.833,301.644Z" transform="translate(-312.755 -248.053)"/><path class="b" d="M372.3,205.037a4.345,4.345,0,1,0-4.345-4.345A4.345,4.345,0,0,0,372.3,205.037Zm0-5.794a1.448,1.448,0,1,1-1.448,1.448A1.448,1.448,0,0,1,372.3,199.244Z" transform="translate(-305.67 -163.034)"/><path class="b" d="M304.033,384.237a4.345,4.345,0,1,0-4.345-4.345A4.345,4.345,0,0,0,304.033,384.237Zm0-5.794a1.448,1.448,0,1,1-1.448,1.448A1.448,1.448,0,0,1,304.033,378.443Z" transform="translate(-248.99 -311.817)"/><path class="b" d="M342.991,301.379a1.144,1.144,0,0,0,.262.132,1.024,1.024,0,0,0,.261.087,2.166,2.166,0,0,0,.29.025,1.435,1.435,0,0,0,1.332-2,1.471,1.471,0,0,0-.3-.476c-.072-.058-.145-.116-.232-.174a.824.824,0,0,0-.246-.132.843.843,0,0,0-.277-.085,1.193,1.193,0,0,0-.563,0,.867.867,0,0,0-.261.085,1.144,1.144,0,0,0-.262.132l-.216.174a1.666,1.666,0,0,0-.3.476,1.452,1.452,0,0,0-.116.552,1.52,1.52,0,0,0,.42,1.028Z" transform="translate(-284.415 -248.032)"/><path class="b" d="M309.381,170.758a.925.925,0,0,0-.261.087,1.129,1.129,0,0,0-.262.13l-.216.174a1.674,1.674,0,0,0-.3.478,1.452,1.452,0,0,0-.116.55,1.516,1.516,0,0,0,.42,1.028l.216.174a1.13,1.13,0,0,0,.262.13.919.919,0,0,0,.261.087,1.97,1.97,0,0,0,.29.029,1.434,1.434,0,0,0,1.332-2,1.5,1.5,0,0,0-.3-.478c-.073-.058-.145-.116-.232-.174a.821.821,0,0,0-.246-.13.885.885,0,0,0-.277-.087A1.231,1.231,0,0,0,309.381,170.758Z" transform="translate(-256.076 -141.761)"/><path class="b" d="M233.9,401.569c-.072-.058-.145-.116-.232-.174a.83.83,0,0,0-.246-.132.844.844,0,0,0-.277-.085,1.193,1.193,0,0,0-.563,0,.868.868,0,0,0-.261.085,1.138,1.138,0,0,0-.262.132l-.216.174a1.665,1.665,0,0,0-.3.476,1.45,1.45,0,0,0-.116.548,1.52,1.52,0,0,0,.42,1.028l.216.172a1.145,1.145,0,0,0,.262.132,1.025,1.025,0,0,0,.261.087,2.181,2.181,0,0,0,.29.029,1.435,1.435,0,0,0,1.332-2A1.468,1.468,0,0,0,233.9,401.569Z" transform="translate(-192.311 -333.07)"/><path class="b" d="M233.9,350.369c-.072-.058-.145-.116-.232-.174a.83.83,0,0,0-.246-.132.843.843,0,0,0-.277-.085,1.194,1.194,0,0,0-.563,0,.869.869,0,0,0-.261.085,1.138,1.138,0,0,0-.262.132l-.216.174a1.666,1.666,0,0,0-.3.476,1.45,1.45,0,0,0-.116.548,1.52,1.52,0,0,0,.42,1.028l.216.172a1.145,1.145,0,0,0,.262.132,1.024,1.024,0,0,0,.261.087,2.181,2.181,0,0,0,.29.029,1.435,1.435,0,0,0,1.332-2A1.468,1.468,0,0,0,233.9,350.369Z" transform="translate(-192.311 -290.56)"/><path class="b" d="M300.324,130.713a1.128,1.128,0,0,0,.262.13.925.925,0,0,0,.261.087,1.977,1.977,0,0,0,.29.029,1.434,1.434,0,0,0,1.332-2,1.5,1.5,0,0,0-.3-.478c-.072-.058-.145-.116-.232-.174a.822.822,0,0,0-.246-.13.885.885,0,0,0-.277-.087,1.234,1.234,0,0,0-.563,0,.923.923,0,0,0-.261.087,1.133,1.133,0,0,0-.262.13l-.216.174a1.672,1.672,0,0,0-.3.478,1.452,1.452,0,0,0-.116.55,1.516,1.516,0,0,0,.42,1.028Z" transform="translate(-248.99 -106.337)"/><path class="b" d="M342.991,147.78a1.129,1.129,0,0,0,.262.13.919.919,0,0,0,.261.087,1.973,1.973,0,0,0,.29.029,1.434,1.434,0,0,0,1.332-2,1.5,1.5,0,0,0-.3-.478c-.072-.058-.145-.116-.232-.174a.822.822,0,0,0-.246-.13.885.885,0,0,0-.277-.087,1.233,1.233,0,0,0-.563,0,.925.925,0,0,0-.261.087,1.132,1.132,0,0,0-.262.13l-.216.174a1.674,1.674,0,0,0-.3.478,1.451,1.451,0,0,0-.116.55,1.516,1.516,0,0,0,.42,1.028Z" transform="translate(-284.415 -120.507)"/></g></g></g></svg>