<svg xmlns="http://www.w3.org/2000/svg" xmlns:xlink="http://www.w3.org/1999/xlink" width="22" height="18" viewBox="0 0 22 18">
  <defs>
    <clipPath id="clip-path">
      <rect id="Rectangle_1" data-name="Rectangle 1" width="22" height="18" fill="none"/>
    </clipPath>
    <clipPath id="clip-iPhone_13_12_Pro_1">
      <rect width="22" height="18"/>
    </clipPath>
  </defs>
  <g id="iPhone_13_12_Pro_1" data-name="iPhone 13, 12 Pro – 1" clip-path="url(#clip-iPhone_13_12_Pro_1)">
    <g id="Mask_Group_1" data-name="Mask Group 1" clip-path="url(#clip-path)">
      <path id="Vector" d="M3.226,1.353A3.214,3.214,0,0,1,5.894,0H16.045a3.2,3.2,0,0,1,2.72,1.433l2.822,4.484a2.642,2.642,0,0,1-.4,3.324l-7.841,7.829a3.349,3.349,0,0,1-4.682-.047L.769,8.782a2.639,2.639,0,0,1-.3-3.356Z" transform="translate(0)" fill="#ffd605"/>
    </g>
    <path id="Vector-2" data-name="Vector" d="M1.849,4.491A.967.967,0,0,1,1.158,4.2a1.016,1.016,0,0,1,0-1.414L3.617.293A.962.962,0,0,1,5,.293,1.016,1.016,0,0,1,5,1.707L2.541,4.2A.967.967,0,0,1,1.849,4.491Z" transform="translate(13.128 6.755)" fill="#fff"/>
  </g>
</svg>
