<svg width="8" height="12" viewBox="0 0 8 12" fill="none" xmlns="http://www.w3.org/2000/svg">
<path d="M7.14 6.753L1.658 11.549C1.012 12.115 3.67706e-07 11.655 3.67706e-07 10.796V1.204C-0.000164459 1.01175 0.0550878 0.823537 0.159141 0.661886C0.263194 0.500236 0.411637 0.372005 0.586693 0.292549C0.761749 0.213093 0.955998 0.185781 1.14618 0.213882C1.33636 0.241984 1.51441 0.324309 1.659 0.450998L7.139 5.247C7.24641 5.34086 7.3325 5.45661 7.39148 5.58649C7.45046 5.71636 7.48098 5.85736 7.48098 6C7.48098 6.14264 7.45046 6.28363 7.39148 6.41351C7.3325 6.54338 7.24641 6.65914 7.139 6.753H7.14Z" fill="white"/>
</svg>
