<svg xmlns="http://www.w3.org/2000/svg" width="83.618" height="90.188" viewBox="0 0 83.618 90.188"><defs><style>.a{fill:rgba(255,15,15,0.07);}.b{fill:#d81212;}.c{fill:#263238;}</style></defs><g transform="translate(-29.873 -22.163)"><path class="a" d="M115.948,219.058H54.756a1.065,1.065,0,1,1,0-2.13h61.191a1.065,1.065,0,1,1,0,2.13Z" transform="translate(-13.67 -111.781)"/><path class="a" d="M113.248,96.887H36.5a1.065,1.065,0,1,1,0-2.13h76.746a1.065,1.065,0,0,1,0,2.13Z" transform="translate(-3.193 -41.664)"/><path class="b" d="M106.206,56.006a16.922,16.922,0,1,1,16.922-16.921A16.941,16.941,0,0,1,106.206,56.006Zm0-31.713A14.791,14.791,0,1,0,121,39.084a14.808,14.808,0,0,0-14.791-14.791Z" transform="translate(-34.098 0)"/><g transform="translate(29.873 28.138)"><path class="c" d="M90.349,173.072H93.48v4.543a1.065,1.065,0,0,0,2.13,0v-4.543h3.131a1.065,1.065,0,0,0,1.065-1.065v-4.351a1.065,1.065,0,0,0-1.065-1.065H90.349a1.065,1.065,0,0,0-1.065,1.065v4.351A1.065,1.065,0,0,0,90.349,173.072Zm1.065-4.351h6.262v2.221H91.414Z" transform="translate(-63.971 -111.029)"/><path class="c" d="M142.659,173.072h3.131v4.543a1.065,1.065,0,0,0,2.13,0v-4.543h3.131a1.065,1.065,0,0,0,1.065-1.065v-4.351a1.065,1.065,0,0,0-1.065-1.065h-8.392a1.065,1.065,0,0,0-1.065,1.065v4.351a1.064,1.064,0,0,0,1.065,1.066Zm1.065-4.351h6.262v2.221h-6.262Z" transform="translate(-93.993 -111.029)"/><path class="c" d="M113.342,75.448l-8.789-21.471a6.118,6.118,0,0,0-5.682-3.813H92.228a1.065,1.065,0,1,0,0,2.13h6.644a4,4,0,0,1,3.71,2.49l8.257,20.17H32.525l8.257-20.17a4,4,0,0,1,3.71-2.49h7.565a1.065,1.065,0,0,0,0-2.13H44.492a6.118,6.118,0,0,0-5.682,3.813L30.025,75.44a2.364,2.364,0,0,0-.152.58v7.963a9.216,9.216,0,0,0,10.148,9.166v29.133a6.146,6.146,0,0,0,6.139,6.139H97.2a6.146,6.146,0,0,0,6.139-6.139V93.149a9.216,9.216,0,0,0,10.148-9.166V76.02A2.312,2.312,0,0,0,113.342,75.448ZM95.063,83.983a7.084,7.084,0,0,1-14.167,0v-6.9H95.063Zm-16.3,0a7.083,7.083,0,1,1-14.167,0v-6.9H78.765Zm-16.3,0a7.083,7.083,0,1,1-14.167,0v-6.9H62.468ZM32,83.983v-6.9H46.171v6.9a7.084,7.084,0,0,1-14.167,0Zm69.209,38.3a4.014,4.014,0,0,1-4.009,4.009H46.161a4.014,4.014,0,0,1-4.009-4.009V92.671a9.264,9.264,0,0,0,5.084-4.394,9.208,9.208,0,0,0,16.3,0,9.208,9.208,0,0,0,16.3,0,9.208,9.208,0,0,0,16.3,0,9.261,9.261,0,0,0,5.084,4.394Zm10.148-38.3a7.091,7.091,0,0,1-7.083,7.083h0a7.091,7.091,0,0,1-7.083-7.083v-6.9h14.167Z" transform="translate(-29.873 -44.209)"/><path class="c" d="M117.985,156.777H68.54a1.065,1.065,0,0,0-1.065,1.065v18.613a1.065,1.065,0,0,0,1.065,1.065h49.445a1.065,1.065,0,0,0,1.065-1.065V157.842A1.065,1.065,0,0,0,117.985,156.777ZM116.92,175.39H69.605V158.907H116.92Z" transform="translate(-51.454 -105.397)"/><path d="M3.141,21.38A3.156,3.156,0,0,1,.106,17.423C.11,17.409,4.774,2.8,4.774,2.8A3.8,3.8,0,0,1,9.162.072a15.4,15.4,0,0,1,12.147,12.15,3.8,3.8,0,0,1-2.736,4.391L3.952,21.275a3.2,3.2,0,0,1-.81.105Zm.6-.913h0Zm-2.024-2.6a1.482,1.482,0,0,0,1.793,1.8L18.127,15a2.127,2.127,0,0,0,1.542-2.462A13.813,13.813,0,0,0,8.843,1.711a2.126,2.126,0,0,0-2.459,1.54q-.006.021-.012.042Zm14.724-4.1a.835.835,0,0,0,.66-.979A10.736,10.736,0,0,0,8.633,4.319a.835.835,0,1,0-.319,1.639,9.119,9.119,0,0,1,7.148,7.148.834.834,0,0,0,.979.66Zm-6.674.057a1.044,1.044,0,0,0,0,2.088h0a1.044,1.044,0,0,0,0-2.088h0ZM8.39,8.438a1.044,1.044,0,1,0,0,2.088h0a1.044,1.044,0,1,0,0-2.088Zm3.632,1.921a1.044,1.044,0,0,0,0,2.088h0a1.044,1.044,0,0,0,0-2.088Zm-6.1,4.551a1.044,1.044,0,1,0,0,2.088h0a1.044,1.044,0,0,0,0-2.088Z" transform="translate(32.695 -0.002)"/></g><g transform="translate(50.775 93.658)"><path class="b" d="M132.942,194.438V192.1H148.39v2.343h2.13V191.03a1.065,1.065,0,0,0-1.065-1.065H131.877a1.065,1.065,0,0,0-1.065,1.065v3.408Z" transform="translate(-108.707 -189.965)"/><path class="b" d="M81.061,194.438V192.1H96.509v2.343h2.13V191.03a1.065,1.065,0,0,0-1.065-1.065H80a1.065,1.065,0,0,0-1.065,1.065v3.408Z" transform="translate(-78.931 -189.965)"/></g></g></svg>