<svg xmlns="http://www.w3.org/2000/svg" width="59.265" height="90.268" viewBox="0 0 59.265 90.268"><defs><style>.a{fill:#ffc89f;}.b{fill:#f7b081;}.c{fill:#e7a561;}.d{fill:#e49542;}.e{fill:#dd636e;}.f{fill:#da4a54;}.g{fill:#b7e445;}.h{fill:#9dc63d;}.i{fill:#aa593d;}.j{fill:#c32430;}</style></defs><g transform="translate(0 37.081)"><path class="a" d="M87.924,258.963V211.372a.661.661,0,0,1,1.023-.553l5.887,3.858a.908.908,0,0,0,1,0l6.413-4.2a.908.908,0,0,1,1,0l6.413,4.2a.908.908,0,0,0,1,0l6.413-4.2a.908.908,0,0,1,1,0l6.413,4.2a.908.908,0,0,0,1,0l6.413-4.2a.908.908,0,0,1,1,0l6.413,4.2a.908.908,0,0,0,1,0l5.887-3.858a.661.661,0,0,1,1.023.553v47.591a4.55,4.55,0,0,1-4.55,4.55H92.474a4.55,4.55,0,0,1-4.55-4.55Z" transform="translate(-87.924 -210.326)"/></g><g transform="translate(51.439 37.465)"><path class="b" d="M384.238,214.088v46.667a4.55,4.55,0,0,1-4.55,4.55h3.276a4.55,4.55,0,0,0,4.55-4.55V213.164a.661.661,0,0,0-1.023-.553Z" transform="translate(-379.688 -212.502)"/></g><path class="c" d="M110.643,41.432l6.413-4.2a.908.908,0,0,1,1,0l6.413,4.2a.908.908,0,0,0,1,0l.212-.139c.219-3.668.336-7.336.336-10.871,0-21.947-4.5-30.423-10.05-30.423s-10.05,8.476-10.05,30.423c0,2.838.076,5.762.219,8.7l3.521,2.307a.908.908,0,0,0,1,0Z" transform="translate(-102.737 0)"/><g transform="translate(11.582)"><path class="d" d="M155.258,0a5.187,5.187,0,0,0-1.638.264c4.771,1.578,8.412,10.418,8.412,30.159,0,3.158-.094,6.422-.27,9.7l2,1.312a.908.908,0,0,0,1,0l.212-.139c.219-3.668.336-7.336.336-10.871C165.308,8.476,160.808,0,155.258,0Z" transform="translate(-153.62 0)"/></g><path class="e" d="M221.328,148.1l4.449-2.916a.908.908,0,0,1,1,0l6.413,4.2a.908.908,0,0,0,1,0l6.413-4.2a.908.908,0,0,1,1,0l3.651,2.392a25.047,25.047,0,0,0,1.214-6.336c.45-7.227-6.261-10.18-13.259-10.18s-13.709,2.954-13.259,10.18A24.9,24.9,0,0,0,221.328,148.1Z" transform="translate(-196.642 -107.95)"/><g transform="translate(34.913 23.106)"><path class="f" d="M287.59,131.057c-.549,0-1.1.018-1.638.055,6.37.434,12.036,3.466,11.622,10.125a25.442,25.442,0,0,1-.694,4.529l2.756,1.807a25.048,25.048,0,0,0,1.214-6.336C301.3,134.011,294.589,131.057,287.59,131.057Z" transform="translate(-285.952 -131.057)"/></g><path class="g" d="M252.271,30.45a22.324,22.324,0,0,1-1.985,9.53l-2.741,1.8a.921.921,0,0,1-.467.149.91.91,0,0,1-.529-.149l-2.763-1.809A25.029,25.029,0,0,0,245,33.63c.45-7.225-6.261-10.181-13.259-10.181-6.377,0-12.513,2.456-13.212,8.359q-.027-.665-.027-1.359a10.3,10.3,0,0,1,1.266-4.962,6.425,6.425,0,0,1,2.365-10.206,6.427,6.427,0,0,1,5.823-9.145,6.491,6.491,0,0,1,1.035.084,6.408,6.408,0,0,1,2.127-4.178A6.424,6.424,0,0,1,241.78,6.209a6.429,6.429,0,0,1,4.85,9.073,6.425,6.425,0,0,1,3.364,8.695,10.3,10.3,0,0,1,2.278,6.473Z" transform="translate(-195.19 -0.344)"/><g transform="translate(35.928 0.074)"><path class="h" d="M312.861,30.449a22.323,22.323,0,0,1-1.985,9.53l-2.741,1.8a.921.921,0,0,1-.467.149,29.5,29.5,0,0,0,2.176-9.974,10.3,10.3,0,0,0-2.278-6.472,6.427,6.427,0,0,0-3.364-8.7,6.429,6.429,0,0,0-4.85-9.073,6.432,6.432,0,0,0-7.645-5.669A6.424,6.424,0,0,1,302.37,6.208a6.429,6.429,0,0,1,4.85,9.073,6.425,6.425,0,0,1,3.364,8.695,10.3,10.3,0,0,1,2.278,6.474Z" transform="translate(-291.708 -0.417)"/></g><g transform="translate(8.134 13.866)"><path class="i" d="M148.34,81.38a1.365,1.365,0,1,0,0-2.73h-4.463a1.365,1.365,0,1,0,0,2.73Z" transform="translate(-141.022 -78.65)"/><path class="i" d="M134.06,121.283a1.365,1.365,0,0,0,1.365,1.365h7.443a1.365,1.365,0,0,0,0-2.73h-7.443A1.365,1.365,0,0,0,134.06,121.283Z" transform="translate(-134.06 -112.642)"/><path class="i" d="M135.424,163.915h7.443a1.365,1.365,0,0,0,0-2.73h-7.443a1.365,1.365,0,1,0,0,2.73Z" transform="translate(-134.059 -146.634)"/></g><path class="j" d="M271.343,117.5a1.362,1.362,0,0,0-1.913-.224,4.633,4.633,0,0,1-1.414.66,10.729,10.729,0,0,0-5.444-8.865,1.362,1.362,0,1,0-1.369,2.356,8.07,8.07,0,0,1,4.086,6.517,4.819,4.819,0,0,1-1.455-.668,1.362,1.362,0,1,0-1.69,2.137,7.6,7.6,0,0,0,4.486,1.444h.018a7.6,7.6,0,0,0,4.471-1.444A1.362,1.362,0,0,0,271.343,117.5Z" transform="translate(-230.095 -89.691)"/></svg>