<svg xmlns="http://www.w3.org/2000/svg" xmlns:xlink="http://www.w3.org/1999/xlink" width="94.129" height="94.129" viewBox="0 0 94.129 94.129"><defs><style>.a{clip-path:url(#a);}.b{fill:#939598;}.c{fill:#f1f2f2;}.d{fill:#ffcc4d;}.e{fill:#ffe8b6;}.f{fill:#dd2e44;}.g{fill:#ea596e;}.h{fill:#ffac33;}.i{fill:#99aab5;}</style><clipPath id="a"><path d="M0-47.5H94.129V46.629H0Z" transform="translate(0 47.5)"/></clipPath></defs><g transform="translate(0 0)"><g class="a"><g transform="translate(2.477 37.156)"><path class="b" d="M44.174,12.271c0,13.678-19.963,24.771-44.587,24.771S-45,25.949-45,12.271-25.037-12.5-.413-12.5,44.174-1.408,44.174,12.271" transform="translate(45 12.5)"/></g><g transform="translate(2.477 32.202)"><path class="c" d="M44.174,12.271c0,13.678-19.963,24.771-44.587,24.771S-45,25.949-45,12.271-25.037-12.5-.413-12.5,44.174-1.408,44.174,12.271" transform="translate(45 12.5)"/></g><g transform="translate(10.403 37.157)"><path class="d" d="M36.321,9.339c0,10.409-16.413,18.853-36.661,18.853S-37,19.748-37,9.339-20.587-9.514-.339-9.514,36.321-1.072,36.321,9.339" transform="translate(37 9.514)"/></g><g transform="translate(16.369 42.11)"><path class="e" d="M6.616,13.5a2.477,2.477,0,1,1,0-4.954c4.7,0,7.634-2.688,7.862-4.545.225-1.823-2.378-2.678-3.51-2.96-2.244-.557-3.914.082-5.841.83C2.482,2.893-1.142,4.29-5.043.387A5.483,5.483,0,0,1-6.262-5.838C-4.446-10.22,2.269-13.75,6.616-13.75a2.478,2.478,0,0,1,2.477,2.477A2.478,2.478,0,0,1,6.616-8.8C3.854-8.8-.8-6.074-1.685-3.941c-.183.441-.111.57.144.825C.017-1.56.758-1.759,3.341-2.754A13.707,13.707,0,0,1,12.17-3.767c5.905,1.476,7.6,5.291,7.226,8.37-.538,4.372-5.464,8.9-12.779,8.9" transform="translate(6.74 13.75)"/></g><g transform="translate(42.11 56.972)"><path class="e" d="M1.227,7.363a2.477,2.477,0,0,1,0-4.954c14.112,0,24.357-3.089,30.451-9.182a2.474,2.474,0,0,1,3.5,0,2.474,2.474,0,0,1,0,3.5C28.123,3.786,16.7,7.363,1.227,7.363" transform="translate(1.25 7.5)"/></g><g transform="translate(37.156 39.634)"><path class="e" d="M9.017,11.24a16.26,16.26,0,0,1-3.941-.471C3.731,10.435-.359,9.412-.485,6.1c-.1-2.477,1.637-5.38,14.709-9.8A14.9,14.9,0,0,0,5.676-6.5c-6.225,0-9.405.523-10.634,1.751a2.474,2.474,0,0,1-3.5,0,2.479,2.479,0,0,1,0-3.5c2.366-2.366,6.064-3.2,14.137-3.2,5.935,0,13.369,3.3,14.06,7.562C20-2.248,19.257-.157,16.369.807,9.971,2.939,6.656,4.644,5.22,5.654c.277.1.627.2,1.058.31,8,1.992,18.137-5.861,19.242-7.877a2.478,2.478,0,0,1,2.45-2.106,2.476,2.476,0,0,1,2.477,2.477c0,1.749-1.57,3.862-4.672,6.284-4.32,3.371-10.624,6.495-16.757,6.5" transform="translate(9.186 11.45)"/></g><g transform="translate(20.366 42.11)"><path class="f" d="M24.269,5.522c0,6.156-5.026,13.624-17.339,13.624S-2.979,14.192-22.8,6.76C-31.158,3.624-10.338-5.625,1.975-5.625S24.269-.634,24.269,5.522" transform="translate(24.723 5.625)"/></g><g transform="translate(27.246 50.265)"><path class="g" d="M7.363,5.777A2.477,2.477,0,0,1,5.612,1.549c.7-.756.277-1.174,0-1.452C4.23-1.285.068-1.429-3.915.563A2.479,2.479,0,0,1-7.239-.547a2.479,2.479,0,0,1,1.11-3.324c4.9-2.447,11.7-3.077,15.244.466a5.813,5.813,0,0,1,0,8.457,2.47,2.47,0,0,1-1.751.726" transform="translate(7.501 5.885)"/></g><g transform="translate(39.632 42.11)"><path class="g" d="M6.136,4.909c-5.98,0-9.13-3.148-11.66-5.68a2.474,2.474,0,0,1,0-3.5,2.474,2.474,0,0,1,3.5,0C.342-1.911,2.207-.046,6.136-.046c1.915,0,6.406,0,8.157-1.751a2.474,2.474,0,0,1,3.5,0,2.474,2.474,0,0,1,0,3.5c-3.2,3.2-8.915,3.2-11.66,3.2" transform="translate(6.25 5)"/></g><g transform="translate(49.541 52.018)"><path class="g" d="M1.227,4.909a2.477,2.477,0,0,1,0-4.954c4.575,0,11.266-2.383,13.111-4.228a2.474,2.474,0,0,1,3.5,0,2.474,2.474,0,0,1,0,3.5c-3.2,3.2-11.558,5.68-16.614,5.68" transform="translate(1.25 5)"/></g><g transform="translate(32.202 12.385)"><path class="h" d="M6.136,19.633a2.479,2.479,0,0,1-2.219-1.37C1.445,13.317-3.7,3.022-6.232-17.216a2.474,2.474,0,0,1,2.15-2.764,2.478,2.478,0,0,1,2.764,2.15C1.108,1.566,6,11.347,8.351,16.049a2.476,2.476,0,0,1-2.214,3.584" transform="translate(6.251 20)"/></g><g transform="translate(22.174 7.418)"><path class="i" d="M33.344,11.1-4.407-.052C-12.707-13.2-23.148-11.088-28.893-11.3c-.619-.022-2.029.545-2.063,1.548-.037.971,2.539.835,2.938.85,4.223.154,9.772.436,15.189,6.16-6.584-2.3-16.7-3.77-18.541-3.6-1.135.1-1.239.929.1,1.548,1.1.51,11.325,4.08,16.941,5.8-3.515,1.214-8.137,1.771-15.937-2.13-1.229-.614-2.972-1.484-3.584-.26S-32.593.478-31.37,1.09c5.35,2.675,8.5,5.777,11.947,5.777A22.749,22.749,0,0,0-10.03,4.637a23.015,23.015,0,0,1,2.237-.85c.04.025.069.059.111.082L28.989,20.2c1.2.656,3.894-1.959,4.55-3.161s.694-5.383-.2-5.935" transform="translate(33.967 11.309)"/></g><g transform="translate(27.183 12.386)"><path class="h" d="M3.713,18.406a2.47,2.47,0,0,1-1.751-.726C-1.3,14.423-9.051-4.284,1.779-17.821a2.481,2.481,0,0,1,3.483-.386,2.479,2.479,0,0,1,.386,3.483c-9.039,11.3-1.93,27.156-.183,28.9a2.477,2.477,0,0,1-1.751,4.228" transform="translate(3.783 18.75)"/></g></g></g></svg>