<svg xmlns="http://www.w3.org/2000/svg" width="92.657" height="81.072" viewBox="0 0 92.657 81.072"><defs><style>.a{fill:#e4e7e7;}.b{fill:#b6b9b9;}.c{fill:#ccd0d2;}.d{fill:#26a6d1;}.e{fill:#2295bc;}.f{fill:#419687;}.g{fill:#51bba8;}.h{fill:#c2c5c5;}.i{fill:#e2574c;}.j{fill:#c04a40;}</style></defs><path class="a" d="M27.353,36.476h75.281v75.281H27.353Z" transform="translate(-18.667 -30.685)"/><path class="b" d="M27.353,118.535h75.281v5.791H27.353Z" transform="translate(-18.667 -86.685)"/><path class="c" d="M33.19,18.241h63.5l5.938,5.779h-75.3Z" transform="translate(-18.654 -18.241)"/><path class="d" d="M45.588,161.966H62.961V118.535H45.588Zm23.163,0H86.124V118.535H68.751Zm23.164-43.431v43.431h17.373V118.535Z" transform="translate(-31.111 -86.685)"/><path class="a" d="M92.633,72.477l-9.292-8.666H9.32l-9.3,8.666H0v5.8a2.9,2.9,0,0,0,2.9,2.9H89.758a2.9,2.9,0,0,0,2.9-2.9v-5.8h-.02Z" transform="translate(0 -49.34)"/><path class="e" d="M164.118,227.947h2.9v8.686h-2.9Z" transform="translate(-112 -161.352)"/><path class="e" d="M57.17,191.045v-8.686H45.588v23.163H62.961V191.045Z" transform="translate(-31.111 -130.241)"/><path class="e" d="M118.529,209.711h5.791v14.477h-5.791Z" transform="translate(-80.889 -148.907)"/><path class="e" d="M194.366,182.359v14.477h-2.9v8.686h17.372V182.359Z" transform="translate(-130.667 -130.241)"/><path class="e" d="M45.588,118.535H62.961v5.791H45.588Z" transform="translate(-31.111 -86.685)"/><path class="e" d="M191.471,118.535h17.373v5.791H191.471Z" transform="translate(-130.667 -86.685)"/><path class="e" d="M118.529,118.535H135.9v5.791H118.529Z" transform="translate(-80.889 -86.685)"/><path class="f" d="M26.491,218.829H14.909a5.793,5.793,0,0,0-5.791,5.791v5.791a5.791,5.791,0,0,0,5.791,5.791H26.491a5.789,5.789,0,0,0,5.791-5.791V224.62A5.789,5.789,0,0,0,26.491,218.829Zm63.7,0H78.608a5.793,5.793,0,0,0-5.791,5.791v5.791a5.791,5.791,0,0,0,5.791,5.791H90.19a5.789,5.789,0,0,0,5.791-5.791V224.62A5.789,5.789,0,0,0,90.19,218.829Z" transform="translate(-6.222 -155.13)"/><g transform="translate(5.791 63.699)"><path class="g" d="M233.3,218.829H221.719a5.718,5.718,0,0,0-2.374.521,5.764,5.764,0,0,0-.521,2.374v5.791a5.791,5.791,0,0,0,5.791,5.791H236.2a5.717,5.717,0,0,0,2.374-.521,5.763,5.763,0,0,0,.521-2.374V224.62a5.789,5.789,0,0,0-5.791-5.791Z" transform="translate(-155.125 -218.829)"/><path class="g" d="M32.713,218.829H21.131a5.718,5.718,0,0,0-2.374.521,5.764,5.764,0,0,0-.521,2.374v5.791a5.791,5.791,0,0,0,5.791,5.791H35.609a5.717,5.717,0,0,0,2.374-.521,5.764,5.764,0,0,0,.521-2.374V224.62a5.789,5.789,0,0,0-5.791-5.791Z" transform="translate(-18.236 -218.829)"/></g><path class="h" d="M83.348,63.829H9.314L.023,72.489H0v.026H92.654v-.026h-.02Z" transform="translate(0 -49.352)"/><g transform="translate(0 14.477)"><path class="i" d="M94.072,63.829l-2.9,8.686V81.19h5.791V72.515l2.9-8.686Z" transform="translate(-62.222 -63.829)"/><path class="i" d="M260.64,72.489l-9.286-8.66h-5.168l8.686,8.686V81.19h2.9a2.9,2.9,0,0,0,2.9-2.9V72.515l-.017-.026h-.006Z" transform="translate(-168.006 -63.829)"/><path class="i" d="M209.706,63.829l5.791,8.686V81.19h5.791V72.515L215.5,63.829Z" transform="translate(-143.111 -63.829)"/><path class="i" d="M51.379,63.829l-5.791,8.686V81.19h5.791V72.515l5.791-8.686Z" transform="translate(-31.111 -63.829)"/><path class="i" d="M2.9,81.19h2.9V72.515l8.686-8.686H9.314L.023,72.489H.017L0,72.515v5.774A2.9,2.9,0,0,0,2.9,81.19Z" transform="translate(0 -63.829)"/><path class="i" d="M136.765,63.829h5.791V81.19h-5.791Z" transform="translate(-93.334 -63.829)"/><path class="i" d="M181.921,81.19V72.515l-2.9-8.686h-5.791l2.9,8.686V81.19Z" transform="translate(-118.222 -63.829)"/></g><g transform="translate(14.477 14.477)"><path class="j" d="M51.379,63.829l-5.791,8.686h5.791l5.791-8.686Z" transform="translate(-45.588 -63.829)"/><path class="j" d="M260.633,72.489l-9.286-8.66h-5.172l8.686,8.686h5.791l-.015-.026Z" transform="translate(-182.477 -63.829)"/><path class="j" d="M136.765,63.829h5.791v8.686h-5.791Z" transform="translate(-107.811 -63.829)"/><path class="j" d="M94.072,63.829l-2.9,8.686h5.791l2.9-8.686Z" transform="translate(-76.699 -63.829)"/><path class="j" d="M209.706,63.829l5.791,8.686h5.791L215.5,63.829Z" transform="translate(-157.588 -63.829)"/><path class="j" d="M173.235,63.829l2.9,8.686h5.791l-2.9-8.686Z" transform="translate(-132.699 -63.829)"/></g><path class="j" d="M14.477,63.829H9.314L.023,72.489H.017L0,72.515H5.791Z" transform="translate(0 -49.352)"/></svg>