<svg xmlns="http://www.w3.org/2000/svg" width="58.237" height="90.267" viewBox="0 0 58.237 90.267"><defs><style>.a{fill:#656d78;}.b{fill:#ccd1d9;}.c{fill:#ed5565;}.d{fill:#da4453;}.e{fill:#e6e9ed;}.f{fill:#434a54;}.g{fill:#d3374e;}</style></defs><path class="a" d="M17.471,123.654V120H8.736v3.654A13.109,13.109,0,0,0,0,136.015v49.5a2.911,2.911,0,0,0,2.912,2.912H23.295a2.92,2.92,0,0,0,2.912-2.912v-49.5A13.129,13.129,0,0,0,17.471,123.654Zm0,0" transform="translate(0 -98.161)"/><path class="b" d="M249.456,404.433A1.455,1.455,0,0,1,248,402.977V385.518a1.456,1.456,0,1,1,2.912,0v17.458A1.455,1.455,0,0,1,249.456,404.433Zm0,0" transform="translate(-202.866 -314.167)"/><path class="c" d="M48,0h8.736V7.265H48Zm0,0" transform="translate(-39.264)"/><path class="d" d="M48,39.922h8.736V54.5H48Zm0,0" transform="translate(-39.264 -32.656)"/><path class="e" d="M212.369,224.078l2.912,18.913H192l2.912-18.913Zm0,0" transform="translate(-157.058 -183.298)"/><path class="b" d="M290.818,224.078H287.9l2.912,18.913h2.915Zm0,0" transform="translate(-235.507 -183.298)"/><path class="c" d="M215.281,328h.014a11.647,11.647,0,0,1-23.295.014V328Zm0,0" transform="translate(-157.058 -268.307)"/><path class="d" d="M261.083,328h-2.9a11.641,11.641,0,0,1-10.19,11.547A11.583,11.583,0,0,0,261.1,328Zm0,0" transform="translate(-202.86 -268.307)"/><path class="c" d="M24,291.673V264.016H41.471v27.657Zm0,0" transform="translate(-19.632 -215.967)"/><path class="f" d="M76.349,123.654V120H71.977v5.112a13.128,13.128,0,0,1,8.736,12.36v5.822h0v33.486h0v8.736a2.92,2.92,0,0,1-2.912,2.912h4.372a2.92,2.92,0,0,0,2.912-2.912v-49.5A13.129,13.129,0,0,0,76.349,123.654Zm0,0" transform="translate(-58.877 -98.161)"/><path class="g" d="M71.977,39.922h4.372V54.5H71.977Zm0,0" transform="translate(-58.877 -32.656)"/><g transform="translate(7.274)"><path class="d" d="M71.977,0h4.372V7.265H71.977Zm0,0" transform="translate(-66.151)"/><path class="d" d="M52.368,298.106a2.184,2.184,0,1,1-2.184-2.184A2.181,2.181,0,0,1,52.368,298.106Zm0,0" transform="translate(-46.538 -242.067)"/><path class="d" d="M62.184,316.672A2.184,2.184,0,1,1,60,318.856,2.19,2.19,0,0,1,62.184,316.672Zm0,0" transform="translate(-56.354 -259.04)"/><path class="d" d="M72,298.106a2.184,2.184,0,1,1,2.184,2.184A2.19,2.19,0,0,1,72,298.106Zm0,0" transform="translate(-66.171 -242.067)"/><path class="d" d="M50.163,354.873H41.425a1.456,1.456,0,0,1,0-2.912h8.738a1.456,1.456,0,0,1,0,2.912Zm0,0" transform="translate(-39.969 -287.907)"/><path class="d" d="M60.349,378.881H57.44a1.456,1.456,0,0,1,0-2.912h2.909a1.456,1.456,0,0,1,0,2.912Zm0,0" transform="translate(-53.07 -307.546)"/></g><path class="e" d="M218.9,482.9H201.432a1.456,1.456,0,0,1,0-2.912H218.9a1.456,1.456,0,0,1,0,2.912Zm0,0" transform="translate(-163.583 -392.638)"/></svg>