<svg width="30" height="31" viewBox="0 0 30 31" fill="none" xmlns="http://www.w3.org/2000/svg">
<path fill-rule="evenodd" clip-rule="evenodd" d="M21.065 28.216L23.782 2.53502H24.495L26.923 28.215H21.065V28.216ZM5.227 2.53502H8.312C8.474 3.54502 8.924 4.47502 9.612 5.18402C10.51 6.10902 11.737 6.59702 13.158 6.59702C14.578 6.59702 15.802 6.10902 16.7 5.18502C17.39 4.47602 17.84 3.54702 18.004 2.53502H21.511L18.793 28.215H3.144L5.227 2.53502ZM26.65 1.33302C26.6202 1.05619 26.4883 0.800402 26.2802 0.61552C26.072 0.430638 25.8024 0.329924 25.524 0.333016H16.934C16.624 0.333016 16.327 0.458016 16.114 0.678016C16.0089 0.785248 15.9272 0.913164 15.8742 1.05364C15.8212 1.19412 15.798 1.34408 15.806 1.49402C15.852 2.32902 15.573 3.14202 15.058 3.67102C14.591 4.15302 13.951 4.39602 13.158 4.39602C12.361 4.39602 11.721 4.15202 11.253 3.67102C10.74 3.14202 10.462 2.32902 10.509 1.49502C10.5171 1.34501 10.494 1.19495 10.4412 1.05432C10.3883 0.913691 10.3069 0.785557 10.202 0.678016C10.0951 0.568634 9.96739 0.481758 9.82639 0.422506C9.68538 0.363255 9.53395 0.332827 9.381 0.333016H4.181C3.591 0.333016 3.101 0.775016 3.054 1.34802L0.795003 29.23C0.771003 29.536 0.878003 29.838 1.092 30.064C1.306 30.288 1.607 30.417 1.922 30.417H28.162C28.48 30.417 28.782 30.287 28.997 30.058C29.21 29.829 29.316 29.523 29.287 29.215L26.651 1.33302H26.65Z" fill="#DD0030"/>
</svg>
