<svg width="24" height="24" viewBox="0 0 24 24" fill="none" xmlns="http://www.w3.org/2000/svg">
<g clip-path="url(#clip0_11602_60414)">
<path d="M20.4257 6.89355H13.3048C13.0933 6.89355 12.9219 7.06502 12.9219 7.27652C12.9219 7.48802 13.0933 7.65949 13.3048 7.65949H20.4257C20.6372 7.65949 20.8086 7.48802 20.8086 7.27652C20.8086 7.06502 20.6373 6.89355 20.4257 6.89355Z" fill="#2C7BE5"/>
<path d="M23.2388 9.95747H22.3398V6.12769H22.4675C22.679 6.12769 22.8504 5.95622 22.8504 5.74472C22.8504 5.53322 22.679 5.36175 22.4675 5.36175H21.8145C21.628 2.92116 19.674 0.967125 17.2334 0.780609V0.382969C17.2334 0.171469 17.062 0 16.8504 0C16.6389 0 16.4675 0.171469 16.4675 0.382969V0.780563C14.0269 0.967078 12.0728 2.92111 11.8863 5.3617H11.2334C11.0219 5.3617 10.8505 5.53317 10.8505 5.74467C10.8505 5.95617 11.0219 6.12764 11.2334 6.12764H11.3611V9.95742H8.67922C8.8468 9.73462 8.96708 9.47433 9.02473 9.19148H9.19091C9.40245 9.19148 9.57387 9.02002 9.57387 8.80852C9.57387 8.59702 9.40245 8.42555 9.19091 8.42555H8.67922C8.8468 8.20275 8.96708 7.94245 9.02473 7.65961H9.19091C9.40245 7.65961 9.57387 7.48814 9.57387 7.27664C9.57387 7.06514 9.40245 6.89367 9.19091 6.89367H8.67922C8.8468 6.67088 8.96708 6.41058 9.02473 6.12773H9.19091C9.40245 6.12773 9.57387 5.95627 9.57387 5.74477C9.57387 5.53327 9.40245 5.3618 9.19091 5.3618H8.67922C8.8468 5.139 8.96708 4.8787 9.02473 4.59586H9.19091C9.40245 4.59586 9.57387 4.42439 9.57387 4.21289C9.57387 4.00139 9.40245 3.82992 9.19091 3.82992H1.5313C1.31975 3.82992 1.14833 4.00139 1.14833 4.21289C1.14833 4.42439 1.31975 4.59586 1.5313 4.59586H1.69752C1.75517 4.8787 1.87536 5.13905 2.04303 5.3618H1.5313C1.31975 5.3618 1.14833 5.53327 1.14833 5.74477C1.14833 5.95627 1.31975 6.12773 1.5313 6.12773H1.69752C1.75517 6.41058 1.87536 6.67092 2.04303 6.89367H1.5313C1.31975 6.89367 1.14833 7.06514 1.14833 7.27664C1.14833 7.48814 1.31975 7.65961 1.5313 7.65961H1.69752C1.75517 7.94245 1.87536 8.2028 2.04303 8.42555H1.5313C1.31975 8.42555 1.14833 8.59702 1.14833 8.80852C1.14833 9.02002 1.31975 9.19148 1.5313 9.19148H1.69752C1.75517 9.47433 1.87536 9.73467 2.04303 9.95742H0.759922C0.548375 9.95742 0.376953 10.1289 0.376953 10.3404V13.4042C0.376953 13.6157 0.548375 13.7872 0.759922 13.7872H19.6632C19.8747 13.7872 20.0461 13.6157 20.0461 13.4042C20.0461 13.1927 19.8747 13.0213 19.6632 13.0213H1.14289V10.7234H22.8559V13.0213H21.1951C20.9835 13.0213 20.8121 13.1927 20.8121 13.4042C20.8121 13.6157 20.9835 13.7872 21.1951 13.7872H22.7227V21.6847C22.1461 21.6288 21.8141 21.4457 21.4397 21.2391C20.9654 20.9775 20.4278 20.6808 19.4037 20.6808C18.3796 20.6808 17.842 20.9775 17.3677 21.2391C16.9174 21.4875 16.5285 21.7021 15.7016 21.7021C14.8747 21.7021 14.4858 21.4875 14.0355 21.2391C13.5612 20.9775 13.0236 20.6808 11.9994 20.6808C10.9752 20.6808 10.4376 20.9775 9.96327 21.2391C9.51298 21.4875 9.12401 21.7021 8.29714 21.7021C7.47031 21.7021 7.08134 21.4875 6.63111 21.2391C6.15683 20.9775 5.61927 20.6808 4.59514 20.6808C3.57102 20.6808 3.03341 20.9775 2.55912 21.2391C2.45244 21.2979 2.34917 21.3547 2.24272 21.4073C1.9753 21.5396 1.68823 21.6447 1.27602 21.6847V14.9362C1.27602 14.7247 1.10459 14.5532 0.893047 14.5532C0.6815 14.5532 0.510078 14.7247 0.510078 14.9362V22.0851C0.510078 22.2966 0.6815 22.4681 0.893047 22.4681C1.36625 22.4681 1.73478 22.4044 2.042 22.3104V23.617C2.042 23.8285 2.21342 24 2.42497 24C2.63652 24 2.80794 23.8285 2.80794 23.617V21.9762C2.84886 21.9539 2.88931 21.9317 2.92911 21.9098C3.37939 21.6614 3.76831 21.4468 4.59514 21.4468C5.42197 21.4468 5.81089 21.6614 6.26108 21.9097C6.73536 22.1715 7.27292 22.4681 8.29709 22.4681C9.32131 22.4681 9.85887 22.1715 10.3332 21.9098C10.7835 21.6614 11.1725 21.4468 11.9993 21.4468C12.8262 21.4468 13.2152 21.6614 13.6655 21.9098C14.1398 22.1715 14.6773 22.4681 15.7016 22.4681C16.7257 22.4681 17.2633 22.1715 17.7376 21.9098C18.1879 21.6614 18.5768 21.4468 19.4037 21.4468C20.2305 21.4468 20.6194 21.6614 21.0696 21.9097C21.1094 21.9317 21.1498 21.9539 21.1907 21.9761V23.617C21.1907 23.8285 21.3621 24 21.5737 24C21.7852 24 21.9567 23.8285 21.9567 23.617V22.3104C22.2639 22.4043 22.6324 22.4681 23.1056 22.4681C23.3172 22.4681 23.4886 22.2966 23.4886 22.0851V13.6942C23.57 13.624 23.6217 13.5203 23.6217 13.4043V10.3404C23.6218 10.1289 23.4504 9.95747 23.2388 9.95747ZM7.14833 9.95747H3.57383C3.07456 9.95747 2.64884 9.63727 2.49078 9.19153H8.23138C8.07327 9.63722 7.64755 9.95747 7.14833 9.95747ZM7.14833 8.42555H3.57383C3.07456 8.42555 2.64884 8.10534 2.49078 7.65961H8.23138C8.07327 8.1053 7.64755 8.42555 7.14833 8.42555ZM7.14833 6.89362H3.57383C3.07456 6.89362 2.64884 6.57342 2.49078 6.12769H8.23138C8.07327 6.57337 7.64755 6.89362 7.14833 6.89362ZM7.14833 5.3617H3.57383C3.07456 5.3617 2.64884 5.0415 2.49078 4.59577H8.23138C8.07327 5.0415 7.64755 5.3617 7.14833 5.3617ZM16.8504 1.53192C19.0442 1.53192 20.8508 3.21769 21.045 5.3617H12.6559C12.8501 3.21769 14.6567 1.53192 16.8504 1.53192ZM21.5738 9.95747H12.127V6.12769H21.5738V9.95747Z" fill="#2C7BE5"/>
<path d="M20.9357 17.8724C21.1472 17.8724 21.3187 17.7009 21.3187 17.4894C21.3187 17.2779 21.1472 17.1064 20.9357 17.1064C20.7242 17.1064 20.5527 17.2779 20.5527 17.4894C20.5527 17.7009 20.7242 17.8724 20.9357 17.8724Z" fill="#2C7BE5"/>
<path d="M19.4045 19.4041C19.616 19.4041 19.7874 19.2327 19.7874 19.0212C19.7874 18.8096 19.616 18.6382 19.4045 18.6382C19.1929 18.6382 19.0215 18.8096 19.0215 19.0212C19.0215 19.2327 19.1929 19.4041 19.4045 19.4041Z" fill="#2C7BE5"/>
</g>
<defs>
<clipPath id="clip0_11602_60414">
<rect width="24" height="24" fill="white"/>
</clipPath>
</defs>
</svg>
