<svg width="25" height="25" viewBox="0 0 25 25" fill="none" xmlns="http://www.w3.org/2000/svg">
<g clip-path="url(#clip0_11456_67809)">
<mask id="mask0_11456_67809" style="mask-type:luminance" maskUnits="userSpaceOnUse" x="0" y="0" width="25" height="25">
<path d="M25 0H0V25H25V0Z" fill="white"/>
</mask>
<g mask="url(#mask0_11456_67809)">
<path d="M17.1466 18.713H16.8749V16.6509C16.8756 16.2363 16.7849 15.8265 16.6093 15.4509C16.4337 15.0752 16.1774 14.7429 15.8588 14.4775C15.6712 14.3244 15.4649 14.1956 15.2448 14.0944L15.1932 13.8227L14.7532 11.6493L14.4542 10.1415C14.3567 9.64767 14.0907 9.20297 13.7018 8.88338C13.3129 8.56378 12.825 8.38911 12.3216 8.38919H5.67092C5.16743 8.38912 4.67954 8.56384 4.29056 8.88351C3.90158 9.20318 3.63564 9.64798 3.53817 10.1419L3.23922 11.6492L2.81267 13.8226L2.76107 14.0943C2.53569 14.1979 2.32472 14.3303 2.13347 14.4883C1.81485 14.7537 1.55863 15.086 1.38301 15.4617C1.20739 15.8373 1.11669 16.2471 1.11737 16.6617V18.7129H0.845919C0.810234 18.7129 0.7749 18.7199 0.741932 18.7336C0.708965 18.7472 0.679011 18.7673 0.65378 18.7925C0.62855 18.8177 0.608538 18.8477 0.594886 18.8807C0.581235 18.9136 0.574212 18.949 0.574219 18.9846V20.0713C0.574219 20.1434 0.602844 20.2125 0.653798 20.2635C0.704751 20.3144 0.773859 20.343 0.845919 20.343H2.20422V21.158C2.20422 21.3742 2.29008 21.5815 2.44293 21.7343C2.59577 21.8872 2.80307 21.973 3.01922 21.973H5.19277C5.40892 21.973 5.61622 21.8872 5.76906 21.7343C5.9219 21.5815 6.00777 21.3742 6.00777 21.158V20.343H11.9847V21.158C11.9847 21.3742 12.0706 21.5815 12.2234 21.7343C12.3763 21.8872 12.5836 21.973 12.7997 21.973H14.9732C15.1893 21.973 15.3966 21.8872 15.5495 21.7343C15.7023 21.5815 15.7882 21.3742 15.7882 21.158V20.343H17.1466C17.2186 20.343 17.2877 20.3144 17.3387 20.2635C17.3896 20.2125 17.4183 20.1434 17.4183 20.0713V18.9846C17.4183 18.9126 17.3896 18.8435 17.3387 18.7926C17.2877 18.7416 17.2187 18.713 17.1466 18.713ZM12.3216 8.93254C12.5504 8.933 12.7765 8.98161 12.9853 9.07523C13.1941 9.16884 13.3808 9.30536 13.5333 9.47589H4.45922C4.61174 9.30536 4.79846 9.16884 5.00723 9.07523C5.21599 8.98161 5.44213 8.933 5.67092 8.93254H12.3216ZM4.07072 10.2475C4.08788 10.1702 4.10958 10.094 4.13572 10.0193H13.8566C13.8827 10.094 13.9044 10.1702 13.9216 10.2475L14.6388 13.888C14.4442 13.8458 14.2457 13.824 14.0466 13.823H3.94577C3.74663 13.824 3.54814 13.8458 3.35352 13.888L4.07072 10.2475ZM1.66072 16.6509C1.66034 16.3508 1.71918 16.0535 1.83388 15.7761C1.94857 15.4987 2.11687 15.2466 2.32913 15.0344C2.54139 14.8221 2.79343 14.6538 3.07084 14.5391C3.34824 14.4244 3.64554 14.3656 3.94572 14.3659H14.0467C14.3469 14.3656 14.6442 14.4244 14.9216 14.5391C15.199 14.6538 15.4511 14.8221 15.6633 15.0344C15.8756 15.2466 16.0439 15.4987 16.1586 15.7761C16.2733 16.0535 16.3321 16.3508 16.3317 16.6509V18.713H11.4417V16.268C11.4417 16.0518 11.3559 15.8445 11.203 15.6917C11.0502 15.5389 10.8429 15.453 10.6267 15.453H7.36672C7.15057 15.453 6.94327 15.5389 6.79043 15.6917C6.63758 15.8445 6.55172 16.0518 6.55172 16.268V18.713H1.66172L1.66072 16.6509ZM10.8978 16.5395H7.09427V16.2678C7.09427 16.1958 7.12289 16.1267 7.17385 16.0757C7.2248 16.0248 7.29391 15.9961 7.36597 15.9961H10.626C10.698 15.9961 10.7671 16.0248 10.8181 16.0757C10.869 16.1267 10.8977 16.1958 10.8977 16.2678L10.8978 16.5395ZM7.09427 17.0829H10.8978V17.6262H7.09427V17.0829ZM7.09427 18.1696H10.8978V18.7129H7.09427V18.1696ZM5.46422 21.1581C5.46422 21.1938 5.45719 21.2291 5.44354 21.2621C5.42988 21.295 5.40987 21.325 5.38464 21.3502C5.35941 21.3754 5.32946 21.3955 5.29649 21.4091C5.26353 21.4228 5.2282 21.4298 5.19252 21.4298H3.01922C2.98354 21.4298 2.94821 21.4228 2.91524 21.4091C2.88228 21.3955 2.85233 21.3754 2.8271 21.3502C2.80187 21.325 2.78185 21.295 2.7682 21.2621C2.75455 21.2291 2.74752 21.1938 2.74752 21.1581V20.3431H5.46422V21.1581ZM15.2447 21.1581C15.2447 21.1938 15.2376 21.2291 15.224 21.2621C15.2103 21.295 15.1903 21.325 15.1651 21.3502C15.1399 21.3754 15.1099 21.3955 15.0769 21.4091C15.044 21.4228 15.0086 21.4298 14.973 21.4298H12.7998C12.7641 21.4298 12.7288 21.4228 12.6958 21.4091C12.6628 21.3955 12.6329 21.3754 12.6076 21.3502C12.5824 21.325 12.5624 21.295 12.5488 21.2621C12.5351 21.2291 12.5281 21.1938 12.5281 21.1581V20.3431H15.2449L15.2447 21.1581ZM16.8747 19.7997H1.11757V19.2563H16.8749L16.8747 19.7997Z" fill="#2C7BE5"/>
<path d="M3.77029 16.1723C3.04529 16.1723 2.47559 16.6162 2.47559 17.171C2.47559 17.7259 3.04529 18.1697 3.77029 18.1697C4.49529 18.1697 5.06504 17.7258 5.06504 17.171C5.06504 16.6162 4.49559 16.1723 3.77029 16.1723ZM3.77029 17.7258C3.22464 17.7258 2.84529 17.4329 2.84529 17.1708C2.84529 16.9088 3.22444 16.6158 3.77029 16.6158C4.31614 16.6158 4.69529 16.9088 4.69529 17.1708C4.69529 17.4329 4.32519 17.7258 3.77029 17.7258Z" fill="#2C7BE5"/>
<path d="M14.3827 18.1697C15.0986 18.1697 15.661 17.727 15.661 17.1737C15.661 16.6203 15.0986 16.1777 14.3827 16.1777C13.6669 16.1777 13.1045 16.6204 13.1045 17.1737C13.1045 17.7271 13.6669 18.1697 14.3827 18.1697ZM14.3827 16.6204C14.9306 16.6204 15.2958 16.9125 15.2958 17.1737C15.2958 17.4348 14.9308 17.727 14.3827 17.727C13.8347 17.727 13.4695 17.4349 13.4695 17.1737C13.4695 16.9126 13.844 16.6204 14.3827 16.6204Z" fill="#2C7BE5"/>
<path d="M24.2279 3.13344H21.6851C21.6326 3.13344 21.5823 3.15428 21.5452 3.19137C21.5081 3.22847 21.4873 3.27878 21.4873 3.33124V3.52759L19.8368 3.07354C19.5208 2.98619 19.1835 3.02221 18.8931 3.17429L17.6937 3.80059C17.5337 3.88376 17.3996 4.00932 17.3062 4.16354C17.2127 4.31777 17.1635 4.49472 17.1639 4.67504V5.02464C17.1637 5.13726 17.1976 5.2473 17.261 5.34039C17.2605 5.34229 17.2599 5.34409 17.2594 5.34604L16.9389 6.75549C16.9323 6.78445 16.9323 6.81452 16.9389 6.84347C16.9455 6.87242 16.9586 6.89951 16.9771 6.92272C16.9957 6.94593 17.0192 6.96468 17.0459 6.97756C17.0727 6.99044 17.102 6.99713 17.1317 6.99714C17.1388 6.9971 17.1459 6.99668 17.153 6.99589C17.1248 7.20089 17.0913 7.40484 17.0527 7.60554C16.9084 8.35632 16.8357 9.11911 16.8357 9.88364V10.135C16.7331 10.2086 16.6384 10.2926 16.5531 10.3856L16.3326 10.626L16.1599 10.48C16.1219 10.4479 16.0732 10.4312 16.0235 10.4334C15.9738 10.4355 15.9268 10.4563 15.8917 10.4916L14.3568 12.0377C14.3201 12.0747 15.0539 14.2368 15.0914 14.1952L18.0726 12.3663C18.1018 12.3338 18.1195 12.2926 18.1228 12.2491C18.1261 12.2055 18.1149 12.1621 18.0909 12.1256H20.2467C20.4674 12.126 20.6828 12.0574 20.8625 11.9292L22.2785 10.9242C22.4233 10.8219 22.5214 10.6662 22.5514 10.4914C22.5813 10.3167 22.5407 10.1372 22.4383 9.99241C22.3359 9.84766 22.1802 9.7495 22.0055 9.71954C21.8307 9.68957 21.6512 9.73026 21.5065 9.83264L21.3886 9.91574V9.88359C21.3886 9.11911 21.316 8.35637 21.1717 7.60564C21.1326 7.40224 21.0989 7.19664 21.0707 6.99124C21.0983 6.98905 21.1251 6.98111 21.1494 6.96792C21.1737 6.95473 21.1949 6.93659 21.2118 6.91467C21.2287 6.89275 21.2407 6.86753 21.2472 6.84066C21.2537 6.81378 21.2545 6.78584 21.2496 6.75864L21.036 5.58764H21.4872V5.77334C21.4872 5.8258 21.508 5.87611 21.5451 5.9132C21.5822 5.9503 21.6325 5.97114 21.685 5.97114L24.2278 5.98324C24.254 5.98366 24.28 5.97885 24.3044 5.9691C24.3288 5.95934 24.3509 5.94484 24.3696 5.92644C24.3883 5.90803 24.4032 5.88609 24.4133 5.86188C24.4235 5.83768 24.4287 5.8117 24.4287 5.78546C24.4287 5.75922 24.4235 5.73325 24.4133 5.70904C24.4032 5.68484 24.3883 5.6629 24.3696 5.64449C24.3509 5.62608 24.3288 5.61158 24.3044 5.60183C24.28 5.59208 24.254 5.58727 24.2278 5.58769L21.8828 5.57559V3.52899H24.03V5.77334C24.0296 5.79957 24.0344 5.82563 24.0441 5.84999C24.0539 5.87435 24.0684 5.89653 24.0868 5.91523C24.1052 5.93393 24.1272 5.94879 24.1514 5.95892C24.1756 5.96906 24.2015 5.97428 24.2278 5.97428C24.254 5.97428 24.28 5.96906 24.3042 5.95892C24.3284 5.94879 24.3503 5.93393 24.3688 5.91523C24.3872 5.89653 24.4017 5.87435 24.4114 5.84999C24.4212 5.82563 24.426 5.79957 24.4256 5.77334V3.33124C24.4256 3.27878 24.4047 3.22847 24.3676 3.19137C24.3305 3.15428 24.2802 3.13344 24.2278 3.13344H24.2279ZM15.0914 13.6968L14.6949 12.6454V12.2585L16.0437 10.8998L17.6421 12.2532L15.0914 13.6968ZM21.7344 10.1558C21.7936 10.1151 21.8664 10.0993 21.9371 10.1119C22.0078 10.1245 22.0707 10.1645 22.1121 10.2231C22.1535 10.2818 22.1702 10.3544 22.1585 10.4253C22.1467 10.4961 22.1075 10.5595 22.0494 10.6016L20.6333 11.6066C20.5204 11.6871 20.3851 11.7302 20.2465 11.7299H17.6365L16.6348 10.8818L16.8448 10.653C16.9809 10.5057 17.1459 10.388 17.3295 10.3072C17.5132 10.2264 17.7115 10.1844 17.9121 10.1836H19.2706C19.423 10.1838 19.5713 10.2334 19.6933 10.3248C19.8153 10.4163 19.9044 10.5448 19.9473 10.691H18.5323C18.5061 10.6906 18.48 10.6954 18.4556 10.7052C18.4313 10.7149 18.4091 10.7294 18.3904 10.7478C18.3717 10.7662 18.3569 10.7882 18.3467 10.8124C18.3366 10.8366 18.3314 10.8626 18.3314 10.8888C18.3314 10.9151 18.3366 10.941 18.3467 10.9652C18.3569 10.9894 18.3717 11.0114 18.3904 11.0298C18.4091 11.0482 18.4313 11.0627 18.4556 11.0724C18.48 11.0822 18.5061 11.087 18.5323 11.0866H20.1737C20.2657 11.0866 20.3864 11.1066 20.4657 11.0504L21.3049 10.4588L21.3053 10.4585L21.7344 10.1558ZM20.3455 10.6511C20.291 10.4065 20.1549 10.1878 19.9595 10.0309C19.764 9.87405 19.521 9.78842 19.2705 9.78814H17.9119C17.6788 9.78829 17.4479 9.83248 17.2313 9.91839V9.88339C17.2312 9.14395 17.3014 8.40619 17.441 7.68004C17.4949 7.39939 17.5394 7.11259 17.5735 6.82584C18.0691 6.66432 18.5877 6.58442 19.1089 6.58929C19.1206 6.58929 19.9512 6.58734 20.6515 6.83554C20.6852 7.11714 20.7293 7.40054 20.7829 7.68019C20.9225 8.40628 20.9929 9.14399 20.9929 9.88339V10.1944L20.3455 10.6511ZM20.7941 6.46644C20.2521 6.2781 19.6813 6.18588 19.1075 6.19394C18.5306 6.18582 17.9567 6.27716 17.4109 6.46394L17.6102 5.58779H20.634L20.7941 6.46644ZM18.9236 5.19209C18.8563 5.19209 18.7918 5.16536 18.7442 5.11778C18.6966 5.0702 18.6699 5.00567 18.6699 4.93839C18.6699 4.8711 18.6966 4.80657 18.7442 4.759C18.7918 4.71142 18.8563 4.68469 18.9236 4.68469H20.0974C20.1493 4.68386 20.1988 4.66266 20.2352 4.62566C20.2716 4.58866 20.292 4.53883 20.292 4.48691C20.292 4.435 20.2716 4.38516 20.2352 4.34816C20.1988 4.31116 20.1493 4.28996 20.0974 4.28914H18.9236C18.8163 4.28912 18.7108 4.31568 18.6163 4.36644C18.5218 4.4172 18.4413 4.49058 18.3822 4.58002C18.323 4.66946 18.2868 4.77217 18.277 4.87898C18.2672 4.98579 18.284 5.09336 18.326 5.19209H17.7271C17.6826 5.19204 17.64 5.17436 17.6086 5.14294C17.5772 5.11152 17.5595 5.06892 17.5595 5.02449V4.67504C17.5592 4.56705 17.5887 4.46107 17.6447 4.36871C17.7007 4.27635 17.7809 4.20115 17.8768 4.15134L19.076 3.52504C19.2779 3.42007 19.5121 3.39508 19.7317 3.45504L21.4871 3.93799V5.19209H18.9236Z" fill="#2C7BE5"/>
<path d="M20.306 8.62255H20.2353C20.1942 8.38866 20.0821 8.1731 19.9141 8.00518C19.7462 7.83726 19.5307 7.72512 19.2968 7.684V7.54045C19.2959 7.48854 19.2747 7.43904 19.2377 7.40262C19.2007 7.3662 19.1509 7.34579 19.099 7.34579C19.0471 7.34579 18.9972 7.3662 18.9602 7.40262C18.9232 7.43904 18.902 7.48854 18.9012 7.54045V7.684C18.6673 7.72512 18.4518 7.83726 18.2839 8.00518C18.1159 8.1731 18.0038 8.38866 17.9627 8.62255H17.8919C17.84 8.62338 17.7905 8.64458 17.7541 8.68158C17.7177 8.71858 17.6973 8.76841 17.6973 8.82033C17.6973 8.87224 17.7177 8.92207 17.7541 8.95907C17.7905 8.99607 17.84 9.01727 17.8919 9.0181H20.306C20.3579 9.01727 20.4074 8.99607 20.4438 8.95907C20.4802 8.92207 20.5006 8.87224 20.5006 8.82033C20.5006 8.76841 20.4802 8.71858 20.4438 8.68158C20.4074 8.64458 20.3579 8.62338 20.306 8.62255H20.306ZM18.3671 8.62255C18.4106 8.46173 18.5058 8.31971 18.6381 8.21845C18.7704 8.11719 18.9324 8.06231 19.099 8.06231C19.2656 8.06231 19.4275 8.11719 19.5598 8.21845C19.6921 8.31971 19.7874 8.46173 19.8309 8.62255H18.3671Z" fill="#2C7BE5"/>
</g>
</g>
<defs>
<clipPath id="clip0_11456_67809">
<rect width="25" height="25" fill="white"/>
</clipPath>
</defs>
</svg>
