<svg width="21" height="21" viewBox="0 0 21 21" fill="none" xmlns="http://www.w3.org/2000/svg">
<g clip-path="url(#clip0_11706_62033)">
<path d="M15.7498 17.0625C15.7498 17.1495 15.7844 17.233 15.8459 17.2945C15.9075 17.3561 15.9909 17.3906 16.078 17.3906H16.4061V18.1722L15.9313 18.4095L16.2246 18.9968L16.7342 18.7418L17.2438 18.9968L17.5371 18.4095L17.0623 18.1722V17.3906H17.3905C17.4775 17.3906 17.5609 17.3561 17.6225 17.2945C17.684 17.233 17.7186 17.1495 17.7186 17.0625C17.7346 16.6065 17.7934 16.153 17.8941 15.708C18.0001 15.508 18.0526 15.284 18.0464 15.0577C18.0402 14.8314 17.9756 14.6106 17.8589 14.4167C17.7422 14.2228 17.5773 14.0623 17.3803 13.9509C17.1832 13.8395 16.9607 13.781 16.7344 13.781C16.508 13.781 16.2855 13.8395 16.0885 13.9509C15.8914 14.0623 15.7265 14.2228 15.6098 14.4167C15.4931 14.6106 15.4285 14.8314 15.4224 15.0577C15.4162 15.284 15.4686 15.508 15.5746 15.708C15.6752 16.153 15.7339 16.6065 15.7498 17.0625ZM16.7342 14.4375C16.8498 14.4374 16.9634 14.4679 17.0634 14.5258C17.1634 14.5837 17.2464 14.667 17.3039 14.7672C17.3614 14.8675 17.3914 14.9812 17.3909 15.0968C17.3904 15.2124 17.3593 15.3258 17.3009 15.4255C17.2833 15.4551 17.2705 15.4873 17.2631 15.521C17.174 15.921 17.1122 16.3266 17.0784 16.735H16.3894C16.3555 16.3266 16.2938 15.921 16.2046 15.521C16.1974 15.4871 16.1846 15.4546 16.1669 15.4248C16.1086 15.3251 16.0777 15.2117 16.0773 15.0961C16.0768 14.9806 16.1069 14.867 16.1645 14.7668C16.2221 14.6666 16.3051 14.5834 16.4051 14.5256C16.5051 14.4678 16.6187 14.4374 16.7342 14.4375Z" fill="#2C7BE5"/>
<path d="M20.6391 12.6502L20.0156 11.4069V9.84375C20.0156 9.75673 19.9811 9.67327 19.9195 9.61173C19.858 9.55019 19.7745 9.51562 19.6875 9.51562H13.7813C13.6942 9.51562 13.6108 9.55019 13.5492 9.61173C13.4877 9.67327 13.4531 9.75673 13.4531 9.84375V11.4069L12.8297 12.6502H12.833C12.8095 12.6955 12.7971 12.7458 12.7969 12.7969V13.1631C12.697 13.1147 12.5938 13.0734 12.4881 13.0397L10.2096 12.3375C10.6731 11.9397 11.0524 11.4531 11.3251 10.9065C11.5978 10.3599 11.7584 9.76428 11.7974 9.15469C12.1687 9.08114 12.5031 8.8815 12.744 8.5896C12.9848 8.2977 13.1174 7.9315 13.1192 7.55304C13.121 7.17459 12.9918 6.80716 12.7537 6.51301C12.5156 6.21886 12.1831 6.0161 11.8125 5.93906V3.9375C11.8114 2.98058 11.4308 2.06318 10.7541 1.38653C10.0775 0.709889 9.16006 0.329254 8.20314 0.328125H6.23439C5.27747 0.329254 4.36007 0.709889 3.68342 1.38653C3.00678 2.06318 2.62614 2.98058 2.62502 3.9375V5.93906C2.25448 6.0161 1.92197 6.21886 1.68383 6.51301C1.44569 6.80716 1.31657 7.17459 1.31834 7.55304C1.32012 7.9315 1.45269 8.2977 1.69358 8.5896C1.93447 8.8815 2.26886 9.08114 2.64011 9.15469C2.67918 9.76428 2.83978 10.3599 3.11246 10.9065C3.38514 11.4531 3.7644 11.9396 4.22791 12.3375L1.94941 13.0397C1.47899 13.1827 1.06721 13.4736 0.775161 13.8691C0.483112 14.2647 0.326353 14.7438 0.32814 15.2355V20.3438C0.32814 20.4308 0.36271 20.5142 0.424246 20.5758C0.485781 20.6373 0.569241 20.6719 0.656265 20.6719H20.3438C20.4308 20.6719 20.5142 20.6373 20.5758 20.5758C20.6373 20.5142 20.6719 20.4308 20.6719 20.3438V12.7969C20.6724 12.7461 20.6612 12.6959 20.6391 12.6502ZM19.4847 11.8125L19.8129 12.4688H13.6559L13.984 11.8125H19.4847ZM19.3594 10.1719V11.1562H14.1094V10.1719H19.3594ZM4.90056 12.8185C5.60247 13.234 6.40313 13.4531 7.21877 13.4531C8.0344 13.4531 8.83506 13.234 9.53697 12.8185L9.56978 12.829C9.32524 13.2305 8.97909 13.5602 8.56628 13.7851C8.15348 14.0099 7.68865 14.1217 7.21877 14.1094C6.74878 14.122 6.28379 14.0103 5.8708 13.7856C5.45781 13.5609 5.11147 13.2311 4.86677 12.8297L4.90056 12.8185ZM10.9535 5.25L10.7159 5.7248C10.6889 5.77944 10.647 5.8254 10.5952 5.85747C10.5433 5.88955 10.4835 5.90645 10.4226 5.90625H4.01495C3.95398 5.90645 3.89418 5.88955 3.84233 5.85747C3.79048 5.8254 3.74866 5.77944 3.72161 5.7248L3.48405 5.25H10.9535ZM5.27955 4.59375C5.35667 4.1352 5.59379 3.71881 5.94881 3.41851C6.30382 3.11821 6.75377 2.95344 7.21877 2.95344C7.68376 2.95344 8.13371 3.11821 8.48872 3.41851C8.84374 3.71881 9.08086 4.1352 9.15798 4.59375H5.27955ZM3.28127 6.23438C3.37332 6.33795 3.48633 6.42076 3.61282 6.47733C3.73932 6.5339 3.87639 6.56293 4.01495 6.5625H10.4226C10.5611 6.56293 10.6982 6.5339 10.8247 6.47733C10.9512 6.42076 11.0642 6.33795 11.1563 6.23438V8.53125H9.42672C9.30814 8.53144 9.19051 8.5101 9.07956 8.46825L7.73786 7.96327C7.39672 7.85053 7.02815 7.85191 6.68786 7.9672L5.35797 8.46825C5.24702 8.5101 5.12939 8.53144 5.01081 8.53125H3.28127V6.23438ZM12.4661 7.54688C12.4656 7.74933 12.4025 7.94666 12.2855 8.11188C12.1685 8.2771 12.0033 8.40214 11.8125 8.46989V6.62386C12.0033 6.69161 12.1685 6.81665 12.2855 6.98187C12.4025 7.14709 12.4656 7.34442 12.4661 7.54688ZM3.28127 3.9375C3.28213 3.15455 3.59354 2.40391 4.14717 1.85028C4.7008 1.29665 5.45144 0.985243 6.23439 0.984375H8.20314C8.98609 0.985243 9.73673 1.29665 10.2904 1.85028C10.844 2.40391 11.1554 3.15455 11.1563 3.9375V4.59375H9.82112C9.74167 3.95959 9.4334 3.37626 8.9542 2.95336C8.47501 2.53045 7.85788 2.29708 7.21877 2.29708C6.57965 2.29708 5.96252 2.53045 5.48333 2.95336C5.00414 3.37626 4.69586 3.95959 4.61641 4.59375H3.28127V3.9375ZM1.96614 7.54688C1.96675 7.34351 2.03046 7.14535 2.14847 6.97973C2.26649 6.81411 2.43299 6.68919 2.62502 6.62222V8.47153C2.43299 8.40456 2.26649 8.27964 2.14847 8.11402C2.03046 7.9484 1.96675 7.75024 1.96614 7.54688ZM3.298 9.1875H5.01081C5.20842 9.18766 5.40442 9.15197 5.5893 9.08217L6.9077 8.58539C7.10567 8.51939 7.31947 8.51789 7.51834 8.58113L8.84791 9.08217C9.0329 9.15195 9.229 9.18763 9.42672 9.1875H11.1395C11.0589 10.172 10.6109 11.0902 9.88441 11.7596C9.15796 12.429 8.20627 12.8006 7.21844 12.8006C6.2306 12.8006 5.27891 12.429 4.55246 11.7596C3.82601 11.0902 3.37797 10.172 3.29734 9.1875H3.298ZM0.98439 15.2355C0.983047 14.8843 1.09498 14.542 1.30358 14.2595C1.51218 13.9769 1.80632 13.7692 2.14234 13.6671L4.22823 13.0266C4.51767 13.5642 4.95025 14.0112 5.47807 14.3181C6.00589 14.6251 6.60836 14.78 7.21877 14.7656C7.82917 14.78 8.43164 14.6251 8.95946 14.3181C9.48728 14.0112 9.91986 13.5642 10.2093 13.0266L12.2949 13.6677C12.4765 13.7267 12.6465 13.8171 12.7969 13.9348V20.0156H11.8125V16.4062H11.1563V20.0156H3.28127V16.4062H2.62502V20.0156H0.98439V15.2355ZM20.0156 20.0156H13.4531V13.125H20.0156V20.0156Z" fill="#2C7BE5"/>
</g>
<defs>
<clipPath id="clip0_11706_62033">
<rect width="21" height="21" fill="white"/>
</clipPath>
</defs>
</svg>
