<svg xmlns="http://www.w3.org/2000/svg" width="327.912" height="268.953" viewBox="0 0 327.912 268.953"><defs><style>.a{fill:#ebebeb;}.b{fill:#e0e0e0;}.c{fill:#f5f5f5;}.d{fill:#eb2504;}.e{fill:#263238;}.f{fill:#ffbe9d;}.g{opacity:0.2;}.h{fill:#fafafa;}.i{fill:#455a64;}.j{opacity:0.4;}.k{opacity:0.6;}.l{opacity:0.3;}.m{fill:#eb996e;}</style></defs><g transform="translate(10141.207 -6782.621)"><g transform="translate(-10236.295 6782.621)"><path class="a" d="M364,95.935a9.1,9.1,0,0,1-3.743,0A9.1,9.1,0,0,1,364,95.935Z" transform="translate(-184.761 -95.74)"/><path class="a" d="M374,95.935a9.1,9.1,0,0,1-3.743,0A9.1,9.1,0,0,1,374,95.935Z" transform="translate(-187.665 -95.74)"/><path class="a" d="M384,95.935a9.1,9.1,0,0,1-3.743,0A9.1,9.1,0,0,1,384,95.935Z" transform="translate(-190.57 -95.74)"/><path class="a" d="M394,95.935a9.1,9.1,0,0,1-3.743,0A9.1,9.1,0,0,1,394,95.935Z" transform="translate(-193.474 -95.74)"/><path class="a" d="M404,95.935a9.1,9.1,0,0,1-3.743,0,9.1,9.1,0,0,1,3.743,0Z" transform="translate(-196.379 -95.74)"/><path class="a" d="M414,95.935a9.1,9.1,0,0,1-3.743,0A9.1,9.1,0,0,1,414,95.935Z" transform="translate(-199.283 -95.74)"/><path class="a" d="M424,95.935a9.1,9.1,0,0,1-3.743,0A9.1,9.1,0,0,1,424,95.935Z" transform="translate(-202.188 -95.74)"/><path class="a" d="M434,95.935a9.1,9.1,0,0,1-3.743,0,9.1,9.1,0,0,1,3.743,0Z" transform="translate(-205.093 -95.74)"/><path class="a" d="M444,95.935a9.1,9.1,0,0,1-3.743,0A9.1,9.1,0,0,1,444,95.935Z" transform="translate(-207.997 -95.74)"/><path class="a" d="M454,95.935a9.1,9.1,0,0,1-3.743,0A9.1,9.1,0,0,1,454,95.935Z" transform="translate(-210.902 -95.74)"/><path class="a" d="M464,95.935a9.1,9.1,0,0,1-3.743,0A9.1,9.1,0,0,1,464,95.935Z" transform="translate(-213.806 -95.74)"/><path class="a" d="M474,95.935a9.1,9.1,0,0,1-3.743,0A9.1,9.1,0,0,1,474,95.935Z" transform="translate(-216.711 -95.74)"/><path class="a" d="M484,95.935a9.1,9.1,0,0,1-3.743,0,9.1,9.1,0,0,1,3.743,0Z" transform="translate(-219.615 -95.74)"/><path class="a" d="M494,95.935a9.1,9.1,0,0,1-3.743,0A9.1,9.1,0,0,1,494,95.935Z" transform="translate(-222.52 -95.74)"/><path class="a" d="M504,95.935a9.1,9.1,0,0,1-3.743,0A9.1,9.1,0,0,1,504,95.935Z" transform="translate(-225.424 -95.74)"/><path class="a" d="M514,95.935a9.1,9.1,0,0,1-3.743,0A9.1,9.1,0,0,1,514,95.935Z" transform="translate(-228.329 -95.74)"/><path class="a" d="M524,95.935a9.1,9.1,0,0,1-3.743,0A9.1,9.1,0,0,1,524,95.935Z" transform="translate(-231.233 -95.74)"/><path class="a" d="M534,95.935a9.1,9.1,0,0,1-3.743,0A9.1,9.1,0,0,1,534,95.935Z" transform="translate(-234.138 -95.74)"/><path class="a" d="M544,95.935a9.1,9.1,0,0,1-3.743,0A9.1,9.1,0,0,1,544,95.935Z" transform="translate(-237.042 -95.74)"/><path class="a" d="M554,95.935a9.1,9.1,0,0,1-3.743,0A9.1,9.1,0,0,1,554,95.935Z" transform="translate(-239.947 -95.74)"/><path class="a" d="M564,95.935a9.1,9.1,0,0,1-3.743,0A9.1,9.1,0,0,1,564,95.935Z" transform="translate(-242.852 -95.74)"/><path class="a" d="M574,95.935a9.1,9.1,0,0,1-3.743,0A9.1,9.1,0,0,1,574,95.935Z" transform="translate(-245.756 -95.74)"/><path class="a" d="M584,95.935a9.1,9.1,0,0,1-3.743,0A9.1,9.1,0,0,1,584,95.935Z" transform="translate(-248.661 -95.74)"/><path class="a" d="M587.747,102.153a9.1,9.1,0,0,1,0-3.743,9.09,9.09,0,0,1,0,3.743Z" transform="translate(-250.635 -96.411)"/><path class="a" d="M587.747,112.153a9.1,9.1,0,0,1,0-3.743,9.09,9.09,0,0,1,0,3.743Z" transform="translate(-250.635 -98.925)"/><path class="a" d="M587.747,122.153a9.1,9.1,0,0,1,0-3.743,9.09,9.09,0,0,1,0,3.743Z" transform="translate(-250.635 -101.438)"/><path class="a" d="M587.755,132.153a9.094,9.094,0,0,1,0-3.743A9.1,9.1,0,0,1,587.755,132.153Z" transform="translate(-250.641 -103.952)"/><path class="a" d="M587.755,142.153a9.094,9.094,0,0,1,0-3.743,9.1,9.1,0,0,1,0,3.743Z" transform="translate(-250.641 -106.465)"/><path class="a" d="M589.21,150.693c0,.1-.621.172-1.46.195h-.187v-.606a4.723,4.723,0,0,1,.195-1.872,4.575,4.575,0,0,1,.195,1.872v.412l-.195-.187a3.474,3.474,0,0,1,1.452.187Z" transform="translate(-250.689 -108.978)"/><path class="a" d="M598.513,151.395a9.1,9.1,0,0,1-3.743,0,9.1,9.1,0,0,1,3.743,0Z" transform="translate(-257.139 -109.68)"/><path class="a" d="M608.513,151.395a9.1,9.1,0,0,1-3.743,0A9.1,9.1,0,0,1,608.513,151.395Z" transform="translate(-259.652 -109.68)"/><path class="a" d="M618.513,151.395a9.1,9.1,0,0,1-3.743,0,9.1,9.1,0,0,1,3.743,0Z" transform="translate(-262.166 -109.68)"/><path class="a" d="M628.513,151.395a9.1,9.1,0,0,1-3.743,0,9.1,9.1,0,0,1,3.743,0Z" transform="translate(-264.679 -109.68)"/><path class="a" d="M638.513,151.395a9.1,9.1,0,0,1-3.743,0,9.1,9.1,0,0,1,3.743,0Z" transform="translate(-267.193 -109.68)"/><path class="a" d="M648.513,151.395a9.1,9.1,0,0,1-3.743,0,9.1,9.1,0,0,1,3.743,0Z" transform="translate(-269.706 -109.68)"/><path class="a" d="M658.513,151.395a9.1,9.1,0,0,1-3.743,0A9.1,9.1,0,0,1,658.513,151.395Z" transform="translate(-272.22 -109.68)"/><path class="a" d="M668.513,151.395a9.1,9.1,0,0,1-3.743,0,9.1,9.1,0,0,1,3.743,0Z" transform="translate(-274.733 -109.68)"/><path class="a" d="M673.595,156.323a9.1,9.1,0,0,1,0-3.743,9.1,9.1,0,0,1,0,3.743Z" transform="translate(-276.902 -110.027)"/><path class="a" d="M673.595,166.323a9.1,9.1,0,0,1,0-3.743A9.1,9.1,0,0,1,673.595,166.323Z" transform="translate(-276.902 -112.54)"/><path class="a" d="M673.595,176.323a9.1,9.1,0,0,1,0-3.743A9.1,9.1,0,0,1,673.595,176.323Z" transform="translate(-276.902 -116.545)"/><path class="a" d="M673.595,186.323a9.1,9.1,0,0,1,0-3.743A9.1,9.1,0,0,1,673.595,186.323Z" transform="translate(-276.902 -119.253)"/><path class="a" d="M673.595,196.323a9.1,9.1,0,0,1,0-3.743A9.1,9.1,0,0,1,673.595,196.323Z" transform="translate(-276.902 -121.961)"/><path class="a" d="M673.595,206.323a9.1,9.1,0,0,1,0-3.743A9.1,9.1,0,0,1,673.595,206.323Z" transform="translate(-276.902 -124.668)"/><path class="a" d="M673.595,216.323a9.1,9.1,0,0,1,0-3.743A9.1,9.1,0,0,1,673.595,216.323Z" transform="translate(-276.902 -127.376)"/><path class="a" d="M673.595,226.323a9.1,9.1,0,0,1,0-3.743A9.1,9.1,0,0,1,673.595,226.323Z" transform="translate(-276.902 -130.084)"/><path class="a" d="M673.595,236.323a9.1,9.1,0,0,1,0-3.743,9.1,9.1,0,0,1,0,3.743Z" transform="translate(-276.902 -132.791)"/><path class="a" d="M673.595,246.323a9.1,9.1,0,0,1,0-3.743A9.1,9.1,0,0,1,673.595,246.323Z" transform="translate(-276.902 -135.499)"/><path class="a" d="M673.595,256.323a9.1,9.1,0,0,1,0-3.743A9.1,9.1,0,0,1,673.595,256.323Z" transform="translate(-276.902 -138.206)"/><path class="a" d="M396.993,112.89s-5.81-3.219-11.507,10.526-7.644,21.561-7.644,21.561-1.565,2.912-3.608,1.25-5.053-6.588-8.235-5.413c-3.279,1.228-4.088,5.053-2.995,10.481s2.995,17.466,3.152,18.552-.329,2.7-1.9,1.789-10.915-9.792-14.868-5.113,1.5,19.375,2.1,20.962.3,2.343-.449,2.815-3.616-2.815-6.371-5.241-6.386-4.739-8.445-1.849-1.894,14.224,10.279,31.69l6.161,7.726L362.5,221.3c20.88-4.118,28.861-12.158,29.392-15.669s-3.683-4.267-7.352-4.4-8,.2-8.235-.659.1-1.572,1.632-2.343,15.669-7.531,16.081-13.648-12.488-6.206-14.224-6.648-.988-1.954-.127-2.605,10.6-7.988,15.153-11.162,6.633-6.491,5.121-9.65c-1.452-3.04-7.037-1.587-9.665-1.812s-1.729-3.4-1.729-3.4,4.028-6.985,9.47-20.828S396.88,112.9,396.88,112.9" transform="translate(-178.892 -99.968)"/><path class="b" d="M359,224.963c4.035-10.152,9.732-24.129,16.081-39.551s12.068-29.377,16.163-39.506c2.036-5.053,3.683-9.149,4.836-11.978l1.318-3.257c.15-.359.262-.644.352-.846a3.056,3.056,0,0,1,.127-.284.763.763,0,0,1-.1.3c-.1.195-.18.487-.322.853-.292.749-.711,1.872-1.258,3.287-1.1,2.852-2.718,6.962-4.739,12.038-4.035,10.152-9.733,24.129-16.074,39.544s-12.068,29.385-16.163,39.514" transform="translate(-185.225 -104.236)"/><path class="b" d="M381.61,159.78a3.153,3.153,0,0,1,.307.644c.18.427.419,1.048.7,1.812.576,1.542,1.31,3.691,2.074,6.072s1.415,4.492,1.939,6.116l.591,1.849a2.8,2.8,0,0,1,.187.689,3.153,3.153,0,0,1-.307-.644c-.18-.427-.419-1.048-.7-1.819-.561-1.542-1.265-3.7-2.036-6.087l-1.976-6.094c-.232-.749-.434-1.34-.6-1.849A2.8,2.8,0,0,1,381.61,159.78Z" transform="translate(-191.011 -113.145)"/><path class="b" d="M390.59,180.406c0-.09,4.327-1.8,9.732-3.826s9.822-3.6,9.852-3.511-4.32,1.8-9.733,3.826S390.62,180.5,390.59,180.406Z" transform="translate(-193.974 -116.697)"/><path class="b" d="M376.15,213.19a2.994,2.994,0,0,1,.749-.1l1.976-.157c1.67-.127,3.975-.314,6.513-.614s4.821-.636,6.476-.9l1.961-.307a2.524,2.524,0,0,1,.749-.067,3.5,3.5,0,0,1-.7.2c-.457.1-1.123.247-1.946.412-1.64.314-3.93.7-6.476,1s-4.859.449-6.536.517c-.838,0-1.5.052-1.984.045a3.385,3.385,0,0,1-.779-.03Z" transform="translate(-189.729 -126.947)"/><path class="b" d="M363.44,194.81a2.778,2.778,0,0,1,.434.517c.255.344.629.853,1.078,1.5.9,1.258,2.126,2.995,3.459,4.964s2.523,3.743,3.376,5.023c.427.644.749,1.175.988,1.542a2.667,2.667,0,0,1,.329.591,5.554,5.554,0,0,1-.434-.517c-.262-.344-.629-.853-1.086-1.5-.9-1.265-2.119-2.995-3.459-4.964s-2.523-3.743-3.376-5.023c-.419-.644-.749-1.175-.988-1.542a2.41,2.41,0,0,1-.322-.591Z" transform="translate(-185.817 -122.642)"/><path class="b" d="M347.21,220.59a4.11,4.11,0,0,1,.547.666c.367.509.838,1.138,1.392,1.9,1.16,1.61,2.748,3.841,4.492,6.326s3.294,4.739,4.4,6.386c.524.749.958,1.437,1.3,1.954a5.246,5.246,0,0,1,.442.749,3.676,3.676,0,0,1-.546-.666l-1.393-1.894c-1.16-1.61-2.748-3.848-4.492-6.326s-3.287-4.739-4.395-6.386l-1.3-1.954A3.743,3.743,0,0,1,347.21,220.59Z" transform="translate(-181.157 -129.68)"/><path class="b" d="M363.75,242.794a5.019,5.019,0,0,1,.913-.15l2.5-.284c2.111-.24,5.023-.576,8.235-1.041s6.1-.958,8.19-1.325l2.478-.434a5.03,5.03,0,0,1,.921-.12,4.831,4.831,0,0,1-.891.247c-.584.142-1.422.329-2.463.539-2.081.434-4.979.966-8.19,1.422s-6.139.749-8.235.951c-1.056.09-1.917.15-2.508.18A5.16,5.16,0,0,1,363.75,242.794Z" transform="translate(-186.227 -134.645)"/><path class="c" d="M691.135,273.2a26.308,26.308,0,1,0-48.984,13.289h0l.075.1c1,1.7,2.246,2.912,3.549,4.7L661.047,311.5a4.739,4.739,0,0,0,7.576,0l15.025-19.892a56.935,56.935,0,0,0,3.818-5.068l.053-.067h0A26.2,26.2,0,0,0,691.135,273.2Zm-26.308,11.454A11.582,11.582,0,1,1,676.4,273.076a11.582,11.582,0,0,1-11.574,11.579Z" transform="translate(-268.135 -137.543)"/><path class="a" d="M602.444,157.555c-.172,0-.314-7.487-.314-16.673s.142-16.673.314-16.673.314,7.487.314,16.673S602.617,157.555,602.444,157.555Z" transform="translate(-258.989 -102.896)"/><path class="a" d="M611.624,153.974c0,.172-.988.314-2.246.314s-2.208-.142-2.208-.314.988-.314,2.208-.314S611.624,153.795,611.624,153.974Z" transform="translate(-260.256 -110.298)"/></g><g transform="translate(-10141.207 6978.688)"><path class="d" d="M151.816,434.444c10.092-7,12.42-20.041,12.061-31.773-.06-1.954.165-4.02-.749-5.742s-3.092-2.9-4.851-2.081c-1.452.681-2.1,2.366-2.912,3.743a11.447,11.447,0,0,1-4.6,4.372,4.4,4.4,0,0,1-4.028.344c-1.684-.936-1.872-3.272-1.857-5.241q.06-5.443.1-10.885a18.066,18.066,0,0,0-.547-5.735,6.057,6.057,0,0,0-3.788-4.1,3.652,3.652,0,0,0-4.537,2.441,17.442,17.442,0,0,0-.067,2.426,2.051,2.051,0,0,1-1.205,1.924,2.383,2.383,0,0,1-2.134-.9,25.546,25.546,0,0,1-4.627-7.037,35.092,35.092,0,0,0-4.312-7.254,10.539,10.539,0,0,0-7.12-4.028c-2.785-.165-5.765,1.542-6.483,4.275s.876,5.54,2.613,7.764a43.422,43.422,0,0,0,8.984,8.662,3.571,3.571,0,0,1,1.5,1.632c.412,1.3-.816,2.583-2.1,2.995a22.121,22.121,0,0,1-4.544.494c-1.55.172-3.167.839-3.743,2.246-.8,1.991.853,4.08,2.486,5.45a37.082,37.082,0,0,0,11.005,6.4,12.622,12.622,0,0,1,4.088,2.006,3.17,3.17,0,0,1-2.86,5.63,27.9,27.9,0,0,1-4.267-1.647c-2.673-1.018-6.131-.846-7.853,1.46a6.176,6.176,0,0,0-.674,5.45,14.224,14.224,0,0,0,2.935,4.821,37.432,37.432,0,0,0,15.954,11.29c6.2,2.179,11.978,2.777,18.125.547" transform="translate(-109.984 -364.905)"/><path class="e" d="M152.179,438.3c-.4-4.649-.614-4.746-2.336-10.668a173.69,173.69,0,0,0-6.858-18.814q-1.048-2.448-2.051-4.836c-.681-1.587-1.348-3.159-2.1-4.657a86.622,86.622,0,0,0-4.836-8.34c-1.655-2.59-3.324-4.979-4.9-7.21S126,379.5,124.539,377.7a69.542,69.542,0,0,0-7.487-8c-.958-.876-1.722-1.5-2.246-1.961l-.6-.487c-.135-.112-.21-.165-.217-.157a2.584,2.584,0,0,0,.195.187l.576.517c.509.449,1.258,1.115,2.2,2.006a73.37,73.37,0,0,1,7.4,8.056c1.445,1.8,2.942,3.856,4.492,6.087s3.219,4.627,4.874,7.21a87.9,87.9,0,0,1,4.769,8.34c.749,1.5,1.415,3.055,2.089,4.642s1.355,3.2,2.051,4.836a178.818,178.818,0,0,1,6.873,18.769c1.729,5.9,1.961,5.989,2.4,10.593" transform="translate(-110.991 -365.457)"/><path class="e" d="M147,402.929a3.951,3.951,0,0,0,.187-.831c.1-.539.232-1.318.374-2.291.277-1.939.576-4.627.9-7.591s.651-5.645.958-7.576c.157-.966.284-1.744.389-2.283a3.51,3.51,0,0,0,.1-.846,4.763,4.763,0,0,0-.247.816c-.135.532-.307,1.31-.494,2.246-.374,1.924-.749,4.612-1.071,7.576s-.584,5.577-.794,7.606c-.1.913-.187,1.685-.255,2.3A3.338,3.338,0,0,0,147,402.929Z" transform="translate(-119.285 -369.079)"/><path class="e" d="M113.58,403.743a5.152,5.152,0,0,0,1,.127c.636.06,1.572.135,2.718.277,2.291.255,5.443.749,8.9,1.385s6.558,1.407,8.789,2.006c1.116.292,2.014.554,2.635.749a6.056,6.056,0,0,0,.981.24,5.877,5.877,0,0,0-.936-.382c-.614-.217-1.5-.517-2.613-.839-2.246-.666-5.323-1.445-8.789-2.119a87,87,0,0,0-8.984-1.28c-1.153-.1-2.089-.15-2.733-.165A5.612,5.612,0,0,0,113.58,403.743Z" transform="translate(-110.888 -374.662)"/><path class="e" d="M161.44,436.617a1.353,1.353,0,0,0,.18-.307c.112-.247.255-.547.427-.906.374-.786.876-1.939,1.5-3.369,1.213-2.867,2.777-6.873,4.432-11.327s3.182-8.467,4.335-11.35l1.385-3.414c.142-.374.27-.681.367-.928s.12-.329.1-.337a1.445,1.445,0,0,0-.172.307l-.427.9c-.374.794-.883,1.946-1.5,3.376-1.22,2.86-2.778,6.873-4.432,11.32s-3.182,8.467-4.342,11.357c-.561,1.4-1.033,2.553-1.378,3.406-.15.374-.27.681-.367.936a1.715,1.715,0,0,0-.112.337Z" transform="translate(-122.917 -374.903)"/><path class="e" d="M117.05,432.86a1.645,1.645,0,0,0,.329.135l.966.329,3.564,1.168c2.995.981,7.135,2.4,11.7,3.953s8.722,2.942,11.746,3.863c1.5.464,2.74.824,3.594,1.056l.988.27a1.983,1.983,0,0,0,.344.067,2.4,2.4,0,0,0-.329-.142l-.958-.322-3.534-1.168c-2.995-.988-7.135-2.4-11.709-3.96s-8.714-2.942-11.739-3.863c-1.5-.464-2.74-.824-3.594-1.056l-.988-.262A1.019,1.019,0,0,0,117.05,432.86Z" transform="translate(-111.76 -381.985)"/></g><g transform="translate(-10095.086 6817.942)"><path class="f" d="M555.023,252.13s12.076,2.036,13.049,2.3,4.8,2.074,4.994,3.242a34.994,34.994,0,0,1,0,4.6s-.7.561-1.123-.562a11.46,11.46,0,0,1-.367-3.346l-2.141-.824,1.168,2.074.195,4.859s-1.5-.135-1.789-1.3a11.456,11.456,0,0,1-.285-2.463l-1.557-1.318,1.168,1.58.389,3.5s-1.138.374-1.5-.4a12.054,12.054,0,0,1-.389-3.092l-4.4-1.542-2.912,1.625-5.443-3.039Z" transform="translate(-388.12 -177.37)"/><path class="d" d="M496.844,212.26c.06.24,14.554,20.214,14.554,20.214l29.123,9.059L539.2,252.47l-35.688-7.187L490.84,230.744Z" transform="translate(-372.225 -167.349)"/><g class="g" transform="translate(118.615 44.911)"><path d="M496.844,212.26c.06.24,14.554,20.214,14.554,20.214l29.123,9.059L539.2,252.47l-35.688-7.187L490.84,230.744Z" transform="translate(-490.84 -212.26)"/></g><rect class="c" width="64.07" height="11.597" rx="3.05" transform="translate(12.104 72.379)"/><path class="e" d="M410.3,260.459a2.029,2.029,0,0,0,.374-.052,2.246,2.246,0,0,0,1.827-1.969v-7.344a2.246,2.246,0,0,0-.749-1.6,2.179,2.179,0,0,0-.846-.442,3.436,3.436,0,0,0-1.011-.067h-6.94l-52.114.06a2.1,2.1,0,0,0-1.55.681,2.149,2.149,0,0,0-.539,1.61v6.551a3.127,3.127,0,0,0,.075.853,2.111,2.111,0,0,0,1.789,1.535h14.719l23.425.045,15.8.06,4.3.037h0l-4.3.037-15.8.06-23.425.045H350.519a2.552,2.552,0,0,1-.928-.3,2.478,2.478,0,0,1-1.183-1.5,3.039,3.039,0,0,1-.09-.958V251.28a2.583,2.583,0,0,1,.651-1.872,2.456,2.456,0,0,1,1.834-.809l52.114.06h6.94a4.312,4.312,0,0,1,1.071.09,2.365,2.365,0,0,1,.928.494,2.411,2.411,0,0,1,.831,1.759v4.881c0,.936,0,1.752-.037,2.486a2.366,2.366,0,0,1-.906,1.565,2.246,2.246,0,0,1-1.033.427,1.332,1.332,0,0,1-.412.1Z" transform="translate(-336.401 -176.483)"/><circle class="e" cx="30.612" cy="30.612" r="30.612" transform="translate(201.947 172.474) rotate(-2.75)"/><path class="e" d="M604.079,420.84v.082a30.612,30.612,0,1,0,61.218.883s0-.052,0-.082Z" transform="translate(-400.686 -219.775)"/><path class="h" d="M616.249,414.009a21.494,21.494,0,1,0,21.8-21.179,21.494,21.494,0,0,0-21.8,21.179Z" transform="translate(-403.746 -212.734)"/><path class="b" d="M638.051,392.829a21.494,21.494,0,0,0-21.8,21.179l42.98.621A21.494,21.494,0,0,0,638.051,392.829Z" transform="translate(-403.746 -212.734)"/><path class="e" d="M627.469,416.949a13.094,13.094,0,1,0,13.281-12.9,13.094,13.094,0,0,0-13.281,12.9Z" transform="translate(-406.566 -215.554)"/><path class="d" d="M618.4,361.173s31.339-9.478,44.3,24.571L597.12,406.062Z" transform="translate(-398.938 -204.473)"/><circle class="e" cx="30.612" cy="30.612" r="30.612" transform="translate(13.077 172.477) rotate(-2.75)"/><path class="e" d="M351.789,420.84v.082a30.612,30.612,0,1,0,61.218.883v-.1Z" transform="translate(-337.274 -219.775)"/><path class="h" d="M364,414.009a21.494,21.494,0,1,0,21.8-21.179A21.494,21.494,0,0,0,364,414.009Z" transform="translate(-340.343 -212.734)"/><path class="b" d="M385.771,392.829A21.494,21.494,0,0,0,364,414.009l42.98.621a21.494,21.494,0,0,0-21.209-21.8Z" transform="translate(-340.344 -212.734)"/><path class="e" d="M375.179,416.949a13.094,13.094,0,1,0,13.281-12.9,13.094,13.094,0,0,0-13.281,12.9Z" transform="translate(-343.154 -215.554)"/><path class="i" d="M433.276,404.293c-.172.09-16.111-2.463-16.111-2.463h0a9.733,9.733,0,0,1-7.269,3.8c-6.888.329-13.618.636-19.465.9A9.882,9.882,0,0,0,381,416.811h0a9.89,9.89,0,0,0,9.485,9.463l33.936,1.34c5.577.217,12.989-3.167,16.47-7.531h0Z" transform="translate(-344.614 -214.997)"/><path class="d" d="M339.576,359.792s-1.452-29.834,26.585-36.048v-3.826h98.208V329.1s-14.412,17.361-9.733,31.773,6.176,15.886,6.176,15.886h55.894a38.181,38.181,0,0,0,7.06-21.179c.3-12.652-4.956-34.281-8.887-48.108-3.549-12.615-5.795-23.126-5.795-23.126l16.77-5.592s31.032,40.614,32.3,42.86,5.577,7.606,4.567,19.27-28.928,47.644-36.25,51.7-13.94,4.312-20.536,5.323c-5.72.883-48.034.3-59.106.127A21.711,21.711,0,0,1,435.9,395c-3.309-2.006-5.795-5.33-8.542-10.781l-5.862-11.409Z" transform="translate(-334.202 -184.061)"/><path class="i" d="M345.292,384.26l-12.368,19.375a2.995,2.995,0,0,0,3.676,4.432,14.4,14.4,0,0,0,4.155-2.815c5.652-5.383,15.722-19.562,15.722-19.562Z" transform="translate(-332.402 -210.58)"/><path class="e" d="M439.673,377.579a.869.869,0,0,1,.075-.284l.247-.816a21.524,21.524,0,0,0,.651-3.2,22.564,22.564,0,0,0-1.917-11.694,24.5,24.5,0,0,0-4.559-6.85A29.9,29.9,0,0,0,426.683,349a37.9,37.9,0,0,0-9.807-3.653,51.658,51.658,0,0,0-11.23-1.16,84.6,84.6,0,0,0-11.23.831c-3.624.487-7.1,1.086-10.376,1.834a61.45,61.45,0,0,0-16.658,6.161,41.223,41.223,0,0,0-9.515,7.269c-.988,1.018-1.7,1.864-2.171,2.441l-.532.666a1.337,1.337,0,0,1-.195.217,25.166,25.166,0,0,1,2.785-3.429,40.426,40.426,0,0,1,9.493-7.4,60.912,60.912,0,0,1,16.717-6.274c3.279-.749,6.738-1.37,10.4-1.864a85.169,85.169,0,0,1,11.32-.838,51.514,51.514,0,0,1,11.29,1.175,38.353,38.353,0,0,1,9.9,3.743,30.1,30.1,0,0,1,7.584,5.824,24.646,24.646,0,0,1,4.574,6.962,22.46,22.46,0,0,1,1.812,11.829,19.11,19.11,0,0,1-.749,3.2c-.12.344-.21.606-.285.809A1.579,1.579,0,0,1,439.673,377.579Z" transform="translate(-338.074 -200.411)"/><path class="c" d="M453.2,372.96c-.045,0,.157-.472.367-1.325a9.688,9.688,0,0,0,.112-3.743,15.385,15.385,0,0,0-1.827-5.2,17.749,17.749,0,0,0-1.812-2.725,16.429,16.429,0,0,0-2.433-2.523,21.255,21.255,0,0,0-5.84-3.414,27.483,27.483,0,0,0-5.36-1.5,35.091,35.091,0,0,0-3.743-.427,11,11,0,0,1-1.378-.1,1.206,1.206,0,0,1,.359,0h1.026a28,28,0,0,1,3.743.307,25.89,25.89,0,0,1,5.45,1.4,21.344,21.344,0,0,1,5.989,3.451,17.153,17.153,0,0,1,2.486,2.583,18.715,18.715,0,0,1,1.819,2.793,14.9,14.9,0,0,1,1.782,5.33,9.225,9.225,0,0,1-.232,3.788,5.387,5.387,0,0,1-.359.966A1.317,1.317,0,0,1,453.2,372.96Z" transform="translate(-357.257 -202.47)"/><g class="j" transform="translate(76.713 144.302)"><path d="M434.87,345.05a39.332,39.332,0,0,1,14.786,5.989,26.135,26.135,0,0,1,9.9,12.308c1.962,5.046,1.67,11.731-.4,15.909l6.94.576c2.336-7.793-.2-17.354-5.817-23.455A34.438,34.438,0,0,0,434.87,345.02" transform="translate(-434.87 -345.02)"/></g><rect class="i" width="73.555" height="52.488" rx="8.58" transform="translate(7.365 83.392)"/><path class="e" d="M415.69,279.235c0,.112-16.538.195-36.931.195s-36.939-.082-36.939-.195,16.53-.195,36.939-.195S415.69,279.13,415.69,279.235Z" transform="translate(-334.769 -184.134)"/><path class="e" d="M473.108,338.345c0,.1-22.078.195-49.3.195s-49.3-.09-49.3-.195,22.07-.195,49.3-.195S473.108,338.24,473.108,338.345Z" transform="translate(-342.986 -198.991)"/><path class="i" d="M490.923,330.43a8.49,8.49,0,0,0,1.782-4.4c.15-2.463-.973-5.547-3.631-5.547H455.16a9.95,9.95,0,0,0-9.95,9.95Z" transform="translate(-360.756 -194.55)"/><path class="d" d="M563.784,275.045l-5.9-12.3a7.487,7.487,0,0,1,2.995-9.62l17.638-10.519a5.914,5.914,0,0,1,3.047-.846h3.811l1.5,24.863L581,268.891l3.743,6.049Z" transform="translate(-388.9 -174.764)"/><path class="a" d="M594.91,243s6.034,1.385,6.79,10.683-5.323,12.2-5.323,12.2Z" transform="translate(-398.383 -175.075)"/><path class="e" d="M563.677,263.03s-12.2,5.78-13.685,6.738a2.841,2.841,0,0,0-1.108,3.841c1.378,3.451,7.082.2,7.082.2l11.357-5.675s4.365-2.059,2.747-4.642C568.267,260.6,563.677,263.03,563.677,263.03Z" transform="translate(-386.735 -179.87)"/><path class="f" d="M545.456,260.54s11.462,1.961,12.435,2.246,4.791,2.074,4.986,3.242a35.036,35.036,0,0,1,0,4.6s-.689.561-1.123-.561a11.8,11.8,0,0,1-.367-3.354l-2.141-.824,1.168,2.074.195,4.866s-1.5-.135-1.782-1.3a11.356,11.356,0,0,1-.285-2.456l-1.565-1.325,1.168,1.58.4,3.5s-1.138.367-1.5-.412a12.019,12.019,0,0,1-.389-3.092l-4.4-1.535-2.912,1.625-4.582-2.545Z" transform="translate(-385.778 -179.484)"/><path class="e" d="M566.333,236.4c0,4.642-2.134,8.4-4.761,8.4s-4.761-3.743-4.761-8.4,2.126-8.4,4.761-8.4S566.333,231.743,566.333,236.4Z" transform="translate(-388.806 -171.305)"/><path class="e" d="M564.21,246.368l2.62,9.074a2.351,2.351,0,0,0,1.22-2.68c-.659-3.107-1.033-5.315-1.752-8.041-.09-.27-2.089,1.647-2.089,1.647" transform="translate(-390.666 -175.501)"/><g class="j" transform="translate(118.254 96.149)"><path d="M493.833,365.2c-.255-.749-.524-1.5-.749-2.3s-.509-1.5-.7-2.246a24.12,24.12,0,0,1-.659-3.421c-4.417,17.968,2.328,30.642,13.9,31.533,16.92,1.3,37.545,2.246,45.885.06,15.205-3.99,20.783-16.672,22.115-18.761s13.423-24.2,5.989-45.481S559.288,280.7,559.288,280.7l-12.3,4.133s2.246,10.481,5.817,23.088c3.93,13.828,9.186,35.456,8.887,48.108a38.181,38.181,0,0,1-7.06,21.179H498.744s-1.2-1.2-4.889-11.978" transform="translate(-490.357 -280.7)"/></g><path class="d" d="M336.591,379.347l.4-4.267,102.026,11.754a10.077,10.077,0,0,1,8.744,11.769l-.457,2.583-105.56-15.34A5.989,5.989,0,0,1,336.591,379.347Z" transform="translate(-333.448 -208.273)"/><g class="k" transform="translate(3.116 166.807)"><path d="M336.591,379.347l.4-4.267,102.026,11.754a10.077,10.077,0,0,1,8.744,11.769l-.457,2.583-105.56-15.34A5.989,5.989,0,0,1,336.591,379.347Z" transform="translate(-336.564 -375.08)"/></g><g class="l" transform="translate(201.521 155.487)"><path d="M601.58,404.085s22.46-24.706,27.094-44.126a43.67,43.67,0,0,1,6.955.517S622.348,396.584,601.58,404.085Z" transform="translate(-601.58 -359.959)"/></g><path class="e" d="M627.955,348.34a3.6,3.6,0,0,1,.12.621c.06.412.18,1.018.255,1.8a27.506,27.506,0,0,1-.172,6.738A34.038,34.038,0,0,1,625.162,367a107.586,107.586,0,0,1-5.944,10.631A141.942,141.942,0,0,1,606.072,395.4c-1.827,2.164-3.339,3.885-4.387,5.068l-1.213,1.355a5.225,5.225,0,0,1-.442.457,3.332,3.332,0,0,1,.382-.5l1.16-1.407,4.29-5.143a154.349,154.349,0,0,0,13.027-17.8,114.091,114.091,0,0,0,5.989-10.578,34.741,34.741,0,0,0,2.995-9.388,29.947,29.947,0,0,0,.292-6.648c-.052-.786-.15-1.392-.18-1.812A3.308,3.308,0,0,1,627.955,348.34Z" transform="translate(-399.67 -201.552)"/><path class="e" d="M583.145,416.385a30,30,0,0,1-3.6-3.249,30.8,30.8,0,0,1-3.324-3.526A60.006,60.006,0,0,1,583.145,416.385Z" transform="translate(-393.685 -216.952)"/><path class="e" d="M496.43,415.664a10.4,10.4,0,0,1,1.654-3.2,10.533,10.533,0,0,1,2.358-2.718c.082.082-.943,1.31-2.036,2.935S496.535,415.709,496.43,415.664Z" transform="translate(-373.63 -216.987)"/><path class="e" d="M435.2,429.054a15.078,15.078,0,0,0,3.062-3.893,13.4,13.4,0,0,0,1.5-5.128,11.911,11.911,0,0,0-5.375-11.23,13.379,13.379,0,0,0-4.926-2.059,15.053,15.053,0,0,0-4.949-.067,1.444,1.444,0,0,1,.329-.1,8.165,8.165,0,0,1,.988-.195,11.748,11.748,0,0,1,3.683.09,13.4,13.4,0,0,1,5.076,2.029,12.1,12.1,0,0,1,5.533,11.6,13.393,13.393,0,0,1-1.617,5.241,11.605,11.605,0,0,1-2.246,2.92,7.7,7.7,0,0,1-.749.651,1.4,1.4,0,0,1-.307.142Z" transform="translate(-355.553 -216.115)"/><path class="e" d="M388.844,423.827a16.081,16.081,0,0,1-.367-3.594,17,17,0,0,1,0-3.623,33.6,33.6,0,0,1,.344,7.217Z" transform="translate(-346.472 -218.712)"/><path class="e" d="M392.331,423.832a34.663,34.663,0,0,1-.921-7.232,17.608,17.608,0,0,1,.651,3.594,17.429,17.429,0,0,1,.269,3.638Z" transform="translate(-347.234 -218.709)"/><path class="e" d="M430.25,333.7c0,.1-12.405.195-27.7.195s-27.7-.09-27.7-.195,12.405-.195,27.7-.195S430.25,333.592,430.25,333.7Z" transform="translate(-343.071 -197.825)"/><path class="e" d="M395.125,312.426c-.112,0-.195-14.224-.195-31.728s.052-31.7.195-31.7.195,14.224.195,31.735S395.229,312.426,395.125,312.426Z" transform="translate(-348.118 -176.583)"/><path class="e" d="M385,312.361c-.1,0,.427-14.224,1.19-31.713s1.5-31.705,1.572-31.7-.419,14.224-1.183,31.713S385.138,312.368,385,312.361Z" transform="translate(-345.618 -176.571)"/><path class="i" d="M359.383,435.262a2.429,2.429,0,0,1-.329-.337c-.195-.225-.517-.547-.868-1a28.742,28.742,0,0,1-2.762-4.058,31.017,31.017,0,0,1,.127-31.054,28.2,28.2,0,0,1,2.793-4.035c.359-.457.681-.749.883-1s.322-.337.329-.322a1.887,1.887,0,0,1-.27.374c-.18.247-.487.576-.824,1.048a32.046,32.046,0,0,0-.157,38.952c.329.472.629.809.809,1.056A2.222,2.222,0,0,1,359.383,435.262Z" transform="translate(-337.157 -212.89)"/><path class="i" d="M501.633,373.11l-.232.434-4.522,8.467-6.319,6.079,12.63,16.815,10.519-1.744s-1.175-2.4-6.461-2.867l-2-10.047,7.419-11.5" transform="translate(-372.155 -207.778)"/><path class="b" d="M490.58,392.715l12.63,16.815,10.519-1.744-1.445-1.385-8.632.943L491.928,391.42Z" transform="translate(-372.16 -212.38)"/><path class="e" d="M510.755,403.125c-.06.12-.749-.127-1.5.037s-1.355.591-1.452.5.374-.794,1.363-.966S510.838,403.027,510.755,403.125Z" transform="translate(-376.486 -215.206)"/><path class="e" d="M509.966,399.683c-.09.09-.666-.449-1.5-.479s-1.5.472-1.565.374.052-.232.322-.449a2.028,2.028,0,0,1,1.258-.389,1.969,1.969,0,0,1,1.228.472A.83.83,0,0,1,509.966,399.683Z" transform="translate(-376.258 -214.22)"/><path class="e" d="M509.387,395.286c-.1.082-.569-.464-1.34-.6s-1.392.217-1.5.1.067-.217.344-.374a1.849,1.849,0,0,1,2.246.4C509.394,395.062,509.439,395.256,509.387,395.286Z" transform="translate(-376.166 -213.08)"/><path class="e" d="M512.66,391.222c-.112.06-.509-.487-1.235-.8s-1.385-.27-1.415-.4.749-.434,1.61,0S512.787,391.185,512.66,391.222Z" transform="translate(-377.043 -211.973)"/><path class="e" d="M513.937,387.2c-.052.037-.464-.322-1.1-.951l-1.078-1.116a3.444,3.444,0,0,1-.629-.749.846.846,0,0,1-.045-.651.651.651,0,0,1,.576-.434,1.916,1.916,0,0,1,1.071.344,3.946,3.946,0,0,1,.749.621,3.646,3.646,0,0,1,.8,1.43,1.969,1.969,0,0,1,0,1.5,11.214,11.214,0,0,0-.314-1.37,3.745,3.745,0,0,0-.8-1.235,3.432,3.432,0,0,0-.681-.524,1.745,1.745,0,0,0-.794-.277.2.2,0,0,0-.18.127.4.4,0,0,0,0,.307,3.312,3.312,0,0,0,.524.659l1.026,1.19A4.491,4.491,0,0,1,513.937,387.2Z" transform="translate(-377.302 -210.339)"/><path class="e" d="M515.437,388.008c-.052,0-.1-.554.359-1.28a2.665,2.665,0,0,1,2.995-1.086.509.509,0,0,1,.225.352.629.629,0,0,1-.075.352,1.494,1.494,0,0,1-.322.4,5.007,5.007,0,0,1-.674.547,4.664,4.664,0,0,1-1.318.614,2.156,2.156,0,0,1-1.318.1c0-.075.487-.12,1.213-.412a5.235,5.235,0,0,0,1.175-.651,4.745,4.745,0,0,0,.6-.524,1.191,1.191,0,0,0,.232-.277c.037-.1,0-.075,0-.1a.832.832,0,0,0-.322-.067,2.327,2.327,0,0,0-.4,0,2.62,2.62,0,0,0-.749.18,2.567,2.567,0,0,0-1.041.749,9.278,9.278,0,0,0-.584,1.108Z" transform="translate(-378.375 -210.899)"/><path class="b" d="M500.876,390.505a1.265,1.265,0,1,1-1.452-1.041,1.265,1.265,0,0,1,1.452,1.041Z" transform="translate(-374.116 -211.885)"/><path class="i" d="M556.55,383.241l3.376,21.921,27.3-4.058c-.554-2.583-15.452-5.72-15.452-5.72L570.19,381.25Z" transform="translate(-388.741 -209.824)"/><path class="b" d="M565.163,400.2a1.123,1.123,0,0,0-.584,1.385,1.093,1.093,0,0,0,1.37.591,1.19,1.19,0,0,0,.606-1.5,1.123,1.123,0,0,0-1.5-.457" transform="translate(-390.743 -214.56)"/><path class="b" d="M560.974,411.408l-.255-2.246,26.27-3.062s1.3.352,1.288,1.228Z" transform="translate(-389.789 -216.07)"/><path class="e" d="M576.686,399.835c0,.135-.636.292-1.235.816s-.854,1.138-.988,1.108-.045-.839.681-1.46S576.7,399.708,576.686,399.835Z" transform="translate(-393.23 -214.477)"/><path class="e" d="M580.985,400.858c.052.127-.494.434-.861,1.071s-.412,1.243-.547,1.258-.329-.749.142-1.5S580.962,400.731,580.985,400.858Z" transform="translate(-394.489 -214.744)"/><path class="e" d="M584.283,404.3c-.12.052-.4-.591-.172-1.37s.816-1.168.891-1.063-.255.554-.442,1.2S584.41,404.268,584.283,404.3Z" transform="translate(-395.646 -215.001)"/><path class="e" d="M575.544,395.5c0,.127-.674.037-1.422.195s-1.3.494-1.385.389.412-.666,1.288-.846S575.6,395.384,575.544,395.5Z" transform="translate(-392.807 -213.327)"/><path class="e" d="M573.516,390.845a2.6,2.6,0,0,1-1.37.195,6.267,6.267,0,0,1-1.5-.225,6.4,6.4,0,0,1-.876-.277,1.5,1.5,0,0,1-.457-.262.569.569,0,0,1-.165-.7.749.749,0,0,1,.539-.4,1.7,1.7,0,0,1,.516,0,4.244,4.244,0,0,1,.9.165,4.965,4.965,0,0,1,1.385.636c.749.494,1.011.958.966,1s-.427-.322-1.138-.711a5.329,5.329,0,0,0-1.325-.5,4.037,4.037,0,0,0-.823-.127c-.3,0-.547,0-.6.142s0,.067.052.15a1.385,1.385,0,0,0,.337.187,8.058,8.058,0,0,0,.786.307,7.7,7.7,0,0,0,1.4.307A9.652,9.652,0,0,1,573.516,390.845Z" transform="translate(-391.894 -211.813)"/><path class="e" d="M574.581,390.2a2.34,2.34,0,0,1-.562-1.265,4.626,4.626,0,0,1,0-1.5,5.117,5.117,0,0,1,.225-.883,1.138,1.138,0,0,1,.749-.816.651.651,0,0,1,.629.292,1.958,1.958,0,0,1,.217.487,3.046,3.046,0,0,1,.135.921,3.182,3.182,0,0,1-.374,1.5c-.427.749-.958,1.026-.973.981a5.657,5.657,0,0,0,.674-1.123,3.121,3.121,0,0,0,.24-1.348,2.647,2.647,0,0,0-.142-.786c-.082-.285-.225-.5-.329-.457a.979.979,0,0,0-.412.517,4.529,4.529,0,0,0-.232.794,5.057,5.057,0,0,0-.06,1.4C574.431,389.676,574.648,390.17,574.581,390.2Z" transform="translate(-393.117 -210.951)"/><path class="e" d="M520,314.766l-23.41,51.013,15.46,9.283,32.372-61.382" transform="translate(-373.67 -192.84)"/><path class="e" d="M548.521,370.191l-16.792,2.7-10.054-60L472,316.49a12.1,12.1,0,0,1-3.908-.367c-13.947-3.826-12.061-21.614-10.713-24.466l68.734-1.969a14.629,14.629,0,0,1,14.913,12.6Z" transform="translate(-363.583 -186.809)"/><path class="d" d="M455.086,272l.247-25.364s-3.272-16.47-4.245-22.976c-1.5-10.062-3.564-14.846,12.922-22l3.609-1.393,5.577.075c6.648.5,13.655,6.513,13.82,10.481L493.447,268Z" transform="translate(-361.986 -164.335)"/><path class="d" d="M456.843,210s-4.657,10.017-3.743,19.143l17.346,16.65c3.886,4.327,8.752,6.169,14.973,6.543l35.89,3.923,1-9.388L488.182,237.2c-1.363-.255-2.044-1.669-3.084-2.583L456.843,210" transform="translate(-362.709 -166.781)"/><path class="e" d="M454.39,213.432a2.456,2.456,0,0,1,.689-.464,8.557,8.557,0,0,1,2.321-.651,11.977,11.977,0,0,1,3.878,0,4.019,4.019,0,0,1,1.138.389,11.441,11.441,0,0,1,1.056.749c.689.539,1.385,1.16,2.1,1.834,1.437,1.34,2.8,3.04,4.395,4.761s3.339,3.571,5.241,5.51,3.945,3.968,6.131,6.064c1.1,1.048,2.246,2.111,3.436,3.152.606.494,1.205,1.078,1.782,1.625a4.312,4.312,0,0,0,1.984,1.168h0l34.191,9.658.157.045v.165c-.067.666-.15,1.378-.225,2.1-.262,2.493-.524,4.964-.749,7.284v.195h-.195L506.5,255.327l-7.187-.786-6.88-.7c-2.246-.247-4.41-.5-6.513-.809a29.324,29.324,0,0,1-6.034-1.4,22.22,22.22,0,0,1-5.076-2.733c-1.5-1.056-2.9-2.156-4.2-3.242-5.128-4.372-8.894-8.288-11.507-10.953-1.3-1.34-2.291-2.4-2.957-3.114l-.749-.824-.247-.292s.1.082.277.262.442.457.749.8l2.995,3.069c2.643,2.628,6.438,6.513,11.574,10.848,1.3,1.071,2.68,2.164,4.185,3.2a22.384,22.384,0,0,0,5.031,2.68,29.3,29.3,0,0,0,5.989,1.363c2.1.3,4.275.554,6.506.794l6.88.674,7.187.786,15.2,1.655-.217.172c.247-2.321.509-4.791.749-7.292.082-.749.157-1.437.225-2.1l.142.21-34.139-9.7h0a4.552,4.552,0,0,1-2.186-1.265c-.606-.576-1.153-1.116-1.774-1.632-1.205-1.048-2.336-2.119-3.436-3.167-2.186-2.1-4.222-4.148-6.117-6.094s-3.631-3.8-5.241-5.548-2.927-3.436-4.35-4.776a24.949,24.949,0,0,0-2.066-1.834,8.87,8.87,0,0,0-1.033-.749,3.616,3.616,0,0,0-1.086-.382,11.611,11.611,0,0,0-3.826-.06,8.647,8.647,0,0,0-2.313.591A5.245,5.245,0,0,0,454.39,213.432Z" transform="translate(-363.063 -167.323)"/><path class="f" d="M466.346,166.856l1.737,24.706a7.7,7.7,0,0,0,7.681,7.15h0a7.7,7.7,0,0,0,7.681-8.2c-.157-2.351-.292-4.275-.292-4.275s5.989-.928,6.049-6.91c.045-3.451-.554-11.282-1.063-17.286a7.838,7.838,0,0,0-7.838-7.172h-3.616a11.05,11.05,0,0,0-10.339,11.986Z" transform="translate(-366.058 -152.924)"/><path class="m" d="M486.2,195.9a13.933,13.933,0,0,1-7.794-2.209s1.842,4.3,7.808,3.743Z" transform="translate(-369.101 -162.681)"/><path class="e" d="M493.107,174.445a.853.853,0,0,1-.824.861.808.808,0,0,1-.883-.749.861.861,0,0,1,.824-.868A.823.823,0,0,1,493.107,174.445Z" transform="translate(-372.366 -157.654)"/><path class="e" d="M492.958,172.148c-.112.112-.749-.367-1.677-.367s-1.587.464-1.692.352.06-.255.359-.464a2.306,2.306,0,0,1,1.348-.419,2.246,2.246,0,0,1,1.333.434C492.883,171.894,493,172.1,492.958,172.148Z" transform="translate(-371.903 -157.041)"/><path class="e" d="M481.587,174.445a.846.846,0,0,1-.824.861.809.809,0,0,1-.883-.749.861.861,0,0,1,.823-.868A.824.824,0,0,1,481.587,174.445Z" transform="translate(-369.47 -157.654)"/><path class="e" d="M480.862,172.378c-.1.112-.749-.367-1.677-.367s-1.587.464-1.684.352.052-.255.352-.464a2.305,2.305,0,0,1,1.348-.419,2.246,2.246,0,0,1,1.333.427C480.862,172.124,480.944,172.326,480.862,172.378Z" transform="translate(-368.865 -157.099)"/><path class="e" d="M486.347,179.211a6.124,6.124,0,0,1,1.5-.27c.232,0,.457-.075.494-.232a1.123,1.123,0,0,0-.157-.7l-.7-1.782a30.152,30.152,0,0,1-1.557-4.672,31.775,31.775,0,0,1,1.931,4.529l.659,1.8a1.355,1.355,0,0,1,.127.921.591.591,0,0,1-.389.344,1.655,1.655,0,0,1-.4.052A5.99,5.99,0,0,1,486.347,179.211Z" transform="translate(-370.988 -157.119)"/><path class="e" d="M482.835,182.63c.15,0,.15.988,1,1.692s1.917.6,1.924.749-.24.187-.689.2a2.485,2.485,0,0,1-1.6-.561,2.156,2.156,0,0,1-.749-1.422C482.656,182.907,482.768,182.622,482.835,182.63Z" transform="translate(-370.18 -159.901)"/><path class="e" d="M480.933,167.639c-.09.247-1,.135-2.081.262s-1.954.427-2.1.2.09-.344.442-.584a3.623,3.623,0,0,1,3.182-.352C480.776,167.325,480.978,167.519,480.933,167.639Z" transform="translate(-368.674 -155.961)"/><path class="e" d="M492.579,168.585c-.157.21-.794,0-1.55,0s-1.407.135-1.557-.082.037-.314.322-.509a2.119,2.119,0,0,1,1.265-.344,2.164,2.164,0,0,1,1.235.419C492.564,168.271,492.654,168.48,492.579,168.585Z" transform="translate(-371.868 -156.135)"/><path class="f" d="M467.714,176.816c-.1-.045-4.11-1.22-3.975,2.867s4.2,3.114,4.207,2.995S467.714,176.816,467.714,176.816Z" transform="translate(-365.412 -158.392)"/><path class="m" d="M466.982,181.614a1.223,1.223,0,0,1-.187.112.749.749,0,0,1-.532,0,1.759,1.759,0,0,1-.861-1.55,2.365,2.365,0,0,1,.165-1.026.831.831,0,0,1,.517-.569.367.367,0,0,1,.427.187c.06.112.037.195.06.2s.082-.075.045-.24a.442.442,0,0,0-.172-.255.531.531,0,0,0-.4-.09.988.988,0,0,0-.749.659,2.373,2.373,0,0,0-.21,1.145,1.834,1.834,0,0,0,1.093,1.729.749.749,0,0,0,.644-.127C466.982,181.711,467,181.622,466.982,181.614Z" transform="translate(-365.751 -158.833)"/><path class="e" d="M465.75,170.926a2.156,2.156,0,0,1,1.969,1.011c.262.584.322,1.243.584,1.827a1.5,1.5,0,0,0,1.5.966,1.258,1.258,0,0,0,.853-.936,3.391,3.391,0,0,0,0-1.318c-.24-1.909-.636-3.8-.711-5.72a9.732,9.732,0,0,1,1.205-5.555,5.345,5.345,0,0,1,4.776-2.688c1.273.1,2.433.749,3.7.943a5,5,0,0,0,4.147-1.385,8.317,8.317,0,0,1,.749-.561,2.313,2.313,0,0,0-.427-1.258c-2.508-2.321-7.015-2.995-10.324-2.134a11.926,11.926,0,0,0-7.823,6.266c-1.422,3.1-1,7.4-.217,10.541" transform="translate(-365.732 -152.645)"/><path class="d" d="M487.678,160.46s-15.677-5.046-22.46,8.52a25.29,25.29,0,0,1-1.018-5.241c0-1.213.749-8.452,8.175-10.728C472.375,153.041,483.6,148.759,487.678,160.46Z" transform="translate(-365.529 -152.271)"/><path class="e" d="M477.449,162.723a3.414,3.414,0,0,0,5.435.494,2.006,2.006,0,0,0,3.8-.195,4.648,4.648,0,0,0,1.5,1.115,1.557,1.557,0,0,0,1.744-.367,1.5,1.5,0,0,0-.112-1.8,3.653,3.653,0,0,0-1.587-1.071,11.492,11.492,0,0,0-5.914-.9,7.988,7.988,0,0,0-5.188,2.822" transform="translate(-368.776 -154.197)"/><g class="j" transform="translate(98.671 0.003)"><path d="M487.678,160.461a7.285,7.285,0,0,0-4.986-2.246A19.694,19.694,0,0,0,465.218,169a25.29,25.29,0,0,1-1.018-5.241c0-1.213.749-8.452,8.175-10.728C472.375,153.042,483.6,148.76,487.678,160.461Z" transform="translate(-464.2 -152.275)"/></g><path class="d" d="M466.43,167.513a29.52,29.52,0,0,1,9.134-8.744,57.52,57.52,0,0,1,13.67-5.57,8.924,8.924,0,0,1,3.781-.4,3.406,3.406,0,0,1,2.8,2.291c.389,1.55-2.358,3.938-3.653,4.874a41.33,41.33,0,0,1-3.923,2.321s.037-2.875-4.559-3.466C477.428,158.02,466.43,167.513,466.43,167.513Z" transform="translate(-366.09 -152.391)"/><g class="l" transform="translate(94.823 66.068)"><path d="M459.06,240.52c1.617,3.9,3.249,8.714,5.592,12.226a21.561,21.561,0,0,0,9.366,8.235,20.222,20.222,0,0,0,15.55.284c.4-.172,1.175-.389,1.1-.816,0,0-1.61-.187-2.111-.27-9.83-1.632-10.9-2.83-15.609-6.573-2.935-2.313-9.441-9.328-13.888-13.086" transform="translate(-459.06 -240.52)"/></g><path class="e" d="M493.378,278.46a4.11,4.11,0,0,1-.412.913,11.42,11.42,0,0,1-1.587,2.246,17.219,17.219,0,0,1-7.6,4.634,34.836,34.836,0,0,1-8.864,1.325c-1.145.045-2.074.052-2.71.052a5.792,5.792,0,0,1-1-.045,4.386,4.386,0,0,1,.988-.112l2.7-.172a38.786,38.786,0,0,0,8.767-1.422,17.817,17.817,0,0,0,7.531-4.492,19.193,19.193,0,0,0,2.179-2.927Z" transform="translate(-367.291 -183.988)"/><path class="i" d="M543.888,382.4a.749.749,0,0,1-.06-.232,4.338,4.338,0,0,0-.135-.689c-.112-.629-.277-1.5-.479-2.65-.412-2.336-.988-5.667-1.707-9.777-1.4-8.28-3.331-19.682-5.465-32.274-.951-5.7-1.857-11.155-2.688-16.133l.195.157-21.494,1.55-6.169.419-1.647.1h-.427l.427-.052,1.64-.15,6.161-.524,21.479-1.714h.165v.165c.839,4.979,1.759,10.429,2.718,16.126,2.089,12.6,3.975,24.009,5.353,32.3.659,4.118,1.2,7.486,1.58,9.792l.4,2.673c.045.285.075.517.1.689A.965.965,0,0,1,543.888,382.4Z" transform="translate(-375.45 -194.537)"/><path class="i" d="M548.485,313.54c.067.09-1.243,1.213-2.725,2.725s-2.59,2.837-2.68,2.763a17.835,17.835,0,0,1,5.405-5.488Z" transform="translate(-385.355 -192.805)"/><path class="e" d="M483.666,203.117a1.256,1.256,0,0,1,.09.247,3.511,3.511,0,0,1,.142.749,6.146,6.146,0,0,1-.359,2.725,6.977,6.977,0,0,1-2.471,3.234,7.486,7.486,0,0,1-4.8,1.288,8.669,8.669,0,0,1-4.664-1.752,9.9,9.9,0,0,1-2.65-3.092,10.691,10.691,0,0,1-1.018-2.545,7.207,7.207,0,0,1-.15-.749.734.734,0,0,1,0-.262,16.99,16.99,0,0,0,1.415,3.4,10.264,10.264,0,0,0,2.628,2.942,8.483,8.483,0,0,0,4.492,1.647,7.269,7.269,0,0,0,4.574-1.19,6.9,6.9,0,0,0,2.411-3.04,6.357,6.357,0,0,0,.472-2.613C483.725,203.477,483.666,203.132,483.666,203.117Z" transform="translate(-366.428 -165.011)"/><path class="e" d="M502.329,240.119a3.137,3.137,0,0,1-.165-.749c-.082-.591-.18-1.31-.3-2.141-.247-1.909-.569-4.365-.921-7.082s-.606-5.241-.749-7.1c-.082-.906-.135-1.647-.165-2.156a2.943,2.943,0,0,1,0-.794,3.692,3.692,0,0,1,.157.749c.082.591.18,1.3.292,2.141.24,1.909.547,4.365.883,7.082s.629,5.241.809,7.09c.082.913.142,1.647.18,2.164a3.4,3.4,0,0,1-.022.794Z" transform="translate(-374.528 -169.319)"/></g></g></svg>