<svg width="26" height="26" viewBox="0 0 26 26" fill="none" xmlns="http://www.w3.org/2000/svg">
<g clip-path="url(#clip0_11456_67840)">
<mask id="mask0_11456_67840" style="mask-type:luminance" maskUnits="userSpaceOnUse" x="0" y="0" width="26" height="26">
<path d="M26 0H0V26H26V0Z" fill="white"/>
</mask>
<g mask="url(#mask0_11456_67840)">
<path d="M23.738 1.52209H21.5164C21.4678 1.52208 21.4196 1.53165 21.3747 1.55025C21.3298 1.56885 21.289 1.59612 21.2546 1.63051C21.2202 1.66489 21.1929 1.70571 21.1743 1.75063C21.1557 1.79556 21.1462 1.84371 21.1462 1.89233V5.59473H16.9502C16.6633 4.30259 15.8921 3.16954 14.7953 2.42873C13.6984 1.68793 12.3593 1.39573 11.0535 1.61226C9.74777 1.82879 8.57466 2.53759 7.77562 3.59278C6.97657 4.64798 6.61238 5.96932 6.75797 7.28488C6.90356 8.60045 7.54787 9.81018 8.55831 10.6651C9.56874 11.5201 10.8684 11.9552 12.19 11.881C13.5115 11.8067 14.7543 11.2288 15.6626 10.2661C16.571 9.30337 17.0758 8.0291 17.0731 6.70551C17.0731 6.58034 17.0631 6.45819 17.0542 6.33527H21.1459V7.26087L15.3702 11.593L15.3739 11.5979C15.3275 11.6311 15.2896 11.6748 15.2633 11.7254C15.2369 11.776 15.2228 11.832 15.2221 11.8891V14.4809C15.2209 14.8702 15.3428 15.2499 15.5705 15.5657C15.7981 15.8815 16.1198 16.1172 16.4895 16.2392C16.8592 16.3612 17.258 16.3631 17.6289 16.2447C17.9997 16.1263 18.3237 15.8937 18.5544 15.5801C18.698 15.7775 18.8797 15.9442 19.0888 16.0702C19.2978 16.1961 19.5301 16.2789 19.7717 16.3136C20.0133 16.3483 20.2594 16.3342 20.4955 16.2721C20.7316 16.2101 20.9528 16.1013 21.1462 15.9523V20.0347H15.5926C15.5439 20.0347 15.4958 20.0442 15.4509 20.0628C15.4059 20.0814 15.3651 20.1087 15.3307 20.1431C15.2964 20.1775 15.2691 20.2183 15.2505 20.2632C15.2319 20.3081 15.2223 20.3563 15.2223 20.4049V21.8859C15.2223 21.9345 15.2319 21.9827 15.2505 22.0276C15.2691 22.0725 15.2964 22.1134 15.3307 22.1477C15.3651 22.1821 15.4059 22.2094 15.4509 22.228C15.4958 22.2466 15.5439 22.2562 15.5926 22.2562H17.7116L21.326 24.4246L21.3293 24.419C21.385 24.4556 21.4499 24.4759 21.5165 24.4775H23.7381C23.7867 24.4775 23.8348 24.4679 23.8798 24.4493C23.9247 24.4307 23.9655 24.4035 23.9999 24.3691C24.0343 24.3347 24.0615 24.2939 24.0801 24.249C24.0987 24.204 24.1083 24.1559 24.1083 24.1073V1.89233C24.1083 1.8437 24.0987 1.79554 24.0801 1.75061C24.0615 1.70568 24.0342 1.66485 23.9998 1.63047C23.9655 1.59608 23.9246 1.56882 23.8797 1.55022C23.8347 1.53162 23.7866 1.52207 23.738 1.52209ZM11.8898 11.1488C11.011 11.1488 10.152 10.8882 9.4213 10.4C8.69064 9.91174 8.12116 9.21783 7.78487 8.40596C7.44859 7.59409 7.3606 6.70073 7.53204 5.83886C7.70347 4.97698 8.12664 4.1853 8.74801 3.56393C9.36939 2.94255 10.1611 2.51939 11.0229 2.34795C11.8848 2.17651 12.7782 2.2645 13.59 2.60078C14.4019 2.93707 15.0958 3.50655 15.584 4.23722C16.0723 4.96788 16.3328 5.8269 16.3328 6.70566C16.3315 7.88364 15.863 9.013 15.03 9.84596C14.1971 10.6789 13.0677 11.1474 11.8898 11.1488ZM21.1462 13H15.9626V12.2595H21.1462V13ZM21.1462 11.5189H16.7027L21.1462 8.18662V11.5189ZM17.0734 15.5917C16.7789 15.5914 16.4966 15.4742 16.2883 15.266C16.0801 15.0578 15.963 14.7754 15.9626 14.481V13.7405H18.1841V14.4811C18.1838 14.7756 18.0666 15.0579 17.8584 15.2661C17.6502 15.4743 17.3679 15.5915 17.0734 15.5918V15.5917ZM20.0354 15.5917C19.7409 15.5914 19.4586 15.4742 19.2504 15.266C19.0421 15.0578 18.925 14.7754 18.9246 14.481V13.7405H21.1462V14.4811C21.1458 14.7756 21.0287 15.0579 20.8204 15.2661C20.6122 15.4743 20.3299 15.5915 20.0354 15.5918V15.5917ZM15.9626 20.7753H21.1462V21.5161H15.9626V20.7753ZM21.1462 22.2563V23.4537L19.1505 22.2563H21.1462ZM23.3677 23.7373H21.8867V2.26263H23.3677V23.7373Z" fill="#2C7BE5"/>
<path d="M6.33594 20.7754H10.0383V21.5159H6.33594V20.7754Z" fill="#2C7BE5"/>
<path d="M12.2486 16.6126C12.2286 16.5325 12.1823 16.4615 12.1173 16.4107C12.0522 16.3599 11.972 16.3323 11.8895 16.3323H4.48436C4.40182 16.3323 4.32165 16.3599 4.25658 16.4107C4.1915 16.4615 4.14526 16.5325 4.1252 16.6126L3.54763 18.9241H1.89258V19.6646H2.91599L2.09735 20.0738C2.03584 20.1046 1.9841 20.1519 1.94793 20.2104C1.91177 20.2689 1.8926 20.3363 1.89258 20.4051V21.8859C1.89331 22.1149 1.96488 22.338 2.09746 22.5247C2.23005 22.7114 2.41716 22.8525 2.63311 22.9286V24.1075C2.6331 24.1561 2.64266 24.2042 2.66127 24.2492C2.67987 24.2941 2.70714 24.3349 2.74152 24.3693C2.7759 24.4037 2.81672 24.4309 2.86165 24.4496C2.90657 24.4682 2.95473 24.4777 3.00335 24.4777H5.22489C5.27352 24.4777 5.32167 24.4682 5.3666 24.4496C5.41152 24.4309 5.45234 24.4037 5.48672 24.3693C5.52111 24.3349 5.54838 24.2941 5.56698 24.2492C5.58558 24.2042 5.59515 24.1561 5.59513 24.1075V22.9969H10.7787V24.1077C10.7787 24.1563 10.7883 24.2044 10.8069 24.2494C10.8255 24.2943 10.8527 24.3351 10.8871 24.3695C10.9215 24.4039 10.9623 24.4312 11.0072 24.4498C11.0522 24.4684 11.1003 24.4779 11.1489 24.4779H13.3705C13.4191 24.4779 13.4673 24.4684 13.5122 24.4498C13.5571 24.4312 13.5979 24.4039 13.6323 24.3695C13.6667 24.3351 13.694 24.2943 13.7126 24.2494C13.7312 24.2044 13.7407 24.1563 13.7407 24.1077V22.9288C13.9567 22.8527 14.1438 22.7116 14.2764 22.5248C14.409 22.3381 14.4806 22.1149 14.4813 21.8859V20.4051C14.4812 20.3363 14.4621 20.2689 14.4259 20.2103C14.3898 20.1518 14.338 20.1045 14.2765 20.0737L13.4578 19.6646H14.4813V18.9241H12.8263L12.2486 16.6126ZM4.77338 17.0729H11.6003L12.1561 19.2944H4.21817L4.77338 17.0729ZM4.85445 23.7374H3.37359V22.9969H4.8546L4.85445 23.7374ZM4.11412 21.8859C4.11412 21.8127 4.13584 21.7411 4.17652 21.6802C4.2172 21.6193 4.27502 21.5719 4.34268 21.5439C4.41033 21.5158 4.48477 21.5085 4.55659 21.5228C4.62841 21.5371 4.69438 21.5723 4.74616 21.6241C4.79794 21.6759 4.8332 21.7419 4.84749 21.8137C4.86177 21.8855 4.85444 21.96 4.82642 22.0276C4.7984 22.0953 4.75094 22.1531 4.69006 22.1938C4.62917 22.2344 4.55759 22.2562 4.48436 22.2562C4.3862 22.2561 4.29208 22.217 4.22267 22.1476C4.15326 22.0782 4.11422 21.9841 4.11412 21.8859ZM11.5192 21.8859C11.5192 21.8127 11.5409 21.7411 11.5816 21.6802C11.6223 21.6193 11.6801 21.5719 11.7478 21.5439C11.8154 21.5158 11.8899 21.5085 11.9617 21.5228C12.0335 21.5371 12.0995 21.5723 12.1513 21.6241C12.2031 21.6759 12.2383 21.7419 12.2526 21.8137C12.2669 21.8855 12.2596 21.96 12.2315 22.0276C12.2035 22.0953 12.1561 22.1531 12.0952 22.1938C12.0343 22.2344 11.9627 22.2562 11.8895 22.2562C11.7913 22.2561 11.6972 22.217 11.6278 22.1476C11.5584 22.0782 11.5193 21.9841 11.5192 21.8859ZM13.0002 23.7371H11.5192V22.9969H13.0002V23.7371ZM13.7408 21.8859C13.7407 21.9841 13.7016 22.0782 13.6322 22.1476C13.5628 22.217 13.4687 22.2561 13.3705 22.2562H12.9322C12.976 22.1376 12.9991 22.0123 13.0003 21.8859C13.0003 21.5913 12.8833 21.3088 12.675 21.1005C12.4667 20.8922 12.1841 20.7751 11.8895 20.7751C11.5949 20.7751 11.3124 20.8922 11.1041 21.1005C10.8958 21.3088 10.7788 21.5913 10.7788 21.8859C10.78 22.0123 10.803 22.1376 10.8469 22.2562H5.52701C5.57086 22.1376 5.59391 22.0123 5.59513 21.8859C5.59513 21.5913 5.47811 21.3088 5.2698 21.1005C5.06149 20.8922 4.77896 20.7751 4.48436 20.7751C4.18977 20.7751 3.90724 20.8922 3.69893 21.1005C3.49062 21.3088 3.37359 21.5913 3.37359 21.8859C3.37482 22.0123 3.39786 22.1376 3.44171 22.2562H3.00335C2.90519 22.2561 2.81107 22.217 2.74166 22.1476C2.67224 22.0782 2.63321 21.9841 2.63311 21.8859V20.634L3.83124 20.0347H12.5422L13.7407 20.6338L13.7408 21.8859Z" fill="#2C7BE5"/>
<path d="M13.8096 7.26565V4.81791C13.8096 4.76359 13.788 4.71149 13.7496 4.67308C13.7112 4.63466 13.6591 4.61308 13.6047 4.61308C12.3537 4.61308 12.1783 6.75954 12.1715 6.85085C12.1684 6.8914 12.1775 6.93193 12.1976 6.9673C12.2177 7.00266 12.2478 7.03126 12.2842 7.04944L12.5806 7.19769V7.26581L12.4218 8.85342C12.4133 8.93885 12.4227 9.02512 12.4495 9.10666C12.4764 9.18821 12.52 9.26323 12.5776 9.32689C12.6352 9.39054 12.7055 9.44142 12.784 9.47624C12.8625 9.51107 12.9474 9.52906 13.0332 9.52906H13.3569C13.4427 9.52906 13.5276 9.51107 13.6061 9.47624C13.6846 9.44142 13.7549 9.39054 13.8125 9.32689C13.8701 9.26323 13.9137 9.18821 13.9405 9.10666C13.9674 9.02512 13.9768 8.93885 13.9683 8.85342L13.8096 7.26565ZM12.5946 6.7467C12.6301 6.45946 12.6933 6.17632 12.7832 5.90123C12.9406 5.43801 13.1472 5.15617 13.3999 5.06008V7.07102H12.9902C12.9902 7.03299 12.9796 6.99572 12.9596 6.96337C12.9396 6.93103 12.911 6.90489 12.877 6.88788L12.5946 6.7467ZM13.5087 9.05201C13.4896 9.07338 13.4662 9.09046 13.44 9.10211C13.4139 9.11376 13.3855 9.11973 13.3569 9.11961H13.0332C13.0046 9.11962 12.9763 9.11363 12.9501 9.10203C12.9239 9.09042 12.9005 9.07346 12.8813 9.05223C12.8621 9.03101 12.8475 9.00599 12.8386 8.97879C12.8297 8.9516 12.8265 8.92283 12.8294 8.89435L12.9707 7.48099H13.4193L13.5607 8.89435C13.5637 8.92285 13.5606 8.95167 13.5516 8.97889C13.5427 9.00612 13.528 9.03113 13.5087 9.05227V9.05201Z" fill="#2C7BE5"/>
<path d="M11.9663 4.81791C11.9663 4.76359 11.9447 4.71149 11.9063 4.67308C11.8679 4.63466 11.8158 4.61308 11.7615 4.61308C11.7071 4.61308 11.6551 4.63466 11.6166 4.67308C11.5782 4.71149 11.5566 4.76359 11.5566 4.81791V5.4324H11.147V4.81791C11.147 4.76359 11.1254 4.71149 11.087 4.67308C11.0486 4.63466 10.9965 4.61308 10.9422 4.61308C10.8878 4.61308 10.8357 4.63466 10.7973 4.67308C10.7589 4.71149 10.7373 4.76359 10.7373 4.81791V5.4324H10.3276V4.81791C10.3276 4.76359 10.306 4.71149 10.2676 4.67308C10.2292 4.63466 10.1771 4.61308 10.1228 4.61308C10.0685 4.61308 10.0164 4.63466 9.97796 4.67308C9.93955 4.71149 9.91797 4.76359 9.91797 4.81791V5.63722H9.91833C9.9182 5.669 9.92548 5.70038 9.9396 5.72885L10.3244 6.49798L10.1549 8.87074C10.1489 8.95489 10.1603 9.03938 10.1884 9.11894C10.2164 9.1985 10.2606 9.27143 10.3181 9.33319C10.3755 9.39494 10.4451 9.4442 10.5225 9.47789C10.5998 9.51158 10.6833 9.52898 10.7676 9.52901H11.1167C11.2011 9.529 11.2845 9.51161 11.3619 9.47793C11.4393 9.44425 11.5089 9.395 11.5664 9.33325C11.6239 9.27149 11.668 9.19855 11.6961 9.11898C11.7242 9.03941 11.7356 8.95491 11.7296 8.87074L11.5601 6.49798L11.9449 5.72885C11.959 5.70037 11.9663 5.669 11.9662 5.63722H11.9666L11.9663 4.81791ZM11.43 5.84205L11.2252 6.25176H10.6591L10.4542 5.84205H11.43ZM11.2666 9.05388C11.2475 9.07458 11.2243 9.09106 11.1985 9.1023C11.1727 9.11354 11.1448 9.11927 11.1166 9.11914H10.7676C10.7395 9.11914 10.7116 9.11335 10.6859 9.10213C10.6601 9.0909 10.6369 9.07449 10.6177 9.05391C10.5985 9.03332 10.5838 9.00902 10.5745 8.98249C10.5651 8.95597 10.5613 8.92781 10.5633 8.89976L10.7232 6.66115H11.161L11.3209 8.89976C11.3231 8.92781 11.3193 8.956 11.31 8.98253C11.3006 9.00907 11.2858 9.03337 11.2666 9.05388Z" fill="#2C7BE5"/>
</g>
</g>
<defs>
<clipPath id="clip0_11456_67840">
<rect width="26" height="26" fill="white"/>
</clipPath>
</defs>
</svg>
