<svg width="29" height="17" viewBox="0 0 29 17" fill="none" xmlns="http://www.w3.org/2000/svg">
<g clip-path="url(#clip0_11456_67784)">
<mask id="mask0_11456_67784" style="mask-type:luminance" maskUnits="userSpaceOnUse" x="0" y="0" width="29" height="17">
<path d="M29 0H0V17H29V0Z" fill="white"/>
</mask>
<g mask="url(#mask0_11456_67784)">
<path d="M27.063 1.91414C26.9487 1.79648 26.8115 1.70293 26.6595 1.63913C26.5076 1.57532 26.3441 1.5426 26.179 1.54294H25.8233C24.8903 1.54294 24.1254 2.21149 24.0439 3.09813L23.659 7.28196C23.6404 7.46286 23.5534 7.63023 23.4155 7.75079C23.2776 7.87135 23.0987 7.93627 22.9145 7.93265H19.5834C18.5159 7.93265 17.6475 8.76124 17.6475 9.7797V9.96321C17.6475 10.5785 18.1721 11.0791 18.817 11.0791H19.5311L18.8279 13.2701C18.8274 13.2717 18.8269 13.2734 18.8263 13.275L18.2888 14.9497C18.2742 14.997 18.2693 15.0467 18.2744 15.0959C18.2796 15.1451 18.2947 15.1928 18.3188 15.2361C18.3429 15.2795 18.3756 15.3176 18.4149 15.3483C18.4542 15.3789 18.4993 15.4015 18.5476 15.4147C18.5848 15.4256 18.6233 15.4311 18.6621 15.4311C18.7445 15.4319 18.825 15.4068 18.892 15.3595C18.9591 15.3122 19.0091 15.2451 19.0351 15.1678L19.4883 13.7555H24.8408L25.2941 15.1678C25.32 15.2451 25.37 15.3122 25.437 15.3595C25.5041 15.4068 25.5846 15.4319 25.667 15.4311C25.7057 15.4311 25.7443 15.4256 25.7814 15.4147C25.8297 15.4015 25.8748 15.3789 25.9141 15.3483C25.9534 15.3176 25.9861 15.2795 26.0102 15.2361C26.0344 15.1928 26.0494 15.1451 26.0546 15.0959C26.0598 15.0467 26.0549 14.997 26.0402 14.9497L24.7647 10.9751C24.9886 10.9146 25.7644 10.6194 26.2761 10.0245C26.7877 9.42962 26.0748 9.27634 25.8878 9.37857C25.2451 10.1779 24.3464 10.3345 23.9821 10.3345H18.8171C18.7157 10.336 18.6178 10.2978 18.5448 10.2282C18.4719 10.1586 18.4299 10.0633 18.428 9.96321V9.7797C18.428 9.17182 18.9464 8.67727 19.5835 8.67727H22.9149C23.7127 8.67727 24.3669 8.10551 24.4366 7.34732L24.8214 3.16344C24.8465 2.92001 24.9635 2.69481 25.1491 2.53257C25.3347 2.37033 25.5754 2.28291 25.8233 2.28768H26.179C26.2367 2.28724 26.2938 2.29851 26.3469 2.32081C26.4 2.3431 26.4479 2.37593 26.4875 2.41727C26.5268 2.45734 26.5568 2.50531 26.5755 2.55788C26.5942 2.61046 26.6011 2.66641 26.5959 2.72189L26.063 8.51575C25.8484 9.65028 25.7867 9.4223 25.7423 9.55824C25.7274 9.60546 25.7223 9.65515 25.7272 9.70436C25.7321 9.75357 25.747 9.80131 25.7709 9.84476C25.7948 9.88822 25.8273 9.9265 25.8665 9.95735C25.9056 9.9882 25.9506 10.011 25.9989 10.0244C26.205 10.0855 26.2899 10.4604 26.8405 8.58083L27.3734 2.78697C27.3874 2.62808 27.3669 2.46807 27.3134 2.31758C27.2599 2.16709 27.1745 2.02957 27.063 1.91414ZM20.3472 11.0791H23.9817L24.6017 13.0107H19.7272L20.3472 11.0791Z" fill="#2C7BE5"/>
<path d="M9.41719 7.93279H6.08584C5.90172 7.93635 5.72297 7.87143 5.5851 7.75094C5.44724 7.63045 5.36033 7.46319 5.34164 7.28238L4.95681 3.09855C4.87526 2.21192 4.1103 1.54337 3.17743 1.54337H2.82172C2.65658 1.54303 2.4931 1.57575 2.34115 1.63955C2.1892 1.70335 2.05194 1.79691 1.93768 1.91456C1.82615 2.02996 1.74079 2.16747 1.68728 2.31795C1.63377 2.46842 1.61333 2.62841 1.62732 2.78729L2.16023 8.58114C2.22502 9.26853 2.55431 9.90527 3.08034 10.3604C3.41258 10.6502 3.8079 10.8608 4.23576 10.9758L2.96028 14.9499C2.94565 14.9972 2.94076 15.0469 2.94591 15.0961C2.95107 15.1453 2.96615 15.193 2.99028 15.2363C3.01441 15.2797 3.04709 15.3178 3.08639 15.3485C3.1257 15.3791 3.17083 15.4017 3.21913 15.4149C3.25628 15.4258 3.29482 15.4313 3.33357 15.4313C3.41597 15.4321 3.49649 15.407 3.56351 15.3597C3.63053 15.3123 3.6806 15.2452 3.70651 15.168L4.15978 13.7557H9.51225L9.96558 15.168C9.99147 15.2452 10.0415 15.3124 10.1086 15.3597C10.1756 15.407 10.2561 15.4321 10.3385 15.4313C10.3773 15.4313 10.4158 15.4258 10.4529 15.4149C10.5012 15.4017 10.5464 15.3791 10.5857 15.3485C10.625 15.3178 10.6577 15.2797 10.6818 15.2363C10.7059 15.193 10.721 15.1453 10.7262 15.0961C10.7313 15.0469 10.7264 14.9972 10.7118 14.9499L10.1743 13.2751L10.1728 13.2703L9.46962 11.0793H10.1835C10.8285 11.0793 11.3531 10.5787 11.3531 9.96341V9.7799C11.3532 8.76139 10.4847 7.93279 9.41719 7.93279ZM4.39879 13.0109L5.0187 11.0793H8.65338L9.27329 13.0109H4.39879ZM10.5727 9.96341C10.5708 10.0635 10.5288 10.1588 10.4559 10.2284C10.383 10.298 10.285 10.3362 10.1836 10.3347H5.01847C4.93612 10.3345 4.85384 10.3298 4.77202 10.3206C3.79571 10.213 3.02622 9.4735 2.93789 8.51606L2.40475 2.72215C2.39951 2.66667 2.40648 2.61072 2.42518 2.55815C2.44388 2.50557 2.47387 2.4576 2.5131 2.41752C2.55276 2.37618 2.60063 2.34334 2.65372 2.32105C2.7068 2.29875 2.76397 2.28748 2.82166 2.28793H3.17714C3.42504 2.28314 3.66571 2.37055 3.85132 2.53279C4.03693 2.69504 4.15392 2.92025 4.17903 3.16369L4.56386 7.34752C4.63346 8.10571 5.28776 8.67753 6.08555 8.67753H9.4169C10.054 8.67753 10.5724 9.17208 10.5724 9.77995V9.96352L10.5727 9.96341Z" fill="#2C7BE5"/>
<path d="M17.2777 14.1609C17.1269 13.55 16.6025 13.1233 16.0029 13.1233H15.7767V6.11244H20.2818C20.4114 6.11163 20.5391 6.08111 20.6547 6.0233C20.7703 5.96549 20.8708 5.88197 20.9481 5.77931C21.0296 5.6729 21.0874 5.55069 21.1177 5.4207C21.1481 5.29071 21.1502 5.15587 21.124 5.02501C20.9666 4.21966 20.2855 3.63519 19.5045 3.63519H11.8981C11.7989 3.6415 11.7059 3.68482 11.638 3.75635C11.57 3.82788 11.5322 3.92225 11.5322 4.02029C11.5322 4.11834 11.57 4.21271 11.638 4.28424C11.7059 4.35576 11.7989 4.39908 11.8981 4.4054H19.5043C19.9398 4.4054 20.3194 4.73126 20.4071 5.18013C20.4111 5.19963 20.4109 5.21976 20.4064 5.23916C20.4019 5.25856 20.3932 5.27678 20.381 5.2926C20.3695 5.30795 20.3545 5.32044 20.3372 5.32907C20.32 5.33769 20.3009 5.34222 20.2816 5.34229H8.71785C8.69852 5.34222 8.67948 5.33769 8.66224 5.32906C8.645 5.32043 8.63004 5.30795 8.61856 5.2926C8.6063 5.27679 8.59763 5.25857 8.5931 5.23917C8.58858 5.21977 8.58832 5.19964 8.59234 5.18013C8.68004 4.7312 9.05965 4.40534 9.49505 4.40534H12.4299C12.529 4.39903 12.622 4.3557 12.6899 4.28418C12.7579 4.21265 12.7957 4.11828 12.7957 4.02024C12.7957 3.92219 12.7579 3.82782 12.6899 3.75629C12.622 3.68477 12.529 3.64145 12.4299 3.63513H9.49505C8.71397 3.63513 8.03293 4.21966 7.87558 5.02501C7.84941 5.15586 7.85155 5.29069 7.88186 5.42067C7.91216 5.55065 7.96995 5.67284 8.05143 5.77925C8.12879 5.88191 8.22925 5.96544 8.3449 6.02325C8.46054 6.08106 8.58822 6.11157 8.71785 6.11238H13.223V13.1234H12.9968C12.3971 13.1234 11.8729 13.55 11.722 14.1609L11.6361 14.5084C11.6086 14.617 11.6055 14.7302 11.6269 14.8401C11.6482 14.95 11.6936 15.054 11.7598 15.1449C11.8223 15.2328 11.9052 15.3046 12.0016 15.3544C12.098 15.4042 12.2051 15.4305 12.3139 15.4311H16.6861C16.7949 15.4305 16.902 15.4042 16.9984 15.3544C17.0948 15.3046 17.1777 15.2328 17.2401 15.1449C17.3063 15.054 17.3517 14.95 17.3731 14.8401C17.3944 14.7302 17.3913 14.617 17.3639 14.5084L17.2777 14.1609ZM13.9547 6.11244H15.0448V13.1234H13.9547V6.11244ZM12.3539 14.6609L12.4296 14.3547C12.4579 14.2263 12.5292 14.1109 12.632 14.0273C12.7347 13.9436 12.863 13.8965 12.9962 13.8936H16.0025C16.1357 13.8965 16.264 13.9436 16.3668 14.0273C16.4696 14.1109 16.5408 14.2263 16.5691 14.3547L16.6449 14.6609H12.3539Z" fill="#2C7BE5"/>
</g>
</g>
<defs>
<clipPath id="clip0_11456_67784">
<rect width="29" height="17" fill="white"/>
</clipPath>
</defs>
</svg>
