<svg xmlns="http://www.w3.org/2000/svg" xmlns:xlink="http://www.w3.org/1999/xlink" width="300" height="97" viewBox="0 0 300 97"><defs><clipPath id="a"><rect width="300" height="97" transform="translate(0.228 5.188)"/></clipPath></defs><g transform="translate(-0.228 -5.188)" clip-path="url(#a)"><g transform="translate(5.805 14.113)"><path d="M77.341,487.02l6.7,0s.769,21.116,22.3,23.681l.039,5.681S80.181,515.61,77.341,487.02Z" transform="translate(-77.341 -452.697)" fill="#bf3160"/><path d="M77.341,487.02l6.7,0s.769,21.116,22.3,23.681l.039,5.681S80.181,515.61,77.341,487.02Z" transform="translate(-77.341 -452.697)" fill="#e91e63"/><path d="M245.17,487.5l-6.7,0s-.769,21.116-22.3,23.681l-.039,5.681S242.331,516.09,245.17,487.5Z" transform="translate(-182.052 -453.059)" fill="#ff9800"/><path d="M77.341,377.064l6.7,0s.769-21.117,22.3-23.681l.039-5.681S80.181,348.474,77.341,377.064Z" transform="translate(-77.341 -347.582)" fill="#4f9d4f"/><path d="M77.341,377.064l6.7,0s.769-21.117,22.3-23.681l.039-5.681S80.181,348.474,77.341,377.064Z" transform="translate(-77.341 -347.582)" fill="#4f9d4f"/><path d="M77.341,377.064l6.7,0s.769-21.117,22.3-23.681l.039-5.681S80.181,348.474,77.341,377.064Z" transform="translate(-77.341 -347.582)" fill="#4caf50"/><path d="M245.17,376.582l-6.7,0s-.769-21.117-22.3-23.681l-.039-5.681S242.331,347.992,245.17,376.582Z" transform="translate(-182.052 -347.218)" fill="#3883c2"/><path d="M245.17,376.582l-6.7,0s-.769-21.117-22.3-23.681l-.039-5.681S242.331,347.992,245.17,376.582Z" transform="translate(-182.052 -347.218)" fill="#3883c2"/><path d="M245.17,376.582l-6.7,0s-.769-21.117-22.3-23.681l-.039-5.681S242.331,347.992,245.17,376.582Z" transform="translate(-182.052 -347.218)" fill="#3883c2"/><path d="M245.17,376.582l-6.7,0s-.769-21.117-22.3-23.681l-.039-5.681S242.331,347.992,245.17,376.582Z" transform="translate(-182.052 -347.218)" fill="#3883c2"/><path d="M245.17,376.582l-6.7,0s-.769-21.117-22.3-23.681l-.039-5.681S242.331,347.992,245.17,376.582Z" transform="translate(-182.052 -347.218)" fill="#2196f3"/><g transform="translate(81.608 11.815)"><path d="M398.942,417.9a21.055,21.055,0,0,1,1.42-7.838,18.655,18.655,0,0,1,3.943-6.181,17.9,17.9,0,0,1,6.074-4.077,21.436,21.436,0,0,1,15.617,0,17.9,17.9,0,0,1,6.074,4.077,18.666,18.666,0,0,1,3.944,6.181,22.42,22.42,0,0,1,0,15.7,18.6,18.6,0,0,1-3.944,6.207,17.58,17.58,0,0,1-6.073,4.05,21.8,21.8,0,0,1-15.617,0,17.582,17.582,0,0,1-6.074-4.05,18.588,18.588,0,0,1-3.943-6.207A21.246,21.246,0,0,1,398.942,417.9Zm3.47,0a18.576,18.576,0,0,0,1.105,6.47,15.374,15.374,0,0,0,3.155,5.208,14.6,14.6,0,0,0,4.97,3.471,17.6,17.6,0,0,0,13.094,0,14.6,14.6,0,0,0,4.969-3.471,15.366,15.366,0,0,0,3.155-5.208,19.5,19.5,0,0,0,0-12.941,15.354,15.354,0,0,0-3.155-5.208,14.587,14.587,0,0,0-4.969-3.472,17.609,17.609,0,0,0-13.094,0,14.586,14.586,0,0,0-4.97,3.472,15.362,15.362,0,0,0-3.155,5.208A18.57,18.57,0,0,0,402.412,417.9Z" transform="translate(-398.942 -396.751)" fill="#141414"/><path d="M580.276,459q0-.682-.053-1.656t-.078-1.973q-.028-1-.079-1.868t-.052-1.341h3.155q.052,1.367.078,2.629a8.286,8.286,0,0,0,.132,1.631,10.774,10.774,0,0,1,3.1-3.524,7.7,7.7,0,0,1,4.628-1.368,5.269,5.269,0,0,1,.92.079q.447.078.92.184l-.368,3.1a3.826,3.826,0,0,0-1.21-.211,8.8,8.8,0,0,0-3.55.657,6.675,6.675,0,0,0-2.471,1.816,7.6,7.6,0,0,0-1.447,2.709,11.39,11.39,0,0,0-.473,3.34v13.256h-3.155Z" transform="translate(-534.896 -436.699)" fill="#141414"/><path d="M664.669,427.5h-.106a8.135,8.135,0,0,1-1.84,2.183,10.982,10.982,0,0,1-2.395,1.526,11.981,11.981,0,0,1-2.708.895,14,14,0,0,1-2.786.289,13.753,13.753,0,0,1-5.154-.946,11.717,11.717,0,0,1-4.049-2.657,12.246,12.246,0,0,1-2.629-4.05,14.37,14.37,0,0,1,0-10.258,12.251,12.251,0,0,1,2.629-4.05,11.694,11.694,0,0,1,4.049-2.657,13.735,13.735,0,0,1,5.154-.947,13.949,13.949,0,0,1,2.786.289,12.048,12.048,0,0,1,2.707.894,11.082,11.082,0,0,1,2.394,1.525,8.141,8.141,0,0,1,1.84,2.184h.106V391.994h3.154v39.77h-3.154Zm.314-7.89a9.611,9.611,0,0,0-.786-3.867,9.957,9.957,0,0,0-2.157-3.156,10.389,10.389,0,0,0-3.207-2.131,10.054,10.054,0,0,0-4-.789,9.79,9.79,0,0,0-4,.789,9.273,9.273,0,0,0-3.051,2.131,9.025,9.025,0,0,0-1.92,3.156,11.7,11.7,0,0,0,0,7.733,9.035,9.035,0,0,0,1.92,3.157,9.277,9.277,0,0,0,3.051,2.13,9.8,9.8,0,0,0,4,.789,10.066,10.066,0,0,0,4-.789,10.4,10.4,0,0,0,3.207-2.13,9.969,9.969,0,0,0,2.157-3.157,9.605,9.605,0,0,0,.786-3.866Z" transform="translate(-581.479 -391.994)" fill="#141414"/><path d="M793.822,471.886a10.647,10.647,0,0,1-4.55,4,14.466,14.466,0,0,1-5.968,1.21,12.953,12.953,0,0,1-5.048-.946,11.383,11.383,0,0,1-3.891-2.657,11.668,11.668,0,0,1-2.5-4.05,14.829,14.829,0,0,1-.866-5.182,13.9,13.9,0,0,1,.892-5.051,12.057,12.057,0,0,1,2.524-4.023,11.856,11.856,0,0,1,3.839-2.683,12.007,12.007,0,0,1,4.89-.973,11.717,11.717,0,0,1,4.918.973,10.774,10.774,0,0,1,3.576,2.578,10.941,10.941,0,0,1,2.183,3.656,12.238,12.238,0,0,1,.735,4.155V465.1h-20.4a10.83,10.83,0,0,0,.395,2.552A9,9,0,0,0,776,470.676a9.129,9.129,0,0,0,2.813,2.526,8.783,8.783,0,0,0,4.549,1.052,10.155,10.155,0,0,0,4.68-1.157,8.441,8.441,0,0,0,3.471-3.157Zm-2.419-9.627a7.2,7.2,0,0,0-.657-3.051,8.181,8.181,0,0,0-1.788-2.5,8.486,8.486,0,0,0-2.682-1.71,8.639,8.639,0,0,0-3.286-.631,8.042,8.042,0,0,0-4.285,1.052,9.36,9.36,0,0,0-2.709,2.42,9.556,9.556,0,0,0-1.42,2.656,6.981,6.981,0,0,0-.422,1.762Z" transform="translate(-678.292 -436.693)" fill="#141414"/><path d="M893.036,459q0-.682-.052-1.656t-.078-1.973q-.026-1-.08-1.868t-.052-1.341h3.155q.052,1.367.079,2.629a8.16,8.16,0,0,0,.131,1.631,10.8,10.8,0,0,1,3.1-3.525,7.692,7.692,0,0,1,4.627-1.368,5.27,5.27,0,0,1,.921.079c.3.052.6.113.92.184l-.369,3.1a3.82,3.82,0,0,0-1.21-.211,8.807,8.807,0,0,0-3.55.657,6.691,6.691,0,0,0-2.472,1.816,7.587,7.587,0,0,0-1.445,2.709,11.39,11.39,0,0,0-.474,3.341v13.257h-3.156Z" transform="translate(-769.724 -436.696)" fill="#141414"/><path d="M963.037,408.648a2.334,2.334,0,1,1,.684,1.684A2.289,2.289,0,0,1,963.037,408.648Zm.789,9.627h3.156v24.3h-3.156Z" transform="translate(-822.479 -402.808)" fill="#141414"/><path d="M1013.948,459q0-.682-.051-1.656t-.079-1.973q-.025-1-.079-1.868t-.053-1.341h3.156q.051,1.367.078,2.629a8.185,8.185,0,0,0,.13,1.631h.159a8.511,8.511,0,0,1,3.154-3.446,9.187,9.187,0,0,1,5.153-1.447,10.356,10.356,0,0,1,4.627.894,7.477,7.477,0,0,1,2.815,2.341,8.829,8.829,0,0,1,1.42,3.34,19.053,19.053,0,0,1,.394,3.894v14.465h-3.155V462.16a15.52,15.52,0,0,0-.263-2.867,7.615,7.615,0,0,0-.922-2.5,4.818,4.818,0,0,0-1.839-1.763,6.317,6.317,0,0,0-3.077-.657,8.976,8.976,0,0,0-3.286.6,7.087,7.087,0,0,0-2.681,1.841,8.931,8.931,0,0,0-1.789,3.1,13.235,13.235,0,0,0-.657,4.392v12.151h-3.156Z" transform="translate(-860.508 -436.699)" fill="#141414"/><path d="M1153.308,474.89a17.266,17.266,0,0,1-1.315,7.312,11.562,11.562,0,0,1-3.287,4.315,10.912,10.912,0,0,1-4.233,2.051,18.271,18.271,0,0,1-4.1.526,18.757,18.757,0,0,1-3.6-.344,17.093,17.093,0,0,1-3.339-1,13.756,13.756,0,0,1-2.865-1.6,11.39,11.39,0,0,1-2.236-2.158l2.472-2.314a10.046,10.046,0,0,0,4.207,3.472,13.233,13.233,0,0,0,5.363,1.1,11.511,11.511,0,0,0,4.075-.631,8.059,8.059,0,0,0,2.734-1.658,7.918,7.918,0,0,0,1.683-2.261,11.68,11.68,0,0,0,.894-2.473,12.981,12.981,0,0,0,.341-2.341q.054-1.1.053-1.79v-3.366h-.1a9.7,9.7,0,0,1-3.708,3.472,11.4,11.4,0,0,1-5.495,1.263,13.12,13.12,0,0,1-5.048-.974,12.843,12.843,0,0,1-6.914-6.655,11.932,11.932,0,0,1,0-9.678,12.567,12.567,0,0,1,2.786-3.945,13.544,13.544,0,0,1,4.128-2.683,12.844,12.844,0,0,1,5.048-1,11.4,11.4,0,0,1,5.495,1.262,9.7,9.7,0,0,1,3.708,3.472h.1v-4.1h3.155ZM1150.259,464a9.386,9.386,0,0,0-.763-3.761,9.625,9.625,0,1,0-12.62,12.626,9.623,9.623,0,0,0,12.62-5.1,9.383,9.383,0,0,0,.762-3.76Z" transform="translate(-946.231 -436.699)" fill="#141414"/></g></g></g></svg>