<svg width="337" height="104" viewBox="0 0 337 104" fill="none" xmlns="http://www.w3.org/2000/svg">
<path d="M0 39.975L7.80878 39.9777C7.80878 39.9777 8.70431 64.5727 33.7843 67.5573L33.8303 74.1747C33.8303 74.1747 3.30738 73.2759 0 39.975Z" fill="#BF3160"/>
<path d="M0 39.975L7.80878 39.9777C7.80878 39.9777 8.70431 64.5727 33.7843 67.5573L33.8303 74.1747C33.8303 74.1747 3.30738 73.2759 0 39.975Z" fill="#E91E63"/>
<path d="M73.5158 40.1124H65.707C65.707 40.1124 64.8115 64.7074 39.732 67.6952L39.686 74.3116C39.686 74.3116 70.209 73.4128 73.5158 40.1124Z" fill="#FF9800"/>
<path d="M0 34.3377L7.80878 34.3344C7.80878 34.3344 8.70485 9.73893 33.7843 6.75494L33.8303 0.135864C33.8303 0.135864 3.30738 1.03788 0 34.3377Z" fill="#4F9D4F"/>
<path d="M0 34.3377L7.80878 34.3344C7.80878 34.3344 8.70485 9.73893 33.7843 6.75494L33.8303 0.135864C33.8303 0.135864 3.30738 1.03788 0 34.3377Z" fill="#4F9D4F"/>
<path d="M0 34.3377L7.80878 34.3344C7.80878 34.3344 8.70485 9.73893 33.7843 6.75494L33.8303 0.135864C33.8303 0.135864 3.30738 1.03788 0 34.3377Z" fill="#4CAF50"/>
<path d="M73.5158 34.1991L65.707 34.1964C65.707 34.1964 64.8115 9.60092 39.732 6.61693L39.686 0C39.686 0 70.209 0.899324 73.5158 34.1991Z" fill="#3883C2"/>
<path d="M73.5158 34.1991L65.707 34.1964C65.707 34.1964 64.8115 9.60092 39.732 6.61693L39.686 0C39.686 0 70.209 0.899324 73.5158 34.1991Z" fill="#3883C2"/>
<path d="M73.5158 34.1991L65.707 34.1964C65.707 34.1964 64.8115 9.60092 39.732 6.61693L39.686 0C39.686 0 70.209 0.899324 73.5158 34.1991Z" fill="#3883C2"/>
<path d="M73.5158 34.1991L65.707 34.1964C65.707 34.1964 64.8115 9.60092 39.732 6.61693L39.686 0C39.686 0 70.209 0.899324 73.5158 34.1991Z" fill="#3883C2"/>
<path d="M73.5158 34.1991L65.707 34.1964C65.707 34.1964 64.8115 9.60092 39.732 6.61693L39.686 0C39.686 0 70.209 0.899324 73.5158 34.1991Z" fill="#2196F3"/>
<path d="M95.0532 38.3911C95.0189 35.2712 95.5801 32.1734 96.7069 29.2639C97.7468 26.5839 99.308 24.1369 101.3 22.0645C103.307 20.0116 105.715 18.395 108.375 17.316C114.223 15.0288 120.718 15.0288 126.565 17.316C129.225 18.3951 131.633 20.0116 133.639 22.0645C135.632 24.1367 137.195 26.5837 138.236 29.2639C140.44 35.1611 140.44 41.6562 138.236 47.5534C137.2 50.2453 135.637 52.7032 133.639 54.783C131.637 56.8333 129.227 58.4405 126.565 59.5007C120.71 61.747 114.231 61.747 108.375 59.5007C105.713 58.4405 103.303 56.8333 101.301 54.783C99.3031 52.7025 97.7412 50.2438 96.7069 47.5512C95.5813 44.6299 95.0201 41.5216 95.0532 38.3911ZM99.095 38.3911C99.0732 40.9596 99.5091 43.5115 100.382 45.9273C101.19 48.1742 102.439 50.2368 104.056 51.9937C105.681 53.7311 107.652 55.1082 109.842 56.036C114.736 57.9975 120.198 57.9975 125.092 56.036C127.283 55.1082 129.254 53.7311 130.878 51.9937C132.497 50.2371 133.747 48.1745 134.556 45.9273C136.271 41.0496 136.271 35.7325 134.556 30.8548C133.747 28.6078 132.497 26.5455 130.878 24.7895C129.254 23.0515 127.283 21.674 125.092 20.7461C120.198 18.786 114.737 18.786 109.842 20.7461C107.652 21.6739 105.68 23.0515 104.056 24.7895C102.439 26.5459 101.19 28.6082 100.382 30.8548C99.5089 33.2705 99.0731 35.8225 99.095 38.3911Z" fill="#141414"/>
<path d="M147.91 39.7394C147.91 39.2098 147.89 38.5668 147.849 37.8104C147.808 37.0541 147.777 36.288 147.758 35.5121C147.737 34.737 147.706 34.0118 147.665 33.3366C147.625 32.6614 147.605 32.141 147.605 31.7754H151.282C151.322 32.8371 151.352 33.8579 151.373 34.8378C151.361 35.4747 151.413 36.1113 151.526 36.7381C152.415 35.1207 153.648 33.7191 155.14 32.6331C156.719 31.5377 158.609 30.979 160.53 31.0394C160.889 31.0388 161.248 31.0697 161.602 31.1319C161.948 31.1924 162.306 31.2645 162.673 31.3482L162.245 34.9633C161.792 34.8061 161.316 34.7232 160.836 34.7177C159.42 34.6842 158.012 34.9447 156.702 35.483C155.591 35.9551 154.606 36.6792 153.824 37.5979C153.053 38.5241 152.48 39.5978 152.139 40.7533C151.763 42.0157 151.577 43.3271 151.588 44.6442V60.0817H147.91V39.7394Z" fill="#141414"/>
<path d="M191.949 55.1174H191.826C191.267 56.0842 190.542 56.9447 189.683 57.659C188.834 58.3696 187.897 58.9669 186.894 59.436C185.888 59.9077 184.829 60.2575 183.74 60.478C182.673 60.6986 181.586 60.8115 180.495 60.815C178.442 60.8357 176.405 60.4615 174.493 59.7129C172.723 59.021 171.117 57.9671 169.777 56.6185C168.453 55.2648 167.412 53.6611 166.715 51.9008C165.245 48.054 165.245 43.8003 166.715 39.9535C167.413 38.1933 168.454 36.5896 169.777 35.2358C171.116 33.8866 172.723 32.8325 174.493 32.1415C176.405 31.3921 178.443 31.0178 180.496 31.0388C181.586 31.0418 182.673 31.1545 183.741 31.3752C184.829 31.5963 185.888 31.946 186.894 32.4167C187.896 32.8869 188.833 33.484 189.682 34.1932C190.54 34.9076 191.266 35.768 191.825 36.7348H191.948V13.7595H195.622V60.0811H191.948L191.949 55.1174ZM192.315 45.928C192.324 44.3793 192.013 42.8454 191.399 41.4233C190.807 40.0468 189.954 38.798 188.887 37.7461C187.807 36.6932 186.54 35.8513 185.151 35.2639C183.678 34.6429 182.094 34.33 180.495 34.3446C178.897 34.3213 177.311 34.6345 175.841 35.2639C174.501 35.8428 173.293 36.6871 172.288 37.7461C171.297 38.8045 170.536 40.0565 170.052 41.4233C169.031 44.3388 169.031 47.5145 170.052 50.4299C170.536 51.7966 171.297 53.0485 172.288 54.1072C173.293 55.1656 174.501 56.0096 175.841 56.5883C177.311 57.2173 178.897 57.5305 180.495 57.5076C182.094 57.5218 183.678 57.2089 185.151 56.5883C186.54 56.001 187.807 55.1596 188.887 54.1072C189.953 53.055 190.806 51.8062 191.399 50.4299C192.012 49.0084 192.324 47.4751 192.314 45.9269L192.315 45.928Z" fill="#141414"/>
<path d="M229.616 54.7497C228.337 56.7823 226.496 58.4 224.316 59.4063C222.125 60.3641 219.756 60.8447 217.365 60.8161C215.351 60.8448 213.352 60.4701 211.486 59.714C209.776 59.0099 208.232 57.9559 206.954 56.6197C205.67 55.2638 204.679 53.6578 204.044 51.902C203.351 49.9664 203.009 47.9227 203.034 45.867C203.013 43.8584 203.365 41.8635 204.073 39.9839C204.733 38.2423 205.732 36.6493 207.013 35.2975C208.281 33.969 209.801 32.9068 211.485 32.1729C213.283 31.4001 215.223 31.0132 217.18 31.0373C219.148 30.9982 221.102 31.3856 222.907 32.1729C224.488 32.876 225.905 33.8982 227.071 35.1753C228.189 36.4145 229.053 37.8613 229.613 39.4334C230.177 40.9843 230.468 42.6213 230.472 44.2717V46.8468H206.708C206.742 47.853 206.896 48.8516 207.168 49.8211C207.504 51.0901 208.076 52.2846 208.853 53.3426C209.727 54.5413 210.843 55.5435 212.129 56.285C213.752 57.1642 215.584 57.5876 217.428 57.5104C219.327 57.5053 221.197 57.0431 222.88 56.1628C224.548 55.3436 225.949 54.0686 226.922 52.4855L229.616 54.7497ZM226.798 43.5368C226.806 42.3104 226.544 41.0973 226.033 39.9828C225.528 38.8902 224.821 37.903 223.95 37.0734C223.043 36.2186 221.983 35.5429 220.826 35.0818C219.61 34.5898 218.31 34.3403 216.998 34.3474C215.253 34.2824 213.524 34.7066 212.007 35.5722C210.781 36.2969 209.71 37.2546 208.852 38.3913C208.141 39.3287 207.583 40.3729 207.199 41.4851C206.946 42.1449 206.781 42.8348 206.707 43.5373L226.798 43.5368Z" fill="#141414"/>
<path d="M238.679 39.7392C238.679 39.2096 238.659 38.5666 238.619 37.8103C238.579 37.0539 238.548 36.2878 238.528 35.512C238.508 34.7369 238.477 34.0117 238.435 33.3365C238.394 32.6612 238.374 32.1408 238.375 31.7752H242.052C242.092 32.837 242.123 33.8578 242.145 34.8376C242.132 35.4746 242.183 36.1112 242.297 36.7379C243.186 35.121 244.419 33.7193 245.91 32.6324C247.489 31.5367 249.379 30.978 251.3 31.0387C251.659 31.0381 252.018 31.069 252.372 31.1312C252.718 31.1917 253.076 31.2638 253.444 31.3475L253.015 34.9626C252.561 34.8053 252.086 34.7225 251.606 34.7171C250.19 34.6838 248.782 34.9444 247.471 35.4822C246.361 35.9546 245.375 36.6784 244.592 37.5967C243.822 38.5228 243.25 39.5966 242.91 40.7521C242.534 42.0145 242.347 43.3258 242.358 44.643V60.0837H238.68L238.679 39.7392Z" fill="#141414"/>
<path d="M258.767 20.5591C258.776 19.9318 259.001 19.3268 259.405 18.8468C259.809 18.3667 260.367 18.0412 260.983 17.9252C261.6 17.8093 262.238 17.9102 262.788 18.2107C263.339 18.5113 263.769 18.9931 264.005 19.5743C264.241 20.1556 264.269 20.8006 264.084 21.4001C263.898 21.9995 263.512 22.5164 262.989 22.8633C262.466 23.2101 261.839 23.3654 261.215 23.3029C260.591 23.2405 260.007 22.964 259.564 22.5205C259.304 22.2653 259.099 21.9596 258.962 21.6223C258.825 21.2849 258.759 20.9231 258.767 20.5591ZM259.686 31.7721H263.364V60.0789H259.686V31.7721Z" fill="#141414"/>
<path d="M273.772 39.7393C273.772 39.2097 273.752 38.5667 273.712 37.8103C273.673 37.054 273.642 36.2879 273.62 35.512C273.601 34.7362 273.57 34.011 273.529 33.3365C273.487 32.662 273.466 32.1416 273.466 31.7753H277.144C277.183 32.837 277.213 33.8578 277.234 34.8377C277.221 35.4746 277.272 36.1112 277.386 36.738H277.572C278.398 35.0836 279.671 33.6934 281.245 32.7243C283.035 31.5793 285.124 30.9927 287.248 31.0393C289.101 30.9677 290.945 31.3241 292.637 32.0808C293.939 32.7038 295.066 33.6408 295.916 34.8074C296.731 35.9758 297.294 37.3007 297.57 38.6983C297.878 40.1903 298.032 41.7101 298.029 43.2337V60.0816H294.352V43.4149C294.354 42.2949 294.251 41.1772 294.046 40.0762C293.862 39.0509 293.498 38.066 292.973 37.1668C292.456 36.302 291.716 35.5922 290.831 35.1119C289.72 34.5584 288.487 34.2952 287.246 34.3467C285.938 34.3394 284.639 34.5778 283.419 35.0497C282.226 35.5128 281.156 36.247 280.296 37.1944C279.364 38.2467 278.656 39.4768 278.213 40.8105C277.671 42.4605 277.413 44.1901 277.447 45.9263V60.0816H273.77L273.772 39.7393Z" fill="#141414"/>
<path d="M336.244 58.2426C336.244 61.7561 335.734 64.5948 334.713 66.7587C333.854 68.7137 332.541 70.4363 330.885 71.7841C329.435 72.9295 327.752 73.7448 325.955 74.1732C324.39 74.5578 322.787 74.7635 321.177 74.7865C319.769 74.7884 318.364 74.6542 316.981 74.3857C315.649 74.1314 314.345 73.7415 313.092 73.222C311.909 72.735 310.789 72.1081 309.755 71.3547C308.776 70.6398 307.9 69.7941 307.15 68.8412L310.029 66.1465C311.258 67.9205 312.954 69.3199 314.929 70.1899C316.899 71.0496 319.027 71.4878 321.176 71.4764C322.789 71.5193 324.397 71.2706 325.923 70.742C327.103 70.3177 328.185 69.6612 329.107 68.8115C329.913 68.0581 330.577 67.1663 331.068 66.1784C331.523 65.2605 331.872 64.2941 332.109 63.2977C332.324 62.403 332.457 61.4906 332.507 60.5717C332.548 59.7144 332.569 59.0195 332.569 58.487V54.5669H332.448C331.393 56.2745 329.902 57.6702 328.128 58.6103C326.152 59.6288 323.951 60.1347 321.728 60.0817C319.713 60.0947 317.714 59.7087 315.849 58.9461C312.263 57.5 309.377 54.722 307.795 51.1946C307.008 49.4199 306.601 47.4998 306.601 45.5581C306.601 43.6165 307.008 41.6964 307.795 39.9217C308.57 38.1941 309.671 36.633 311.04 35.3251C312.438 33.9986 314.068 32.9396 315.848 32.2005C317.709 31.4197 319.709 31.0237 321.727 31.0362C323.95 30.9827 326.151 31.4883 328.127 32.5066C329.901 33.4468 331.392 34.8424 332.447 36.5499H332.568V31.7711H336.245L336.244 58.2426ZM332.693 45.5598C332.701 44.0541 332.399 42.5629 331.804 41.1795C331.086 39.4909 329.964 38.0044 328.538 36.8504C327.111 35.6964 325.423 34.9102 323.622 34.5609C321.82 34.2116 319.961 34.3097 318.206 34.8468C316.452 35.3839 314.856 36.3434 313.558 37.6412C312.261 38.939 311.302 40.5353 310.766 42.2901C310.23 44.045 310.132 45.9046 310.483 47.7058C310.833 49.5071 311.62 51.1948 312.774 52.6209C313.929 54.0471 315.416 55.168 317.105 55.8853C318.46 56.4606 319.916 56.7631 321.388 56.7757C322.861 56.7883 324.321 56.5106 325.686 55.9585C327.051 55.4065 328.294 54.5908 329.344 53.5583C330.394 52.5257 331.23 51.2964 331.804 49.9406C332.399 48.5572 332.701 47.0659 332.692 45.5603L332.693 45.5598Z" fill="#141414"/>
<path d="M188.9 98.3535C187.208 100.878 184.229 102.007 181.826 102.007C175.564 102.007 171.672 97.49 171.672 91.6443C171.672 85.7985 175.564 81.2814 181.826 81.2814C184.229 81.2814 186.768 82.2778 188.257 84.47L190.085 82.9753C187.986 80.3514 185.075 79.2885 181.826 79.2885C174.515 79.2885 169.438 84.47 169.438 91.6443C169.438 98.8186 174.515 104 181.826 104C185.346 104 188.46 102.771 190.728 99.7153L188.9 98.3535Z" fill="#141414"/>
<path d="M206.402 93.2053C206.402 89.3193 203.965 87.6585 200.175 87.6585C198.144 87.6585 195.707 88.4225 194.217 89.8175L195.402 91.1793C196.79 90.0168 198.347 89.4521 200.175 89.4521C202.679 89.4521 204.575 90.515 204.575 93.1721V94.1021H202.205C199.125 94.1021 193.541 94.5671 193.541 99.2503C193.541 102.505 196.384 103.801 199.058 103.801C201.698 103.801 203.39 102.871 204.541 100.911H204.608C204.608 101.775 204.676 102.638 204.812 103.402H206.707C206.47 101.642 206.402 99.9478 206.402 96.9585V93.2053ZM204.575 95.6964V96.726C204.575 99.2836 203.458 102.007 199.125 102.007C197.433 102.007 195.571 101.044 195.571 99.1507C195.571 96.5268 198.956 95.6964 202.341 95.6964H204.575Z" fill="#141414"/>
<path d="M212.141 103.402H214.172V78.2921H212.141V103.402Z" fill="#141414"/>
<path d="M220.272 103.402H222.303V78.2921H220.272V103.402Z" fill="#141414"/>
<path d="M255.338 98.3535C253.645 100.878 250.667 102.007 248.264 102.007C242.002 102.007 238.11 97.49 238.11 91.6443C238.11 85.7985 242.002 81.2814 248.264 81.2814C250.667 81.2814 253.205 82.2778 254.694 84.47L256.522 82.9753C254.424 80.3514 251.513 79.2885 248.264 79.2885C240.953 79.2885 235.876 84.47 235.876 91.6443C235.876 98.8186 240.953 104 248.264 104C251.784 104 254.898 102.771 257.165 99.7153L255.338 98.3535Z" fill="#141414"/>
<path d="M273.009 99.2836C271.994 100.944 269.827 102.007 267.763 102.007C263.024 102.007 261.84 97.8885 261.84 96.2278H274.972V94.8328C274.972 91.2789 272.434 87.6585 267.627 87.6585C263.058 87.6585 259.809 91.1128 259.809 95.6964C259.809 100.446 262.957 103.801 267.729 103.801C270.504 103.801 272.907 102.837 274.498 100.512L273.009 99.2836ZM261.84 94.4343C261.84 93.6371 263.092 89.4521 267.526 89.4521C270.538 89.4521 272.941 91.7107 272.941 94.4343H261.84Z" fill="#141414"/>
<path d="M279.496 103.402H281.527V95.7296C281.527 91.5114 283.93 89.4521 286.942 89.4521C290.158 89.4521 290.869 91.8768 290.869 94.3678V103.402H292.9V94.2682C292.9 90.9135 291.816 87.6585 286.942 87.6585C284.404 87.6585 282.407 89.0535 281.595 90.7475H281.493C281.425 90.4485 281.392 89.1864 281.358 88.0571H279.327C279.327 88.8543 279.496 91.2457 279.496 92.375V103.402Z" fill="#141414"/>
<path d="M305.953 88.0571H301.485V83.6396H299.454V88.0571H296.07V89.8507H299.454V99.8482C299.454 102.04 300.571 103.801 303.482 103.801C304.261 103.801 305.378 103.535 306.122 103.269L305.953 101.476C305.242 101.775 304.43 102.007 303.651 102.007C302.298 102.007 301.485 101.21 301.485 99.8482V89.8507H305.953V88.0571Z" fill="#141414"/>
<path d="M321.895 99.2836C320.88 100.944 318.713 102.007 316.649 102.007C311.91 102.007 310.726 97.8885 310.726 96.2278H323.858V94.8328C323.858 91.2789 321.32 87.6585 316.513 87.6585C311.944 87.6585 308.695 91.1128 308.695 95.6964C308.695 100.446 311.843 103.801 316.615 103.801C319.39 103.801 321.794 102.837 323.384 100.512L321.895 99.2836ZM310.726 94.4343C310.726 93.6371 311.978 89.4521 316.412 89.4521C319.424 89.4521 321.827 91.7107 321.827 94.4343H310.726Z" fill="#141414"/>
<path d="M328.382 103.402H330.413V95.0321C330.413 92.0428 332.004 89.6514 335.524 89.6514C335.727 89.6514 335.998 89.6846 336.302 89.7843L336.539 87.8246C336.133 87.725 335.761 87.6585 335.355 87.6585C333.019 87.6585 331.395 88.9539 330.379 90.7475C330.312 90.4485 330.278 89.1864 330.244 88.0571H328.213C328.213 88.8543 328.382 91.2457 328.382 92.375V103.402Z" fill="#141414"/>
</svg>
