<svg xmlns="http://www.w3.org/2000/svg" xmlns:xlink="http://www.w3.org/1999/xlink" width="229" height="60" viewBox="0 0 229 60"><defs><style>.a{fill:#fff;}.b{clip-path:url(#a);}</style><clipPath id="a"><rect class="a" width="229" height="60" transform="translate(0 -0.139)"/></clipPath></defs><g class="b" transform="translate(0 0.139)"><g transform="translate(0 3.151)"><path class="a" d="M77.341,487.02h5.324s.611,17.163,17.711,19.248l.031,4.615S79.6,510.257,77.341,487.02Z" transform="translate(-77.341 -459.127)"/><path class="a" d="M77.341,487.02h5.324s.611,17.163,17.711,19.248l.031,4.615S79.6,510.257,77.341,487.02Z" transform="translate(-77.341 -459.127)"/><path class="a" d="M239.193,487.5h-5.324s-.611,17.163-17.711,19.248l-.031,4.615S236.937,510.74,239.193,487.5Z" transform="translate(-189.066 -459.513)"/><path class="a" d="M77.341,371.568h5.324s.611-17.163,17.711-19.248l.031-4.615S79.6,348.327,77.341,371.568Z" transform="translate(-77.341 -347.61)"/><path class="a" d="M77.341,371.568h5.324s.611-17.163,17.711-19.248l.031-4.615S79.6,348.327,77.341,371.568Z" transform="translate(-77.341 -347.61)"/><path class="a" d="M77.341,371.568h5.324s.611-17.163,17.711-19.248l.031-4.615S79.6,348.327,77.341,371.568Z" transform="translate(-77.341 -347.61)"/><path class="a" d="M239.193,371.086h-5.324s-.611-17.163-17.711-19.248l-.031-4.615S236.937,347.849,239.193,371.086Z" transform="translate(-189.066 -347.224)"/><path class="a" d="M239.193,371.086h-5.324s-.611-17.163-17.711-19.248l-.031-4.615S236.937,347.849,239.193,371.086Z" transform="translate(-189.066 -347.224)"/><path class="a" d="M239.193,371.086h-5.324s-.611-17.163-17.711-19.248l-.031-4.615S236.937,347.849,239.193,371.086Z" transform="translate(-189.066 -347.224)"/><path class="a" d="M239.193,371.086h-5.324s-.611-17.163-17.711-19.248l-.031-4.615S236.937,347.849,239.193,371.086Z" transform="translate(-189.066 -347.224)"/><path class="a" d="M239.193,371.086h-5.324s-.611-17.163-17.711-19.248l-.031-4.615S236.937,347.849,239.193,371.086Z" transform="translate(-189.066 -347.224)"/><g transform="translate(64.811 9.599)"><path class="a" d="M398.942,414.236a17.471,17.471,0,0,1,1.128-6.37,15.214,15.214,0,0,1,3.133-5.024,14.2,14.2,0,0,1,4.824-3.314,16.663,16.663,0,0,1,12.4,0,14.2,14.2,0,0,1,4.823,3.314,15.22,15.22,0,0,1,3.133,5.024,18.624,18.624,0,0,1,0,12.763,15.164,15.164,0,0,1-3.133,5.045,13.946,13.946,0,0,1-4.823,3.292,16.943,16.943,0,0,1-12.4,0,13.945,13.945,0,0,1-4.824-3.292,15.159,15.159,0,0,1-3.133-5.045A17.647,17.647,0,0,1,398.942,414.236Zm2.756,0a15.414,15.414,0,0,0,.877,5.259,12.557,12.557,0,0,0,2.505,4.234,11.6,11.6,0,0,0,3.947,2.821,13.679,13.679,0,0,0,10.4,0,11.6,11.6,0,0,0,3.946-2.821,12.55,12.55,0,0,0,2.506-4.234,16.2,16.2,0,0,0,0-10.518,12.539,12.539,0,0,0-2.506-4.233,11.582,11.582,0,0,0-3.946-2.822,13.688,13.688,0,0,0-10.4,0,11.587,11.587,0,0,0-3.947,2.822,12.545,12.545,0,0,0-2.505,4.233A15.413,15.413,0,0,0,401.7,414.236Z" transform="translate(-398.941 -397.047)"/><path class="a" d="M580.221,457.6q0-.555-.042-1.346t-.063-1.6q-.021-.811-.063-1.518t-.041-1.09h2.506q.04,1.111.063,2.137a6.83,6.83,0,0,0,.1,1.33,8.7,8.7,0,0,1,2.464-2.865,6.008,6.008,0,0,1,3.675-1.112,4.086,4.086,0,0,1,.731.065q.355.063.731.149l-.292,2.522a2.975,2.975,0,0,0-.961-.171,6.844,6.844,0,0,0-2.819.534,5.307,5.307,0,0,0-1.963,1.476,6.228,6.228,0,0,0-1.146,2.2,9.461,9.461,0,0,0-.376,2.715V471.8h-2.506Z" transform="translate(-544.179 -439.474)"/><path class="a" d="M660.013,420.855h-.084a6.576,6.576,0,0,1-1.461,1.775,8.7,8.7,0,0,1-1.9,1.24,9.362,9.362,0,0,1-2.151.727,10.866,10.866,0,0,1-2.216.235,10.7,10.7,0,0,1-4.093-.769,9.291,9.291,0,0,1-3.216-2.159,9.977,9.977,0,0,1-2.088-3.292,11.936,11.936,0,0,1,0-8.338,9.982,9.982,0,0,1,2.088-3.292,9.269,9.269,0,0,1,3.216-2.159,10.688,10.688,0,0,1,4.093-.77,10.835,10.835,0,0,1,2.216.235,9.412,9.412,0,0,1,2.151.727,8.782,8.782,0,0,1,1.9,1.24,6.583,6.583,0,0,1,1.461,1.775h.084V391.995h2.505V424.32h-2.505Zm.249-6.414a7.964,7.964,0,0,0-.624-3.143,8.1,8.1,0,0,0-1.713-2.565A8.242,8.242,0,0,0,655.379,407a7.827,7.827,0,0,0-3.175-.641,7.62,7.62,0,0,0-3.174.641,7.274,7.274,0,0,0-3.951,4.3,9.72,9.72,0,0,0,0,6.285,7.272,7.272,0,0,0,3.951,4.3,7.628,7.628,0,0,0,3.174.641,7.833,7.833,0,0,0,3.175-.641,8.242,8.242,0,0,0,2.546-1.732,8.116,8.116,0,0,0,1.713-2.566,7.965,7.965,0,0,0,.625-3.141Z" transform="translate(-593.945 -391.995)"/><path class="a" d="M789.131,468.078a8.513,8.513,0,0,1-3.613,3.249,11.265,11.265,0,0,1-4.738.984,10.082,10.082,0,0,1-4.009-.769,9.036,9.036,0,0,1-3.091-2.159,9.525,9.525,0,0,1-1.987-3.292,12.308,12.308,0,0,1-.688-4.212,11.544,11.544,0,0,1,.708-4.105,9.84,9.84,0,0,1,2-3.27,9.25,9.25,0,0,1,6.932-2.971,9.131,9.131,0,0,1,3.905.791,8.563,8.563,0,0,1,2.839,2.1,8.939,8.939,0,0,1,1.733,2.972,10.153,10.153,0,0,1,.584,3.377v1.8h-16.2a9,9,0,0,0,.313,2.074,7.394,7.394,0,0,0,1.146,2.458,7.312,7.312,0,0,0,2.234,2.053,6.843,6.843,0,0,0,3.613.855,7.915,7.915,0,0,0,3.717-.939,6.764,6.764,0,0,0,2.757-2.566Zm-1.921-7.821a5.968,5.968,0,0,0-.522-2.48,6.648,6.648,0,0,0-1.42-2.034,6.81,6.81,0,0,0-4.74-1.9,6.268,6.268,0,0,0-3.4.855,7.493,7.493,0,0,0-2.151,1.967,7.824,7.824,0,0,0-1.127,2.159,5.788,5.788,0,0,0-.335,1.432Z" transform="translate(-697.378 -439.474)"/><path class="a" d="M892.979,457.6q0-.555-.041-1.346t-.063-1.6q-.021-.811-.063-1.518t-.041-1.09h2.506q.041,1.111.063,2.137a6.807,6.807,0,0,0,.1,1.33,8.713,8.713,0,0,1,2.464-2.865,6.007,6.007,0,0,1,3.675-1.112,4.085,4.085,0,0,1,.732.065c.235.042.48.092.731.149l-.293,2.522a2.973,2.973,0,0,0-.961-.171,6.848,6.848,0,0,0-2.818.534,5.322,5.322,0,0,0-1.963,1.476,6.211,6.211,0,0,0-1.146,2.2,9.461,9.461,0,0,0-.376,2.715V471.8H892.98Z" transform="translate(-795.047 -439.474)"/><path class="a" d="M963.04,407.87a1.886,1.886,0,0,1,1.512-1.838,1.846,1.846,0,0,1,2.06,1.152,1.922,1.922,0,0,1-.694,2.295,1.822,1.822,0,0,1-2.335-.24,1.884,1.884,0,0,1-.543-1.369Zm.627,7.821h2.506v19.754h-2.506Z" transform="translate(-851.411 -403.124)"/><path class="a" d="M1013.894,457.6q0-.555-.04-1.346t-.063-1.6q-.021-.811-.062-1.518t-.042-1.09h2.506q.04,1.111.063,2.137a6.844,6.844,0,0,0,.1,1.33h.127a6.867,6.867,0,0,1,2.5-2.8,7.181,7.181,0,0,1,4.092-1.173,8.064,8.064,0,0,1,3.675.727,5.969,5.969,0,0,1,2.235,1.9,7.262,7.262,0,0,1,1.127,2.715,15.853,15.853,0,0,1,.313,3.165V471.8h-2.506v-11.63a12.908,12.908,0,0,0-.208-2.33,6.29,6.29,0,0,0-.732-2.034,3.868,3.868,0,0,0-1.46-1.433,4.922,4.922,0,0,0-2.446-.534,6.98,6.98,0,0,0-2.61.491,5.628,5.628,0,0,0-2.13,1.5,7.3,7.3,0,0,0-1.421,2.523,10.984,10.984,0,0,0-.522,3.57V471.8h-2.506Z" transform="translate(-892.034 -439.474)"/><path class="a" d="M1148.073,470.512a14.324,14.324,0,0,1-1.044,5.944,9.368,9.368,0,0,1-2.61,3.507,8.588,8.588,0,0,1-3.363,1.667,14.193,14.193,0,0,1-3.258.428,14.566,14.566,0,0,1-2.861-.279,13.332,13.332,0,0,1-2.652-.812,10.857,10.857,0,0,1-2.275-1.3,9.134,9.134,0,0,1-1.775-1.754l1.963-1.877a8.021,8.021,0,0,0,3.34,2.821,10.306,10.306,0,0,0,4.259.9,8.931,8.931,0,0,0,3.236-.512,6.284,6.284,0,0,0,3.509-3.185,9.634,9.634,0,0,0,.71-2.01,10.81,10.81,0,0,0,.271-1.9q.043-.9.043-1.455v-2.737h-.083a7.776,7.776,0,0,1-2.945,2.821,8.881,8.881,0,0,1-4.364,1.027,10.3,10.3,0,0,1-9.5-6.2,9.907,9.907,0,0,1,0-7.867,10.217,10.217,0,0,1,2.216-3.207,10.731,10.731,0,0,1,3.278-2.181,10,10,0,0,1,4.009-.813,8.889,8.889,0,0,1,4.364,1.026,7.777,7.777,0,0,1,2.944,2.822h.083v-3.334h2.506Zm-2.423-8.851a7.788,7.788,0,0,0-.606-3.057,7.686,7.686,0,0,0-4.05-4.145,7.5,7.5,0,0,0-5.972,0,7.683,7.683,0,0,0-4.05,4.145,8.013,8.013,0,0,0,0,6.114,7.69,7.69,0,0,0,4.05,4.145,7.513,7.513,0,0,0,5.972,0,7.693,7.693,0,0,0,4.051-4.145,7.778,7.778,0,0,0,.606-3.054Z" transform="translate(-983.615 -439.474)"/></g></g></g></svg>