<svg xmlns="http://www.w3.org/2000/svg" width="807.149" height="692.689" viewBox="0 0 807.149 692.689"><defs><style>.a{fill:#f5f5f5;}.b{fill:#d81212;}.c{fill:#fafafa;}.d{fill:#e4897b;}.e{opacity:0.3;}.f{opacity:0.106;}.g{fill:#263238;}.h{fill:#de5753;}.i{opacity:0.1;}.j{fill:#203048;}.k{fill:#ce6f64;}.l{fill:#161f33;}.m{opacity:0.2;}</style></defs><g transform="translate(0 645.565)"><ellipse class="a" cx="403.575" cy="23.562" rx="403.575" ry="23.562" transform="translate(0 0)"/></g><g transform="translate(340.361 173.156)"><rect class="b" width="86.589" height="10.574" rx="1.64" transform="translate(213.225)"/><rect class="c" width="106.321" height="8.596" rx="1.18" transform="translate(0 95.04)"/><rect class="c" width="74.038" height="8.596" rx="1.18" transform="translate(0 115.729)"/><rect class="c" width="106.321" height="8.596" rx="1.18" transform="translate(0 136.44)"/><rect class="c" width="42.608" height="8.596" rx="1.18" transform="translate(0 157.13)"/><rect class="c" width="42.608" height="8.596" rx="1.18" transform="translate(52.744 157.13)"/><rect class="c" width="106.321" height="8.596" rx="1.18" transform="translate(0 177.84)"/><rect class="c" width="106.321" height="8.596" rx="1.18" transform="translate(0 198.53)"/><rect class="c" width="88.337" height="8.596" rx="1.18" transform="translate(0 219.24)"/><rect class="c" width="43.836" height="8.596" rx="1.18" transform="translate(0 239.93)"/><rect class="c" width="119.455" height="11.906" rx="1.48" transform="translate(16.048 101.679)"/></g><g transform="translate(64.177 0)"><path class="d" d="M151.211,199.6c-1.832,4.163-3.851,8.659-5.62,13.051s-3.6,8.909-5.2,13.4a190.146,190.146,0,0,0-7.889,26.913l-.6,3.33-.208,1.249a4.321,4.321,0,0,1-.125,1.228,51.058,51.058,0,0,0,.125,6.078,122.605,122.605,0,0,0,2.081,13.8c1.748,9.429,3.976,19.149,6.244,28.724l-10.678,4.163a192.854,192.854,0,0,1-12.676-28.287,118.642,118.642,0,0,1-4.413-15.549,55.809,55.809,0,0,1-1.166-8.867c0-.833,0-1.624,0-2.519a12.455,12.455,0,0,1,.146-2.477l.416-4.163a131.13,131.13,0,0,1,2.852-15.923c1.166-5.2,2.664-10.262,4.163-15.257s3.372-9.908,5.349-14.737c.978-2.414,2.081-4.808,3.039-7.2a79.736,79.736,0,0,1,3.414-7.243Z" transform="translate(-60.839 7.481)"/><path class="d" d="M130.923,244.69l8.118,7.93-17.713,8.326s-4.288-7.514-1.311-14.3Z" transform="translate(-52.312 67.362)"/><path class="d" d="M144.359,260.3l-14.966,6.119-9.283-9.679L137.8,248.5Z" transform="translate(-51.073 71.482)"/><path class="b" d="M205.417,208.75l-1.977-.666A182.509,182.509,0,0,1,216.3,178.839l1.811,1a180.946,180.946,0,0,0-12.7,28.911Zm25.269-48.581L229,158.941a180.463,180.463,0,0,1,65.3-54.555l.937,1.873a178.466,178.466,0,0,0-64.546,53.972ZM458.794,109.11a174.025,174.025,0,0,0-21.064-9.554l.749-1.957a178.221,178.221,0,0,1,21.272,9.741Z" transform="translate(39.045 -91.71)"/><path class="e" d="M205.417,208.75l-1.977-.666A182.509,182.509,0,0,1,216.3,178.839l1.811,1a180.946,180.946,0,0,0-12.7,28.911Zm25.269-48.581L229,158.941a180.463,180.463,0,0,1,65.3-54.555l.937,1.873a178.466,178.466,0,0,0-64.546,53.972ZM458.794,109.11a174.025,174.025,0,0,0-21.064-9.554l.749-1.957a178.221,178.221,0,0,1,21.272,9.741Z" transform="translate(39.045 -91.71)"/><path class="b" d="M633.781,192.536A172.761,172.761,0,0,0,316.046,327.269c-13.9,4.871-27.642,10.1-41.3,15.486q-29.536,11.719-58.531,24.478c-19.316,8.555-38.549,17.276-57.594,26.393-9.554,4.475-18.983,9.2-28.5,13.779a41.191,41.191,0,0,0-13.2,9.054,39.862,39.862,0,0,0-5.349,7.015,35.907,35.907,0,0,0-4.163,9.637,26.476,26.476,0,0,0,15.257,30.91,36.55,36.55,0,0,0,10.116,2.623,39.291,39.291,0,0,0,8.846,0,41.128,41.128,0,0,0,15.195-4.975c9.429-4.767,18.92-9.367,28.287-14.258,18.733-9.554,37.466-19.524,55.971-29.64s37.029-20.711,55.1-31.576c12.489-7.556,25.1-15.278,37.466-23.354A172.761,172.761,0,0,0,633.823,192.536ZM539.158,391.378a136.4,136.4,0,1,1,61.923-182.711,136.4,136.4,0,0,1-61.923,182.711Z" transform="translate(-65.693 -94.77)"/><path class="f" d="M633.781,192.536A172.761,172.761,0,0,0,316.046,327.269c-13.9,4.871-27.642,10.1-41.3,15.486q-29.536,11.719-58.531,24.478c-19.316,8.555-38.549,17.276-57.594,26.393-9.554,4.475-18.983,9.2-28.5,13.779a41.191,41.191,0,0,0-13.2,9.054,39.862,39.862,0,0,0-5.349,7.015,35.907,35.907,0,0,0-4.163,9.637,26.476,26.476,0,0,0,15.257,30.91,36.55,36.55,0,0,0,10.116,2.623,39.291,39.291,0,0,0,8.846,0,41.128,41.128,0,0,0,15.195-4.975c9.429-4.767,18.92-9.367,28.287-14.258,18.733-9.554,37.466-19.524,55.971-29.64s37.029-20.711,55.1-31.576c12.489-7.556,25.1-15.278,37.466-23.354A172.761,172.761,0,0,0,633.823,192.536ZM539.158,391.378a136.4,136.4,0,1,1,61.923-182.711,136.4,136.4,0,0,1-61.923,182.711Z" transform="translate(-65.693 -94.77)"/><path class="g" d="M158,159.707c0,1.228.645,2.227,1.457,2.227s1.457-1,1.457-2.227-.645-2.227-1.457-2.227S158,158.562,158,159.707Z" transform="translate(-10.097 -26.952)"/><path class="h" d="M158.28,159.62a44.4,44.4,0,0,0,5.891,10.553,7.1,7.1,0,0,1-5.891,1.1Z" transform="translate(-9.794 -24.638)"/><path class="g" d="M156.311,156.7a.77.77,0,0,1-.6-.291.749.749,0,0,1,.167-1.02,7.139,7.139,0,0,1,6.515-1.1.729.729,0,1,1-.52,1.353,5.682,5.682,0,0,0-5.141.937A.749.749,0,0,1,156.311,156.7Z" transform="translate(-12.717 -30.788)"/><path class="d" d="M139.6,163c2.081,11.177,4.371,31.68-3.455,39.152,0,0,3.06,11.344,23.854,11.344,22.9,0,10.907-11.344,10.907-11.344-12.489-3-12.135-12.239-9.97-20.939Z" transform="translate(-33.737 -20.983)"/><path class="b" d="M132.526,193.037c2.477-3.851-1.686-13.2-1.686-13.2s36.8-9.262,51.849,4.954c3.122,2.935-.333,7.264-.333,7.264Z" transform="translate(-39.469 -5.977)"/><path class="i" d="M132.526,193.037c2.477-3.851-1.686-13.2-1.686-13.2s36.8-9.262,51.849,4.954c3.122,2.935-.333,7.264-.333,7.264Z" transform="translate(-39.469 -5.977)"/><path class="b" d="M105.524,391.276c-1.936,0-5.037-3.226-5.953-4.433a.354.354,0,0,1,0-.4.375.375,0,0,1,.333-.187c.229,0,5.329.458,6.723,2.269a1.686,1.686,0,0,1,.333,1.374,1.5,1.5,0,0,1-1.082,1.353Zm-4.829-4.163c1.519,1.748,3.955,3.726,5,3.476,0,0,.416-.1.541-.77a.937.937,0,0,0-.208-.791,9.721,9.721,0,0,0-5.329-1.957Z" transform="translate(-73.35 220.464)"/><path class="b" d="M100.949,388.683a5.583,5.583,0,0,1-1.124,0,.333.333,0,0,1-.291-.229.416.416,0,0,1,0-.375c.146-.125,3.205-3.31,5.516-3.31h0a1.957,1.957,0,0,1,1.478.624,1.186,1.186,0,0,1,.291,1.457C106.215,388.017,103.03,388.683,100.949,388.683Zm-.271-.729c2.081,0,5.1-.645,5.6-1.561,0,0,.146-.271-.187-.6a1.228,1.228,0,0,0-.957-.4h0a8.8,8.8,0,0,0-4.454,2.56Z" transform="translate(-73.375 218.853)"/><path class="b" d="M170.977,413.307a27.582,27.582,0,0,1-4.7-.437.333.333,0,0,1-.271-.333.375.375,0,0,1,.167-.375c.229-.125,5.558-3.185,8.118-2.477a1.79,1.79,0,0,1,1.145.833,1.374,1.374,0,0,1,0,1.582C174.828,413.036,172.934,413.307,170.977,413.307Zm-3.518-.978c2.831.416,6.7.4,7.41-.6.1-.125.187-.354,0-.791a1.165,1.165,0,0,0-.708-.52C172.538,410,169.312,411.371,167.46,412.329Z" transform="translate(-1.447 245.683)"/><path class="b" d="M166.358,414.743a.375.375,0,0,1-.208,0,.333.333,0,0,1-.146-.354,10.158,10.158,0,0,1,2.373-5.891,2.6,2.6,0,0,1,2.081-.6,1.2,1.2,0,0,1,1.353,1c.271,1.728-3.372,5.037-5.224,5.87Zm3.726-6.244a1.894,1.894,0,0,0-1.249.458,8.326,8.326,0,0,0-2.081,4.725c1.873-1.145,4.371-3.726,4.163-4.767,0,0,0-.354-.708-.416Z" transform="translate(-1.449 243.831)"/><path class="d" d="M158.09,429.386h15.3l1.519-35.406h-15.3Z" transform="translate(-9.999 228.814)"/><path class="d" d="M92.64,394.184l12.78,8.367,28.225-23.833-12.8-8.388Z" transform="translate(-80.781 203.237)"/><path class="g" d="M113.684,391.241,100.4,380.355a1.311,1.311,0,0,0-1.665,0l-10.949,8.6a2.248,2.248,0,0,0,0,3.518c4.7,3.726,7.181,5.308,13.03,10.1,3.6,2.935,12.489,11.927,17.505,15.986s9.616-.312,7.951-2.414c-7.472-9.471-10.407-17.568-11.261-22.584a3.768,3.768,0,0,0-1.332-2.31Z" transform="translate(-86.943 213.756)"/><path class="g" d="M176.321,410.14H159.669a1.353,1.353,0,0,0-1.311,1.041l-3.018,13.592a2.227,2.227,0,0,0,2.206,2.727c6.015-.1,14.716-.458,22.293-.458,8.846,0,16.506.479,26.872.479,6.244,0,8.034-6.348,5.391-6.91-11.948-2.623-21.73-2.893-32.055-9.283A7.16,7.16,0,0,0,176.321,410.14Z" transform="translate(-13.035 246.29)"/><path class="g" d="M132.475,184.891c-13.259,6.244-20.815,48.082-20.815,48.082L144.068,245.9a241.093,241.093,0,0,0,11.469-35.7C159.992,190.927,146.046,178.438,132.475,184.891Z" transform="translate(-60.212 0.837)"/><path class="j" d="M136.82,196.244c-8.014,8.118-11.677,24.02-13.28,34.365l7.764,3.1a242.911,242.911,0,0,0,11.24-34.656C141.857,194.641,140.15,192.872,136.82,196.244Z" transform="translate(-47.364 13.067)"/><path class="g" d="M208.642,186.323s16.277,18.4.916,132.173H127.777c-.562-12.489,7.327-73.788-4.787-132.943a209.315,209.315,0,0,1,27.371-3.455,293.2,293.2,0,0,1,34.76,0,154.423,154.423,0,0,1,23.521,4.225Z" transform="translate(-47.959 -0.887)"/><path class="j" d="M176.631,217.419,162.852,193.67a121.371,121.371,0,0,0-3.226,33.865c.375,8.159,7.847,38.382,14.57,42.795A480.5,480.5,0,0,0,176.631,217.419Z" transform="translate(-8.475 12.186)"/><path class="d" d="M180.459,191.67c2.081,10.116,4.163,20.482,6.39,30.639s4.538,20.357,7.223,30.2c.687,2.435,1.332,4.933,2.081,7.264l.562,1.79.271.895v-.1c-.146-.187-.312-.208-.187,0a6.973,6.973,0,0,0,3.164,1.977,37.137,37.137,0,0,0,6.057,1.686,161.914,161.914,0,0,0,29.765,1.936l1.977,11.323c-2.789.9-5.391,1.54-8.139,2.186s-5.453,1.186-8.222,1.6a88.939,88.939,0,0,1-17.339,1.166,47.063,47.063,0,0,1-9.575-1.249,27.871,27.871,0,0,1-10.99-5.1,20.085,20.085,0,0,1-5.141-6.244c-.333-.624-.624-1.332-.895-1.936l-.375-.978-.77-2.081c-1.061-2.643-1.936-5.245-2.893-7.847-3.518-10.407-6.453-20.919-9.034-31.409s-4.808-20.96-6.661-31.722Z" transform="translate(-10.389 10.023)"/><path class="g" d="M154.685,195.493c-4.309,13.967,13.155,55.617,13.155,55.617l34.781-8.742s-1.332-21.647-9.262-38.819C181.411,177.655,159.847,178.737,154.685,195.493Z" transform="translate(-14.421 1.1)"/><path class="d" d="M200.259,228.547l17.318-.437-8.326,18.025s-7.056.937-12.843-8.576l-6.1-7.285,7.014-1.395a15.65,15.65,0,0,1,2.935-.333Z" transform="translate(24.845 49.431)"/><path class="d" d="M218.664,231.461l-9.908,14.945-9.346-.271,8.326-18.025Z" transform="translate(34.687 49.431)"/><path class="k" d="M174.53,393.98l-.791,18.254h-15.3l.791-18.254Z" transform="translate(-9.621 228.814)"/><path class="k" d="M113.749,370.33l12.8,8.388L111.98,391,99.2,382.631Z" transform="translate(-73.687 203.237)"/><path class="d" d="M138.285,168.827c.916,15.132.687,24.062,8.326,31.826,11.49,11.719,30.2,4.787,33.824-10.407,3.268-13.613,1.228-36.093-13.592-42.129a20.815,20.815,0,0,0-28.558,20.711Z" transform="translate(-31.47 -38.715)"/><path class="g" d="M129.948,175.025c3.767,13.8,12.635,29.7,24.1,30.722,14.237,1.249,20.669-13.467,22.542-28.662,8.534-5.849,4.059-12.281,12.614-13.092,10.99-1.041,7.472-21.148-6.994-24.374,0,0,4.85,9.054-5.329,4.475a58.739,58.739,0,0,0-31.1-5.391s12.988,6.494.291,9.387-16.485,10.72-10.636,15.444C135.443,163.556,127.471,165.95,129.948,175.025Z" transform="translate(-40.95 -47.578)"/><path class="d" d="M147.948,161.808a17.11,17.11,0,0,0,4.309,10.137c3.33,3.684,6.806,1.395,7.389-3.081.541-4.017-.562-10.782-4.642-12.822S147.678,157.27,147.948,161.808Z" transform="translate(-20.984 -29.178)"/><path class="b" d="M208.163,247.371s14.9,107.924,3.164,151.177c-18.608,68.48-89.753,126.282-89.753,126.282L97.45,509.011s60.591-48.81,68-106.155C172.112,351.381,155.4,289.125,155.4,247.35Z" transform="translate(-75.579 70.239)"/><path class="i" d="M208.163,247.371s14.9,107.924,3.164,151.177c-18.608,68.48-89.753,126.282-89.753,126.282L97.45,509.011s60.591-48.81,68-106.155C172.112,351.381,155.4,289.125,155.4,247.35Z" transform="translate(-75.579 70.239)"/><path class="b" d="M160.381,283.489A100.742,100.742,0,0,0,147.33,271c2.539,35.031,4.621,86.922,2.31,123.785a159.054,159.054,0,0,0,7.743-21.793C163.107,351.865,162.5,315.377,160.381,283.489Z" transform="translate(-21.636 95.815)"/><path class="e" d="M160.381,283.489A100.742,100.742,0,0,0,147.33,271c2.539,35.031,4.621,86.922,2.31,123.785a159.054,159.054,0,0,0,7.743-21.793C163.107,351.865,162.5,315.377,160.381,283.489Z" transform="translate(-21.636 95.815)"/><path class="b" d="M132.257,387.381c.1,0-9.346,6.244-9.346,6.244L96.56,376.35l8.326-6.89Z" transform="translate(-76.542 202.296)"/><path class="e" d="M132.257,387.381c.1,0-9.346,6.244-9.346,6.244L96.56,376.35l8.326-6.89Z" transform="translate(-76.542 202.296)"/><path class="b" d="M192.514,247.36s23.021,97.621,24.644,144.266c1.832,52.286-16.423,175.634-16.423,175.634H174.822s-3.185-124.3-4.329-171.929C169.223,343.4,138.75,247.36,138.75,247.36Z" transform="translate(-30.915 70.249)"/><path class="i" d="M192.514,247.36s23.021,97.621,24.644,144.266c1.832,52.286-16.423,175.634-16.423,175.634H174.822s-3.185-124.3-4.329-171.929C169.223,343.4,138.75,247.36,138.75,247.36Z" transform="translate(-30.915 70.249)"/><path class="b" d="M188.494,396.1c.125,0-1.457,10.74-1.457,10.74H155.523l-.853-9.6Z" transform="translate(-13.698 231.106)"/><path class="e" d="M188.494,396.1c.125,0-1.457,10.74-1.457,10.74H155.523l-.853-9.6Z" transform="translate(-13.698 231.106)"/></g><g transform="translate(515.223 130.268)"><path class="d" d="M361.667,202.29c1.769,1.665,3.164,3.081,4.621,4.662s2.831,3.122,4.163,4.725c2.706,3.185,5.245,6.536,7.7,9.908A158.741,158.741,0,0,1,391.2,242.941l.77,1.519a14.668,14.668,0,0,1,.937,2.29,18.983,18.983,0,0,1,.916,4.7,22.892,22.892,0,0,1-1.145,8.326A41.964,41.964,0,0,1,386,272.1a88.842,88.842,0,0,1-18.317,17.609l-5.183-5.953c2.435-2.852,4.975-5.911,7.243-8.971a76.485,76.485,0,0,0,6.244-9.367,32.526,32.526,0,0,0,3.788-9.2,9.533,9.533,0,0,0,.146-3.538,4.615,4.615,0,0,0-.375-1.145,3.306,3.306,0,0,0-.271-.458l-.666-1.124a218.688,218.688,0,0,0-13.051-18.962c-2.31-3.06-4.787-5.995-7.285-8.888-1.228-1.457-2.5-2.872-3.767-4.288s-2.643-2.831-3.747-3.934Z" transform="translate(-252.68 -108.76)"/><path class="d" d="M365.438,241.909,349.89,239.37l8.139,13.613s10.012-.354,12.863-6.244Z" transform="translate(-253.621 -68.66)"/><path class="d" d="M344.37,245.656l7.41,11.053L364,252.983,355.86,239.37Z" transform="translate(-259.59 -68.66)"/><path class="b" d="M358.885,413.33a4.475,4.475,0,0,1-2.976-.812,2.081,2.081,0,0,1-.6-1.956,1.228,1.228,0,0,1,.729-1.041c1.811-.812,6.557,2.227,7.1,2.581a.377.377,0,0,1-.125.666,18.425,18.425,0,0,1-4.121.562ZM356.8,410.1a1.5,1.5,0,0,0-.458,0,.541.541,0,0,0-.312.479,1.4,1.4,0,0,0,.375,1.311c.791.708,2.831.812,5.558.271A13.715,13.715,0,0,0,356.8,410.1Z" transform="translate(-247.816 115.204)"/><path class="b" d="M361.179,414.654h-.187c-1.478-.853-4.329-4.163-3.976-5.974a1.353,1.353,0,0,1,1.249-1.041,1.874,1.874,0,0,1,1.561.5c1.707,1.5,1.728,5.995,1.728,6.244a.4.4,0,0,1-.187.312Zm-2.664-6.244h-.166c-.458,0-.562.25-.6.437-.208,1.062,1.561,3.6,3.039,4.787a8.514,8.514,0,0,0-1.436-4.912,1.187,1.187,0,0,0-.937-.312Z" transform="translate(-245.947 113.297)"/><path class="b" d="M325.241,413.332a5.766,5.766,0,0,1-3.767-.957,2.082,2.082,0,0,1-.687-1.79,1.208,1.208,0,0,1,.624-.978c1.936-1.082,8.139,2.081,8.846,2.477a.416.416,0,0,1,.187.4.354.354,0,0,1-.291.292,25.952,25.952,0,0,1-4.912.562Zm-2.768-3.226a1.291,1.291,0,0,0-.687.146.437.437,0,0,0-.25.4,1.353,1.353,0,0,0,.416,1.186c.958.853,3.518,1,6.973.416a20.252,20.252,0,0,0-6.453-2.144Z" transform="translate(-285.109 115.202)"/><path class="b" d="M328.07,414.653H327.9c-1.853-.833-5.537-4.163-5.245-5.974,0-.416.375-.937,1.395-1.041a2.748,2.748,0,0,1,2.081.645c1.957,1.624,2.331,5.828,2.331,6.015a.354.354,0,0,1-.146.333.394.394,0,0,1-.25.021Zm-3.726-6.244h-.229c-.666,0-.708.333-.729.416-.166,1.062,2.331,3.7,4.163,4.85a8.659,8.659,0,0,0-2.082-4.808A1.936,1.936,0,0,0,324.344,408.408Z" transform="translate(-283.088 113.299)"/><path class="d" d="M350.314,179.3c-.6,9.408-2.227,28.516,5,33.8,0,0-1.311,9.637-18.359,11.885-18.733,2.435-10.178-8.139-10.178-8.139,9.929-3.788,8.659-11.344,5.953-18.254Z" transform="translate(-280.729 -133.623)"/><path class="g" d="M321.709,173.292a.708.708,0,0,1-.541-.25,5.89,5.89,0,0,0-4.891-2.081.729.729,0,0,1-.854-.624.749.749,0,0,1,.645-.833,7.306,7.306,0,0,1,6.244,2.623.749.749,0,0,1-.562,1.228Z" transform="translate(-290.901 -144.246)"/><path class="h" d="M318.643,175.74a33.885,33.885,0,0,1-3.393,8.534,5.37,5.37,0,0,0,4.558.25Z" transform="translate(-291.082 -137.473)"/><path class="g" d="M318.818,175.715c.167,1.249-.354,2.331-1.166,2.456s-1.624-.833-1.769-2.081.354-2.331,1.166-2.435S318.672,174.383,318.818,175.715Z" transform="translate(-290.425 -139.738)"/><path class="g" d="M318.221,173.909l-3.1-.479S316.952,175.574,318.221,173.909Z" transform="translate(-291.223 -139.971)"/><path class="d" d="M342.142,429.6H326.531L325.49,393.49H341.1Z" transform="translate(-280.008 98.015)"/><path class="d" d="M378.257,429.6H362.646L357.63,393.49h15.611Z" transform="translate(-245.25 98.015)"/><path class="g" d="M371.217,410h17.526a1.228,1.228,0,0,1,1.228,1.062l2.081,13.883a2.5,2.5,0,0,1-2.5,2.768c-6.1-.1-9.054-.458-16.756-.458-4.746,0-11.677.479-18.213.479s-6.89-6.473-4.163-7.056c12.218-2.623,14.154-6.244,18.254-9.721A4.162,4.162,0,0,1,371.217,410Z" transform="translate(-254.779 115.87)"/><path class="g" d="M338.881,410h17.505a1.249,1.249,0,0,1,1.249,1.062l2.081,13.883a2.5,2.5,0,0,1-2.5,2.768c-6.1-.1-9.054-.458-16.756-.458-4.746,0-14.57.479-21.106.479s-6.89-6.473-4.163-7.056c12.218-2.623,17.026-6.244,21.148-9.72A4.163,4.163,0,0,1,338.881,410Z" transform="translate(-292.879 115.87)"/><path class="k" d="M325.49,393.49l.541,18.629h15.611L341.1,393.49Z" transform="translate(-280.008 98.015)"/><path class="k" d="M373.241,393.49H357.63l2.6,18.629h15.59Z" transform="translate(-245.25 98.015)"/><path class="d" d="M359.623,180.283c1.062,15.444,1.832,21.959-4.871,30.847-10.1,13.342-29.286,11.282-34.948-3.538-5.1-13.342-5.974-36.342,8.222-44.418a21.127,21.127,0,0,1,31.6,17.11Z" transform="translate(-289.83 -154.088)"/><path class="g" d="M370.64,197.891c8.659,4.829,15.091-7.077,15.091-7.077S370.2,192.5,371.6,183.258c1.832-12.26-6.952-27.163-28.974-25.248-1.228.1-2.394.25-3.538.437a11.323,11.323,0,0,0-13.7,3.164c-6.244.52-14.674,7.972-8.95,17.817a9.055,9.055,0,0,1,1.832-3.06c.479,5.766,5.516,14.924,11.8,15.528,1.353,7.889-3.892,17.026-2.081,25.269,2.685,11.885,22.73,14.57,22.73,14.57a8.68,8.68,0,0,1,1.166-9.179c13.613,6.244,22.584.146,22.584.146-9.283-3.455-6.473-9.616-6.473-9.616a13.55,13.55,0,0,0,17.672-6.432,15.986,15.986,0,0,1-15.028-8.763Z" transform="translate(-291.855 -157.355)"/><path class="d" d="M330.066,177.847a11.24,11.24,0,0,1-3.122,8.055c-2.748,2.852-6.119.853-7.035-2.789-.812-3.289-.354-8.721,3.226-10.22a5.079,5.079,0,0,1,6.931,4.954Z" transform="translate(-286.416 -140.933)"/><path class="g" d="M330.84,247.345s3.955,102.741,13.363,163.062c7.577,48.748,41.234,162.645,41.234,162.645h21.273s-17.547-110.005-21.4-158.191c-9.741-121.953,15.549-148.138-8.326-173.532Z" transform="translate(-274.222 -66.54)"/><path class="l" d="M347.3,259.85s-9.616-1.665-15.236,16.652c2.081,34.7,5.641,80.74,10.824,113.918,1.145,7.389,2.893,16.3,5.037,26.06C343.862,357.866,347.3,259.85,347.3,259.85Z" transform="translate(-272.903 -46.553)"/><path class="g" d="M331.468,248.364s-17.526,113.669-16.506,161.23c1.062,49.476,19.191,162.354,19.191,162.354h21.085s-3.33-109.943-1.478-158.524c2.081-52.973,23.708-171.034,23.708-171.034Z" transform="translate(-291.44 -65.394)"/><path class="b" d="M384.613,406.111H356.326l-2.206-9.491,30.285.208Z" transform="translate(-249.046 101.4)"/><path class="m" d="M384.613,406.111H356.326l-2.206-9.491,30.285.208Z" transform="translate(-249.046 101.4)"/><path class="b" d="M360.395,195.573c8.139.791,20.5,23.916,20.5,23.916l-20.544,15.757s-17.006-14.924-14.987-23.312C347.469,203.212,352.589,194.844,360.395,195.573Z" transform="translate(-258.693 -116.072)"/><path class="i" d="M360.395,195.573c8.139.791,20.5,23.916,20.5,23.916l-20.544,15.757s-17.006-14.924-14.987-23.312C347.469,203.212,352.589,194.844,360.395,195.573Z" transform="translate(-258.693 -116.072)"/><path class="b" d="M354.259,200.707A21.085,21.085,0,0,0,347.89,200a35.193,35.193,0,0,0-2.519,7.119c-2.081,8.326,14.987,23.312,14.987,23.312l1.519-1.166Z" transform="translate(-258.698 -111.257)"/><path class="e" d="M354.259,200.707A21.085,21.085,0,0,0,347.89,200a35.193,35.193,0,0,0-2.519,7.119c-2.081,8.326,14.987,23.312,14.987,23.312l1.519-1.166Z" transform="translate(-258.698 -111.257)"/><path class="d" d="M336.695,214.244c-5.932,15.007-12.177,30.264-17.151,45.313-.333.957-.6,1.873-.9,2.81l-.708,2.31a3.808,3.808,0,0,0,0,2.081,15.653,15.653,0,0,0,5.391,6.453,87.814,87.814,0,0,0,20.169,10.8l-1.873,7.66a72.2,72.2,0,0,1-25.144-8.2,26.914,26.914,0,0,1-11.219-11.365,17.422,17.422,0,0,1-1.436-9.908,11.586,11.586,0,0,1,.208-1.228l.208-.874.354-1.582c.25-1.062.5-2.081.77-3.122,2.081-8.326,4.746-16.235,7.556-24.083s5.745-15.59,9.054-23.312Z" transform="translate(-303.639 -102.585)"/><path class="b" d="M313.887,206.9s-7.035,3.559,19.607,92.375l62.818-8.2c-4.413-25.435-6.494-41.192-1.145-95.268a189.4,189.4,0,0,0-27.059,0,198.787,198.787,0,0,0-28.537,3.747C327.52,202.233,313.887,206.9,313.887,206.9Z" transform="translate(-293.466 -116.301)"/><path class="i" d="M313.887,206.9s-7.035,3.559,19.607,92.375l62.818-8.2c-4.413-25.435-6.494-41.192-1.145-95.268a189.4,189.4,0,0,0-27.059,0,198.787,198.787,0,0,0-28.537,3.747C327.52,202.233,313.887,206.9,313.887,206.9Z" transform="translate(-293.466 -116.301)"/><path class="b" d="M387.376,239.692l3.6,5.224c.271.416-.187.916-.9,1.02L324.2,254.554c-.562,0-1.082-.146-1.166-.5l-1.291-5.557c-.1-.375.354-.77.978-.853l63.609-8.326a1.145,1.145,0,0,1,1.041.375Z" transform="translate(-284.071 -68.732)"/><path class="m" d="M387.376,239.692l3.6,5.224c.271.416-.187.916-.9,1.02L324.2,254.554c-.562,0-1.082-.146-1.166-.5l-1.291-5.557c-.1-.375.354-.77.978-.853l63.609-8.326a1.145,1.145,0,0,1,1.041.375Z" transform="translate(-284.071 -68.732)"/><path class="g" d="M350.891,247.7l1.707-.229c.333,0,.562-.25.52-.458l-1.748-7.2a.6.6,0,0,0-.708-.291l-1.707.208c-.354,0-.583.25-.52.479l1.748,7.181C350.225,247.621,350.558,247.745,350.891,247.7Z" transform="translate(-255.205 -68.522)"/><path class="g" d="M331.051,250.27l1.707-.229c.333,0,.583-.25.52-.458l-1.748-7.2a.645.645,0,0,0-.708-.312l-1.707.229c-.333,0-.583.25-.52.458l1.748,7.2C330.385,250.27,330.718,250.394,331.051,250.27Z" transform="translate(-276.661 -65.759)"/><path class="b" d="M314.86,216.171c1.728,8.034,4.163,18.213,7.722,31.1l.77-32.658Z" transform="translate(-291.504 -95.437)"/><path class="e" d="M314.86,216.171c1.728,8.034,4.163,18.213,7.722,31.1l.77-32.658Z" transform="translate(-291.504 -95.437)"/><path class="b" d="M321.02,201.935c-7.806,3.143-14.57,29.848-14.57,29.848L333.3,244.855s12.967-32.658,7.16-39.027S330.012,198.334,321.02,201.935Z" transform="translate(-300.599 -111.34)"/><path class="i" d="M321.02,201.935c-7.806,3.143-14.57,29.848-14.57,29.848L333.3,244.855s12.967-32.658,7.16-39.027S330.012,198.334,321.02,201.935Z" transform="translate(-300.599 -111.34)"/><path class="b" d="M351.863,406.111H323.576l-2.206-9.491,31.493.208Z" transform="translate(-284.464 101.4)"/><path class="m" d="M351.863,406.111H323.576l-2.206-9.491,31.493.208Z" transform="translate(-284.464 101.4)"/><path class="d" d="M326.62,243.9l-2.269-.937a3.414,3.414,0,0,0-4.662,3.663l1.644,10.844a3.705,3.705,0,0,0,4.912,2.956,8.326,8.326,0,0,0,2.29-1.27,6.244,6.244,0,0,0,2.248-5.162l-.229-4.5a6.244,6.244,0,0,0-3.934-5.6Z" transform="translate(-286.322 -65.048)"/></g></svg>