<svg width="249" height="249" viewBox="0 0 249 249" fill="none" xmlns="http://www.w3.org/2000/svg">
<path d="M124.5 212.925C177.827 212.925 221.057 210.401 221.057 207.288C221.057 204.174 177.827 201.65 124.5 201.65C71.173 201.65 27.9429 204.174 27.9429 207.288C27.9429 210.401 71.173 212.925 124.5 212.925Z" fill="#F5F5F5"/>
<path d="M64.9193 96.7416C64.4811 97.7376 63.998 98.8133 63.5747 99.8641C63.1514 100.915 62.7132 101.996 62.3297 103.071C61.5429 105.168 60.9121 107.32 60.4423 109.51L60.2979 110.307L60.2481 110.606C60.2481 110.691 60.2481 110.8 60.2182 110.9C60.1993 111.385 60.2092 111.87 60.2481 112.354C60.3427 113.405 60.512 114.53 60.7461 115.656C61.1644 117.912 61.6973 120.237 62.2401 122.528L59.6853 123.524C58.4944 121.353 57.4802 119.09 56.6525 116.756C56.2164 115.542 55.8637 114.299 55.5968 113.036C55.4472 112.338 55.3539 111.628 55.3179 110.915C55.3179 110.715 55.3179 110.526 55.3179 110.312C55.3179 110.098 55.3179 109.859 55.3527 109.719L55.4523 108.723C55.6011 107.441 55.829 106.168 56.1346 104.914C56.4135 103.669 56.772 102.459 57.1306 101.263C57.4892 100.068 57.9374 98.893 58.4105 97.7376C58.6445 97.1599 58.9085 96.5872 59.1375 96.0145C59.3666 95.4418 59.6355 94.894 59.9543 94.2815L64.9193 96.7416Z" fill="#F0C7AA"/>
<path d="M62.1057 121.856L64.048 123.753L59.81 125.745C59.81 125.745 58.7841 123.947 59.4962 122.324L62.1057 121.856Z" fill="#F0C7AA"/>
<path d="M65.6166 126.577L62.036 128.041L59.8149 125.725L64.0479 123.753L65.6166 126.577Z" fill="#F0C7AA"/>
<path opacity="0.4" d="M138.15 124.535C131.104 123.744 124.45 120.881 119.031 116.309C113.611 111.737 109.669 105.661 107.702 98.8489C105.735 92.0366 105.832 84.7942 107.981 78.0371C110.13 71.28 114.234 65.3116 119.774 60.8866C125.314 56.4615 132.042 53.7784 139.107 53.1764C146.172 52.5744 153.256 54.0805 159.465 57.5045C165.674 60.9284 170.729 66.1164 173.99 72.4125C177.251 78.7087 178.572 85.8303 177.786 92.8771C177.264 97.559 175.824 102.092 173.549 106.217C171.274 110.343 168.209 113.979 164.528 116.919C160.847 119.859 156.623 122.045 152.097 123.352C147.571 124.659 142.832 125.061 138.15 124.535Z" fill="#FAFAFA"/>
<path opacity="0.4" d="M164.235 60.6514L109.704 104.221C109.475 103.723 109.251 103.225 109.042 102.727C107.675 99.4756 106.8 96.0382 106.447 92.5284L153.548 54.8945C157.415 56.1844 161.03 58.132 164.235 60.6514Z" fill="#FAFAFA"/>
<path opacity="0.4" d="M176.82 79.7399L125.551 120.7C120.68 118.161 116.459 114.535 113.215 110.103L169.196 65.3726C172.804 69.5144 175.413 74.4299 176.82 79.7399Z" fill="#FAFAFA"/>
<path d="M101.786 75.1982L101.313 75.0388C102.132 72.621 103.162 70.2798 104.391 68.0419L104.824 68.281C103.612 70.4938 102.595 72.8083 101.786 75.1982ZM107.832 63.5749L107.428 63.281C111.521 57.7472 116.877 53.272 123.051 50.2285L123.275 50.6767C117.172 53.6887 111.877 58.1162 107.832 63.5898V63.5749ZM162.408 51.3589C160.78 50.4861 159.097 49.7224 157.368 49.0731L157.547 48.605C159.293 49.2695 160.993 50.0481 162.637 50.9356L162.408 51.3589Z" fill="#2C7BE5"/>
<path opacity="0.3" d="M101.786 75.1982L101.313 75.0388C102.132 72.621 103.162 70.2798 104.391 68.0419L104.824 68.281C103.612 70.4938 102.595 72.8083 101.786 75.1982ZM107.832 63.5749L107.428 63.281C111.521 57.7472 116.877 53.272 123.051 50.2285L123.275 50.6767C117.172 53.6887 111.877 58.1162 107.832 63.5898V63.5749ZM162.408 51.3589C160.78 50.4861 159.097 49.7224 157.368 49.0731L157.547 48.605C159.293 49.2695 160.993 50.0481 162.637 50.9356L162.408 51.3589Z" fill="black"/>
<path d="M179.215 70.5866C174.604 61.0226 166.489 53.6 156.553 49.8574C146.617 46.1148 135.622 46.3392 125.846 50.4843C116.071 54.6293 108.266 62.377 104.049 72.1212C99.8321 81.8653 99.5264 92.8587 103.195 102.822C99.8688 103.987 96.5821 105.237 93.3152 106.527C88.6041 108.396 83.9362 110.349 79.3114 112.384C74.69 114.43 70.0885 116.517 65.5318 118.698C63.2459 119.769 60.99 120.9 58.7141 121.995C57.5302 122.504 56.4575 123.24 55.5568 124.161C55.0694 124.672 54.6402 125.235 54.277 125.84C53.8338 126.555 53.4982 127.332 53.281 128.145C52.9062 129.611 53.0683 131.162 53.7378 132.518C54.4073 133.875 55.5401 134.947 56.9313 135.541C57.7038 135.865 58.5189 136.076 59.3516 136.168C60.0548 136.248 60.7648 136.248 61.4681 136.168C62.7461 136.013 63.9812 135.609 65.1035 134.978C67.3594 133.838 69.6303 132.737 71.8713 131.567C76.3533 129.281 80.8353 126.895 85.2625 124.475C89.6897 122.055 94.1219 119.52 98.4446 116.92C101.433 115.113 104.45 113.265 107.409 111.333C113.089 120.3 122.001 126.738 132.299 129.314C142.597 131.889 153.491 130.403 162.724 125.165C171.956 119.927 178.82 111.337 181.892 101.176C184.964 91.0157 184.009 80.0626 179.225 70.5866H179.215ZM156.576 118.161C150.789 121.017 144.284 122.094 137.885 121.254C131.486 120.414 125.479 117.695 120.625 113.442C115.771 109.189 112.287 103.591 110.614 97.3579C108.94 91.1245 109.153 84.5349 111.225 78.4224C113.296 72.3099 117.134 66.9488 122.252 63.0172C127.371 59.0856 133.54 56.76 139.98 56.3344C146.42 55.9088 152.841 57.4023 158.433 60.6262C164.024 63.85 168.534 68.6593 171.392 74.4461C173.29 78.2891 174.412 82.4684 174.695 86.7453C174.977 91.0222 174.415 95.3128 173.039 99.3722C171.663 103.432 169.501 107.18 166.676 110.404C163.852 113.628 160.42 116.263 156.576 118.161Z" fill="#2C7BE5"/>
<path opacity="0.3" d="M179.215 70.5866C174.604 61.0226 166.489 53.6 156.553 49.8574C146.617 46.1148 135.622 46.3392 125.846 50.4843C116.071 54.6293 108.266 62.377 104.049 72.1212C99.8321 81.8653 99.5264 92.8587 103.195 102.822C99.8688 103.987 96.5821 105.237 93.3152 106.527C88.6041 108.396 83.9362 110.349 79.3114 112.384C74.69 114.43 70.0885 116.517 65.5318 118.698C63.2459 119.769 60.99 120.9 58.7141 121.995C57.5302 122.504 56.4575 123.24 55.5568 124.161C55.0694 124.672 54.6402 125.235 54.277 125.84C53.8338 126.555 53.4982 127.332 53.281 128.145C52.9062 129.611 53.0683 131.162 53.7378 132.518C54.4073 133.875 55.5401 134.947 56.9313 135.541C57.7038 135.865 58.5189 136.076 59.3516 136.168C60.0548 136.248 60.7648 136.248 61.4681 136.168C62.7461 136.013 63.9812 135.609 65.1035 134.978C67.3594 133.838 69.6303 132.737 71.8713 131.567C76.3533 129.281 80.8353 126.895 85.2625 124.475C89.6897 122.055 94.1219 119.52 98.4446 116.92C101.433 115.113 104.45 113.265 107.409 111.333C113.089 120.3 122.001 126.738 132.299 129.314C142.597 131.889 153.491 130.403 162.724 125.165C171.956 119.927 178.82 111.337 181.892 101.176C184.964 91.0157 184.009 80.0626 179.225 70.5866H179.215ZM156.576 118.161C150.789 121.017 144.284 122.094 137.885 121.254C131.486 120.414 125.479 117.695 120.625 113.442C115.771 109.189 112.287 103.591 110.614 97.3579C108.94 91.1245 109.153 84.5349 111.225 78.4224C113.296 72.3099 117.134 66.9488 122.252 63.0172C127.371 59.0856 133.54 56.76 139.98 56.3344C146.42 55.9088 152.841 57.4023 158.433 60.6262C164.024 63.85 168.534 68.6593 171.392 74.4461C173.29 78.2891 174.412 82.4684 174.695 86.7453C174.977 91.0222 174.415 95.3128 173.039 99.3722C171.663 103.432 169.501 107.18 166.676 110.404C163.852 113.628 160.42 116.263 156.576 118.161Z" fill="black"/>
<path d="M78.6841 78.9579C78.6841 79.2517 78.8385 79.4908 79.0327 79.4908C79.2269 79.4908 79.3813 79.2517 79.3813 78.9579C79.3813 78.6641 79.2269 78.425 79.0327 78.425C78.8385 78.425 78.6841 78.684 78.6841 78.9579Z" fill="#263238"/>
<path d="M78.8232 79.4907C79.1757 80.3926 79.6499 81.2421 80.2326 82.0156C80.0311 82.1597 79.8006 82.258 79.5571 82.3036C79.3137 82.3492 79.0632 82.341 78.8232 82.2795V79.4907Z" fill="#DE5753"/>
<path d="M77.6532 77.3196C77.6254 77.3196 77.598 77.3133 77.573 77.3012C77.548 77.2892 77.526 77.2716 77.5088 77.2498C77.4828 77.2118 77.4725 77.1653 77.4799 77.1199C77.4873 77.0744 77.5119 77.0336 77.5486 77.0058C77.7679 76.8395 78.0242 76.7286 78.2956 76.6827C78.567 76.6367 78.8455 76.657 79.1073 76.7419C79.1309 76.7483 79.1528 76.7596 79.1717 76.775C79.1906 76.7904 79.206 76.8096 79.217 76.8313C79.228 76.853 79.2344 76.8768 79.2356 76.9012C79.2368 76.9255 79.233 76.9499 79.2242 76.9726C79.2155 76.9954 79.202 77.016 79.1848 77.0333C79.1676 77.0505 79.1469 77.0639 79.1242 77.0727C79.1014 77.0815 79.0771 77.0854 79.0527 77.0841C79.0284 77.0829 79.0046 77.0766 78.9828 77.0656C78.7748 77.0018 78.5546 76.9888 78.3405 77.0278C78.1265 77.0668 77.9249 77.1566 77.7528 77.2897C77.7233 77.3093 77.6886 77.3197 77.6532 77.3196Z" fill="#263238"/>
<path d="M68.6245 81.1741C69.1225 83.8483 69.6703 88.7536 67.7979 90.5414C67.7979 90.5414 68.5299 93.2555 73.5049 93.2555C78.9829 93.2555 76.1145 90.5414 76.1145 90.5414C73.1265 89.8243 73.2111 87.6132 73.729 85.5316L68.6245 81.1741Z" fill="#F0C7AA"/>
<path d="M65.5616 91.9508C66.1542 91.0294 65.1582 88.7934 65.1582 88.7934C65.1582 88.7934 73.9628 86.5773 77.5634 89.9787C78.3104 90.6808 77.4837 91.7167 77.4837 91.7167L65.5616 91.9508Z" fill="#2C7BE5"/>
<path opacity="0.1" d="M65.5616 91.9508C66.1542 91.0294 65.1582 88.7934 65.1582 88.7934C65.1582 88.7934 73.9628 86.5773 77.5634 89.9787C78.3104 90.6808 77.4837 91.7167 77.4837 91.7167L65.5616 91.9508Z" fill="black"/>
<path d="M50.9954 193.558C50.5322 193.558 49.7902 192.786 49.5711 192.497C49.5617 192.483 49.5566 192.466 49.5566 192.45C49.5566 192.433 49.5617 192.416 49.5711 192.402C49.5791 192.388 49.5908 192.377 49.6048 192.369C49.6188 192.361 49.6347 192.357 49.6508 192.357C49.7056 192.357 50.9257 192.467 51.2593 192.9C51.2956 192.946 51.3215 192.999 51.3353 193.056C51.349 193.113 51.3503 193.172 51.339 193.229C51.3347 193.303 51.3074 193.374 51.261 193.432C51.2147 193.49 51.1514 193.532 51.08 193.553L50.9954 193.558ZM49.84 192.562C50.2036 192.98 50.7862 193.453 51.0352 193.393C51.0352 193.393 51.1348 193.368 51.1647 193.209C51.1712 193.176 51.1702 193.141 51.1615 193.109C51.1529 193.076 51.137 193.045 51.1149 193.02C50.746 192.74 50.3021 192.577 49.84 192.552V192.562Z" fill="#2C7BE5"/>
<path d="M49.8947 192.552C49.8053 192.561 49.7152 192.561 49.6258 192.552C49.61 192.551 49.595 192.545 49.5826 192.535C49.5702 192.525 49.561 192.512 49.5561 192.497C49.5491 192.483 49.5454 192.468 49.5454 192.452C49.5454 192.437 49.5491 192.421 49.5561 192.407C49.5909 192.378 50.323 191.616 50.8758 191.616C50.9419 191.614 51.0076 191.627 51.0686 191.652C51.1295 191.678 51.1843 191.717 51.2293 191.765C51.2789 191.807 51.3128 191.864 51.3255 191.927C51.3382 191.99 51.3289 192.056 51.2991 192.114C51.1546 192.393 50.3927 192.552 49.8947 192.552ZM49.83 192.378C50.328 192.378 51.0501 192.223 51.1696 192.004C51.1696 192.004 51.2044 191.939 51.1248 191.86C51.0958 191.828 51.0603 191.803 51.0207 191.787C50.9811 191.771 50.9384 191.763 50.8957 191.765C50.4874 191.859 50.1164 192.072 49.83 192.378Z" fill="#2C7BE5"/>
<path d="M83.8584 204.862C83.4809 204.86 83.1044 204.825 82.7329 204.758C82.7144 204.754 82.6978 204.744 82.686 204.73C82.6741 204.715 82.6678 204.697 82.6681 204.678C82.6654 204.661 82.6676 204.643 82.6747 204.627C82.6818 204.611 82.6934 204.598 82.708 204.588C82.7628 204.559 84.0376 203.827 84.6502 203.996C84.707 204.009 84.7606 204.033 84.8077 204.067C84.8548 204.101 84.8944 204.145 84.9241 204.195C84.9631 204.25 84.984 204.317 84.984 204.384C84.984 204.452 84.9631 204.518 84.9241 204.574C84.7797 204.798 84.3265 204.862 83.8584 204.862ZM83.0167 204.628C83.694 204.728 84.6203 204.723 84.7896 204.484C84.8145 204.454 84.8344 204.399 84.7896 204.295C84.7516 204.233 84.6908 204.188 84.6203 204.17C84.2319 204.071 83.46 204.399 83.0167 204.628Z" fill="#2C7BE5"/>
<path d="M82.7526 204.763C82.7364 204.768 82.7191 204.768 82.7028 204.763C82.689 204.754 82.6783 204.741 82.672 204.726C82.6658 204.711 82.6644 204.694 82.668 204.678C82.7017 204.16 82.9007 203.666 83.2357 203.269C83.3034 203.21 83.383 203.167 83.4689 203.142C83.5549 203.117 83.6452 203.111 83.7337 203.124C83.9727 203.124 84.0424 203.269 84.0574 203.363C84.1221 203.777 83.2506 204.569 82.8074 204.768L82.7526 204.763ZM83.644 203.269C83.5345 203.268 83.4283 203.307 83.3452 203.378C83.0636 203.693 82.8893 204.089 82.8472 204.509C83.2954 204.235 83.893 203.617 83.8432 203.368C83.8432 203.368 83.8432 203.284 83.6739 203.269H83.644Z" fill="#2C7BE5"/>
<path d="M78.729 204.673H82.3893L82.7528 196.202H79.0925L78.729 204.673Z" fill="#F0C7AA"/>
<path d="M46.1348 190.131L49.1925 192.133L55.9454 186.431L52.8827 184.424L46.1348 190.131Z" fill="#F0C7AA"/>
<path d="M49.6954 191.944L46.5181 189.34C46.462 189.294 46.3916 189.268 46.3189 189.268C46.2463 189.268 46.1759 189.294 46.1197 189.34L43.5003 191.396C43.437 191.447 43.3859 191.511 43.3507 191.584C43.3156 191.656 43.2974 191.736 43.2974 191.817C43.2974 191.898 43.3156 191.978 43.3507 192.051C43.3859 192.124 43.437 192.188 43.5003 192.238C44.6257 193.129 45.2184 193.508 46.6177 194.653C47.4793 195.356 49.6057 197.507 50.8059 198.478C52.0061 199.449 53.1067 198.403 52.7083 197.9C50.9204 195.634 50.2183 193.697 50.0141 192.497C49.9788 192.28 49.8655 192.083 49.6954 191.944Z" fill="#263238"/>
<path d="M82.364 204.25H78.38C78.3073 204.25 78.2369 204.275 78.18 204.32C78.1231 204.365 78.083 204.428 78.0663 204.499L77.3442 207.751C77.326 207.829 77.326 207.911 77.3442 207.99C77.3624 208.069 77.3983 208.143 77.4492 208.205C77.5001 208.268 77.5646 208.319 77.6378 208.353C77.7111 208.387 77.7912 208.404 77.872 208.403C79.3113 208.378 81.3929 208.293 83.2056 208.293C85.3221 208.293 87.1548 208.408 89.6348 208.408C91.1288 208.408 91.5571 206.889 90.9246 206.755C88.0661 206.127 85.7255 206.062 83.2554 204.534C82.9904 204.358 82.6817 204.26 82.364 204.25Z" fill="#263238"/>
<path d="M60.5864 91.6321C57.4142 93.1261 55.6064 103.136 55.6064 103.136L63.3603 106.228C64.4953 103.457 65.4127 100.602 66.1043 97.6877C67.17 93.0763 63.8334 90.0883 60.5864 91.6321Z" fill="#263238"/>
<path d="M64.7002 97.2745C62.7829 99.2167 61.9064 103.021 61.5229 105.496L63.3805 106.238C64.4832 103.546 65.3821 100.774 66.0697 97.9467C65.9054 96.891 65.497 96.4677 64.7002 97.2745Z" fill="#203048"/>
<path d="M81.7417 91.5623C81.7417 91.5623 85.6361 95.9646 81.9608 123.185H62.3944C62.26 120.197 64.1474 105.531 61.249 91.378C63.4114 90.9587 65.599 90.6826 67.7977 90.5513C70.5675 90.3869 73.3446 90.3869 76.1143 90.5513C78.0134 90.7424 79.8949 91.0804 81.7417 91.5623Z" fill="#263238"/>
<path d="M83.5295 102.13L80.2328 96.4478C79.5964 99.0989 79.3365 101.827 79.4609 104.55C79.5505 106.502 81.3383 113.733 82.9469 114.789C83.3737 110.583 83.5682 106.357 83.5295 102.13Z" fill="#203048"/>
<path d="M83.9875 95.4517C84.4855 97.8719 84.9835 100.352 85.5163 102.782C86.0492 105.212 86.602 107.653 87.2444 110.008C87.4087 110.591 87.5631 111.188 87.7424 111.746L87.8769 112.175L87.9416 112.389V112.364C87.9067 112.319 87.8669 112.314 87.8968 112.364C88.1014 112.587 88.3631 112.751 88.6537 112.837C89.1245 113.012 89.6093 113.147 90.1029 113.24C92.4574 113.613 94.8413 113.768 97.2243 113.703L97.6974 116.412C97.0301 116.627 96.4076 116.781 95.7502 116.935C95.0929 117.09 94.4455 117.219 93.7831 117.319C92.4128 117.547 91.0234 117.64 89.6348 117.598C88.863 117.577 88.0953 117.477 87.344 117.299C86.3887 117.09 85.491 116.673 84.7146 116.079C84.2075 115.669 83.789 115.161 83.4845 114.585C83.4048 114.435 83.3351 114.266 83.2704 114.122L83.1807 113.888L82.9965 113.39C82.7425 112.757 82.5333 112.135 82.3042 111.512C81.4626 109.022 80.7604 106.507 80.1429 103.997C79.5254 101.487 78.9925 98.9825 78.5493 96.4078L83.9875 95.4517Z" fill="#F0C7AA"/>
<path d="M76.8565 94.2317C75.8256 97.5732 80.0038 107.538 80.0038 107.538L88.3254 105.447C88.3254 105.447 88.0067 100.267 86.1093 96.1589C83.2508 89.9638 78.0915 90.2228 76.8565 94.2317Z" fill="#263238"/>
<path d="M97.1549 113.703L101.298 113.599L99.3062 117.912C99.3062 117.912 97.618 118.136 96.2336 115.86L94.7744 114.117L96.4527 113.783C96.6837 113.735 96.9188 113.708 97.1549 113.703Z" fill="#F0C7AA"/>
<path d="M103.913 114.401L101.542 117.976L99.3062 117.912L101.298 113.599L103.913 114.401Z" fill="#F0C7AA"/>
<path d="M82.7529 196.202L82.5636 200.57H78.9033L79.0926 196.202H82.7529Z" fill="#CE6F64"/>
<path d="M52.8824 184.424L55.9451 186.431L52.4591 189.369L49.4014 187.368L52.8824 184.424Z" fill="#CE6F64"/>
<path d="M68.8532 78.3254C69.0723 81.9459 69.0176 84.0823 70.8452 85.9398C73.5942 88.7436 78.0712 87.0852 78.9377 83.4498C79.7196 80.1929 79.2315 74.8145 75.6858 73.3703C74.9034 73.0545 74.0536 72.9427 73.2162 73.0453C72.3788 73.1479 71.5811 73.4615 70.8981 73.9569C70.2151 74.4522 69.6692 75.1129 69.3115 75.877C68.9538 76.6412 68.7961 77.4836 68.8532 78.3254Z" fill="#F0C7AA"/>
<path d="M64.5907 77.688C65.4921 80.9898 67.6136 84.7945 70.3576 85.0385C73.7639 85.3373 75.3027 81.8165 75.7509 78.1811C77.7927 76.7817 76.722 75.2429 78.7688 75.0486C81.3982 74.7996 80.5566 69.989 77.0955 69.2171C77.0955 69.2171 78.2559 71.3834 75.8206 70.2878C73.5047 69.1871 70.9318 68.7411 68.3805 68.9979C68.3805 68.9979 71.488 70.5517 68.4502 71.2439C65.4124 71.9361 64.5061 73.8086 65.9055 74.9391C65.9055 74.9441 63.9981 75.5168 64.5907 77.688Z" fill="#263238"/>
<path d="M73.6742 78.928C73.7411 79.828 74.1035 80.6806 74.705 81.3533C75.5018 82.2347 76.3335 81.6869 76.4729 80.6162C76.6024 79.6551 76.3385 78.0366 75.3624 77.5486C74.3863 77.0605 73.6094 77.8424 73.6742 78.928Z" fill="#F0C7AA"/>
<path d="M75.0189 123.185C75.0189 123.185 78.5846 149.007 75.7759 159.355C71.3237 175.739 54.3021 189.569 54.3021 189.569L48.5303 185.784C48.5303 185.784 63.0271 174.106 64.7999 160.386C66.3935 148.07 62.3946 133.175 62.3946 123.18L75.0189 123.185Z" fill="#2C7BE5"/>
<path opacity="0.1" d="M75.0189 123.185C75.0189 123.185 78.5846 149.007 75.7759 159.355C71.3237 175.739 54.3021 189.569 54.3021 189.569L48.5303 185.784C48.5303 185.784 63.0271 174.106 64.7999 160.386C66.3935 148.07 62.3946 133.175 62.3946 123.18L75.0189 123.185Z" fill="black"/>
<path d="M76.4926 137.946C75.5433 136.859 74.4983 135.858 73.3701 134.958C73.9777 143.339 74.4757 155.754 73.9229 164.574C74.6661 162.883 75.2853 161.141 75.7755 159.36C77.145 154.305 77.0005 145.575 76.4926 137.946Z" fill="#2C7BE5"/>
<path opacity="0.3" d="M76.4926 137.946C75.5433 136.859 74.4983 135.858 73.3701 134.958C73.9777 143.339 74.4757 155.754 73.9229 164.574C74.6661 162.883 75.2853 161.141 75.7755 159.36C77.145 154.305 77.0005 145.575 76.4926 137.946Z" fill="black"/>
<path d="M56.6276 188.279C56.6525 188.279 54.3916 189.773 54.3916 189.773L48.0869 185.64L50.0789 183.991L56.6276 188.279Z" fill="#2C7BE5"/>
<path opacity="0.3" d="M56.6276 188.279C56.6525 188.279 54.3916 189.773 54.3916 189.773L48.0869 185.64L50.0789 183.991L56.6276 188.279Z" fill="black"/>
<path d="M81.961 123.185C81.961 123.185 87.4689 146.542 87.8573 157.702C88.2955 170.211 83.9281 199.723 83.9281 199.723H77.728C77.728 199.723 76.9661 169.982 76.6922 158.588C76.3884 146.163 69.0977 123.185 69.0977 123.185H81.961Z" fill="#2C7BE5"/>
<path opacity="0.1" d="M81.961 123.185C81.961 123.185 87.4689 146.542 87.8573 157.702C88.2955 170.211 83.9281 199.723 83.9281 199.723H77.728C77.728 199.723 76.9661 169.982 76.6922 158.588C76.3884 146.163 69.0977 123.185 69.0977 123.185H81.961Z" fill="black"/>
<path d="M85.1179 197.258C85.1478 197.258 84.7693 199.827 84.7693 199.827H77.2296L77.0254 197.532L85.1179 197.258Z" fill="#2C7BE5"/>
<path opacity="0.3" d="M85.1179 197.258C85.1478 197.258 84.7693 199.827 84.7693 199.827H77.2296L77.0254 197.532L85.1179 197.258Z" fill="black"/>
<path d="M177.288 100.74C177.712 101.139 178.045 101.478 178.394 101.856C178.742 102.234 179.071 102.603 179.39 102.986C180.037 103.748 180.645 104.55 181.232 105.357C182.406 106.975 183.45 108.684 184.355 110.466L184.539 110.83C184.629 111.006 184.704 111.189 184.763 111.378C184.884 111.742 184.957 112.12 184.982 112.503C185.015 113.178 184.922 113.854 184.708 114.495C184.345 115.561 183.804 116.557 183.11 117.443C181.858 119.05 180.383 120.469 178.727 121.656L177.487 120.232C178.07 119.55 178.678 118.818 179.22 118.086C179.773 117.377 180.272 116.627 180.714 115.845C181.128 115.162 181.433 114.42 181.621 113.644C181.685 113.366 181.697 113.079 181.656 112.797C181.638 112.702 181.608 112.61 181.566 112.523C181.547 112.485 181.526 112.448 181.501 112.414L181.342 112.145C180.382 110.579 179.339 109.064 178.219 107.608C177.667 106.876 177.074 106.174 176.476 105.481C176.183 105.133 175.879 104.794 175.575 104.456C175.271 104.117 174.943 103.778 174.679 103.514L177.288 100.74Z" fill="#F0C7AA"/>
<path d="M177.965 119.814L174.245 119.206L176.192 122.463C176.192 122.463 178.588 122.379 179.27 120.969L177.965 119.814Z" fill="#F0C7AA"/>
<path d="M171.497 120.71L173.269 123.355L176.193 122.463L174.246 119.206L171.497 120.71Z" fill="#F0C7AA"/>
<path d="M177.786 204.817C177.533 204.839 177.281 204.77 177.074 204.623C177.011 204.564 176.965 204.49 176.94 204.408C176.915 204.326 176.911 204.239 176.929 204.155C176.933 204.102 176.951 204.05 176.982 204.006C177.013 203.962 177.055 203.928 177.104 203.906C177.537 203.712 178.672 204.439 178.802 204.524C178.817 204.533 178.828 204.546 178.834 204.563C178.841 204.579 178.842 204.597 178.837 204.613C178.835 204.63 178.828 204.646 178.816 204.659C178.804 204.671 178.789 204.68 178.772 204.683C178.449 204.765 178.119 204.81 177.786 204.817ZM177.288 204.046C177.252 204.04 177.215 204.04 177.178 204.046C177.157 204.056 177.138 204.072 177.125 204.092C177.112 204.112 177.104 204.136 177.104 204.16C177.091 204.216 177.092 204.274 177.108 204.329C177.123 204.384 177.153 204.434 177.193 204.474C177.383 204.643 177.871 204.668 178.523 204.539C178.149 204.292 177.729 204.124 177.288 204.046Z" fill="#2C7BE5"/>
<path d="M178.782 204.678H178.737C178.384 204.474 177.701 203.682 177.786 203.249C177.802 203.181 177.84 203.119 177.894 203.075C177.948 203.03 178.015 203.003 178.085 203C178.152 202.99 178.221 202.996 178.285 203.017C178.35 203.037 178.409 203.073 178.458 203.119C178.867 203.478 178.872 204.554 178.872 204.613C178.871 204.629 178.866 204.643 178.858 204.656C178.851 204.669 178.84 204.68 178.827 204.688L178.782 204.678ZM178.145 203.184H178.105C177.995 203.184 177.97 203.244 177.96 203.289C177.911 203.543 178.334 204.15 178.687 204.434C178.696 204.016 178.576 203.606 178.344 203.259C178.314 203.231 178.279 203.21 178.24 203.197C178.201 203.184 178.16 203.18 178.12 203.184H178.145Z" fill="#2C7BE5"/>
<path d="M160.814 204.818C160.497 204.848 160.178 204.767 159.913 204.589C159.853 204.536 159.807 204.469 159.779 204.395C159.75 204.32 159.74 204.24 159.749 204.16C159.752 204.112 159.767 204.065 159.793 204.024C159.82 203.983 159.856 203.95 159.898 203.926C160.361 203.667 161.845 204.424 162.015 204.519C162.03 204.529 162.043 204.543 162.05 204.56C162.058 204.577 162.062 204.595 162.059 204.613C162.057 204.631 162.048 204.647 162.036 204.66C162.023 204.672 162.007 204.68 161.99 204.683C161.603 204.765 161.21 204.81 160.814 204.818ZM160.152 204.046C160.095 204.042 160.038 204.054 159.988 204.081C159.97 204.089 159.955 204.103 159.944 204.119C159.934 204.136 159.928 204.155 159.928 204.175C159.92 204.227 159.925 204.28 159.943 204.329C159.96 204.379 159.989 204.423 160.028 204.459C160.257 204.663 160.869 204.698 161.696 204.559C161.214 204.302 160.692 204.129 160.152 204.046Z" fill="#2C7BE5"/>
<path d="M161.974 204.678H161.935C161.491 204.479 160.61 203.682 160.68 203.249C160.68 203.149 160.769 203.025 161.013 203C161.103 202.99 161.193 202.999 161.278 203.026C161.364 203.052 161.443 203.096 161.511 203.154C161.979 203.543 162.069 204.549 162.069 204.593C162.071 204.609 162.069 204.624 162.063 204.638C162.057 204.652 162.047 204.664 162.034 204.673C162.015 204.681 161.994 204.683 161.974 204.678ZM161.083 203.184H161.028C160.869 203.184 160.859 203.264 160.854 203.284C160.814 203.538 161.412 204.17 161.85 204.444C161.807 204.018 161.633 203.617 161.352 203.294C161.276 203.229 161.182 203.191 161.083 203.184Z" fill="#2C7BE5"/>
<path d="M167.861 89.2915C167.717 91.5425 167.328 96.1141 169.056 97.379C169.056 97.379 168.742 99.6848 164.664 100.223C160.182 100.805 162.229 98.2754 162.229 98.2754C164.604 97.3691 164.3 95.5613 163.653 93.908L167.861 89.2915Z" fill="#F0C7AA"/>
<path d="M158.583 85.3125C158.559 85.3125 158.534 85.3072 158.512 85.2969C158.49 85.2866 158.47 85.2715 158.454 85.2527C158.312 85.0838 158.131 84.9507 157.928 84.8642C157.725 84.7777 157.504 84.7402 157.284 84.7547C157.26 84.759 157.236 84.7584 157.213 84.7531C157.19 84.7478 157.168 84.7379 157.149 84.7239C157.13 84.7099 157.114 84.6922 157.102 84.6718C157.09 84.6514 157.082 84.6288 157.079 84.6053C157.074 84.5585 157.087 84.5113 157.116 84.474C157.145 84.4367 157.187 84.4123 157.234 84.4061C157.515 84.3823 157.798 84.427 158.058 84.5363C158.318 84.6455 158.548 84.8162 158.728 85.0336C158.749 85.0596 158.763 85.0911 158.768 85.1246C158.772 85.158 158.767 85.1921 158.753 85.2228C158.739 85.2535 158.716 85.2796 158.688 85.2981C158.66 85.3166 158.627 85.3268 158.593 85.3274L158.583 85.3125Z" fill="#263238"/>
<path d="M157.806 87.5186C157.63 88.2328 157.357 88.9197 156.995 89.5604C157.161 89.6498 157.345 89.7016 157.533 89.7119C157.722 89.7222 157.91 89.6909 158.085 89.6201L157.806 87.5186Z" fill="#DE5753"/>
<path d="M158.006 86.9709C158.045 87.2697 157.921 87.5287 157.727 87.5586C157.532 87.5885 157.338 87.3594 157.303 87.0606C157.269 86.7618 157.388 86.5028 157.582 86.4779C157.776 86.453 157.971 86.6522 158.006 86.9709Z" fill="#263238"/>
<path d="M157.672 86.4827L156.93 86.3682C156.93 86.3682 157.368 86.8811 157.672 86.4827Z" fill="#263238"/>
<path d="M166.078 204.599H162.343L162.094 195.958H165.829L166.078 204.599Z" fill="#F0C7AA"/>
<path d="M183.035 204.599H179.3L178.1 195.958H181.835L183.035 204.599Z" fill="#F0C7AA"/>
<path d="M179.071 204.18H183.264C183.335 204.18 183.405 204.205 183.459 204.252C183.513 204.298 183.548 204.363 183.558 204.434L184.056 207.756C184.065 207.84 184.056 207.924 184.03 208.004C184.004 208.085 183.962 208.158 183.905 208.221C183.849 208.283 183.78 208.333 183.703 208.367C183.626 208.401 183.542 208.419 183.458 208.418C181.999 208.393 181.292 208.309 179.449 208.309C178.314 208.309 176.656 208.423 175.092 208.423C173.528 208.423 173.443 206.874 174.096 206.735C177.019 206.107 177.482 205.241 178.463 204.409C178.634 204.267 178.848 204.187 179.071 204.18Z" fill="#263238"/>
<path d="M162.219 204.18H166.407C166.479 204.179 166.549 204.205 166.604 204.251C166.659 204.298 166.695 204.363 166.706 204.434L167.204 207.756C167.213 207.84 167.204 207.924 167.178 208.004C167.152 208.085 167.11 208.158 167.053 208.221C166.997 208.283 166.928 208.333 166.851 208.367C166.774 208.401 166.69 208.419 166.606 208.418C165.147 208.393 164.44 208.309 162.597 208.309C161.462 208.309 159.111 208.423 157.547 208.423C155.984 208.423 155.899 206.874 156.551 206.735C159.475 206.107 160.625 205.241 161.611 204.409C161.782 204.267 161.996 204.187 162.219 204.18Z" fill="#263238"/>
<path d="M162.094 195.958L162.224 200.415H165.959L165.829 195.958H162.094Z" fill="#CE6F64"/>
<path d="M181.835 195.958H178.1L178.722 200.415H182.452L181.835 195.958Z" fill="#CE6F64"/>
<path d="M167.911 84.6302C168.165 88.3253 168.349 89.884 166.746 92.0105C164.33 95.2027 159.739 94.7097 158.384 91.1639C157.164 87.9717 156.955 82.4688 160.351 80.5366C161.098 80.1084 161.943 79.8782 162.804 79.8678C163.665 79.8574 164.514 80.0672 165.272 80.4773C166.029 80.8873 166.669 81.4841 167.131 82.2109C167.593 82.9377 167.861 83.7704 167.911 84.6302Z" fill="#F0C7AA"/>
<path d="M170.062 88.0615C172.134 89.2168 173.673 86.3682 173.673 86.3682C173.673 86.3682 169.958 86.7716 170.291 84.5605C170.73 81.6273 168.628 78.0616 163.359 78.5198C163.065 78.5447 162.786 78.5795 162.513 78.6244C161.961 78.3629 161.337 78.2954 160.742 78.4328C160.148 78.5702 159.617 78.9044 159.236 79.3813C157.742 79.5058 155.725 81.2887 157.094 83.6442C157.19 83.3735 157.339 83.1247 157.533 82.9121C157.647 84.2916 158.852 86.4828 160.356 86.6272C160.68 88.5146 159.425 90.7009 159.858 92.6729C160.501 95.5165 165.296 96.1589 165.296 96.1589C165.131 95.8038 165.069 95.4092 165.119 95.0206C165.168 94.632 165.326 94.2652 165.575 93.9627C168.832 95.4567 170.979 93.9976 170.979 93.9976C168.758 93.1709 169.43 91.6969 169.43 91.6969C170.197 92.0374 171.066 92.0673 171.854 91.7803C172.643 91.4933 173.289 90.9118 173.658 90.158C172.92 90.1931 172.188 90.0137 171.55 89.6417C170.912 89.2696 170.395 88.7208 170.062 88.0615Z" fill="#263238"/>
<path d="M161.656 87.195C161.665 87.5496 161.603 87.9025 161.475 88.2332C161.347 88.564 161.154 88.8661 160.909 89.1222C160.252 89.8045 159.445 89.3264 159.226 88.4549C159.032 87.6681 159.141 86.3683 159.998 86.0097C160.186 85.9356 160.39 85.9099 160.591 85.9347C160.792 85.9596 160.984 86.0343 161.149 86.1521C161.313 86.2698 161.446 86.4269 161.535 86.6091C161.623 86.7912 161.665 86.9926 161.656 87.195Z" fill="#F0C7AA"/>
<path d="M164.758 121.622C164.758 121.622 165.705 146.203 167.955 160.635C169.768 172.298 177.821 199.549 177.821 199.549H182.91C182.91 199.549 178.712 173.229 177.791 161.701C175.46 132.523 181.511 126.258 175.799 120.182L164.758 121.622Z" fill="#263238"/>
<path d="M169.012 129.395C169.012 129.395 166.711 128.997 165.366 133.379C165.864 141.681 166.716 152.697 167.956 160.635C168.23 162.403 168.648 164.534 169.161 166.87C168.19 152.846 169.012 129.395 169.012 129.395Z" fill="#161F33"/>
<path d="M160.789 122.14C160.789 122.14 156.596 149.336 156.84 160.715C157.094 172.552 161.432 199.559 161.432 199.559H166.477C166.477 199.559 165.68 173.254 166.123 161.631C166.621 148.957 171.795 120.71 171.795 120.71L160.789 122.14Z" fill="#263238"/>
<path d="M183.648 199.788H176.88L176.352 197.517L183.598 197.567L183.648 199.788Z" fill="#2C7BE5"/>
<path opacity="0.2" d="M183.648 199.788H176.88L176.352 197.517L183.598 197.567L183.648 199.788Z" fill="black"/>
<path d="M175.545 97.3839C177.492 97.5731 180.45 103.106 180.45 103.106L175.535 106.876C175.535 106.876 171.466 103.305 171.95 101.298C172.452 99.2116 173.678 97.2096 175.545 97.3839Z" fill="#2C7BE5"/>
<path opacity="0.1" d="M175.545 97.3839C177.492 97.5731 180.45 103.106 180.45 103.106L175.535 106.876C175.535 106.876 171.466 103.305 171.95 101.298C172.452 99.2116 173.678 97.2096 175.545 97.3839Z" fill="black"/>
<path d="M174.076 99.7646C173.579 99.6308 173.066 99.5737 172.552 99.5952C172.291 100.14 172.089 100.711 171.949 101.298C171.451 103.29 175.535 106.876 175.535 106.876L175.898 106.597L174.076 99.7646Z" fill="#2C7BE5"/>
<path opacity="0.3" d="M174.076 99.7646C173.579 99.6308 173.066 99.5737 172.552 99.5952C172.291 100.14 172.089 100.711 171.949 101.298C171.451 103.29 175.535 106.876 175.535 106.876L175.898 106.597L174.076 99.7646Z" fill="black"/>
<path d="M159.121 105.078C157.702 108.669 156.208 112.319 155.018 115.92C154.938 116.149 154.873 116.368 154.803 116.592L154.634 117.145C154.588 117.308 154.588 117.48 154.634 117.643C154.915 118.265 155.361 118.799 155.924 119.187C157.413 120.255 159.035 121.124 160.749 121.771L160.301 123.604C158.192 123.326 156.153 122.661 154.285 121.642C153.136 121.028 152.2 120.08 151.601 118.923C151.257 118.183 151.138 117.359 151.258 116.552C151.269 116.453 151.286 116.355 151.307 116.258L151.357 116.049L151.442 115.671C151.502 115.417 151.561 115.173 151.626 114.924C152.124 112.932 152.762 111.039 153.434 109.162C154.106 107.284 154.808 105.432 155.6 103.584L159.121 105.078Z" fill="#F0C7AA"/>
<path d="M156.098 100.038C156.098 100.038 154.415 100.89 160.789 122.14L175.819 120.178C174.763 114.092 174.265 110.322 175.545 97.3841C173.39 97.2297 171.226 97.2297 169.071 97.3841C166.776 97.5175 164.495 97.8171 162.243 98.2805C159.36 98.9229 156.098 100.038 156.098 100.038Z" fill="#2C7BE5"/>
<path opacity="0.1" d="M156.098 100.038C156.098 100.038 154.415 100.89 160.789 122.14L175.819 120.178C174.763 114.092 174.265 110.322 175.545 97.3841C173.39 97.2297 171.226 97.2297 169.071 97.3841C166.776 97.5175 164.495 97.8171 162.243 98.2805C159.36 98.9229 156.098 100.038 156.098 100.038Z" fill="black"/>
<path d="M175.929 119.266L176.79 120.516C176.855 120.616 176.745 120.735 176.576 120.76L160.814 122.822C160.68 122.822 160.555 122.787 160.535 122.702L160.227 121.373C160.202 121.283 160.311 121.188 160.461 121.169L175.68 119.177C175.725 119.169 175.772 119.174 175.816 119.189C175.859 119.205 175.898 119.231 175.929 119.266Z" fill="#2C7BE5"/>
<path opacity="0.2" d="M175.929 119.266L176.79 120.516C176.855 120.616 176.745 120.735 176.576 120.76L160.814 122.822C160.68 122.822 160.555 122.787 160.535 122.702L160.227 121.373C160.202 121.283 160.311 121.188 160.461 121.169L175.68 119.177C175.725 119.169 175.772 119.174 175.816 119.189C175.859 119.205 175.898 119.231 175.929 119.266Z" fill="black"/>
<path d="M174.106 121.233L174.514 121.178C174.594 121.178 174.649 121.119 174.639 121.069L174.22 119.346C174.204 119.316 174.179 119.293 174.148 119.281C174.117 119.268 174.083 119.266 174.051 119.276L173.643 119.326C173.558 119.326 173.503 119.386 173.518 119.44L173.936 121.158C173.946 121.213 174.026 121.243 174.106 121.233Z" fill="#263238"/>
<path d="M164.226 122.508L164.634 122.453C164.714 122.453 164.774 122.394 164.759 122.344L164.34 120.621C164.324 120.592 164.299 120.569 164.268 120.555C164.237 120.542 164.203 120.538 164.171 120.546L163.763 120.601C163.683 120.601 163.623 120.661 163.638 120.71L164.056 122.433C164.066 122.508 164.146 122.538 164.226 122.508Z" fill="#263238"/>
<path d="M156.8 107.249C157.214 109.172 157.796 111.607 158.648 114.69L158.832 106.876L156.8 107.249Z" fill="#2C7BE5"/>
<path opacity="0.3" d="M156.8 107.249C157.214 109.172 157.796 111.607 158.648 114.69L158.832 106.876L156.8 107.249Z" fill="black"/>
<path d="M156.098 100.038C154.231 100.79 152.612 107.18 152.612 107.18L159.037 110.307C159.037 110.307 162.139 102.493 160.75 100.97C159.36 99.4456 158.25 99.1767 156.098 100.038Z" fill="#2C7BE5"/>
<path opacity="0.1" d="M156.098 100.038C154.231 100.79 152.612 107.18 152.612 107.18L159.037 110.307C159.037 110.307 162.139 102.493 160.75 100.97C159.36 99.4456 158.25 99.1767 156.098 100.038Z" fill="black"/>
<path d="M167.338 199.788H160.57L160.042 197.517L167.577 197.567L167.338 199.788Z" fill="#2C7BE5"/>
<path opacity="0.2" d="M167.338 199.788H160.57L160.042 197.517L167.577 197.567L167.338 199.788Z" fill="black"/>
<path d="M160.854 121.154L160.311 120.93C160.178 120.875 160.033 120.857 159.89 120.877C159.747 120.897 159.612 120.955 159.499 121.044C159.386 121.133 159.298 121.25 159.245 121.384C159.192 121.518 159.175 121.664 159.196 121.806L159.589 124.401C159.608 124.53 159.656 124.655 159.728 124.764C159.801 124.873 159.897 124.965 160.009 125.032C160.122 125.1 160.248 125.142 160.379 125.155C160.509 125.168 160.641 125.152 160.765 125.108C160.962 125.036 161.147 124.934 161.312 124.804C161.492 124.655 161.635 124.465 161.728 124.251C161.822 124.036 161.864 123.803 161.85 123.569L161.795 122.493C161.786 122.203 161.692 121.921 161.525 121.683C161.357 121.445 161.124 121.261 160.854 121.154Z" fill="#F0C7AA"/>
</svg>
