<svg xmlns="http://www.w3.org/2000/svg" width="830.572" height="739.106" viewBox="0 0 830.572 739.106"><defs><style>.a{fill:#f5f5f5;}.b{fill:#ebebeb;}.c,.z{fill:#d81212;}.d,.n,.x,.z{opacity:0.1;}.aa,.e,.x,.y{fill:#fff;}.f{fill:#d9d9d9;}.g{opacity:0.2;}.h{fill:#505050;}.i{fill:#263238;}.j{fill:#455a64;}.k{fill:#37474f;}.l{fill:#ffa8a7;}.m{fill:#f0ceab;}.o{opacity:0.5;}.p{fill:#f28f8f;}.q{fill:#d6b38f;}.r{fill:#e6e6e6;}.s{fill:#fafafa;}.t{fill:#e0e0e0;}.u,.y{opacity:0.3;}.v{fill:#f0f0f0;}.w{fill:#bdbdbd;}.aa{opacity:0.4;}.ab{fill:#ac0303;}</style></defs><g transform="translate(-46.75 -59.529)"><g transform="translate(87.091 385.8)"><path class="a" d="M181.568,574.313c154.274,80.624,404.494,80.624,558.789,0s154.274-211.334,0-291.916-404.473-80.624-558.789,0S27.273,493.71,181.568,574.313Z" transform="translate(-65.839 -221.945)"/></g><g transform="translate(139.04 463.937)"><path class="b" d="M299.26,518.208,91.963,398.572a2.219,2.219,0,0,1,0-4.227L325,259.789a8.157,8.157,0,0,1,7.333,0l207.34,119.636c2.113,1.183,2.113,3.064,0,4.227l-233.1,134.556a8.1,8.1,0,0,1-7.312,0Z" transform="translate(-90.42 -258.918)"/></g><g transform="translate(46.75 463.687)"><path class="c" d="M86.629,325.941a11.179,11.179,0,0,0-1.944-4.649,10.567,10.567,0,0,0-6.763-3.381,77.073,77.073,0,0,1-7.671-1.12,15.047,15.047,0,0,1-10.567-18.576c.7-2.451,2.113-4.713,2.684-7.164,1.775-6.467-3.212-9.172-7.8-12.279-3.191-2.113-8.453-5.347-7.756-9.933,1.247-8.559,13.842-10.715,25.91-7.291s18.471,6.129,27.473,3.7,17.287-2.959,22,5.072,0,15.554,6.044,21.133,16.907,1.754,20.88,13.927v72.467c0-.423-2.113-1.839-2.388-2.113l-6.467-5.833c-2.113-1.8-4.966-3.466-6.34-5.769-1.944-3.191-2.916-6.974-4.924-10.186a24.663,24.663,0,0,0-9.426-9.214c-7.693-3.952-16.907-3.276-24.832-7.122a13.588,13.588,0,0,1-6.572-6.34A29.584,29.584,0,0,1,86.629,325.941Z" transform="translate(-46.75 -257.469)"/><path class="d" d="M86.629,325.941a11.179,11.179,0,0,0-1.944-4.649,10.567,10.567,0,0,0-6.763-3.381,77.073,77.073,0,0,1-7.671-1.12,15.047,15.047,0,0,1-10.567-18.576c.7-2.451,2.113-4.713,2.684-7.164,1.775-6.467-3.212-9.172-7.8-12.279-3.191-2.113-8.453-5.347-7.756-9.933,1.247-8.559,13.842-10.715,25.91-7.291s18.471,6.129,27.473,3.7,17.287-2.959,22,5.072,0,15.554,6.044,21.133,16.907,1.754,20.88,13.927v72.467c0-.423-2.113-1.839-2.388-2.113l-6.467-5.833c-2.113-1.8-4.966-3.466-6.34-5.769-1.944-3.191-2.916-6.974-4.924-10.186a24.663,24.663,0,0,0-9.426-9.214c-7.693-3.952-16.907-3.276-24.832-7.122a13.588,13.588,0,0,1-6.572-6.34A29.584,29.584,0,0,1,86.629,325.941Z" transform="translate(-46.75 -257.469)"/><path class="e" d="M143.292,358.015a1.036,1.036,0,0,1-1.036-.867c-7.65-43.577-58.688-83.836-89.077-91.36a1.087,1.087,0,1,1,.507-2.113c30.918,7.65,82.843,48.607,90.641,92.987a1.036,1.036,0,0,1-.845,1.226Z" transform="translate(-40.521 -253.405)"/><path class="e" d="M61.752,284.378a1.12,1.12,0,0,1-.845-.4,1.078,1.078,0,0,1,.19-1.5c7.291-5.748,22.106-7.46,28.044-7.08a1.057,1.057,0,0,1,.993,1.141,1.036,1.036,0,0,1-1.12.972c-6.044-.4-20.077,1.479-26.607,6.636a1.12,1.12,0,0,1-.655.232Z" transform="translate(-31.236 -240.378)"/><path class="e" d="M77.713,293.723a.867.867,0,0,1-.4,0,1.057,1.057,0,0,1-.592-1.374c3.867-9.362,1.754-25.191,1.733-25.36a1.078,1.078,0,0,1,.909-1.2,1.057,1.057,0,0,1,1.183.909c.106.676,2.219,16.547-1.86,26.438A1.035,1.035,0,0,1,77.713,293.723Z" transform="translate(-13.468 -251.033)"/><path class="c" d="M131.8,358.365c-2.113-6.53-12.87-20.267-32.186-31.024C82.832,318,56.922,311.047,59.2,298.726s26.121-12.68,42.6-2.684c20.69,12.448,32.313,37.892,33.687,47.931Z" transform="translate(-33.042 -225.203)"/><path class="e" d="M128.32,348.076a1.036,1.036,0,0,1-1.036-.845c-4.227-22.74-36.5-53.637-62.238-52.96a1.057,1.057,0,1,1,0-2.113c26.691-.782,59.934,31.193,64.372,54.672a1.078,1.078,0,0,1-.845,1.247Z" transform="translate(-27.556 -221.677)"/></g><g transform="translate(581.478 74.771)"><path class="f" d="M511.3,181.746a9.574,9.574,0,0,1-4.818,8.327h0l-20.859,11.983a9.616,9.616,0,0,1-7.988.74,9.468,9.468,0,0,1-4.438,6.34l-.761.444h0l-20.182,11.666-.571.317a9.743,9.743,0,0,1-7.65.359,9.51,9.51,0,0,1-4.67,6.763l-19.02,10.989a40.428,40.428,0,0,1,5.727,19.379c0,6.911-2.768,11.475-7.037,13.166a9.343,9.343,0,0,1-2.3,1.331,8.455,8.455,0,0,1-2.325,1.331q-2.31,1.349-4.628,2.684a9.767,9.767,0,0,1-2.325,1.331,9.232,9.232,0,0,1-2.3,1.331,9.763,9.763,0,0,1-2.325,1.331,8.452,8.452,0,0,1-2.3,1.331c-3.614,2.853-8.918,2.959-14.92-.507-10.841-6.34-19.654-21.493-19.654-34.067,0-6.34,2.24-10.736,5.812-12.574a9.844,9.844,0,0,1,1.183-.465,9,9,0,0,1,1.141-.866,11.1,11.1,0,0,1,1.162-.465,7.367,7.367,0,0,1,1.141-.867,7.248,7.248,0,0,1,1.183-.465,9.173,9.173,0,0,1,1.141-.888,11,11,0,0,1,1.162-.444,9.172,9.172,0,0,1,1.141-.888,7.186,7.186,0,0,1,1.183-.444,7.551,7.551,0,0,1,1.141-.888,11.1,11.1,0,0,1,1.162-.465,9,9,0,0,1,1.141-.866,9.847,9.847,0,0,1,1.183-.465,9.008,9.008,0,0,1,1.141-.866,11.087,11.087,0,0,1,1.162-.465,9,9,0,0,1,1.12-.634,11.442,11.442,0,0,1,1.183-.465,7.371,7.371,0,0,1,1.141-.866,17.39,17.39,0,0,0-1.691-1.395l-1.733-1.247-1.712-1.141c-.613-.4-1.226-.782-1.86-1.141a40.505,40.505,0,0,0-6.34-2.959,19.068,19.068,0,0,0-2.113-.676,26.014,26.014,0,0,0-7.566-1.184h-3.424a12.046,12.046,0,0,1-10.567-6.023l-.507-.866s4.649-16.019,4.692-16.083l14.793-8.876a33.813,33.813,0,0,1,9.573-4.713,12.537,12.537,0,0,1,1.754-.254h.486a16.108,16.108,0,0,1,2.261,0h1.014a29.991,29.991,0,0,1,4.4.867,63.74,63.74,0,0,1,15.448,6.868c1.141.655,2.113,1.331,3.276,2.113-1.839-1.67-3.719-3.233-5.643-4.734-.866-.7-1.733-1.374-2.621-2.113a1.9,1.9,0,0,0-.4-.317c-.761-.592-1.543-1.162-2.346-1.733-1.416-1.014-2.853-2.113-4.332-3L395.47,174.1c-.993-.655-2.113-1.289-3.022-1.9s-2.515-1.522-3.783-2.261c-11.771-6.784-22.444-9.658-32.1-9.658h-2.008l-2.261.148a5.14,5.14,0,0,0-1.691.19l-1.183.169-1.057.169-1.585.3-1.839.444c-.655.169-1.31.338-1.965.549s-1.1.338-1.627.507h0a12.68,12.68,0,0,1-4.1.7,12.088,12.088,0,0,1-10.567-6.023l-.232-.4,3.614-15.47.254-.211h0c1.67-1.183,9.912-6.911,10.567-7.291a75.85,75.85,0,0,1,12.173-5.748q2.6-.993,5.326-1.775l2.409-.655c.8-.19,1.606-.4,2.43-.571,1.648-.359,3.3-.655,4.987-.909l2.113-.3h.486l2.536-.232a.19.19,0,0,1,.148,0l2.346-.148a3.38,3.38,0,0,1,.655,0,73.145,73.145,0,0,1,8.58.254,70.53,70.53,0,0,1,11.01,1.965h0a101.44,101.44,0,0,0-41.548-12.638,84.3,84.3,0,0,0-15.744.465c-1.31.148-2.642.338-3.931.571h-.4c-.8.127-1.564.275-2.346.465-1.331.275-2.642.571-3.952.909s-2.578.719-3.846,1.12q-1.395.4-2.726.888c-1.162.4-2.325.845-3.445,1.289a13.463,13.463,0,0,1-5.072.993,14.18,14.18,0,0,1-12.215-7.122l-.3-.507h0c.169-.8,4.036-17.837,4.036-17.837h.106l.275-.211.19-.148c1.944-1.437,8.242-6.065,8.9-6.34A94.555,94.555,0,0,1,328.435,81q4.227-1.585,8.453-2.79h0l3.064-.782,3.191-.719a99.027,99.027,0,0,1,9.912-1.458c1.12-.127,2.24-.211,3.381-.3s2.282-.127,3.424-.169,2.3,0,3.466,0c18.682,0,39.181,5.093,60.378,17.329,8.263,4.776,15.7,9.4,22.549,14.117.845.571,1.67,1.141,2.473,1.733,2.113,1.522,4.227,3.085,6.34,4.649l2.768,2.113c2.113,1.606,4.036,3.233,5.981,4.924.782.655,1.522,1.31,2.282,1.987l1.141,1.014,2.409,2.219a179.659,179.659,0,0,1,13.673,14.307l1.648,1.965c.845.993,1.67,2.113,2.494,3.043,1.289,1.585,2.578,3.233,3.846,4.924l2.219,2.959c1.564,2.113,3.128,4.227,4.692,6.636.761,1.12,1.543,2.24,2.3,3.4s1.543,2.325,2.325,3.529,1.564,2.409,2.325,3.635c1.564,2.473,3.149,5.009,4.734,7.65A9.532,9.532,0,0,1,511.3,181.746Z" transform="translate(-298.901 -74.771)"/><g class="g" transform="translate(1.659)"><path class="h" d="M511.3,181.746a9.574,9.574,0,0,1-4.818,8.327h0l-20.859,11.983a9.616,9.616,0,0,1-7.988.74,9.468,9.468,0,0,1-4.438,6.34l-.761.444h0l-20.182,11.666-.571.317a9.743,9.743,0,0,1-7.65.359,9.51,9.51,0,0,1-4.67,6.763l-19.02,10.989a40.428,40.428,0,0,1,5.727,19.379c0,6.911-2.768,11.475-7.037,13.166a9.343,9.343,0,0,1-2.3,1.331,8.455,8.455,0,0,1-2.325,1.331q-2.31,1.349-4.628,2.684a9.767,9.767,0,0,1-2.325,1.331,9.232,9.232,0,0,1-2.3,1.331,9.763,9.763,0,0,1-2.325,1.331,8.452,8.452,0,0,1-2.3,1.331c-3.614,2.853-8.918,2.959-14.92-.507-10.841-6.34-19.654-21.493-19.654-34.067,0-6.34,2.24-10.736,5.812-12.574a9.844,9.844,0,0,1,1.183-.465,9,9,0,0,1,1.141-.866,11.1,11.1,0,0,1,1.162-.465,7.367,7.367,0,0,1,1.141-.867,7.248,7.248,0,0,1,1.183-.465,9.173,9.173,0,0,1,1.141-.888,11,11,0,0,1,1.162-.444,9.172,9.172,0,0,1,1.141-.888,7.186,7.186,0,0,1,1.183-.444,7.551,7.551,0,0,1,1.141-.888,11.1,11.1,0,0,1,1.162-.465,9,9,0,0,1,1.141-.866,9.847,9.847,0,0,1,1.183-.465,9.008,9.008,0,0,1,1.141-.866,11.087,11.087,0,0,1,1.162-.465,9,9,0,0,1,1.12-.634,11.442,11.442,0,0,1,1.183-.465,7.371,7.371,0,0,1,1.141-.866,17.39,17.39,0,0,0-1.691-1.395l-1.733-1.247-1.712-1.141c-.613-.4-1.226-.782-1.86-1.141a40.505,40.505,0,0,0-6.34-2.959,19.068,19.068,0,0,0-2.113-.676,26.014,26.014,0,0,0-7.566-1.184h-3.424a12.046,12.046,0,0,1-10.567-6.023l-.507-.866s4.649-16.019,4.692-16.083l14.793-8.876a33.813,33.813,0,0,1,9.573-4.713,12.537,12.537,0,0,1,1.754-.254h.486a16.108,16.108,0,0,1,2.261,0h1.014a29.991,29.991,0,0,1,4.4.867,63.74,63.74,0,0,1,15.448,6.868c1.141.655,2.113,1.331,3.276,2.113-1.839-1.67-3.719-3.233-5.643-4.734-.866-.7-1.733-1.374-2.621-2.113a1.9,1.9,0,0,0-.4-.317c-.761-.592-1.543-1.162-2.346-1.733-1.416-1.014-2.853-2.113-4.332-3L395.47,174.1c-.993-.655-2.113-1.289-3.022-1.9s-2.515-1.522-3.783-2.261c-11.771-6.784-22.444-9.658-32.1-9.658h-2.008l-2.261.148a5.14,5.14,0,0,0-1.691.19l-1.183.169-1.057.169-1.585.3-1.839.444c-.655.169-1.31.338-1.965.549s-1.1.338-1.627.507h0a12.68,12.68,0,0,1-4.1.7,12.088,12.088,0,0,1-10.567-6.023l-.232-.4,3.614-15.47.254-.211h0c1.67-1.183,9.912-6.911,10.567-7.291a75.85,75.85,0,0,1,12.173-5.748q2.6-.993,5.326-1.775l2.409-.655c.8-.19,1.606-.4,2.43-.571,1.648-.359,3.3-.655,4.987-.909l2.113-.3h.486l2.536-.232a.19.19,0,0,1,.148,0l2.346-.148a3.38,3.38,0,0,1,.655,0,73.145,73.145,0,0,1,8.58.254,70.53,70.53,0,0,1,11.01,1.965h0a101.44,101.44,0,0,0-41.548-12.638,84.3,84.3,0,0,0-15.744.465c-1.31.148-2.642.338-3.931.571h-.4c-.8.127-1.564.275-2.346.465-1.331.275-2.642.571-3.952.909s-2.578.719-3.846,1.12q-1.395.4-2.726.888c-1.162.4-2.325.845-3.445,1.289a13.463,13.463,0,0,1-5.072.993,14.18,14.18,0,0,1-12.215-7.122l-.3-.507h0c.169-.8,4.036-17.837,4.036-17.837h.106l.275-.211.19-.148c1.944-1.437,8.242-6.065,8.9-6.34A94.555,94.555,0,0,1,328.435,81q4.227-1.585,8.453-2.79h0l3.064-.782,3.191-.719a99.027,99.027,0,0,1,9.912-1.458c1.12-.127,2.24-.211,3.381-.3s2.282-.127,3.424-.169,2.3,0,3.466,0c18.682,0,39.181,5.093,60.378,17.329,8.263,4.776,15.7,9.4,22.549,14.117.845.571,1.67,1.141,2.473,1.733,2.113,1.522,4.227,3.085,6.34,4.649l2.768,2.113c2.113,1.606,4.036,3.233,5.981,4.924.782.655,1.522,1.31,2.282,1.987l1.141,1.014,2.409,2.219a179.659,179.659,0,0,1,13.673,14.307l1.648,1.965c.845.993,1.67,2.113,2.494,3.043,1.289,1.585,2.578,3.233,3.846,4.924l2.219,2.959c1.564,2.113,3.128,4.227,4.692,6.636.761,1.12,1.543,2.24,2.3,3.4s1.543,2.325,2.325,3.529,1.564,2.409,2.325,3.635c1.564,2.473,3.149,5.009,4.734,7.65A9.532,9.532,0,0,1,511.3,181.746Z" transform="translate(-300.56 -74.771)"/></g><path class="f" d="M370.777,186.994c0,12.469-8.792,17.6-19.633,11.306s-19.654-21.472-19.654-34.046c0-6.34,2.24-10.736,5.812-12.574s8.453-1.839,13.842,1.247a43.281,43.281,0,0,1,19.633,34.067Z" transform="translate(-264.465 9.46)"/><path class="f" d="M393.425,166.426a96.516,96.516,0,0,0-32.947-29.735,59.342,59.342,0,0,0-19.823-7.481,12.553,12.553,0,0,0-11.18,3.614l-.127.148a12.405,12.405,0,0,0-2.24,13.99,10.086,10.086,0,0,0,.486.951,12.046,12.046,0,0,0,10.567,6.023h3.424a26.015,26.015,0,0,1,7.566,1.184c.676.19,1.353.423,2.113.676a40.508,40.508,0,0,1,6.34,2.959c.634.359,1.247.74,1.86,1.141s1.162.74,1.712,1.141,1.162.8,1.733,1.247,1.162.888,1.733,1.353a73.757,73.757,0,0,1,13.23,14.159,9.679,9.679,0,0,0,15.766-11.2Z" transform="translate(-270.713 -14.374)"/><path class="f" d="M442.648,175.858c-17.5-28.276-35.42-46.684-62.005-62.386A70.29,70.29,0,0,0,319.99,108a11.6,11.6,0,0,0-2.557,1.289h0l-.254.211a12.067,12.067,0,0,0-3.614,15.47l.232.4a12.088,12.088,0,0,0,10.567,6.023,12.68,12.68,0,0,0,4.1-.7h0c.528-.169,1.078-.359,1.627-.507s1.31-.38,1.965-.549l1.839-.444,1.585-.3,1.057-.169,1.183-.169c.571,0,1.12-.148,1.691-.19l2.261-.148h2.008c9.658,0,20.33,2.874,32.1,9.658l3.783,2.261c1.014.613,2.113,1.247,3.022,1.9l1.944,1.268c1.479.972,2.916,1.987,4.332,3,.8.571,1.585,1.141,2.346,1.733a1.9,1.9,0,0,1,.4.317,26.1,26.1,0,0,1,2.621,2.113c1.923,1.5,3.8,3.064,5.643,4.734h.106A146.012,146.012,0,0,1,426.4,186.361a9.362,9.362,0,0,0,4.713,3.741,9.742,9.742,0,0,0,7.65-.359l.571-.317a9.7,9.7,0,0,0,3.339-13.525Z" transform="translate(-285.997 -42.741)"/><path class="f" d="M489.965,182.549c-25.36-42.267-46.494-61.858-86.224-84.851-35.272-20.267-68.62-20.9-94.826-11.222a15.912,15.912,0,0,0-2.938,1.479l-.19.148-.275.211h-.106a14.138,14.138,0,0,0-4.036,17.815h0c0,.19.19.338.3.528a14.181,14.181,0,0,0,12.215,7.122,13.458,13.458,0,0,0,5.069-.992c1.123-.445,2.285-.889,3.448-1.29s1.8-.613,2.726-.888c1.268-.4,2.536-.782,3.846-1.12s2.621-.634,3.952-.909c.782-.19,1.543-.338,2.346-.465h.4c1.289-.232,2.621-.423,3.931-.571a82.589,82.589,0,0,1,15.808-.528,100.51,100.51,0,0,1,41.76,12.68h0l3.149,1.775c33.391,19.274,51.8,35.927,73.122,71.093a9.637,9.637,0,0,0,16.484-9.954Z" transform="translate(-299.775 -68.495)"/></g><g transform="translate(454.54 230.642)"><path class="i" d="M310.77,228.215V336.566a3,3,0,0,0,1.374,2.367l3.677,2.113a3,3,0,0,0,2.747,0l3.7-2.113a3.065,3.065,0,0,0,1.374-2.388V228.215a1.606,1.606,0,0,0-1.585-1.585h-9.7a1.585,1.585,0,0,0-1.585,1.585Z" transform="translate(-160.596 -61.571)"/><path class="j" d="M318.671,226.63h-3.276a1.606,1.606,0,0,0-1.585,1.585V340.222c0,.867.613,1.226,1.374.782l3.7-2.113a3.065,3.065,0,0,0,1.374-2.388V228.215a1.606,1.606,0,0,0-1.585-1.585Z" transform="translate(-157.211 -61.571)"/><path class="i" d="M281.35,245.135V353.486a3,3,0,0,0,1.374,2.367l3.677,2.113a3,3,0,0,0,2.747,0l3.7-2.113a3,3,0,0,0,1.374-2.367V245.135a1.585,1.585,0,0,0-1.585-1.585h-9.7a1.585,1.585,0,0,0-1.585,1.585Z" transform="translate(-193.35 -42.734)"/><path class="j" d="M289.251,243.55h-3.276a1.606,1.606,0,0,0-1.585,1.585V357.142c0,.866.634,1.226,1.374.782l3.7-2.113a3,3,0,0,0,1.374-2.367V245.135A1.585,1.585,0,0,0,289.251,243.55Z" transform="translate(-189.966 -42.734)"/><path class="j" d="M289.93,271.4a5.812,5.812,0,0,1-5.051,6.488h-.719a5.812,5.812,0,0,1-5.769-5.093c-3.339-26.755,1.416-86.647,12.87-120.291a5.791,5.791,0,0,1,8.453-3.17h0a5.77,5.77,0,0,1,2.557,6.911C291.219,187.968,286.717,245.642,289.93,271.4Z" transform="translate(-197.809 -148.527)"/><path class="k" d="M356.317,242.546a3.7,3.7,0,0,1-3.508-2.536c-7.46-22.824-46.282-44.253-70.86-44.253a3.7,3.7,0,1,1,0-7.4c27.2,0,69.318,23.247,77.9,49.22a3.7,3.7,0,0,1-2.367,4.671,3.593,3.593,0,0,1-1.162.3Z" transform="translate(-196.802 -104.179)"/><path class="k" d="M358.732,225.023a3.677,3.677,0,0,1-3.508-2.557c-7.819-23.712-47.592-43.619-71.6-41.147a3.7,3.7,0,0,1-.761-7.354c27.135-2.768,70.459,19.126,79.377,46.2a3.7,3.7,0,0,1-2.367,4.671,3.594,3.594,0,0,1-1.141.19Z" transform="translate(-195.244 -120.469)"/><path class="k" d="M364.841,214.525a3.72,3.72,0,0,1-3.4-2.113c-11.391-25.931-53.151-48.1-74.812-45.1A3.7,3.7,0,1,1,285.612,160c24.557-3.4,69.867,20.436,82.61,49.452a3.677,3.677,0,0,1-1.9,4.861,3.72,3.72,0,0,1-1.479.211Z" transform="translate(-192.413 -136.113)"/><path class="j" d="M341.019,171.022a5.791,5.791,0,0,1,2.388,7.333c-13.356,31.214-20.394,69.36-20.394,111.12v5.6l-.444.465a2.324,2.324,0,0,1-1.754.719,7.08,7.08,0,0,1-2.43-.592,9.219,9.219,0,0,0-1.183-.38,5.812,5.812,0,0,1-5.812-5.812c0-43.324,7.375-83.012,21.366-115.706A5.791,5.791,0,0,1,341,171Z" transform="translate(-159.906 -124.374)"/><path class="i" d="M402.754,253.781V255.2a9.362,9.362,0,0,1-3.424,6.72l-61.794,44.634a7.059,7.059,0,0,1-7.1.359l-87.07-50.276a8.158,8.158,0,0,1-3.656-6.34v-1.458a7.143,7.143,0,0,1,3.846-6l78.194-36.117a9.067,9.067,0,0,1,7.481.359l69.888,40.365a8.136,8.136,0,0,1,3.635,6.34Z" transform="translate(-239.71 -84.453)"/><path class="k" d="M397.931,247.441l-69.888-40.365a9.067,9.067,0,0,0-7.481-.359l-78.194,36.117c-2.113.972-2.113,2.705-.19,3.889L329.29,297a7.059,7.059,0,0,0,7.1-.359l61.752-44.613a2.536,2.536,0,0,0-.211-4.586Z" transform="translate(-238.543 -84.453)"/></g><g transform="translate(128.615 136.806)"><path class="i" d="M108.28,229.315v108.33a3.043,3.043,0,0,1-1.374,2.388l-3.7,2.113a2.959,2.959,0,0,1-2.726,0l-3.7-2.113a3.043,3.043,0,0,1-1.374-2.388V229.315A1.564,1.564,0,0,1,97,227.73h9.7a1.564,1.564,0,0,1,1.585,1.585Z" transform="translate(-74.44 33.489)"/><path class="j" d="M96.984,227.73h3.276a1.585,1.585,0,0,1,1.585,1.585V341.322c0,.888-.613,1.247-1.353.8l-3.7-2.113a3.043,3.043,0,0,1-1.374-2.388V229.315a1.564,1.564,0,0,1,1.564-1.585Z" transform="translate(-74.429 33.489)"/><path class="i" d="M137.7,246.235v108.33a3.043,3.043,0,0,1-1.374,2.388l-3.7,2.113a3.128,3.128,0,0,1-2.747,0l-3.677-2.113a3.043,3.043,0,0,1-1.374-2.388V246.235a1.564,1.564,0,0,1,1.585-1.585h9.7A1.585,1.585,0,0,1,137.7,246.235Z" transform="translate(-41.686 52.327)"/><path class="j" d="M126.415,244.65h3.255a1.564,1.564,0,0,1,1.585,1.585V358.242c0,.888-.613,1.226-1.374.8l-3.677-2.113a3.043,3.043,0,0,1-1.374-2.388V246.235a1.564,1.564,0,0,1,1.585-1.585Z" transform="translate(-41.686 52.327)"/><path class="c" d="M135.6,272.166a5.812,5.812,0,0,0,5.051,6.488h.719a5.812,5.812,0,0,0,5.769-5.093c3.339-26.755-1.416-86.647-12.87-120.291-1.183-3.466-4.523-4.227-7.693-2.388h0c-2.409,1.395-4.227,3.508-3.233,6.15C134.251,188.731,138.752,246.4,135.6,272.166Z" transform="translate(-43.646 -53.15)"/><path class="k" d="M99.032,243.49a3.656,3.656,0,0,1-3.508-4.84c8.453-26.058,50.72-49.241,77.9-49.241a3.7,3.7,0,1,1,0,7.4c-24.6,0-63.4,21.408-70.882,44.148a3.656,3.656,0,0,1-3.508,2.536Z" transform="translate(-74.533 -9.174)"/><path class="k" d="M97.147,226.075a3.827,3.827,0,0,1-1.162-.19,3.7,3.7,0,0,1-2.346-4.67c8.9-27.072,52.263-48.987,79.377-46.177a3.7,3.7,0,0,1-.761,7.354c-23.986-2.452-63.781,17.414-71.6,41.147a3.7,3.7,0,0,1-3.508,2.536Z" transform="translate(-76.621 -25.446)"/><path class="k" d="M92.943,215.69a3.72,3.72,0,0,1-3.381-5.2c12.68-29.016,58.075-52.834,82.611-49.452a3.7,3.7,0,0,1-1.014,7.333c-21.7-3.022-63.4,19.168-74.833,45.1a3.719,3.719,0,0,1-3.381,2.219Z" transform="translate(-81.293 -41.118)"/><path class="j" d="M88.367,172.1a5.812,5.812,0,0,0-2.388,7.354c13.377,31.214,20.415,69.339,20.415,111.1v5.6l.444.465a2.325,2.325,0,0,0,1.754.719,7.079,7.079,0,0,0,2.43-.592,9.223,9.223,0,0,1,1.183-.38,5.812,5.812,0,0,0,5.812-5.812c0-43.3-7.376-83.012-21.387-115.705a5.812,5.812,0,0,0-8.221-2.768Z" transform="translate(-85.487 -29.315)"/><path class="i" d="M95.41,254.885V256.3a9.278,9.278,0,0,0,3.36,6.7l61.752,44.655a7.164,7.164,0,0,0,7.1.359l87.091-50.3a8.073,8.073,0,0,0,3.677-6.34v-1.458a7.249,7.249,0,0,0-3.846-6l-78.194-36.1a9.13,9.13,0,0,0-7.5.338L99.066,248.545a8.052,8.052,0,0,0-3.656,6.34Z" transform="translate(-74.44 10.603)"/><path class="k" d="M98.005,248.545l69.867-40.386a9.13,9.13,0,0,1,7.5-.338l78.194,36.1c2.113.993,2.113,2.726.169,3.889l-87.091,50.3a7.164,7.164,0,0,1-7.1-.359L97.71,253.131a2.515,2.515,0,0,1,.3-4.586Z" transform="translate(-73.38 10.603)"/><path class="c" d="M208.213,292.423c13.737,19.485,24.811,24.24,28.594,28.488s1.247,12.279-8.453,13.864-19.992-1.1-25.994-7.481-10-14.624-16.167-19.358-9.362-6.044-10.123-11.412,4.544-21.133,4.544-21.133Z" transform="translate(15.278 86.551)"/><path class="l" d="M199.84,269.64c-1.585,6.847-3.255,12.828,1.141,21.3a79.275,79.275,0,0,0,4.776,7.883c8.01,11.56,14.54,20.605,15.7,22.19s-6.129,6.34-14.159,2.642-14.561-15.913-19.612-23.247c-2.261-3.318-4.459-6.34-6.234-8.644a16.1,16.1,0,0,1-3.212-10.841l.8-11.01Z" transform="translate(17.734 80.149)"/><path class="k" d="M184.182,303.7c13.737,19.485,24.811,24.261,28.615,28.509s1.226,12.257-8.453,13.842-19.992-1.078-25.973-7.46-10.017-14.624-16.188-19.358-9.362-6.044-10.123-11.412,4.565-21.133,4.565-21.133Z" transform="translate(-11.453 99.132)"/><path class="l" d="M175.82,280.94c-1.585,6.847-3.255,12.828,1.162,21.281a71.032,71.032,0,0,0,4.755,7.883c8.01,11.581,14.54,20.626,15.7,22.211s-6.129,6.34-14.138,2.621-14.582-15.892-19.633-23.247c-2.24-3.318-4.459-6.34-6.213-8.644a16.019,16.019,0,0,1-3.233-10.863l.8-10.989Z" transform="translate(-9.009 92.73)"/><path class="k" d="M153.745,186.565h0A42.056,42.056,0,0,1,111.69,144.51v-.359a37.3,37.3,0,0,1,37.3-37.3h9.489a37.3,37.3,0,0,1,37.322,37.3v.359a42.056,42.056,0,0,1-42.056,42.056Z" transform="translate(-56.315 -101.092)"/><path class="m" d="M168.328,240.618c-2.768-2.24-5.727-6.192-8.58-14.434-1.965-5.685-20.14-56.807-23.035-69.149,0,0-2.578-3.55,4.227-8.073,9.066-1.036,16.907-.993,23.247,15.892S183.333,221.7,183.333,221.7" transform="translate(-28.99 -54.613)"/><path class="c" d="M112.007,213.862c-4.607,8.348-8.453,24.24-4.058,36.962,2.473,7.037,35.5,43.387,58.772,40.344,40.154-5.22,77.348-58.54,77.348-58.54L190.856,202.26Z" transform="translate(-62.634 5.132)"/><g class="n" transform="translate(43.381 207.392)"><path d="M112.007,213.862c-4.607,8.348-8.453,24.24-4.058,36.962,2.473,7.037,35.5,43.387,58.772,40.344,40.154-5.22,77.348-58.54,77.348-58.54L190.856,202.26Z" transform="translate(-106.014 -202.26)"/></g><path class="c" d="M168.857,148.919c6.129-.486,13.4-.528,20.288,12.046,5.389,9.785,8.305,13.842,8.094,27.2-.148,9.637-6.065,21.239-7.4,28.932s-2.008,41.7-2.113,44.718a55.666,55.666,0,0,1-40.7,18.724c-26.691.719-38.146-7.122-38.146-7.122l20.373-36.582-5.326-74.368,19.929-11.919Z" transform="translate(-59.444 -54.421)"/><g class="o" transform="translate(49.436 94.348)"><path class="e" d="M168.857,148.919c6.129-.486,13.4-.528,20.288,12.046,5.389,9.785,8.305,13.842,8.094,27.2-.148,9.637-6.065,21.239-7.4,28.932s-2.008,41.7-2.113,44.718a55.666,55.666,0,0,1-40.7,18.724c-26.691.719-38.146-7.122-38.146-7.122l20.373-36.582-5.326-74.368,19.929-11.919Z" transform="translate(-108.88 -148.769)"/></g><path class="m" d="M170.033,114.89c4.438,2.642,15.174,13.8,14.645,37.237-.465,19.844-6.889,24.768-10.123,26.163s-9.468.571-15.533-.444v11.919s8.453,9.721,7.841,15.174-12.088,6.763-19.908,1.416a50.571,50.571,0,0,1-12.87-13.462V164.11s-4.1,5.452-10.778,1.014-6.953-15.449-3.064-19.4,12.279-2.684,13.842,2.768c0,0,8.242,2.113,21.133-4.987S169.188,122.6,170.033,114.89Z" transform="translate(-49.61 -92.14)"/><path class="k" d="M141.537,131.453a2.494,2.494,0,1,1-2.621-2.473,2.536,2.536,0,0,1,2.621,2.473Z" transform="translate(-28.637 -76.454)"/><path class="k" d="M139.733,127.3l-5.2,3.212a3.191,3.191,0,0,1,1.036-4.227,3,3,0,0,1,4.163,1.014Z" transform="translate(-31.334 -79.954)"/><path class="p" d="M139.294,138.11l5.875,1.881a3,3,0,0,1-3.783,2.113,3.212,3.212,0,0,1-2.092-3.994Z" transform="translate(-25.739 -66.289)"/><path class="k" d="M150.629,130.554a2.515,2.515,0,0,1-2.346,2.705,2.578,2.578,0,0,1-2.642-2.473,2.5,2.5,0,0,1,4.987-.232Z" transform="translate(-18.519 -77.351)"/><path class="q" d="M142.47,128.62l.4,15.026,7.9-2.451Z" transform="translate(-22.046 -76.854)"/><path class="q" d="M146.423,148.387c-5.051-.571-15.174-3.635-17.393-7.037a9.193,9.193,0,0,0,3.381,5.474c3.318,3.149,14.012,5.431,14.012,5.431Z" transform="translate(-37.01 -62.681)"/><path class="k" d="M141.456,115.505s4.4,15.279-.866,29.587c0,0,19.147,1.2,20.2-13.272,0,0-.93-11.919-9.4-19.02Z" transform="translate(-24.139 -94.467)"/><path class="k" d="M134.9,107.939c6.7,5.96,1.2,11.729-5.2,18.914s-11.285,13.039-17.985,7.059a17.456,17.456,0,0,1,23.247-25.973Z" transform="translate(-61.963 -104.125)"/><path class="i" d="M186.9,308.5V452.971a4.058,4.058,0,0,0,1.839,3.17l4.924,2.832a3.994,3.994,0,0,0,3.656,0l4.924-2.832a4.057,4.057,0,0,0,1.839-3.17V308.5a2.113,2.113,0,0,0-2.113-2.113H189.013A2.113,2.113,0,0,0,186.9,308.5Z" transform="translate(27.419 121.065)"/><path class="j" d="M197.34,306.392h-4.227A2.113,2.113,0,0,0,191,308.505V457.919c0,1.162.824,1.648,1.817,1.057l4.924-2.832a4.057,4.057,0,0,0,1.839-3.17V308.505a2.113,2.113,0,0,0-2.24-2.113Z" transform="translate(31.984 121.063)"/><path class="i" d="M292.52,247.523V391.991a4.1,4.1,0,0,0,1.817,3.17l4.924,2.853a4.227,4.227,0,0,0,3.677,0l4.924-2.853a4.1,4.1,0,0,0,1.817-3.17V247.523a2.113,2.113,0,0,0-2.113-2.113H294.633a2.113,2.113,0,0,0-2.113,2.113Z" transform="translate(145.011 53.173)"/><path class="j" d="M303.047,245.41h-4.353a2.113,2.113,0,0,0-2.113,2.113V396.958c0,1.162.824,1.627,1.839,1.057l4.924-2.853a4.1,4.1,0,0,0,1.817-3.17V247.523A2.113,2.113,0,0,0,303.047,245.41Z" transform="translate(149.531 53.173)"/><path class="k" d="M93.48,254.563V399.031A4.058,4.058,0,0,0,95.3,402.2l4.924,2.853a4.227,4.227,0,0,0,3.677,0l4.924-2.853a4.015,4.015,0,0,0,1.817-3.17V254.563a2.113,2.113,0,0,0-2.113-2.113H95.593A2.113,2.113,0,0,0,93.48,254.563Z" transform="translate(-76.589 61.011)"/><path class="i" d="M104.007,252.45H99.653a2.113,2.113,0,0,0-2.113,2.113V404c0,1.162.824,1.627,1.839,1.057L104.3,402.2a4.015,4.015,0,0,0,1.817-3.17V254.563A2.113,2.113,0,0,0,104.007,252.45Z" transform="translate(-72.069 61.011)"/><path class="k" d="M300.374,454.251,93.076,334.572a8.052,8.052,0,0,1-3.656-6.34v-1.458a8.115,8.115,0,0,1,3.656-6.34L326.114,185.9a8.157,8.157,0,0,1,7.333,0l207.34,119.679a8.052,8.052,0,0,1,3.656,6.34v1.458a8.073,8.073,0,0,1-3.656,6.34l-233.1,134.535a7.968,7.968,0,0,1-7.312,0Z" transform="translate(-81.109 -14.053)"/><path class="i" d="M304.093,191.47,93.076,313.262a8.115,8.115,0,0,0-3.656,6.34v1.458a8.052,8.052,0,0,0,3.656,6.34l207.3,119.679a7.313,7.313,0,0,0,3.656.888Z" transform="translate(-81.109 -6.881)"/><path class="j" d="M299.283,444.339,91.985,324.661c-2.113-1.162-2.113-3.043,0-4.227L325.023,185.9a8.157,8.157,0,0,1,7.333,0L539.7,305.577a2.219,2.219,0,0,1,0,4.227l-233.1,134.535A7.967,7.967,0,0,1,299.283,444.339Z" transform="translate(-80.018 -14.053)"/><path class="r" d="M143.61,247.549v2.113a6.15,6.15,0,0,0,3.022,5.262l57.779,33.243a6.086,6.086,0,0,0,6.044,0L316.439,226.88a6.044,6.044,0,0,0,3.043-5.241V220.16L207.475,284.849Z" transform="translate(-20.777 25.061)"/><path class="s" d="M319.484,239.574l-62.851-36.265a3.529,3.529,0,0,0-3.593,0L144.013,266.244a.8.8,0,0,0,0,1.395l63.4,36.624Z" transform="translate(-20.779 5.753)"/><path class="r" d="M191.4,288.748,157.5,269.2l99.116-57.229,34.067,19.464Z" transform="translate(-5.313 15.943)"/><path class="t" d="M165.66,231.744l.613.359,16.611,9.595,29.544-17.076.613-.338-17.224-9.954Z" transform="translate(3.772 18.57)"/><path class="m" d="M166.318,183.19s16.336,13.5,35.166,28.446c8.453,6.742,17.921,13.525,25.7,14.371,6.171.655,17.139,1.1,19.485,3.255s9.13,13.4,11.328,17.034.74,12.152-6.34,12.68-10.081-4.523-13.039-7.671a36.817,36.817,0,0,0-5.347-4.755s-7.376.4-11.56-2.113-6.573-3.952-6.573-3.952c-14.667-8.221-51.756-28.784-63.7-38.463" transform="translate(-12.06 -16.099)"/><path class="r" d="M165.95,231.725l16.611,9.595,29.544-17.076-16.611-9.573Z" transform="translate(4.095 18.949)"/><path class="t" d="M173.81,284.944v4.036a6.108,6.108,0,0,0,3.022-.8L282.816,226.89a6.044,6.044,0,0,0,3.043-5.241V220.17Z" transform="translate(12.846 25.072)"/><path class="b" d="M174.62,325.856a7.186,7.186,0,0,0,6.192-.465l105.519-60.928a7.143,7.143,0,0,0,3.487-5.009l11.56-68.895a7.354,7.354,0,0,0-2.113-6.34L189.6,247.62a5.368,5.368,0,0,0-2.578,3.719Z" transform="translate(13.748 -14.952)"/><path class="a" d="M173.81,325.536l.719.423a10.575,10.575,0,0,0,.993.465l12.49-74.474a5.368,5.368,0,0,1,2.578-3.719l109.661-63.4a7.162,7.162,0,0,0-1.479-1.12l-109.894,63.4a5.368,5.368,0,0,0-2.578,3.719Z" transform="translate(12.846 -15.52)"/><path class="t" d="M202.794,229.171c.782-4.607,5.537-10.736,10.567-13.673s8.622-1.585,7.841,3.022-5.537,10.736-10.567,13.673S202.033,233.8,202.794,229.171Z" transform="translate(45.001 18.142)"/><path class="c" d="M146.74,252.45l-8.58,4.945,8.58,4.966,8.58-4.966Z" transform="translate(-26.845 61.011)"/><path class="c" d="M123.969,268.549l30.686-17.71a4.227,4.227,0,0,1,3.656,0l22.084,12.68a4.058,4.058,0,0,1,1.839,3.17v.719a3.994,3.994,0,0,1-1.839,3.17L149.73,288.309a4.227,4.227,0,0,1-3.677,0l-22.084-12.68a4.058,4.058,0,0,1-1.839-3.17v-.74a4.058,4.058,0,0,1,1.839-3.17Z" transform="translate(-44.692 58.754)"/><path class="c" d="M145.422,283.342,123.4,270.662c-1.014-.571-1.014-1.522,0-2.113l30.686-17.71a4.227,4.227,0,0,1,3.656,0l22.084,12.68a1.12,1.12,0,0,1,0,2.113L149.1,283.342a4.036,4.036,0,0,1-3.677,0Z" transform="translate(-44.124 58.754)"/><g class="u" transform="translate(78.516 309.178)"><path class="e" d="M145.422,283.342,123.4,270.662c-1.014-.571-1.014-1.522,0-2.113l30.686-17.71a4.227,4.227,0,0,1,3.656,0l22.084,12.68a1.12,1.12,0,0,1,0,2.113L149.1,283.342a4.036,4.036,0,0,1-3.677,0Z" transform="translate(-122.64 -250.423)"/></g><path class="c" d="M137.784,252.566c-1.226.719-1.226,1.86,0,2.557a4.84,4.84,0,0,0,4.438,0c1.226-.7,1.226-1.839,0-2.557A4.966,4.966,0,0,0,137.784,252.566Z" transform="translate(-28.287 60.557)"/><path class="c" d="M133.724,254.924c-1.226.7-1.226,1.839,0,2.557a4.966,4.966,0,0,0,4.438,0c1.226-.719,1.226-1.86,0-2.557a4.839,4.839,0,0,0-4.438,0Z" transform="translate(-32.807 63.165)"/><g class="g" transform="translate(108.578 312.599)"><path d="M137.784,252.566c-1.226.719-1.226,1.86,0,2.557a4.84,4.84,0,0,0,4.438,0c1.226-.7,1.226-1.839,0-2.557A4.966,4.966,0,0,0,137.784,252.566Z" transform="translate(-136.865 -252.042)"/></g><g class="g" transform="translate(99.998 317.55)"><path d="M133.724,254.924c-1.226.7-1.226,1.839,0,2.557a4.966,4.966,0,0,0,4.438,0c1.226-.719,1.226-1.86,0-2.557a4.839,4.839,0,0,0-4.438,0Z" transform="translate(-132.805 -254.385)"/></g><path class="c" d="M124.037,266a1.049,1.049,0,0,1-.528-1.965l3.318-1.923a1.078,1.078,0,0,1,1.458.38,1.036,1.036,0,0,1-.4,1.437l-3.318,1.923A.994.994,0,0,1,124.037,266Z" transform="translate(-43.746 71.613)"/><path class="c" d="M124.593,284a2.113,2.113,0,0,1-2.113-2.113v-33.01a2.113,2.113,0,1,1,4.227,0v33.01A2.113,2.113,0,0,1,124.593,284Z" transform="translate(-44.302 54.676)"/><g class="g" transform="translate(78.178 301.436)"><path d="M124.037,266a1.049,1.049,0,0,1-.528-1.965l3.318-1.923a1.078,1.078,0,0,1,1.458.38,1.036,1.036,0,0,1-.4,1.437l-3.318,1.923A.994.994,0,0,1,124.037,266Z" transform="translate(-121.924 -229.823)"/><path d="M124.593,284a2.113,2.113,0,0,1-2.113-2.113v-33.01a2.113,2.113,0,1,1,4.227,0v33.01A2.113,2.113,0,0,1,124.593,284Z" transform="translate(-122.48 -246.76)"/></g><path class="v" d="M154.537,275.789a4.225,4.225,0,0,1-2.113-.549l-4.945-2.853a1.035,1.035,0,0,1-.38-1.437,1.078,1.078,0,0,1,1.437-.4l4.945,2.853a1.923,1.923,0,0,0,1.965,0L196.4,249.964a1.06,1.06,0,1,1,1.057,1.839L156.566,275.24A4.057,4.057,0,0,1,154.537,275.789Z" transform="translate(-17.059 58.086)"/><path class="w" d="M141.566,248.182a5.833,5.833,0,1,1-5.833-5.812,5.833,5.833,0,0,1,5.833,5.812Z" transform="translate(-36.041 49.788)"/><path class="w" d="M139.927,237.86a15.343,15.343,0,0,0-13.525,8.115,2.283,2.283,0,0,0,.613,2.874h0a2.261,2.261,0,0,0,3.381-.7,10.736,10.736,0,0,1,19.02,0,2.261,2.261,0,0,0,3.4.7h0a2.261,2.261,0,0,0,.613-2.874,15.322,15.322,0,0,0-13.5-8.115Z" transform="translate(-40.235 44.767)"/><path class="w" d="M143.8,233.46a24.578,24.578,0,0,0-20.752,11.411,2.3,2.3,0,0,0,.464,3.065h0a2.283,2.283,0,0,0,3.339-.592,20.056,20.056,0,0,1,33.813,0,2.261,2.261,0,0,0,3.318.592h0a2.3,2.3,0,0,0,.486-3.064A24.578,24.578,0,0,0,143.8,233.46Z" transform="translate(-44.105 39.869)"/><path class="m" d="M195.187,308.719C180.521,300.5,149.56,278.413,137.6,268.8c-2.747-2.219-6.34-3.55-8.221-12.173C128.11,250.75,113.274,200.9,110.59,183c-2.621-17.5,5.326-23.247,12.067-27.706,9.658,7.629,10.017,17.076,14.371,33.074,4.8,17.562,15.512,61.541,15.512,61.541s14.1,13.99,30.136,29.587c7.777,7.587,16.907,13.842,24.6,14.667,6.171.676,17.139,1.1,19.485,3.276s9.13,13.377,11.328,16.907.74,12.173-6.34,12.68-10.081-4.544-13.039-7.671a36.3,36.3,0,0,0-5.347-4.776s-7.376.423-11.56-2.113S195.187,308.719,195.187,308.719Z" transform="translate(-58.11 -47.161)"/><path class="t" d="M216.518,184.028a36.856,36.856,0,0,0-22.4,0c-6.065,2.325-6.065,6.065,0,8.453a36.857,36.857,0,0,0,22.4,0C222.816,190.136,222.816,186.353,216.518,184.028Z" transform="translate(30.389 -17.107)"/><path class="c" d="M222,178.29H189.33L191.8,216.8h0c.148,1.395,1.458,2.768,3.952,3.846a28.932,28.932,0,0,0,19.612,0c2.578-1.078,3.931-2.452,4.079-3.846h0Z" transform="translate(30.125 -21.555)"/><path class="c" d="M189.33,178.332l.507,7.819a14.792,14.792,0,0,0,2.726,1.458,39.562,39.562,0,0,0,26.036,0l.866-.4a17.922,17.922,0,0,0,2.113-1.141l.486-7.777Z" transform="translate(30.125 -21.555)"/><path class="d" d="M189.33,178.332l.507,7.819a14.792,14.792,0,0,0,2.726,1.458,39.562,39.562,0,0,0,26.036,0l.866-.4a17.922,17.922,0,0,0,2.113-1.141l.486-7.777Z" transform="translate(30.125 -21.555)"/><path class="c" d="M225.131,183.534v-5.981H221.39c-.507-.254-1.078-.507-1.67-.761a39.836,39.836,0,0,0-26.036,0c-.592.254-1.12.507-1.606.761h-3.7v5.9h0c0,1.923,1.775,3.846,5.3,5.3a39.836,39.836,0,0,0,26.036,0C223.292,187.359,225.131,185.457,225.131,183.534Z" transform="translate(29.067 -25.657)"/><g class="u" transform="translate(217.447 148.948)"><path class="e" d="M225.131,183.534v-5.981H221.39c-.507-.254-1.078-.507-1.67-.761a39.836,39.836,0,0,0-26.036,0c-.592.254-1.12.507-1.606.761h-3.7v5.9h0c0,1.923,1.775,3.846,5.3,5.3a39.836,39.836,0,0,0,26.036,0C223.292,187.359,225.131,185.457,225.131,183.534Z" transform="translate(-188.38 -174.605)"/></g><path class="c" d="M219.685,174.7a39.561,39.561,0,0,0-26.036,0c-7.059,2.916-7.059,7.671,0,10.567a39.562,39.562,0,0,0,26.036,0C226.976,182.372,226.976,177.617,219.685,174.7Z" transform="translate(29.039 -28.004)"/><path class="x" d="M219.685,174.7a39.561,39.561,0,0,0-26.036,0c-7.059,2.916-7.059,7.671,0,10.567a39.562,39.562,0,0,0,26.036,0C226.976,182.372,226.976,177.617,219.685,174.7Z" transform="translate(29.039 -28.004)"/><path class="c" d="M214.074,174.655a32.883,32.883,0,0,0-19.57,0c-5.326,2.008-5.326,5.241,0,7.249a32.545,32.545,0,0,0,19.57,0C219.568,179.9,219.568,176.662,214.074,174.655Z" transform="translate(31.439 -27.26)"/><path class="y" d="M214.074,174.655a32.883,32.883,0,0,0-19.57,0c-5.326,2.008-5.326,5.241,0,7.249a32.545,32.545,0,0,0,19.57,0C219.568,179.9,219.568,176.662,214.074,174.655Z" transform="translate(31.439 -27.26)"/><path class="c" d="M218,178.088l-1.479-5.368H192.049l-1.479,5.368Z" transform="translate(31.505 -27.756)"/><path class="y" d="M218,178.088l-1.479-5.368H192.049l-1.479,5.368Z" transform="translate(31.505 -27.756)"/><path class="c" d="M212.186,172.121a29.143,29.143,0,0,0-17.414,0c-4.713,1.775-4.713,4.649,0,6.446a29.143,29.143,0,0,0,17.414,0C217.068,176.771,217.068,173.9,212.186,172.121Z" transform="translate(32.249 -29.904)"/><path class="z" d="M213.314,174.445a1.788,1.788,0,0,1-.528.613,7.438,7.438,0,0,1-2.113,1.014,25.36,25.36,0,0,1-8.2,1.247,24.07,24.07,0,0,1-8.052-1.226,6.783,6.783,0,0,1-1.923-1.036c-.4-.317-.507-.549-.507-.613s.423-.866,2.43-1.627a24.07,24.07,0,0,1,8.052-1.226,25.359,25.359,0,0,1,8.2,1.226C212.806,173.558,213.314,174.3,213.314,174.445Z" transform="translate(33.086 -29.016)"/><path class="d" d="M213.314,174.445a1.788,1.788,0,0,1-.528.613,7.438,7.438,0,0,1-2.113,1.014,25.36,25.36,0,0,1-8.2,1.247,24.07,24.07,0,0,1-8.052-1.226,6.783,6.783,0,0,1-1.923-1.036c-.4-.317-.507-.549-.507-.613s.423-.866,2.43-1.627a24.07,24.07,0,0,1,8.052-1.226,25.359,25.359,0,0,1,8.2,1.226C212.806,173.558,213.314,174.3,213.314,174.445Z" transform="translate(33.086 -29.016)"/><path class="c" d="M212.518,174.412a7.438,7.438,0,0,1-2.113,1.014,25.36,25.36,0,0,1-8.2,1.247,24.07,24.07,0,0,1-8.052-1.226,6.783,6.783,0,0,1-1.923-1.036,6.871,6.871,0,0,1,1.923-1.014,24.07,24.07,0,0,1,8.052-1.226,25.36,25.36,0,0,1,8.2,1.226,7.439,7.439,0,0,1,2.113,1.014Z" transform="translate(33.354 -28.37)"/><path class="c" d="M199.95,173.5a2.515,2.515,0,0,1,1.923-.359c.359.211,0,.7-.634,1.1a2.494,2.494,0,0,1-1.944.38C198.873,174.408,199.232,173.922,199.95,173.5Z" transform="translate(41.018 -27.352)"/><path class="d" d="M199.95,173.5a2.515,2.515,0,0,1,1.923-.359c.359.211,0,.7-.634,1.1a2.494,2.494,0,0,1-1.944.38C198.873,174.408,199.232,173.922,199.95,173.5Z" transform="translate(41.018 -27.352)"/><path class="c" d="M190.512,199.048c0,1.416,1.437,2.853,4.227,3.952a34.934,34.934,0,0,0,21.133,0c2.959-1.1,4.438-2.515,4.438-3.952l.93-13.948c0,1.5-1.585,3.022-4.734,4.227a36.856,36.856,0,0,1-22.4,0c-3.043-1.162-4.565-2.684-4.565-4.227Z" transform="translate(30.359 -13.973)"/><path class="aa" d="M190.512,199.048c0,1.416,1.437,2.853,4.227,3.952a34.934,34.934,0,0,0,21.133,0c2.959-1.1,4.438-2.515,4.438-3.952l.93-13.948c0,1.5-1.585,3.022-4.734,4.227a36.856,36.856,0,0,1-22.4,0c-3.043-1.162-4.565-2.684-4.565-4.227Z" transform="translate(30.359 -13.973)"/><path class="c" d="M199.139,195.051a21.141,21.141,0,0,1-1.247-2.367,7.164,7.164,0,0,0-3.656-3.233.507.507,0,0,0-.571.211,5.474,5.474,0,0,0,6.826,6.889s.106-.211,0-.254a4.86,4.86,0,0,1-1.353-1.247Z" transform="translate(34.665 -9.152)"/><path class="c" d="M194.366,189.866a7.269,7.269,0,0,1,2.282,1.416,6.763,6.763,0,0,1,1.669,2.261,6.826,6.826,0,0,0,2.113,2.79.444.444,0,0,0,.634-.106,4.8,4.8,0,0,0-1.12-5.875,4.945,4.945,0,0,0-5.621-1.289.444.444,0,0,0,.042.8Z" transform="translate(35.423 -9.989)"/><rect class="c" width="5" height="41.001" rx="2.5" transform="matrix(-0.839, 0.545, -0.545, -0.839, 111.055, 304.556)"/></g><g transform="translate(-191.25 494.688)"><path class="c" d="M413.8,354.619,403.49,349.5a170.991,170.991,0,0,1,5.3-38.7c7.693-28.382,31.447-50.53,49.706-51.9,23.564-1.775,17.6,19.253,3.508,27.326C439.48,299.059,420.988,320.087,413.8,354.619Z" transform="translate(350.424 -258.8)"/><g class="g" transform="translate(753.913)"><path d="M413.8,354.619,403.49,349.5a170.991,170.991,0,0,1,5.3-38.7c7.693-28.382,31.447-50.53,49.706-51.9,23.564-1.775,17.6,19.253,3.508,27.326C439.48,299.059,420.988,320.087,413.8,354.619Z" transform="translate(-403.49 -258.8)"/></g><path class="e" d="M408.275,341.974h.127a1.12,1.12,0,0,0,1.014-1.247c-2.43-24.2,21.007-66.676,48.332-76.947a1.12,1.12,0,0,0,.655-1.458,1.141,1.141,0,0,0-1.458-.676C428.8,272.213,404.64,316,407.155,340.96a1.141,1.141,0,0,0,1.12,1.014Z" transform="translate(354.303 -255.708)"/><path class="c" d="M405.46,336.98c-.169-3.487,0-8.559,0-9.806a32.124,32.124,0,0,1,3.022-12.68,25.509,25.509,0,0,1,11.9-12.131c2.853-1.353,6.108-2.113,8.094-4.628a16.906,16.906,0,0,0,2.663-7.566c.909-4.227,2.663-8.813,6.34-11.158s8.453-2.113,12.68-1.183c6.192,1.2,11.962,2.557,18.069.19a125.924,125.924,0,0,1,14.984-5.262c6.34-1.585,20.69-3.445,22.887,5.579a8.58,8.58,0,0,1-1.9,7.059,25.954,25.954,0,0,1-5.727,4.882L487.9,297.566a12.686,12.686,0,0,0-3.233,2.853c-2.113,3.064-1.183,7.312-1.923,11.01a13.272,13.272,0,0,1-6.8,8.813,17.836,17.836,0,0,1-11.158,1.691c-5.093-.782-13.082-5.431-16.717.338a19.167,19.167,0,0,0-2.113,6.34,12.448,12.448,0,0,1-2.663,6.065c-2.24,2.367-5.833,2.811-9.108,2.853a50.531,50.531,0,0,0-13.631.993c-1.817.528-3.107,2.684-4.227,4.079C413.554,341.037,410.172,339.452,405.46,336.98Z" transform="translate(352.532 -244.732)"/><path class="e" d="M407.43,332.473a1.249,1.249,0,0,1-.486-.106,1.057,1.057,0,0,1-.465-1.416c15.956-31.489,59.892-51.227,85.527-56.828a1.036,1.036,0,0,1,1.247.8,1.057,1.057,0,0,1-.8,1.268C467.217,281.69,424,301.069,408.36,331.9A1.057,1.057,0,0,1,407.43,332.473Z" transform="translate(353.626 -241.769)"/><path class="e" d="M447.68,293.384a1.078,1.078,0,0,1-.655-.232c-8.2-6.572-20.373-8.58-20.5-8.6a1.057,1.057,0,0,1-.866-1.226,1.036,1.036,0,0,1,1.2-.867c.528,0,12.849,2.113,21.472,9.045a1.057,1.057,0,0,1,.169,1.479A1.078,1.078,0,0,1,447.68,293.384Z" transform="translate(375.087 -232.478)"/><path class="e" d="M422.911,295.251h-.317a1.057,1.057,0,0,1-.676-1.331,56.616,56.616,0,0,0,1.5-15.977,1.06,1.06,0,1,1,2.113-.169,59.323,59.323,0,0,1-1.606,16.78A1.057,1.057,0,0,1,422.911,295.251Z" transform="translate(370.881 -238.762)"/></g><g transform="translate(-484.25 -223.885)"><rect class="ab" width="35" height="243" rx="17.5" transform="matrix(0.883, -0.469, 0.469, 0.883, 1070.358, 299.846)"/><rect class="c" width="29" height="243" rx="14.5" transform="matrix(0.883, -0.469, 0.469, 0.883, 1071.008, 299.438)"/></g></g></svg>