<svg xmlns="http://www.w3.org/2000/svg" width="423" height="262.746" viewBox="0 0 423 262.746"><defs><style>.a{fill:#f5f5f5;}.b{fill:#e0e0e0;}.c{fill:#fafafa;}.d{fill:#ebebeb;}.e{fill:#455a64;}.f{fill:#263238;}.g{fill:#fff;}.h{fill:#eb2504;}.i{opacity:0.4;}</style></defs><g transform="translate(10336 -5728)"><g transform="translate(-10336 5728)"><g transform="translate(12.364 0)"><path class="a" d="M72.1,251.259a38.47,38.47,0,0,1-23.576-17.737,34.187,34.187,0,0,1-2.473-28.187c2.58-7.15,7.537-13.477,9.67-20.776,2.413-8.282.977-17.064-.518-25.536s-2.979-17.225-.745-25.542,9.39-16.128,18.559-16.724c8.5-.548,16.355,5.362,19.906,12.577S96.5,144.872,95.661,152.8s-2.443,15.836-1.936,23.784c1.031,16.087,10.677,31.232,9.533,47.313-.6,8.341-4.057,13.7-10,20.031-5.118,5.428-13.626,9-21.169,7.334" transform="translate(-44.101 -69.036)"/><path class="b" d="M96.031,368.327c-.089,0-.161-35.641-.161-79.587s.072-79.6.161-79.6.161,35.629.161,79.6S96.12,368.327,96.031,368.327Z" transform="translate(-65.026 -106.391)"/><path class="b" d="M89.04,289.443a11.738,11.738,0,0,1-1.472-1.293c-.876-.828-2.061-2-3.313-3.336s-2.383-2.526-3.247-3.39A12.387,12.387,0,0,1,79.71,280a12,12,0,0,1,1.466,1.293c.876.828,2.067,2,3.319,3.337s2.383,2.526,3.241,3.39A12.165,12.165,0,0,1,89.04,289.443Z" transform="translate(-58.494 -135.032)"/><rect class="b" width="53.229" height="6.506" transform="translate(4.843 255.328)"/><path class="b" d="M96.875,234.148a10.933,10.933,0,0,0,3.253-1.352A8.977,8.977,0,0,0,104.155,226v-.137l.185.155a6.983,6.983,0,0,0-3.92,2.157,14.508,14.508,0,0,0-2.181,2.931c-.524.894-.894,1.65-1.144,2.175a5.314,5.314,0,0,1-.405.81,4.212,4.212,0,0,1,.292-.852,20.288,20.288,0,0,1,1.084-2.228,14.073,14.073,0,0,1,2.163-3.021,7.2,7.2,0,0,1,4.093-2.264l.2-.03v.334a8.812,8.812,0,0,1-1.484,4.284,8.937,8.937,0,0,1-2.735,2.657A8.341,8.341,0,0,1,97.888,234a6.1,6.1,0,0,1-.709.131A.668.668,0,0,1,96.875,234.148Z" transform="translate(-65.357 -113.085)"/><path class="b" d="M97,236.25a20.491,20.491,0,0,1,2.228-2.77,20.727,20.727,0,0,1,2.479-2.58,20.342,20.342,0,0,1-2.228,2.771A20.255,20.255,0,0,1,97,236.25Z" transform="translate(-65.483 -115.186)"/><path class="a" d="M616.985,238.318a40.675,40.675,0,0,1-24.934-18.762,36.14,36.14,0,0,1-2.616-29.79c2.723-7.579,7.972-14.252,10.224-21.967,2.556-8.758,1.031-18.053-.542-27.008s-3.187-18.22-.792-27.014,9.932-17.058,19.626-17.683c9-.6,17.278,5.642,21.056,13.3s3.771,16.432,2.9,24.809-2.58,16.748-2.044,25.155c1.084,17.016,11.285,33.031,10.087,50.047-.6,8.854-4.29,14.526-10.576,21.187-5.41,5.738-14.412,9.533-22.384,7.745" transform="translate(-263.692 -60.682)"/><path class="b" d="M642.293,362.11c-.1,0-.173-37.691-.173-84.169s.078-84.181.173-84.181.167,37.679.167,84.181S642.388,362.11,642.293,362.11Z" transform="translate(-285.818 -100.175)"/><path class="b" d="M634.9,278.678a12.65,12.65,0,0,1-1.555-1.37c-.924-.876-2.181-2.109-3.509-3.527s-2.544-2.669-3.426-3.575a11.737,11.737,0,0,1-1.376-1.525,14.124,14.124,0,0,1,1.555,1.37c.923.882,2.18,2.115,3.5,3.533s2.55,2.669,3.432,3.575A13.479,13.479,0,0,1,634.9,278.678Z" transform="translate(-278.91 -130.457)"/><rect class="b" width="56.297" height="6.876" transform="translate(328.799 254.947)"/><path class="b" d="M643.171,220.2a11.555,11.555,0,0,0,3.438-1.43,9.481,9.481,0,0,0,2.759-2.776,9.276,9.276,0,0,0,1.5-4.4v-.149l.191.161a7.387,7.387,0,0,0-4.141,2.282,15.885,15.885,0,0,0-2.312,3.1,25.394,25.394,0,0,0-1.192,2.306,6.014,6.014,0,0,1-.429.852,4.57,4.57,0,0,1,.3-.9,20.539,20.539,0,0,1,1.12-2.383,14.9,14.9,0,0,1,2.288-3.194,7.62,7.62,0,0,1,4.326-2.383l.215-.036v.352a9.533,9.533,0,0,1-4.463,7.34,8.572,8.572,0,0,1-2.586,1.1,7.355,7.355,0,0,1-.751.143A.733.733,0,0,1,643.171,220.2Z" transform="translate(-286.166 -107.244)"/><path class="b" d="M643.3,222.43a21.632,21.632,0,0,1,2.383-2.931,22.394,22.394,0,0,1,2.621-2.729,45.712,45.712,0,0,1-5,5.66Z" transform="translate(-286.295 -109.475)"/><path class="c" d="M435.075,59.865c.352-2.544-3.241-4.641-5.958-4.862a15.04,15.04,0,0,1-3.849-.334c-2.645-.918-3.7-4.337-6.286-5.428-1.93-.81-4.171-.089-6.018.852s-3.724,2.127-5.815,2.264c-1.817.113-3.789-.56-5.362.328-1.192.661-1.787,2.026-2.9,2.836a6.822,6.822,0,0,1-3.789,1.025,10.591,10.591,0,0,0-3.9.638,3.1,3.1,0,0,0-1.96,3.134Z" transform="translate(-183.587 -41.619)"/><path class="a" d="M649.753,48.435c.352-2.544-3.247-4.641-5.958-4.862a15.041,15.041,0,0,1-3.849-.334c-2.645-.918-3.7-4.337-6.28-5.428-1.93-.81-4.171-.089-6.024.852s-3.718,2.127-5.809,2.264c-1.788.113-3.8-.56-5.362.328-1.192.661-1.787,2.026-2.9,2.836a6.822,6.822,0,0,1-3.789,1.025,10.663,10.663,0,0,0-3.908.638,3.084,3.084,0,0,0-1.954,3.134Z" transform="translate(-270.364 -36.999)"/><path class="d" d="M532.675,82.219c.4-2.931-3.73-5.362-6.84-5.589-1.484-.119-3.021.107-4.421-.381-3.045-1.061-4.26-4.993-7.227-6.244-2.216-.935-4.766-.1-6.923.983s-4.272,2.443-6.679,2.6c-2.091.131-4.355-.643-6.185.381-1.364.757-2.079,2.33-3.336,3.253a7.928,7.928,0,0,1-4.355,1.192,12.374,12.374,0,0,0-4.492.739,3.538,3.538,0,0,0-2.246,3.575Z" transform="translate(-220.26 -49.99)"/><path class="a" d="M157.09,50.654c.447-3.247-4.129-5.91-7.567-6.19-1.638-.131-3.342.119-4.9-.423-3.36-1.192-4.707-5.517-7.99-6.905-2.455-1.037-5.285-.113-7.662,1.084s-4.731,2.7-7.394,2.878c-2.312.149-4.82-.709-6.846.417-1.507.846-2.3,2.58-3.688,3.6a8.914,8.914,0,0,1-4.82,1.311,14.188,14.188,0,0,0-4.969.81c-1.537.7-2.806,2.33-2.49,3.986Z" transform="translate(-66.177 -36.686)"/></g><g transform="translate(52.508 41.729)"><rect class="e" width="249.004" height="174.982" transform="translate(9.384 45.881)"/><rect class="f" width="265.752" height="7.358" transform="translate(0 39.577)"/><path class="f" d="M366.2,356.059H300.72V194H366.2Zm-64.889-.6h64.293V194.6H301.316Z" transform="translate(-187.97 -142)"/><rect class="c" width="59.396" height="155.594" transform="translate(115.657 55.086)"/><path class="g" d="M365,214.39l-59.4,54.141v9.777L365,223.756Z" transform="translate(-189.943 -150.242)"/><path class="f" d="M401.032,330.372h-7.394a5.958,5.958,0,0,1-5.958-5.958V293.808a5.958,5.958,0,0,1,5.958-5.958h7.394v1.787h-7.394a4.171,4.171,0,0,0-4.171,4.171V324.42a4.171,4.171,0,0,0,4.171,4.171h7.394Z" transform="translate(-223.119 -179.934)"/><rect class="h" width="55.005" height="27.169" rx="2.1" transform="translate(117.987 90.929)"/><path class="g" d="M362.127,286.022q.216-.017.429-.053a1.861,1.861,0,0,0,1-.533,1.036,1.036,0,0,0,.28-.644v-2.95c0-3.174-.03-7.755-.054-13.412v-5.617a1.97,1.97,0,0,0-.042-.569,1.224,1.224,0,0,0-.328-.5c-.673-.648-1.936-.379-3.033-.441H313.1a1.653,1.653,0,0,0-1.519.8,1.684,1.684,0,0,0-.083.763V284.8a1.3,1.3,0,0,0,.965.992,2.439,2.439,0,0,0,.858.1h24.029l18.13.04,4.927.022h0l-4.927.022-18.13.035H313.289a2.833,2.833,0,0,1-.971-.115,1.508,1.508,0,0,1-1.138-1.164V262.487c.019-.771.87-1.389,1.913-1.389H362.05a2.252,2.252,0,0,1,1.549.511,1.352,1.352,0,0,1,.375.569,2,2,0,0,1,.048.613v5.617c0,5.657-.036,10.237-.048,13.412v2.95a1.509,1.509,0,0,1-1.352,1.2,1.684,1.684,0,0,1-.495.053Z" transform="translate(-192.198 -169.121)"/><path class="g" d="M314.582,263.575a.6.6,0,1,1-.174-.452A.6.6,0,0,1,314.582,263.575Z" transform="translate(-193.092 -169.869)"/><path class="g" d="M396.192,263.576a.6.6,0,1,1-.164-.441A.6.6,0,0,1,396.192,263.576Z" transform="translate(-226.078 -169.87)"/><path class="f" d="M363.165,249.639l-.131-.1-.375-.3-1.43-1.192-5.213-4.457L338.79,228.786h.2l-.393.328-17.85,14.567-5.434,4.391-1.483,1.192-.393.3c-.089.071-.137.1-.143.1l.125-.119.369-.322,1.448-1.227,5.362-4.469,17.8-14.639.393-.328.1-.083.1.083c6.7,5.821,12.738,11.076,17.135,14.9l5.154,4.528,1.388,1.239.358.328A.926.926,0,0,1,363.165,249.639Z" transform="translate(-193.051 -155.933)"/><circle class="f" cx="1.221" cy="1.221" r="1.221" transform="translate(144.613 72.251)"/><path class="g" d="M323.45,279.731a5.023,5.023,0,1,1,5.023,4.745,4.755,4.755,0,0,1-5.023-4.745Zm7.891,0a2.869,2.869,0,1,0-2.869,2.978,2.8,2.8,0,0,0,2.869-2.978Z" transform="translate(-197.965 -174.646)"/><path class="g" d="M343.131,278.485c0,2.035-1.539,3.305-3.97,3.305h-1.846v2.531H335.19V275.15h3.97C341.592,275.15,343.131,276.421,343.131,278.485Zm-2.154,0c0-.993-.655-1.608-1.985-1.608h-1.727v3.186h1.727c1.33,0,1.965-.586,1.965-1.578Z" transform="translate(-198.052 -174.651)"/><path class="g" d="M351.807,282.625v1.7h-7.1V275.15h6.948v1.707h-4.824v1.985h4.258V280.5h-4.258v2.124Z" transform="translate(-198.122 -174.651)"/><path class="g" d="M361.937,275.15v9.172H360.19l-4.566-5.569v5.569H353.53V275.15h1.757l4.556,5.569V275.15Z" transform="translate(-198.187 -174.651)"/><rect class="e" width="251.03" height="39.293" transform="translate(7.358 0.284)"/><rect class="f" width="14.24" height="6.822" transform="translate(7.358 12.212)"/><rect class="f" width="14.24" height="6.822" transform="translate(37.22 1.19)"/><rect class="f" width="14.24" height="6.822" transform="translate(204.539 20.243)"/><path class="f" d="M146.769,145.252v-1.865c0-1.192-.036-2.89-.066-4.957l.113.119-14.24.042.155-.155h0v6.8l-.149-.149,10.188.072,2.979.042h1.09a1.191,1.191,0,0,1-.25,0h-.775l-2.931.042-10.284.072h-.143v-6.87h0c-.036.03.292-.3.155-.161l14.24.042h.119v.113c-.03,2.1-.048,3.8-.066,5.029v1.341a2.281,2.281,0,0,1-.137.441Z" transform="translate(-119.958 -119.468)"/><rect class="f" width="14.24" height="6.822" transform="translate(238.786 6.713)"/><path class="f" d="M535.395,136.1a4.312,4.312,0,0,1,0-.495v-1.37c0-1.192-.036-2.89-.06-4.957l.113.113-14.24.042.155-.155h0v6.81l-.149-.149,10.182.072,2.979.042h1.09a1.2,1.2,0,0,1-.25,0h-.774l-2.931.042-10.284.066H521V129.2h0l.155-.155,14.24.042h.119v.113c0,2.091-.042,3.8-.06,5.023v1.347A3.126,3.126,0,0,1,535.395,136.1Z" transform="translate(-277.007 -115.748)"/><path class="f" d="M504.155,162.027a3.068,3.068,0,0,1,0-.495v-1.37c0-1.192-.036-2.89-.066-4.957l.119.119-14.24.036.149-.149h0v6.816l-.149-.149,10.188.072,2.979.042h1.09a1.3,1.3,0,0,1-.256,0H503.2l-2.937.042-10.361.125h-.143v-6.977h0l.161-.161,14.24.042h.113v.113c-.03,2.1-.048,3.8-.06,5.029v1.341A1.193,1.193,0,0,1,504.155,162.027Z" transform="translate(-264.379 -126.245)"/><path class="f" d="M458.826,113.823v-1.865c0-1.192-.036-2.89-.065-4.951l.113.113-14.24.042.155-.155h0v6.8l-.149-.143,10.188.071,2.979.036h1.084a1.114,1.114,0,0,1-.25,0h-.775l-2.931.036-10.284.071h-.143v-6.971h0c-.03.036.3-.292.155-.155l14.24.042h.119v.113c-.03,2.091-.048,3.8-.065,5.023v1.347A2.306,2.306,0,0,1,458.826,113.823Z" transform="translate(-246.088 -106.723)"/><path class="f" d="M219.269,145.275a3.288,3.288,0,0,1-.036-.518v-1.394c-.03-1.192-.06-2.89-.071-4.909l.137.137h-7.12c-.036,0,.292-.3.149-.155h0v6.8l-.137-.137c2.1,0,3.867.048,5.118.071l1.466.036a4.349,4.349,0,0,1,.542,0,2.258,2.258,0,0,1-.489.03l-1.43.036c-1.245,0-3.045.06-5.207.072H212v-6.87h0l.161-.161h7.251v.131c0,2.079-.042,3.8-.072,4.993,0,.554,0,1.007-.03,1.37a3.433,3.433,0,0,1-.042.471Z" transform="translate(-152.11 -119.491)"/><path class="f" d="M213.781,156.7a4.4,4.4,0,0,1,0-.495v-1.37c0-1.192-.036-2.89-.06-4.957l.113.113-14.24.042.155-.155h0v6.828l-.143-.149,10.182.071,2.979.042h1.09a1.288,1.288,0,0,1-.256,0h-.769l-2.931.042-10.284.066h-.149v-6.888h0l.155-.155,14.24.042h.113v.113c0,2.091-.048,3.8-.06,5.023,0,.56,0,1.007-.03,1.347A3.112,3.112,0,0,1,213.781,156.7Z" transform="translate(-147.045 -124.111)"/><path class="g" d="M356.75,152.89l.693-1a7.945,7.945,0,0,0,5.725,2.22c3.355,0,5.675-1.406,5.675-3.968,0-4.4-9.462-2.22-9.462-7.744,0-3.375,2.943-5.293,6.931-5.293a9.331,9.331,0,0,1,5.4,1.557l-.623,1.075a7.945,7.945,0,0,0-4.831-1.487c-3.295,0-5.575,1.507-5.575,4.018,0,4.48,9.462,2.35,9.462,7.724,0,3.425-3.013,5.273-7.031,5.273C360.456,155.27,357.845,154.246,356.75,152.89Z" transform="translate(-264.037 -125.77)"/><path class="g" d="M391.74,137.23l-3.576,17.909h-1.306l1.687-8.5H376.573l-1.687,8.5H373.58l3.586-17.909h1.3l-1.627,8.216H388.8l1.637-8.216Z" transform="translate(-263.962 -125.769)"/><path class="g" d="M394.23,147.9a10.426,10.426,0,0,1,10.717-10.788c5.273,0,8.216,2.963,8.216,7.363a10.456,10.456,0,0,1-10.747,10.8C397.153,155.27,394.23,152.3,394.23,147.9Zm17.608-3.375c0-3.706-2.38-6.217-7.031-6.217-5.655,0-9.311,4.379-9.311,9.542,0,3.706,2.411,6.217,7.031,6.217C408.2,154.075,411.838,149.7,411.838,144.523Z" transform="translate(-263.871 -125.77)"/><path class="g" d="M431.721,142.172c0,4.6-3.174,7.111-8.246,7.111h-5.344l-1.125,5.856H415.7l3.586-17.909h6.238C429.411,137.23,431.721,139.008,431.721,142.172Zm-1.336.1c0-2.511-1.788-3.867-5.022-3.867H420.28l-1.949,9.7h5.113C427.854,148.108,430.385,146.139,430.385,142.272Z" transform="translate(-263.775 -125.769)"/><path class="g" d="M440.868,134.178a15.607,15.607,0,0,1-.727,2.044,7.616,7.616,0,0,1-.941,1.966,8.054,8.054,0,0,1,.649-2.079A5.227,5.227,0,0,1,440.868,134.178Z" transform="translate(-243.943 -117.819)"/><path class="g" d="M443.827,147.861a5.414,5.414,0,0,1-1.323.715,3.575,3.575,0,0,1-1.424.489,3.926,3.926,0,0,1,1.3-.769C443.124,147.932,443.8,147.759,443.827,147.861Z" transform="translate(-244.703 -123.339)"/><rect class="b" width="63.674" height="161.445" transform="translate(185.378 52.161)"/><path class="f" d="M486.194,355.606c0-.7,0-17.046-.083-45.7s-.042-69.006-.066-115.747l.149.149h-63.68l.161-.155c0,63.447-.036,120.757-.048,161.463l-.113-.107,63.68.107-63.68.107h-.107v-.107c0-40.687,0-98-.048-161.463V194h63.983v.149c0,46.783-.054,87.16-.072,115.848,0,14.3,0,25.727-.042,33.556V354.8A7.4,7.4,0,0,1,486.194,355.606Z" transform="translate(-237.137 -142)"/><path class="f" d="M486.1,201.655c0,.083-14.186.155-31.679.155s-31.673-.071-31.673-.155,14.18-.155,31.673-.155S486.1,201.566,486.1,201.655Z" transform="translate(-237.294 -145.032)"/><path class="f" d="M486.1,209.8c0,.083-14.186.155-31.679.155s-31.673-.072-31.673-.155,14.18-.155,31.673-.155S486.1,209.716,486.1,209.8Z" transform="translate(-237.294 -148.326)"/><path class="f" d="M486.1,217.955c0,.083-14.186.155-31.679.155s-31.673-.072-31.673-.155,14.18-.155,31.673-.155S486.1,217.866,486.1,217.955Z" transform="translate(-237.294 -151.62)"/><path class="f" d="M486.1,226.1c0,.083-14.186.155-31.679.155s-31.673-.072-31.673-.155,14.18-.155,31.673-.155S486.1,226.016,486.1,226.1Z" transform="translate(-237.294 -154.914)"/><path class="f" d="M486.1,234.255c0,.083-14.186.155-31.679.155s-31.673-.072-31.673-.155,14.18-.155,31.673-.155S486.1,234.166,486.1,234.255Z" transform="translate(-237.294 -158.209)"/><path class="f" d="M486.1,242.4c0,.083-14.186.155-31.679.155s-31.673-.071-31.673-.155,14.18-.155,31.673-.155S486.1,242.315,486.1,242.4Z" transform="translate(-237.294 -161.503)"/><path class="f" d="M486.1,250.555c0,.083-14.186.155-31.679.155s-31.673-.072-31.673-.155,14.18-.155,31.673-.155S486.1,250.466,486.1,250.555Z" transform="translate(-237.294 -164.797)"/><path class="f" d="M486.1,258.7c0,.083-14.186.155-31.679.155s-31.673-.072-31.673-.155,14.18-.155,31.673-.155S486.1,258.616,486.1,258.7Z" transform="translate(-237.294 -168.091)"/><path class="f" d="M486.1,266.895c0,.083-14.186.155-31.679.155s-31.673-.071-31.673-.155,14.18-.155,31.673-.155S486.1,266.782,486.1,266.895Z" transform="translate(-237.294 -171.402)"/><path class="f" d="M486.1,275c0,.083-14.186.155-31.679.155s-31.673-.072-31.673-.155,14.18-.155,31.673-.155S486.1,274.939,486.1,275Z" transform="translate(-237.294 -174.68)"/><path class="f" d="M486.1,283.155c0,.083-14.186.155-31.679.155s-31.673-.071-31.673-.155S436.93,283,454.423,283,486.1,283.065,486.1,283.155Z" transform="translate(-237.294 -177.974)"/><path class="f" d="M486.1,291.3c0,.083-14.186.155-31.679.155s-31.673-.071-31.673-.155,14.18-.155,31.673-.155S486.1,291.216,486.1,291.3Z" transform="translate(-237.294 -181.268)"/><path class="f" d="M486.1,299.455c0,.083-14.186.155-31.679.155s-31.673-.072-31.673-.155,14.18-.155,31.673-.155S486.1,299.366,486.1,299.455Z" transform="translate(-237.294 -184.562)"/><path class="f" d="M486.1,307.6c0,.083-14.186.155-31.679.155s-31.673-.072-31.673-.155,14.18-.155,31.673-.155S486.1,307.516,486.1,307.6Z" transform="translate(-237.294 -187.856)"/><path class="f" d="M486.1,315.755c0,.083-14.186.155-31.679.155s-31.673-.072-31.673-.155,14.18-.155,31.673-.155S486.1,315.666,486.1,315.755Z" transform="translate(-237.294 -191.151)"/><path class="f" d="M486.1,323.895c0,.083-14.186.155-31.679.155s-31.673-.071-31.673-.155,14.18-.155,31.673-.155S486.1,323.811,486.1,323.895Z" transform="translate(-237.294 -194.441)"/><path class="f" d="M486.1,332.055c0,.083-14.186.155-31.679.155s-31.673-.071-31.673-.155,14.18-.155,31.673-.155S486.1,331.96,486.1,332.055Z" transform="translate(-237.294 -197.739)"/><path class="f" d="M486.1,340.2c0,.083-14.186.155-31.679.155s-31.673-.072-31.673-.155,14.18-.155,31.673-.155S486.1,340.121,486.1,340.2Z" transform="translate(-237.294 -201.033)"/><path class="f" d="M486.1,348.355c0,.083-14.186.155-31.679.155s-31.673-.072-31.673-.155,14.18-.155,31.673-.155S486.1,348.271,486.1,348.355Z" transform="translate(-237.294 -204.327)"/><path class="f" d="M486.1,356.5c0,.083-14.186.155-31.679.155s-31.673-.072-31.673-.155,14.18-.155,31.673-.155S486.1,356.421,486.1,356.5Z" transform="translate(-237.294 -207.622)"/><path class="f" d="M486.1,364.655c0,.083-14.186.155-31.679.155s-31.673-.071-31.673-.155,14.18-.155,31.673-.155S486.1,364.571,486.1,364.655Z" transform="translate(-237.294 -210.916)"/><path class="f" d="M486.1,372.8c0,.083-14.186.155-31.679.155s-31.673-.071-31.673-.155,14.18-.155,31.673-.155S486.1,372.721,486.1,372.8Z" transform="translate(-237.294 -214.21)"/><path class="f" d="M486.1,380.955c0,.083-14.186.155-31.679.155s-31.673-.071-31.673-.155,14.18-.155,31.673-.155S486.1,380.872,486.1,380.955Z" transform="translate(-237.294 -217.504)"/><path class="f" d="M486.1,389.1c0,.083-14.186.155-31.679.155s-31.673-.072-31.673-.155,14.18-.155,31.673-.155S486.1,389.021,486.1,389.1Z" transform="translate(-237.294 -220.798)"/><path class="f" d="M486.1,397.255c0,.083-14.186.155-31.679.155s-31.673-.071-31.673-.155,14.18-.155,31.673-.155S486.1,397.171,486.1,397.255Z" transform="translate(-237.294 -224.093)"/><path class="f" d="M486.1,405.4c0,.083-14.186.155-31.679.155s-31.673-.071-31.673-.155,14.18-.155,31.673-.155S486.1,405.321,486.1,405.4Z" transform="translate(-237.294 -227.387)"/><path class="f" d="M486.1,413.555c0,.083-14.186.155-31.679.155s-31.673-.071-31.673-.155,14.18-.155,31.673-.155S486.1,413.471,486.1,413.555Z" transform="translate(-237.294 -230.681)"/><path class="f" d="M486.1,421.7c0,.083-14.186.155-31.679.155s-31.673-.071-31.673-.155,14.18-.155,31.673-.155S486.1,421.621,486.1,421.7Z" transform="translate(-237.294 -233.975)"/><path class="f" d="M486.1,429.895c0,.083-14.186.155-31.679.155s-31.673-.072-31.673-.155,14.18-.155,31.673-.155S486.1,429.788,486.1,429.895Z" transform="translate(-237.294 -237.286)"/><path class="f" d="M486.1,438c0,.083-14.186.155-31.679.155s-31.673-.072-31.673-.155,14.18-.155,31.673-.155S486.1,437.939,486.1,438Z" transform="translate(-237.294 -240.564)"/><path class="f" d="M486.1,446.155c0,.083-14.186.155-31.679.155s-31.673-.071-31.673-.155S436.93,446,454.423,446,486.1,446.071,486.1,446.155Z" transform="translate(-237.294 -243.858)"/><path class="f" d="M486.1,454.3c0,.083-14.186.155-31.679.155s-31.673-.072-31.673-.155,14.18-.155,31.673-.155S486.1,454.221,486.1,454.3Z" transform="translate(-237.294 -247.152)"/><path class="f" d="M486.1,462.455c0,.089-14.186.155-31.679.155s-31.673-.066-31.673-.155,14.18-.155,31.673-.155S486.1,462.371,486.1,462.455Z" transform="translate(-237.294 -250.446)"/><rect class="g" width="90.652" height="161.445" transform="translate(17.844 52.321)"/><path class="f" d="M161.531,218v7.745h2.008s-3.342,2.759-3.628,5.362h11.916s0-1.972-3.646-5.315h2.008V218Z" transform="translate(-131.055 -151.701)"/><path class="f" d="M169.835,211.612c-.083,0-.155-3.932-.155-8.776s.072-8.776.155-8.776.155,3.926.155,8.776S169.924,211.612,169.835,211.612Z" transform="translate(-135.004 -142.025)"/><path class="f" d="M160.89,248.335a10.129,10.129,0,0,1,.876-2.383,10.725,10.725,0,0,1,1.162-2.282,10.665,10.665,0,0,1-.876,2.383,11.074,11.074,0,0,1-1.162,2.282Z" transform="translate(-131.451 -162.077)"/><path class="f" d="M169.272,250.539a38.489,38.489,0,0,1,0-6.9,38.493,38.493,0,0,1,0,6.9Z" transform="translate(-134.769 -162.065)"/><path class="f" d="M177.2,247.168a8.015,8.015,0,0,1-1.46-1.621,7.817,7.817,0,0,1-1.192-1.787,15.353,15.353,0,0,1,2.675,3.432Z" transform="translate(-136.973 -162.113)"/><path class="f" d="M206.807,218v7.745h2.032s-3.337,2.759-3.628,5.362h11.916s0-1.972-3.64-5.315h2V218Z" transform="translate(-149.365 -151.701)"/><path class="f" d="M215.095,211.612c-.083,0-.155-3.932-.155-8.776s.071-8.776.155-8.776.155,3.926.155,8.776S215.184,211.612,215.095,211.612Z" transform="translate(-153.298 -142.025)"/><path class="f" d="M206.15,248.335a10.45,10.45,0,0,1,.876-2.383,10.726,10.726,0,0,1,1.162-2.282,10.321,10.321,0,0,1-.876,2.383,11.074,11.074,0,0,1-1.162,2.282Z" transform="translate(-149.745 -162.077)"/><path class="f" d="M214.532,250.539a38.485,38.485,0,0,1,0-6.9,38.493,38.493,0,0,1,0,6.9Z" transform="translate(-153.063 -162.065)"/><path class="f" d="M222.461,247.168a8.014,8.014,0,0,1-1.46-1.621,7.815,7.815,0,0,1-1.192-1.787,15.355,15.355,0,0,1,2.675,3.432Z" transform="translate(-155.267 -162.113)"/><path class="f" d="M252.067,218v7.745H254.1s-3.336,2.759-3.628,5.362h11.916s0-1.972-3.64-5.315h2.008V218Z" transform="translate(-167.659 -151.701)"/><path class="f" d="M260.355,211.612c-.083,0-.155-3.932-.155-8.776s.071-8.776.155-8.776.155,3.926.155,8.776S260.444,211.612,260.355,211.612Z" transform="translate(-171.592 -142.025)"/><path class="f" d="M251.41,248.335a10.8,10.8,0,0,1,.876-2.383,10.241,10.241,0,0,1,1.192-2.282,10.872,10.872,0,0,1-.882,2.383A11.076,11.076,0,0,1,251.41,248.335Z" transform="translate(-168.039 -162.077)"/><path class="f" d="M259.792,250.539a38.489,38.489,0,0,1,0-6.9,38.474,38.474,0,0,1,0,6.9Z" transform="translate(-171.357 -162.065)"/><path class="f" d="M267.721,247.168a8.012,8.012,0,0,1-1.46-1.621,7.815,7.815,0,0,1-1.192-1.787,15.355,15.355,0,0,1,2.675,3.432Z" transform="translate(-173.561 -162.113)"/><rect class="e" width="97.229" height="7.573" transform="translate(13.298 133.369)"/><rect class="f" width="90.652" height="10.254" transform="translate(17.844 152.279)"/><path class="f" d="M195.8,378v48.534l-13.358,3.6h33.645l-12.756-3.819V378Z" transform="translate(-140.162 -216.372)"/><path class="f" d="M223.11,378c-.375,0-6.81,9.14-6.81,9.14v3.271l9.7-11.946Z" transform="translate(-153.848 -216.372)"/><path class="f" d="M193.35,378c.375,0,6.81,9.14,6.81,9.14v3.271l-9.7-11.946Z" transform="translate(-143.403 -216.372)"/><path class="e" d="M229.531,379.309c0,.036-19.864.066-44.369.066s-44.381,0-44.381-.066,19.87-.06,44.381-.06S229.531,379.28,229.531,379.309Z" transform="translate(-123.323 -216.878)"/><path class="e" d="M164.593,362.37l-.25.054-.7.131c-.6.125-1.5.316-2.568.632a27.207,27.207,0,0,0-3.694,1.347,30.6,30.6,0,0,0-4.171,2.342,40.519,40.519,0,0,1-4.171,2.449,12.672,12.672,0,0,1-3.736,1.192,8.109,8.109,0,0,1-2.645-.054,5.363,5.363,0,0,1-.935-.262l.244.06a6.254,6.254,0,0,0,.7.155,8.186,8.186,0,0,0,2.622,0,12.743,12.743,0,0,0,3.706-1.192,41.281,41.281,0,0,0,4.123-2.455,29.393,29.393,0,0,1,4.2-2.336,26.7,26.7,0,0,1,3.694-1.341,22.846,22.846,0,0,1,3.587-.721Z" transform="translate(-123.703 -210.055)"/><path class="e" d="M180.633,368.889l-.489-.209a7.907,7.907,0,0,0-1.46-.423,8.1,8.1,0,0,0-2.383-.072,7.644,7.644,0,0,0-2.979,1.019,2.681,2.681,0,0,0-1.257,1.269,1.09,1.09,0,0,0,.1.911,1.823,1.823,0,0,0,.739.649,5.035,5.035,0,0,0,2.067.471,12.742,12.742,0,0,0,2.276-.066,28.682,28.682,0,0,0,4.766-1.066,6.484,6.484,0,0,0,2.318-1.073,2.091,2.091,0,0,0,.715-1.049,1.883,1.883,0,0,0-.1-1.275,2.943,2.943,0,0,0-1.96-1.6,8.461,8.461,0,0,0-2.562-.2,30.881,30.881,0,0,0-4.874.5,26.965,26.965,0,0,0-7.823,2.657,21.241,21.241,0,0,0-4.552,3.229c-.489.441-.834.822-1.072,1.078l-.369.381.352-.4a13.594,13.594,0,0,1,1.061-1.1,20.726,20.726,0,0,1,4.54-3.271,27.049,27.049,0,0,1,7.847-2.693,30.32,30.32,0,0,1,4.886-.506,8.344,8.344,0,0,1,2.6.208,3.062,3.062,0,0,1,2.05,1.668,2,2,0,0,1,.1,1.352,2.228,2.228,0,0,1-.757,1.114,6.494,6.494,0,0,1-2.383,1.09,28.8,28.8,0,0,1-4.766,1.067,12.925,12.925,0,0,1-2.294.06,5.213,5.213,0,0,1-2.109-.483,1.977,1.977,0,0,1-.775-.691,1.191,1.191,0,0,1-.107-.995,2.711,2.711,0,0,1,1.3-1.317,7.745,7.745,0,0,1,3.021-1.013,7.954,7.954,0,0,1,2.383.1,7.614,7.614,0,0,1,1.46.447C180.472,368.8,180.633,368.889,180.633,368.889Z" transform="translate(-131.795 -211.534)"/><path class="e" d="M202.222,363.13a2.382,2.382,0,0,1,.512.22,4.17,4.17,0,0,1,1.192.959,4.689,4.689,0,0,1,.983,2.014,4.915,4.915,0,0,1-.238,2.735,5.588,5.588,0,0,1-1.591,2.24,6.216,6.216,0,0,1-1.948,1.114,6.712,6.712,0,0,1-1.478.34,3.864,3.864,0,0,1-.554,0,3.067,3.067,0,0,0,.548-.072,7.355,7.355,0,0,0,1.454-.375,6.256,6.256,0,0,0,1.907-1.12,5.446,5.446,0,0,0,1.543-2.2,4.832,4.832,0,0,0,.244-2.663,4.606,4.606,0,0,0-.941-1.978,4.433,4.433,0,0,0-1.632-1.215Z" transform="translate(-146.896 -210.362)"/><path class="e" d="M223.511,362.17a3.359,3.359,0,0,0-.739.119,5.078,5.078,0,0,0-1.817.864,8.939,8.939,0,0,0-2.061,2.181c-.655.929-1.257,2.038-2.014,3.122a9.193,9.193,0,0,1-2.645,2.6,9.091,9.091,0,0,1-2.788,1.192,8.571,8.571,0,0,1-2.026.268,4.934,4.934,0,0,1-.751-.036h.745a9.318,9.318,0,0,0,7.364-4.093c.751-1.078,1.358-2.181,2.02-3.116a8.829,8.829,0,0,1,2.1-2.187,4.951,4.951,0,0,1,1.865-.84,3.3,3.3,0,0,1,.745-.071Z" transform="translate(-150.764 -209.974)"/><path class="e" d="M254.259,362.667a1.516,1.516,0,0,1-.328-.054A6.845,6.845,0,0,0,253,362.5a9.146,9.146,0,0,0-3.414.53,17.81,17.81,0,0,0-4.51,2.479,47.079,47.079,0,0,1-5.255,3.533,12.054,12.054,0,0,1-3.086,1.15,6.506,6.506,0,0,1-3.051-.03,3.575,3.575,0,0,1-2.222-1.6,3.271,3.271,0,0,1-.3-2.383,4.248,4.248,0,0,1,.906-1.787,5.673,5.673,0,0,1,1.12-1,5.9,5.9,0,0,1,1.12-.6l-.292.161a7.2,7.2,0,0,0-.8.5,6.147,6.147,0,0,0-1.1,1.013,4.081,4.081,0,0,0-.87,1.746,3.151,3.151,0,0,0,.3,2.294,3.45,3.45,0,0,0,2.163,1.537,8.645,8.645,0,0,0,6.047-1.114,48.41,48.41,0,0,0,5.249-3.521,17.618,17.618,0,0,1,4.546-2.467,9.037,9.037,0,0,1,3.444-.495A5.675,5.675,0,0,1,254.259,362.667Z" transform="translate(-159.813 -210.083)"/><path class="e" d="M269.526,370.685a.6.6,0,0,0,.405-.06.733.733,0,0,0,.328-.363.721.721,0,0,0-.054-.655,1.191,1.191,0,0,0-.661-.518,2.384,2.384,0,0,0-1.019-.06,7.5,7.5,0,0,0-1.192.232,2.115,2.115,0,0,0-1.084.7,1.192,1.192,0,0,0-.131,1.335,2.3,2.3,0,0,0,1.281.846,9.252,9.252,0,0,0,3.468.435,5.792,5.792,0,0,0,3.575-1.263,2,2,0,0,0,.632-1.817,2.627,2.627,0,0,0-1.192-1.656,7.8,7.8,0,0,0-4.022-.834,15.27,15.27,0,0,0-3.861.459,18.8,18.8,0,0,0-3.313,1.192,19.062,19.062,0,0,0-2.657,1.543,18.235,18.235,0,0,0-3.325,2.943c-.363.381-.6.715-.786.929s-.268.322-.268.322l.25-.34c.173-.22.405-.554.763-.941a18.1,18.1,0,0,1,3.319-2.979,17.641,17.641,0,0,1,5.994-2.765,15.492,15.492,0,0,1,3.885-.465,8.564,8.564,0,0,1,1.031.036,10.2,10.2,0,0,1,1.037.107,5.1,5.1,0,0,1,2.02.709,2.747,2.747,0,0,1,1.221,1.734,2.115,2.115,0,0,1-.673,1.924,5.815,5.815,0,0,1-3.652,1.293,9.308,9.308,0,0,1-3.5-.453,2.335,2.335,0,0,1-1.335-.894,1.287,1.287,0,0,1,.143-1.436,2.192,2.192,0,0,1,1.132-.727,7.61,7.61,0,0,1,1.192-.221,2.384,2.384,0,0,1,1.043.072,1.239,1.239,0,0,1,.685.548.757.757,0,0,1-.3,1.067A.465.465,0,0,1,269.526,370.685Z" transform="translate(-169.753 -211.888)"/><path class="e" d="M141.86,364.994a.289.289,0,0,1,.149.072,2.29,2.29,0,0,0,.411.214,10.724,10.724,0,0,0,12.119-1.436,10.952,10.952,0,0,0,1.192-1.221c.131-.155.226-.28.292-.363l.107-.119a8.531,8.531,0,0,1-1.537,1.787,10.522,10.522,0,0,1-10.629,2.151A8.628,8.628,0,0,1,141.86,364.994Z" transform="translate(-123.759 -209.962)"/><path class="e" d="M212.043,380.66s-.048.072-.149.2l-.441.566a24.143,24.143,0,0,0-1.507,2.175,14.239,14.239,0,0,0-1.609,3.575,16.54,16.54,0,0,0-.477,4.766,47.664,47.664,0,0,1-.036,4.82,11.322,11.322,0,0,1-.965,3.8,6.672,6.672,0,0,1-1.549,2.145,6.093,6.093,0,0,1-.6.441l-.215.137a7.354,7.354,0,0,0,.751-.6,6.881,6.881,0,0,0,1.507-2.145,11.546,11.546,0,0,0,.929-3.777,44.466,44.466,0,0,0,0-4.8,16.628,16.628,0,0,1,.495-4.766,14.13,14.13,0,0,1,1.638-3.575,23.624,23.624,0,0,1,1.543-2.157C211.811,380.916,212.043,380.66,212.043,380.66Z" transform="translate(-149.078 -217.448)"/><path class="e" d="M213.551,400.837a3.528,3.528,0,0,1-.1-1.007,4.766,4.766,0,0,1,.894-2.663l.048-.071v.083a12.815,12.815,0,0,1,.179,5.44,14.027,14.027,0,0,1-.405,1.6c-.089.268-.185.536-.292.8a1.192,1.192,0,0,1-.536.721.429.429,0,0,1-.477-.1,1.019,1.019,0,0,1-.214-.423c-.083-.292-.161-.6-.244-.882-.149-.6-.286-1.192-.387-1.829a23.6,23.6,0,0,1,.912-11.439,24.03,24.03,0,0,1,1.382-3.223c.405-.721.643-1.108.643-1.108s-.048.1-.149.292l-.447.84a25.245,25.245,0,0,0-1.346,3.229,23.832,23.832,0,0,0-.876,11.392c.1.6.238,1.227.387,1.817.083.3.161.6.238.876a1.013,1.013,0,0,0,.191.375.3.3,0,0,0,.34.071,1.072,1.072,0,0,0,.471-.649c.113-.268.2-.536.3-.8a13.7,13.7,0,0,0,.4-1.585,12.69,12.69,0,0,0-.143-5.4h.072a4.767,4.767,0,0,0-.918,2.616,6.345,6.345,0,0,0,0,.751A1.077,1.077,0,0,1,213.551,400.837Z" transform="translate(-151.987 -219.905)"/><path class="e" d="M212.668,421.61a1.7,1.7,0,0,1-.072.453,2.979,2.979,0,0,1-.6,1.1,5.467,5.467,0,0,1-1.418,1.192c-.6.375-1.281.715-1.936,1.192a7.7,7.7,0,0,0-2.586,3.086,8.181,8.181,0,0,0-.435,1.156,3.252,3.252,0,0,1-.125.435,5.915,5.915,0,0,1,.483-1.633,7.508,7.508,0,0,1,2.592-3.146c.673-.459,1.358-.792,1.948-1.156a5.671,5.671,0,0,0,1.406-1.15,3.045,3.045,0,0,0,.6-1.055A4.844,4.844,0,0,0,212.668,421.61Z" transform="translate(-149.483 -233.999)"/><path class="e" d="M210.052,438.9a2.6,2.6,0,0,1,0,.655,3.331,3.331,0,0,1-.8,1.7l-.03.036v-.048a9.533,9.533,0,0,1-.6-2.979,9.137,9.137,0,0,1,.1-1.889,3.927,3.927,0,0,1,.262-1.007,1.323,1.323,0,0,1,.751-.8.828.828,0,0,1,.6.048,1.191,1.191,0,0,1,.429.411,3.115,3.115,0,0,1,.4,1.12,10.24,10.24,0,0,1,.22,2.478,10.091,10.091,0,0,1-.417,2.592,9.183,9.183,0,0,1-.471,1.281,3.45,3.45,0,0,1-.757,1.192,1.192,1.192,0,0,1-1.859-.1,4.11,4.11,0,0,1-.775-1.787,10.843,10.843,0,0,1-.179-3.7,11.028,11.028,0,0,1,2.443-5.714,19.346,19.346,0,0,1,1.692-1.716,16.163,16.163,0,0,0,1.257-1.3,6.978,6.978,0,0,0,.667-.93l.2-.351a5.29,5.29,0,0,1-.828,1.311,16.944,16.944,0,0,1-1.251,1.323,20.457,20.457,0,0,0-1.674,1.728,10.975,10.975,0,0,0-2.383,5.666,10.8,10.8,0,0,0,.185,3.664,3.927,3.927,0,0,0,.745,1.752,1.1,1.1,0,0,0,1.686.1,3.408,3.408,0,0,0,.727-1.138,9.139,9.139,0,0,0,.465-1.257,10.223,10.223,0,0,0,.417-2.568,10.332,10.332,0,0,0-.209-2.449,3.259,3.259,0,0,0-.381-1.084.792.792,0,0,0-.894-.417,1.245,1.245,0,0,0-.691.739,4.123,4.123,0,0,0-.256.983,8.938,8.938,0,0,0-.137,1.877,9.588,9.588,0,0,0,.542,2.979H209.2a3.318,3.318,0,0,0,.8-1.662,3.044,3.044,0,0,0,.048-.483Z" transform="translate(-150.025 -236.619)"/><path class="e" d="M156.67,398.83h16.414a3.67,3.67,0,0,1,3.67,3.67v7.019H153v-7.013a3.67,3.67,0,0,1,3.67-3.676Z" transform="translate(-128.262 -224.792)"/><rect class="f" width="26.186" height="2.836" rx="1.418" transform="translate(23.516 183.678)"/><path class="f" d="M157.933,416.92l-6.983,28.849H153.2l7-28.849Z" transform="translate(-127.434 -232.104)"/><path class="f" d="M183.866,416.92l6.977,28.849h-2.252l-7-28.849Z" transform="translate(-139.818 -232.104)"/><rect class="f" width="2.187" height="28.849" transform="translate(35.945 185.102)"/><path class="f" d="M176.641,404.772l-.214.054-.626.125c-.542.119-1.335.256-2.312.4a52.637,52.637,0,0,1-15.437,0c-.983-.149-1.787-.292-2.312-.405l-.626-.131-.214-.054h.22l.6.107c.542.1,1.335.226,2.318.363a56.574,56.574,0,0,0,7.7.542,58.22,58.22,0,0,0,7.71-.518c.977-.137,1.787-.262,2.312-.363l.632-.107Z" transform="translate(-129.03 -227.189)"/><path class="e" d="M241.894,399h16.414a3.67,3.67,0,0,1,3.67,3.67v7.054H238.23v-7.03A3.67,3.67,0,0,1,241.894,399Z" transform="translate(-162.712 -224.861)"/><rect class="f" width="26.186" height="2.836" rx="1.418" transform="translate(74.297 183.809)"/><path class="f" d="M243.163,417.14l-6.983,28.849h2.252l7-28.849Z" transform="translate(-161.883 -232.193)"/><path class="f" d="M269.09,417.14l6.983,28.849h-2.252l-7-28.849Z" transform="translate(-174.268 -232.193)"/><rect class="f" width="2.187" height="28.849" transform="translate(86.725 185.227)"/><path class="f" d="M261.9,405l-.22.054-.6.131c-.542.113-1.335.256-2.318.4a52.635,52.635,0,0,1-15.437,0c-.977-.149-1.787-.292-2.312-.405l-.6-.131-.22-.054.22.03.632.107c.542.1,1.335.226,2.312.363a56.27,56.27,0,0,0,15.413,0c.983-.137,1.787-.262,2.318-.363l.632-.107Z" transform="translate(-163.508 -227.282)"/><path class="h" d="M157.9,309.14l1.936,12.726h11.249l2.61-12.542Z" transform="translate(-130.243 -188.54)"/><path class="c" d="M173.041,322.785c0,.036-2.884.066-6.441.066s-6.441-.03-6.441-.066,2.884-.065,6.441-.065S173.041,322.75,173.041,322.785Z" transform="translate(-131.156 -194.028)"/><path class="c" d="M173.055,321.736c0,.036-2.9.066-6.482.066s-6.482-.03-6.482-.066,2.9-.065,6.482-.065S173.055,321.7,173.055,321.736Z" transform="translate(-131.128 -193.604)"/><path class="c" d="M173.015,320.556c0,.036-2.9.066-6.482.066s-6.482,0-6.482-.066,2.9-.066,6.482-.066S173.015,320.52,173.015,320.556Z" transform="translate(-131.112 -193.127)"/><path class="c" d="M162.94,327.093a19.966,19.966,0,0,1-.56-3.223A20.256,20.256,0,0,1,162.94,327.093Z" transform="translate(-132.054 -194.493)"/><path class="c" d="M164.457,326.934a13.318,13.318,0,0,1-.137-1.567,12.149,12.149,0,0,1-.071-1.567,7.7,7.7,0,0,1,.2,1.561A7.459,7.459,0,0,1,164.457,326.934Z" transform="translate(-132.808 -194.465)"/><path class="c" d="M166.735,326.869a7.827,7.827,0,0,1-.3-1.6,8.071,8.071,0,0,1-.083-1.627,13.709,13.709,0,0,1,.214,1.609A14.17,14.17,0,0,1,166.735,326.869Z" transform="translate(-133.656 -194.4)"/><path class="c" d="M168.48,326.955a13.2,13.2,0,0,1-.107-3.265,14.29,14.29,0,0,1,.083,1.633,14.075,14.075,0,0,1,.024,1.632Z" transform="translate(-134.454 -194.421)"/><path class="c" d="M171.4,326.958a20.207,20.207,0,0,1-.119-3.1,20.211,20.211,0,0,1,.119,3.1Z" transform="translate(-135.637 -194.489)"/><path class="c" d="M173.576,327a9.918,9.918,0,0,1-.054-1.6,10.192,10.192,0,0,1,.083-1.6,10.024,10.024,0,0,1,.054,1.6,10.135,10.135,0,0,1-.083,1.6Z" transform="translate(-136.553 -194.465)"/><path class="c" d="M175.617,326.625a9.839,9.839,0,0,1,.1-1.668,10.725,10.725,0,0,1,.226-1.656,21.223,21.223,0,0,1-.322,3.324Z" transform="translate(-137.403 -194.263)"/><path class="c" d="M178.18,326.708a6.178,6.178,0,0,1,.191-1.418,5.809,5.809,0,0,1,.417-1.37,12.054,12.054,0,0,1-.286,1.4A10.623,10.623,0,0,1,178.18,326.708Z" transform="translate(-138.44 -194.514)"/><path class="e" d="M174.377,267v.065l-.048.179c-.054.167-.125.393-.215.685s-.214.661-.334,1.09-.268.906-.405,1.448-.3,1.132-.441,1.787-.286,1.323-.429,2.05c-.274,1.448-.518,3.051-.691,4.766s-.238,3.313-.262,4.766v2.1c0,.655.048,1.263.083,1.823s.072,1.061.107,1.5.072.822.107,1.132.06.542.077.715v.006a6.876,6.876,0,0,0-.1-.715c-.042-.3-.089-.691-.131-1.132s-.1-.947-.131-1.5-.077-1.192-.1-1.829,0-1.358-.036-2.1c0-1.478.089-3.1.256-4.808s.423-3.3.7-4.766c.149-.727.286-1.412.447-2.05s.3-1.233.453-1.787.3-1.019.423-1.448.25-.786.352-1.084.185-.512.238-.679l.066-.173C174.365,267,174.371,267,174.377,267Z" transform="translate(-135.716 -171.507)"/><path class="e" d="M172.863,278.582a4.171,4.171,0,0,1,1.746-2.21,1.007,1.007,0,0,1,.929-.173c.393.191.423.745.3,1.162a3.092,3.092,0,0,1-1.269,1.74,2.6,2.6,0,0,1-1.913.477" transform="translate(-136.209 -175.206)"/><path class="e" d="M171.733,286.708a7.03,7.03,0,0,1,2.079-3.342,1.336,1.336,0,0,1,.471-.25.554.554,0,0,1,.506.107.786.786,0,0,1,.113.733,4.439,4.439,0,0,1-3.283,3.3" transform="translate(-135.788 -178.012)"/><path class="e" d="M171.49,295.034a6.494,6.494,0,0,1,2.1-2.639,1.007,1.007,0,0,1,.733-.256.828.828,0,0,1,.542.959,3.1,3.1,0,0,1-1.358,2.008,8.407,8.407,0,0,1-1.936,1" transform="translate(-135.736 -181.667)"/><path class="e" d="M171.67,301.123a6.154,6.154,0,0,1,1.787-2.032,1.238,1.238,0,0,1,.536-.238.536.536,0,0,1,.524.2c.179.262,0,.6-.179.87a5.129,5.129,0,0,1-2.544,1.871" transform="translate(-135.809 -184.378)"/><path class="e" d="M169.289,298.468a19.774,19.774,0,0,0-2.544-2.6c-.149-.119-.328-.25-.512-.191a.393.393,0,0,0-.232.346,1.067,1.067,0,0,0,.1.423,4.939,4.939,0,0,0,3.283,2.759" transform="translate(-133.517 -183.093)"/><path class="e" d="M169.083,290.857l-2-2.443a2.384,2.384,0,0,0-.649-.6.81.81,0,0,0-.852,0,.8.8,0,0,0-.274.8,2.056,2.056,0,0,0,.387.8,5.922,5.922,0,0,0,1.46,1.549,2.449,2.449,0,0,0,1.829.566" transform="translate(-133.227 -179.872)"/><path class="e" d="M169.74,282.479a6.989,6.989,0,0,0-2.014-3.027,1.192,1.192,0,0,0-.524-.3.888.888,0,0,0-.924.643,1.686,1.686,0,0,0,.185,1.329,3.647,3.647,0,0,0,.941.995,8.13,8.13,0,0,0,2.228,1.192" transform="translate(-133.604 -176.416)"/><path class="e" d="M171.422,274.511a8.168,8.168,0,0,0-1.787-3.742c-.185-.238-.435-.494-.733-.453a.6.6,0,0,0-.417.363,1.377,1.377,0,0,0-.077.566,4.361,4.361,0,0,0,2.836,3.9" transform="translate(-134.488 -172.846)"/><path class="e" d="M174.347,270.272a11.672,11.672,0,0,1-.071-2.187,3.908,3.908,0,0,1,.727-2.044,1.686,1.686,0,0,1,.727-.6.923.923,0,0,1,.894.119.977.977,0,0,1,.3.786,2.486,2.486,0,0,1-.226.84c-.536,1.281-1.424,2.7-2.383,3.062" transform="translate(-136.853 -170.852)"/><path class="f" d="M159.734,276.42a1.011,1.011,0,0,1,0,.179v1.323c0,.316,0,.679.036,1.078.036.792.113,1.74.238,2.788s.3,2.187.554,3.378.548,2.312.846,3.319a25.423,25.423,0,0,0,.912,2.645c.131.375.274.709.393,1s.226.542.316.751l.2.471a.9.9,0,0,1,.06.167,1.318,1.318,0,0,1-.083-.155l-.226-.465c-.1-.2-.214-.447-.334-.739s-.274-.6-.417-.995c-.3-.739-.6-1.638-.935-2.645a34,34,0,0,1-.864-3.325,33.306,33.306,0,0,1-.548-3.4c-.125-1.049-.179-2-.2-2.794V276.6A.69.69,0,0,1,159.734,276.42Z" transform="translate(-130.962 -175.314)"/><path class="f" d="M160.3,284.668a2.979,2.979,0,0,1,.715-1.883.709.709,0,0,1,.6-.316c.31.048.453.417.459.727a2.216,2.216,0,0,1-.489,1.454,1.865,1.865,0,0,1-1.192.739" transform="translate(-131.213 -177.76)"/><path class="f" d="M161.438,290.408a5,5,0,0,1,.691-2.717.982.982,0,0,1,.268-.274.411.411,0,0,1,.369-.036.554.554,0,0,1,.232.471,3.164,3.164,0,0,1-1.519,2.979" transform="translate(-131.672 -179.733)"/><path class="f" d="M162.91,296.148a4.57,4.57,0,0,1,.864-2.24.709.709,0,0,1,.441-.34c.286-.036.512.256.6.536a2.24,2.24,0,0,1-.495,1.662,5.891,5.891,0,0,1-1.108,1.1" transform="translate(-132.268 -182.244)"/><path class="f" d="M164.25,300.269a4.326,4.326,0,0,1,.781-1.787.871.871,0,0,1,.31-.28.381.381,0,0,1,.4,0c.179.143.137.417.066.632a3.64,3.64,0,0,1-1.329,1.817" transform="translate(-132.809 -184.095)"/><path class="f" d="M161.773,299.32a14.6,14.6,0,0,0-2.294-1.221.429.429,0,0,0-.387,0,.262.262,0,0,0-.089.28.709.709,0,0,0,.161.274,3.575,3.575,0,0,0,2.83,1.192" transform="translate(-130.684 -184.058)"/><path class="f" d="M160.026,294.1l-1.889-1.227a1.681,1.681,0,0,0-.6-.28.51.51,0,0,0-.6.775,1.537,1.537,0,0,0,.441.459,4.278,4.278,0,0,0,1.347.786,1.787,1.787,0,0,0,1.37,0" transform="translate(-129.825 -181.845)"/><path class="f" d="M158.711,288.241a4.981,4.981,0,0,0-2.02-1.627.828.828,0,0,0-.423-.1.626.626,0,0,0-.489.638,1.192,1.192,0,0,0,.411.864,2.438,2.438,0,0,0,.852.471,5.687,5.687,0,0,0,1.787.34" transform="translate(-129.385 -179.396)"/><path class="f" d="M158.086,282.505a5.833,5.833,0,0,0-2.02-2.157.6.6,0,0,0-.6-.155.411.411,0,0,0-.2.334.87.87,0,0,0,.066.405,3.116,3.116,0,0,0,2.77,2.05" transform="translate(-129.178 -176.829)"/><path class="f" d="M159.45,278.8a8.013,8.013,0,0,1-.524-1.472,2.824,2.824,0,0,1,.06-1.543,1.191,1.191,0,0,1,.369-.554.643.643,0,0,1,.632-.107.691.691,0,0,1,.375.465,1.675,1.675,0,0,1,.03.6,4.143,4.143,0,0,1-.941,2.592" transform="translate(-130.625 -174.774)"/><path class="e" d="M181.187,276.21a.692.692,0,0,1,0,.179V278.8a27.658,27.658,0,0,1-.209,2.794c-.113,1.049-.3,2.2-.542,3.4s-.56,2.318-.864,3.325-.638,1.907-.941,2.645c-.137.375-.286.7-.411.995s-.238.542-.34.739-.167.346-.22.465a.841.841,0,0,1-.089.161,1.055,1.055,0,0,1,.066-.173l.2-.471c.1-.2.2-.453.316-.751s.262-.626.4-1c.286-.739.6-1.638.906-2.645s.6-2.127.852-3.319.423-2.336.554-3.378.2-1.99.232-2.788c0-.4.03-.757.036-1.073s0-.6,0-.816v-.512A.228.228,0,0,1,181.187,276.21Z" transform="translate(-138.193 -175.229)"/><path class="e" d="M181.919,284.509a2.979,2.979,0,0,0-.715-1.883.745.745,0,0,0-.6-.316c-.31.048-.447.417-.459.727a2.175,2.175,0,0,0,.495,1.454,1.882,1.882,0,0,0,1.192.745" transform="translate(-139.235 -177.695)"/><path class="e" d="M180.93,290.2a5.089,5.089,0,0,0-.7-2.723.983.983,0,0,0-.268-.274.405.405,0,0,0-.369-.036.6.6,0,0,0-.232.477,3.17,3.17,0,0,0,1.525,2.979" transform="translate(-138.913 -179.648)"/><path class="e" d="M179.2,295.948a4.641,4.641,0,0,0-.858-2.246.715.715,0,0,0-.441-.334c-.286-.036-.518.25-.6.536a2.181,2.181,0,0,0,.495,1.656,5.956,5.956,0,0,0,1.1,1.1" transform="translate(-138.082 -182.163)"/><path class="e" d="M178.064,300.061a4.433,4.433,0,0,0-.775-1.787,1.018,1.018,0,0,0-.316-.28.4.4,0,0,0-.4,0c-.179.143-.137.423-.06.632a3.647,3.647,0,0,0,1.329,1.823" transform="translate(-137.74 -184.013)"/><path class="e" d="M179.61,299.159a14.063,14.063,0,0,1,2.294-1.192.411.411,0,0,1,.387,0,.28.28,0,0,1,.083.286.716.716,0,0,1-.155.268,3.533,3.533,0,0,1-2.83,1.192" transform="translate(-138.929 -184.004)"/><path class="e" d="M181.218,293.9l1.889-1.233a1.786,1.786,0,0,1,.6-.28.51.51,0,0,1,.6.775,1.454,1.454,0,0,1-.435.459,4.17,4.17,0,0,1-1.329.745,1.722,1.722,0,0,1-1.364,0" transform="translate(-139.648 -181.76)"/><path class="e" d="M182.629,288.031a4.963,4.963,0,0,1,2.026-1.627.8.8,0,0,1,.423-.1.631.631,0,0,1,.483.638,1.192,1.192,0,0,1-.411.864,2.5,2.5,0,0,1-.852.477,6.049,6.049,0,0,1-1.787.34" transform="translate(-140.19 -179.311)"/><path class="e" d="M183.368,282.3a5.856,5.856,0,0,1,2.02-2.163c.179-.125.405-.244.6-.149a.4.4,0,0,1,.209.334.929.929,0,0,1-.071.4,3.11,3.11,0,0,1-2.771,2.05" transform="translate(-140.53 -176.742)"/><path class="e" d="M182.909,278.6a8.688,8.688,0,0,0,.518-1.478,2.77,2.77,0,0,0-.054-1.543,1.191,1.191,0,0,0-.375-.548.655.655,0,0,0-.632-.113.685.685,0,0,0-.375.471,1.789,1.789,0,0,0-.03.6,4.124,4.124,0,0,0,.947,2.592" transform="translate(-139.963 -174.691)"/><path class="h" d="M155.73,304.92V307.3a.941.941,0,0,0,.941.941h16.289a.935.935,0,0,0,.935-.941V304.92Z" transform="translate(-129.366 -186.834)"/><g class="i" transform="translate(27.776 121.405)"><path d="M158.1,310.49l.137.757,15.032,1.072.381-1.829Z" transform="translate(-158.1 -310.49)"/></g><path class="h" d="M200.6,309.14l1.936,12.726h11.249l2.61-12.542Z" transform="translate(-147.502 -188.54)"/><path class="c" d="M215.735,322.785c0,.036-2.884.066-6.441.066s-6.435-.03-6.435-.066,2.884-.065,6.435-.065S215.735,322.75,215.735,322.785Z" transform="translate(-148.415 -194.028)"/><path class="c" d="M215.749,321.736c0,.036-2.9.066-6.482.066s-6.476-.03-6.476-.066,2.9-.065,6.476-.065S215.749,321.7,215.749,321.736Z" transform="translate(-148.387 -193.604)"/><path class="c" d="M215.715,320.556c0,.036-2.908.066-6.482.066s-6.482,0-6.482-.066,2.9-.066,6.482-.066S215.715,320.52,215.715,320.556Z" transform="translate(-148.371 -193.127)"/><path class="c" d="M205.62,327.093a21.87,21.87,0,0,1-.56-3.223A20.261,20.261,0,0,1,205.62,327.093Z" transform="translate(-149.305 -194.493)"/><path class="c" d="M207.154,326.934a12.514,12.514,0,0,1-.143-1.567,13.594,13.594,0,0,1-.071-1.567,12.208,12.208,0,0,1,.214,3.134Z" transform="translate(-150.064 -194.465)"/><path class="c" d="M209.385,326.869a12.642,12.642,0,0,1-.375-3.229,15.406,15.406,0,0,1,.214,1.609,14.936,14.936,0,0,1,.161,1.621Z" transform="translate(-150.901 -194.4)"/><path class="c" d="M211.161,326.955a8.131,8.131,0,0,1-.155-1.627,7.835,7.835,0,0,1,.054-1.638,15.222,15.222,0,0,1,.077,1.633A12.646,12.646,0,0,1,211.161,326.955Z" transform="translate(-151.7 -194.421)"/><path class="c" d="M214.088,326.958a9.325,9.325,0,0,1-.119-1.549,9.586,9.586,0,0,1,0-1.549,9.325,9.325,0,0,1,.119,1.549A9.585,9.585,0,0,1,214.088,326.958Z" transform="translate(-152.893 -194.489)"/><path class="c" d="M216.276,327a9.918,9.918,0,0,1-.054-1.6,9.816,9.816,0,0,1,.077-1.6,10.023,10.023,0,0,1,.054,1.6A9.767,9.767,0,0,1,216.276,327Z" transform="translate(-153.812 -194.465)"/><path class="c" d="M218.308,326.625a21.235,21.235,0,0,1,.322-3.325,21.228,21.228,0,0,1-.322,3.325Z" transform="translate(-154.659 -194.263)"/><path class="c" d="M220.88,326.708a8.86,8.86,0,0,1,.6-2.788,12.941,12.941,0,0,1-.292,1.4A12.75,12.75,0,0,1,220.88,326.708Z" transform="translate(-155.699 -194.514)"/><path class="h" d="M198.43,304.92V307.3a.935.935,0,0,0,.935.941h16.289a.941.941,0,0,0,.941-.941V304.92Z" transform="translate(-146.625 -186.834)"/><g class="i" transform="translate(53.217 121.405)"><path d="M200.8,310.49l.137.757,15.032,1.072.381-1.829Z" transform="translate(-200.8 -310.49)"/></g><path class="e" d="M198.693,290.614s-6.333-7.3-5.63-7.567,6.333,3.783,6.333,3.783-4.838-10.82-3.873-11.612,6.071,9.586,6.071,9.586-.792-15.127,0-15.306,3.694,15.133,3.694,15.133,4.308-13.989,5.541-13.989-1.317,13.453-1.317,13.453,5.1-8.621,5.893-7.477-3.575,10.468-3.575,10.468,6.417-5.362,6.685-4.665-6.953,8.186-6.953,8.186Z" transform="translate(-144.434 -172.516)"/><path class="f" d="M201.059,286.48c.048,0,1.192,2.383,2.508,5.362s2.383,5.428,2.353,5.452-1.192-2.383-2.508-5.362S201.024,286.5,201.059,286.48Z" transform="translate(-147.687 -179.38)"/><path class="f" d="M209.642,288.74c.048,0,.232,2.121.417,4.766s.292,4.766.244,4.766-.232-2.115-.417-4.737S209.595,288.74,209.642,288.74Z" transform="translate(-151.152 -180.294)"/><path class="f" d="M218.493,277.37a.862.862,0,0,1-.042.167l-.137.483c-.131.441-.31,1.037-.53,1.787-.447,1.489-1.049,3.575-1.656,5.839s-1.12,4.379-1.472,5.893c-.173.733-.316,1.341-.417,1.787-.048.2-.089.357-.119.489a.651.651,0,0,1-.054.167.632.632,0,0,1,0-.173,4.5,4.5,0,0,1,.083-.495c.083-.429.2-1.043.369-1.787.322-1.519.81-3.616,1.424-5.91s1.227-4.349,1.7-5.827c.238-.739.441-1.341.6-1.746l.173-.471C218.463,277.423,218.487,277.364,218.493,277.37Z" transform="translate(-152.942 -175.698)"/><path class="f" d="M222.775,290.46c.036,0-1.192,1.871-2.765,4.117s-2.86,4.04-2.9,4.016,1.192-1.871,2.759-4.117S222.734,290.43,222.775,290.46Z" transform="translate(-154.175 -180.989)"/><path class="f" d="M203.951,302.436a2.58,2.58,0,0,1-.554-.4,14.959,14.959,0,0,1-1.192-1.114,15.883,15.883,0,0,1-1.084-1.233,2.486,2.486,0,0,1-.381-.56c.042-.03.7.763,1.591,1.674S203.987,302.394,203.951,302.436Z" transform="translate(-147.559 -184.493)"/><path class="f" d="M212.576,299.81a6.678,6.678,0,0,1,.226,1.5,6.554,6.554,0,0,1,.048,1.525,6.592,6.592,0,0,1-.22-1.507A6.705,6.705,0,0,1,212.576,299.81Z" transform="translate(-152.334 -184.768)"/><path class="h" d="M247.64,309.14l1.936,12.726h11.249l2.616-12.542Z" transform="translate(-166.515 -188.54)"/><path class="c" d="M262.785,322.785c0,.036-2.884.066-6.441.066s-6.435-.03-6.435-.066,2.878-.065,6.435-.065S262.785,322.75,262.785,322.785Z" transform="translate(-167.433 -194.028)"/><path class="c" d="M262.795,321.736c0,.036-2.9.066-6.482.066s-6.482-.03-6.482-.066,2.9-.065,6.482-.065S262.795,321.7,262.795,321.736Z" transform="translate(-167.401 -193.604)"/><path class="c" d="M262.759,320.556c0,.036-2.9.066-6.476.066s-6.482,0-6.482-.066,2.9-.066,6.482-.066S262.759,320.52,262.759,320.556Z" transform="translate(-167.388 -193.127)"/><path class="c" d="M252.68,327.093a19.967,19.967,0,0,1-.56-3.223A20.256,20.256,0,0,1,252.68,327.093Z" transform="translate(-168.326 -194.493)"/><path class="c" d="M254.2,326.934a11.325,11.325,0,0,1-.143-1.567,13.6,13.6,0,0,1-.072-1.567,7.216,7.216,0,0,1,.2,1.561,7.744,7.744,0,0,1,.012,1.573Z" transform="translate(-169.081 -194.465)"/><path class="c" d="M256.425,326.869a7.614,7.614,0,0,1-.292-1.6,7.843,7.843,0,0,1-.089-1.627,12.939,12.939,0,0,1,.22,1.609,14.931,14.931,0,0,1,.161,1.621Z" transform="translate(-169.908 -194.4)"/><path class="c" d="M258.22,326.955a13.2,13.2,0,0,1-.107-3.265,12.819,12.819,0,0,1,.083,1.633,14.062,14.062,0,0,1,.024,1.632Z" transform="translate(-170.726 -194.421)"/><path class="c" d="M261.137,326.958a20.2,20.2,0,0,1-.119-3.1,8.609,8.609,0,0,1,.119,1.549A9.232,9.232,0,0,1,261.137,326.958Z" transform="translate(-171.91 -194.489)"/><path class="c" d="M263.323,327a8.512,8.512,0,0,1-.054-1.6,9.814,9.814,0,0,1,.077-1.6,10.021,10.021,0,0,1,.054,1.6,9.766,9.766,0,0,1-.077,1.6Z" transform="translate(-172.826 -194.465)"/><path class="c" d="M265.358,326.625a21.219,21.219,0,0,1,.322-3.324,21.218,21.218,0,0,1-.322,3.324Z" transform="translate(-173.676 -194.263)"/><path class="c" d="M267.93,326.708a8.436,8.436,0,0,1,.6-2.788,12.963,12.963,0,0,1-.292,1.4A12.735,12.735,0,0,1,267.93,326.708Z" transform="translate(-174.717 -194.514)"/><path class="h" d="M245.48,304.92V307.3a.935.935,0,0,0,.935.941H262.7a.941.941,0,0,0,.941-.941V304.92Z" transform="translate(-165.642 -186.834)"/><g class="i" transform="translate(81.25 121.405)"><path d="M247.85,310.49l.131.757,15.032,1.072.381-1.829Z" transform="translate(-247.85 -310.49)"/></g><path class="e" d="M252.832,294.478c-2.383-1.388-3.67-4.612-3.765-7.257a8.091,8.091,0,0,1,3.17-6.911,7.257,7.257,0,0,1,7.877-.066,8.2,8.2,0,0,1,3.617,7.144,9.455,9.455,0,0,1-3.867,7.09" transform="translate(-167.089 -176.403)"/><path class="g" d="M261.348,294.918a3.065,3.065,0,0,1-.048-.6c0-.435,0-.989-.048-1.65-.036-1.388-.089-3.313-.179-5.434s-.209-4.04-.3-5.428c-.036-.661-.071-1.192-.1-1.644a3.372,3.372,0,0,1,0-.6,2.937,2.937,0,0,1,.1.6c.048.387.107.947.173,1.644.125,1.388.268,3.307.358,5.428s.125,4.051.119,5.446v1.65A3.5,3.5,0,0,1,261.348,294.918Z" transform="translate(-171.781 -176.587)"/><path class="f" d="M249.112,291.572a1.787,1.787,0,0,1-.858.042c-.465-.042-.834-.119-.834-.185a1.788,1.788,0,0,1,.858-.042C248.743,291.429,249.112,291.506,249.112,291.572Z" transform="translate(-166.426 -181.35)"/><path class="f" d="M249.541,287.313c0,.054-.357-.036-.739-.2s-.667-.358-.643-.411.352.036.733.2S249.565,287.254,249.541,287.313Z" transform="translate(-166.725 -179.463)"/><path class="f" d="M251.582,284.009c-.03.054-.4-.119-.786-.441a2.172,2.172,0,0,1-.6-.691,3.248,3.248,0,0,1,.721.518C251.3,283.705,251.618,283.955,251.582,284.009Z" transform="translate(-167.55 -177.922)"/><path class="f" d="M254.171,281.114a1.54,1.54,0,0,1-.393-.6c-.161-.34-.25-.685-.191-.709s.232.25.393.6S254.231,281.114,254.171,281.114Z" transform="translate(-168.912 -176.683)"/><path class="f" d="M257.482,279.018a1.306,1.306,0,0,1-.369-.679c-.125-.411-.143-.763-.077-.769s.167.31.292.7S257.541,279.018,257.482,279.018Z" transform="translate(-170.298 -175.779)"/><path class="f" d="M262.933,277.789c.06,0,0,.274-.077.566s-.232.506-.292.483,0-.268.077-.56S262.879,277.771,262.933,277.789Z" transform="translate(-172.538 -175.867)"/><path class="f" d="M266.63,279.5c.042.042-.107.25-.34.465s-.453.352-.494.3.113-.256.34-.465S266.588,279.456,266.63,279.5Z" transform="translate(-173.851 -176.557)"/><path class="f" d="M270.066,281.771c.036.054-.149.238-.417.417s-.506.28-.542.232.155-.238.417-.417S270.031,281.717,270.066,281.771Z" transform="translate(-175.191 -177.471)"/><path class="f" d="M272.269,285.158a1.56,1.56,0,0,1-.655.4c-.387.161-.721.256-.745.2s.268-.238.655-.4S272.245,285.1,272.269,285.158Z" transform="translate(-175.904 -178.839)"/><path class="f" d="M273.284,288.839c0,.06-.292.149-.667.191a1.779,1.779,0,0,1-.7,0,1.434,1.434,0,0,1,.667-.2C272.963,288.786,273.272,288.774,273.284,288.839Z" transform="translate(-176.329 -180.316)"/><path class="f" d="M273.827,293.011c0,.054-.346-.03-.715-.191s-.643-.334-.6-.393.346.03.709.191S273.851,292.952,273.827,293.011Z" transform="translate(-176.568 -181.777)"/><path class="f" d="M273.268,296.665c0,.06-.423-.042-.846-.316s-.667-.6-.626-.643.352.2.751.459S273.292,296.606,273.268,296.665Z" transform="translate(-176.278 -183.107)"/><path class="f" d="M271.488,300.081c-.036.048-.357-.143-.661-.477s-.477-.661-.423-.7.292.226.6.548S271.529,300.028,271.488,300.081Z" transform="translate(-175.712 -184.402)"/><path class="f" d="M251.837,301.282a2.317,2.317,0,0,1-.751.518c-.441.232-.828.375-.858.322s.31-.286.751-.518S251.808,301.229,251.837,301.282Z" transform="translate(-167.561 -185.359)"/><path class="f" d="M250.3,298.07a1.432,1.432,0,0,1-.6.393c-.352.161-.667.25-.691.191s.244-.232.6-.393S250.266,298.023,250.3,298.07Z" transform="translate(-167.068 -184.06)"/><path class="f" d="M248.843,295.2c0,.06-.322.161-.739.22a1.515,1.515,0,0,1-.775,0c-.006-.054.322-.161.739-.22S248.837,295.14,248.843,295.2Z" transform="translate(-166.39 -182.887)"/><path class="f" d="M253.093,293.641c0,.06-.3.208-.739.256s-.781,0-.775-.083.34-.089.751-.137S253.075,293.582,253.093,293.641Z" transform="translate(-168.108 -182.264)"/><path class="f" d="M256.84,290.115c0,.054-.238.185-.6.22s-.626-.042-.6-.107.274-.083.6-.119S256.822,290.026,256.84,290.115Z" transform="translate(-169.751 -180.829)"/><path class="f" d="M257.53,287.039c0,.06-.3,0-.626-.1s-.6-.25-.548-.31.3,0,.626.1S257.548,286.979,257.53,287.039Z" transform="translate(-170.036 -179.433)"/><path class="f" d="M259.285,283.933c-.042.048-.232-.083-.369-.322s-.149-.465-.1-.483.167.161.292.375S259.332,283.892,259.285,283.933Z" transform="translate(-171.022 -178.025)"/><path class="f" d="M257.357,296.107c0,.06-.226.173-.536.244a1.956,1.956,0,0,1-.459.072l-.042-.131h.143c.012,0,0,.066-.089.113l-.042-.131a2.008,2.008,0,0,1,.435-.149C257.077,296.059,257.321,296.024,257.357,296.107Z" transform="translate(-170.024 -183.252)"/><path class="f" d="M257.8,301.112a1.634,1.634,0,0,1-.691.393c-.405.161-.745.238-.769.179s.286-.232.691-.387S257.775,301.035,257.8,301.112Z" transform="translate(-170.031 -185.284)"/><path class="f" d="M254.128,298.892c0,.06-.185.185-.459.274s-.512.125-.53.066.185-.185.459-.274S254.11,298.838,254.128,298.892Z" transform="translate(-168.738 -184.386)"/><path class="f" d="M254.107,288.388c0,.06-.375,0-.786-.119s-.715-.346-.691-.4.363.042.763.185S254.119,288.328,254.107,288.388Z" transform="translate(-168.531 -179.936)"/><path class="f" d="M264.047,287.641c.036.054-.167.244-.447.429s-.542.3-.6.244.167-.244.453-.429S264.011,287.587,264.047,287.641Z" transform="translate(-172.722 -179.844)"/><path class="f" d="M264.615,292.63c0,.06-.2.155-.477.214s-.506.054-.518,0,.2-.155.471-.214S264.6,292.57,264.615,292.63Z" transform="translate(-172.974 -181.848)"/><path class="f" d="M265.031,297.887c0,.054-.334-.03-.685-.191s-.6-.34-.6-.4.328.03.679.191S265.055,297.828,265.031,297.887Z" transform="translate(-173.027 -183.745)"/><path class="f" d="M264.112,303.19c-.048.042-.244-.119-.441-.357s-.316-.465-.268-.506.244.125.441.363S264.16,303.154,264.112,303.19Z" transform="translate(-172.882 -185.783)"/><path class="f" d="M263.818,283.983c.036.048-.1.214-.316.322s-.435.119-.453.06.149-.155.352-.256S263.782,283.912,263.818,283.983Z" transform="translate(-172.743 -178.361)"/><path class="f" d="M268.229,288.982c0,.06-.238.2-.6.25s-.649,0-.643-.077.28-.1.6-.143S268.188,288.928,268.229,288.982Z" transform="translate(-174.337 -180.381)"/><path class="f" d="M267.257,284.468a1.064,1.064,0,0,1-.6.352c-.363.113-.685.119-.691.06s.274-.161.626-.268S267.227,284.408,267.257,284.468Z" transform="translate(-173.924 -178.56)"/><path class="f" d="M268.819,295.764a1.715,1.715,0,0,1-.977,0,1.788,1.788,0,0,1-.912-.346,2.943,2.943,0,0,1,.953.125A2.978,2.978,0,0,1,268.819,295.764Z" transform="translate(-174.312 -182.993)"/><path class="f" d="M267.557,301.839c-.042.054-.363-.143-.691-.471s-.518-.649-.471-.691.316.22.632.536S267.593,301.791,267.557,301.839Z" transform="translate(-174.093 -185.117)"/><path class="g" d="M257.433,279.11a9.866,9.866,0,0,0-1.972,1.555,9.634,9.634,0,0,0-2.449,5.416,12.3,12.3,0,0,0,.149,3.313c.179,1.013.411,1.913.6,2.663s.417,1.352.548,1.787a5.487,5.487,0,0,1,.191.649,3.322,3.322,0,0,1-.274-.6c-.155-.411-.375-1.007-.6-1.752a23.548,23.548,0,0,1-.673-2.675,12,12,0,0,1-.167-3.378,9.5,9.5,0,0,1,2.556-5.5,7.035,7.035,0,0,1,1.472-1.144,4.164,4.164,0,0,1,.447-.232A.6.6,0,0,1,257.433,279.11Z" transform="translate(-168.575 -176.401)"/><path class="g" d="M263.555,294.7q.563-1.166,1.007-2.383a13.637,13.637,0,0,0,.6-6.19,11.714,11.714,0,0,0-.953-3.307,7.833,7.833,0,0,0-1.627-2.27,6.149,6.149,0,0,0-1.6-1.007c-.417-.173-.667-.215-.661-.232a.544.544,0,0,1,.185,0,4.247,4.247,0,0,1,.506.137,5.517,5.517,0,0,1,1.668.971,7.745,7.745,0,0,1,1.71,2.3,11.476,11.476,0,0,1,.995,3.36,13.149,13.149,0,0,1-.679,6.28c-.125.387-.286.721-.411,1.019a7.717,7.717,0,0,1-.369.739A5.32,5.32,0,0,1,263.555,294.7Z" transform="translate(-171.64 -176.481)"/></g><g transform="translate(314.692 81.296)"><path class="h" d="M574.064,254.145a4.7,4.7,0,0,0-1.787-1.412,18.53,18.53,0,0,0,4.308-28,16.54,16.54,0,0,0-10.224-5.636,13.429,13.429,0,0,0-10.981,3.575,14.286,14.286,0,0,0-3.575,12.714,20.387,20.387,0,0,0,7.15,11.439,36.84,36.84,0,0,0,11.785,6.351,6.051,6.051,0,0,0-1.037,2.312,1.424,1.424,0,0,0,.214,1.311,1.115,1.115,0,0,0,1.632-.375,3.206,3.206,0,0,0,.262-1.883,3.164,3.164,0,0,0,1.06,1.3,1.084,1.084,0,0,0,1.49-.292A1.382,1.382,0,0,0,574.064,254.145Z" transform="translate(-551.531 -191.664)"/><path class="g" d="M557.866,244.791a4.287,4.287,0,0,1-.465-.6,6.356,6.356,0,0,1-.489-.727,10.146,10.146,0,0,1-.6-1.013,10.79,10.79,0,0,1-.6-1.281,15.766,15.766,0,0,1-.524-1.531,17.672,17.672,0,0,1-.6-3.646,17.4,17.4,0,0,1,.25-3.694,15.274,15.274,0,0,1,.375-1.573,11.5,11.5,0,0,1,.459-1.329,10.1,10.1,0,0,1,.471-1.061,7,7,0,0,1,.465-.745,3.517,3.517,0,0,1,.411-.6c.06,0-.512.929-1.1,2.52a12.023,12.023,0,0,0-.411,1.323,14.941,14.941,0,0,0-.346,1.549,18.6,18.6,0,0,0-.22,3.628,18.108,18.108,0,0,0,.554,3.575c.161.536.292,1.049.483,1.513a12.459,12.459,0,0,0,.536,1.275C557.27,243.909,557.926,244.755,557.866,244.791Z" transform="translate(-552.766 -194.906)"/><path class="g" d="M566.395,261.655a2.77,2.77,0,0,1-1.412-.661c-.709-.512-1.126-1.09-1.066-1.144a7.043,7.043,0,0,1,1.251.894C565.841,261.232,566.436,261.572,566.395,261.655Z" transform="translate(-556.535 -208.184)"/><path class="f" d="M579.192,278.61a1.537,1.537,0,0,1,.048.22,2.876,2.876,0,0,1,.089.655,5.679,5.679,0,0,1-.518,2.473,14.609,14.609,0,0,1-2.139,3.39c-.495.6-1.055,1.227-1.674,1.859s-1.329,1.263-2.02,1.942a10.475,10.475,0,0,0-2.836,5.565,9.277,9.277,0,0,0,8.264,10.826,10.355,10.355,0,0,0,4.171-.34,9.218,9.218,0,0,0,3.742-2.157,6.28,6.28,0,0,0,1.978-3.754,4.284,4.284,0,0,0-1.412-3.736,4.17,4.17,0,0,0-3.807-.6,5.75,5.75,0,0,0-3.027,2.318,10.322,10.322,0,0,0-1.484,3.414,14.01,14.01,0,0,0-.4,3.509,18.761,18.761,0,0,0,1.192,6.232,33.832,33.832,0,0,0,4.552,8.043c.643.888,1.192,1.561,1.513,2.026l.4.524a1.192,1.192,0,0,1,.125.185,1.837,1.837,0,0,1-.155-.167l-.405-.495c-.369-.447-.9-1.114-1.561-1.99a33.035,33.035,0,0,1-4.665-8.037,18.915,18.915,0,0,1-1.239-6.3,14.036,14.036,0,0,1,.393-3.575,10.291,10.291,0,0,1,1.513-3.509,6.036,6.036,0,0,1,3.176-2.443,4.445,4.445,0,0,1,4.081.655,4.6,4.6,0,0,1,1.525,4,6.553,6.553,0,0,1-2.032,3.92,9.454,9.454,0,0,1-3.867,2.234,10.776,10.776,0,0,1-4.326.346,9.533,9.533,0,0,1-8.49-11.177,10.659,10.659,0,0,1,2.931-5.678c.715-.7,1.418-1.287,2.038-1.924s1.192-1.239,1.68-1.835a14.786,14.786,0,0,0,2.157-3.325,5.748,5.748,0,0,0,.6-2.425,3.328,3.328,0,0,0-.054-.649,1.085,1.085,0,0,1-.054-.226Z" transform="translate(-558.894 -215.766)"/><path class="f" d="M614.826,230.27a1.129,1.129,0,0,1,.167.143l.465.441a16.929,16.929,0,0,1,1.71,1.787,24.615,24.615,0,0,1,4.582,7.787,25,25,0,0,1,.894,2.872c.119.512.286,1.025.369,1.561s.179,1.084.274,1.638a29.147,29.147,0,0,1,.089,7.191,27.3,27.3,0,0,1-2.067,7.668,26.08,26.08,0,0,1-4.713,7.108,67.585,67.585,0,0,1-6.2,5.857c-2.085,1.787-4.117,3.5-5.958,5.255a31.256,31.256,0,0,0-4.617,5.434,24.241,24.241,0,0,0-2.723,5.577,16.747,16.747,0,0,0-.924,5.023c-.03.381,0,.745,0,1.1v.512l.072.489c.048.322.089.631.143.918s.143.56.214.816a8.429,8.429,0,0,0,.465,1.335,5.357,5.357,0,0,0,.441.935l.3.566a.883.883,0,0,1,.089.2l-.119-.179c-.078-.143-.185-.322-.322-.554a5.55,5.55,0,0,1-.477-.929,9.455,9.455,0,0,1-.494-1.341l-.226-.816c-.06-.292-.1-.6-.155-.923l-.083-.495v-.524c0-.351-.06-.721-.036-1.1a16.859,16.859,0,0,1,.888-5.094,24.392,24.392,0,0,1,2.717-5.648,31.053,31.053,0,0,1,4.635-5.493c1.817-1.787,3.849-3.485,5.958-5.279a68.83,68.83,0,0,0,6.184-5.857,26.015,26.015,0,0,0,4.647-7.013,27.319,27.319,0,0,0,2.056-7.579,28.958,28.958,0,0,0-.06-7.15c-.089-.548-.179-1.1-.262-1.627s-.244-1.043-.357-1.549a24.668,24.668,0,0,0-.87-2.854,25.131,25.131,0,0,0-4.469-7.787A19.61,19.61,0,0,0,615.4,230.9l-.447-.459a1.122,1.122,0,0,1-.125-.167Z" transform="translate(-569.497 -196.228)"/><path class="h" d="M618.179,208.468a4.712,4.712,0,0,0-1.787-1.448,18.535,18.535,0,0,0,4.85-27.9,16.521,16.521,0,0,0-10.129-5.833,13.405,13.405,0,0,0-11.04,3.337,14.21,14.21,0,0,0-3.807,12.637,20.526,20.526,0,0,0,6.917,11.582,36.339,36.339,0,0,0,11.666,6.554,6.006,6.006,0,0,0-1.084,2.288,1.436,1.436,0,0,0,.191,1.317,1.115,1.115,0,0,0,1.638-.346.986.986,0,1,1,1.335-.554,1.09,1.09,0,0,0,1.5-.262A1.377,1.377,0,0,0,618.179,208.468Z" transform="translate(-569.52 -173.133)"/><path class="g" d="M600.817,196.777a2.488,2.488,0,0,1-.31-.524,4.682,4.682,0,0,1-.31-.643,8.3,8.3,0,0,1-.346-.882,14.443,14.443,0,0,1-.6-2.383,16.256,16.256,0,0,1-.173-3.015,16.447,16.447,0,0,1,.447-2.979,14.162,14.162,0,0,1,.822-2.33,9.368,9.368,0,0,1,.423-.846q.167-.307.363-.6a2.385,2.385,0,0,1,.363-.489c.048.03-.423.757-.947,2.038a16.168,16.168,0,0,0-.745,2.306,17.869,17.869,0,0,0-.417,2.937,17.444,17.444,0,0,0,.149,2.979,16.025,16.025,0,0,0,.53,2.383C600.471,195.984,600.87,196.753,600.817,196.777Z" transform="translate(-570.747 -176.753)"/><path class="g" d="M606.762,177.872c.054.066-.334.435-.858.822a2.917,2.917,0,0,1-1.036.6c-.048-.048.334-.441.852-.828S606.732,177.8,606.762,177.872Z" transform="translate(-573.088 -175.044)"/><path class="f" d="M636.881,256.69a.589.589,0,0,1,0,.185v.542a20,20,0,0,1-.089,2.091,34.863,34.863,0,0,1-1.442,7.561,32.772,32.772,0,0,1-5.166,10.164,26.626,26.626,0,0,1-4.766,4.8,45.284,45.284,0,0,1-6.1,3.92c-2.169,1.192-4.32,2.312-6.322,3.5a36.563,36.563,0,0,0-5.469,3.885,22.634,22.634,0,0,0-3.986,4.54,19.294,19.294,0,0,0-2.252,4.766,17.417,17.417,0,0,0-.769,7.555,14.379,14.379,0,0,0,.417,2.044c.06.214.107.387.149.518a.945.945,0,0,1,.042.185.885.885,0,0,1-.072-.173l-.179-.512a12.215,12.215,0,0,1-.477-2.044,17.079,17.079,0,0,1,.679-7.638,19.351,19.351,0,0,1,2.246-4.832,22.825,22.825,0,0,1,4.016-4.617,36.432,36.432,0,0,1,5.493-3.926c2.014-1.192,4.171-2.318,6.333-3.515a46.515,46.515,0,0,0,6.065-3.891,26.442,26.442,0,0,0,4.719-4.731,32.958,32.958,0,0,0,5.184-10.057,37.014,37.014,0,0,0,1.531-7.5c.1-.906.131-1.609.149-2.085a2.8,2.8,0,0,1,.03-.542A.878.878,0,0,1,636.881,256.69Z" transform="translate(-571.218 -206.907)"/><path class="h" d="M658.829,232.1a4.669,4.669,0,0,0-.888-2.091A18.541,18.541,0,0,0,675.131,207.5a16.51,16.51,0,0,0-6.28-9.849,13.424,13.424,0,0,0-11.32-2.139,14.189,14.189,0,0,0-9.211,9.455,20.523,20.523,0,0,0,.787,13.465,36.759,36.759,0,0,0,7.3,11.219,6,6,0,0,0-2.02,1.531,1.442,1.442,0,0,0-.435,1.257,1.122,1.122,0,0,0,1.609.447,3.224,3.224,0,0,0,1.132-1.525,3.11,3.11,0,0,0,.31,1.65,1.09,1.09,0,0,0,1.448.459A1.388,1.388,0,0,0,658.829,232.1Z" transform="translate(-590.33 -182)"/><path class="g" d="M651.3,221.257a4.841,4.841,0,0,1-.405-.822,24.565,24.565,0,0,1-.888-2.324,20.3,20.3,0,0,1-1.049-8.121,13.573,13.573,0,0,1,3.086-7.537,9.842,9.842,0,0,1,1.847-1.68,6.509,6.509,0,0,1,.6-.363c.137-.077.208-.113.214-.1a14.467,14.467,0,0,0-2.461,2.288,13.821,13.821,0,0,0-2.979,7.424,21.407,21.407,0,0,0,.959,8.025c.3,1,.6,1.787.792,2.347A5,5,0,0,1,651.3,221.257Z" transform="translate(-590.889 -184.116)"/><path class="g" d="M657.047,242.049a3.3,3.3,0,0,1-1.192-1.352,3.378,3.378,0,0,1-.6-1.686,12.124,12.124,0,0,1,.858,1.531,11.552,11.552,0,0,1,.929,1.507Z" transform="translate(-593.458 -199.76)"/><path class="f" d="M648.019,288a.6.6,0,0,1-.066.155c-.054.113-.125.25-.214.429-.2.375-.471.941-.9,1.626a31.714,31.714,0,0,1-4.105,5.458,34.57,34.57,0,0,1-3.444,3.241,34.122,34.122,0,0,1-9.872,5.666,37.3,37.3,0,0,1-6.22,1.68c-2.163.423-4.284.775-6.28,1.287a20.907,20.907,0,0,0-5.517,2.151,16.086,16.086,0,0,0-4.04,3.485,22.639,22.639,0,0,0-2.556,3.92,47.538,47.538,0,0,0-2.6,6.292c-.256.745-.453,1.329-.6,1.787l-.161.453a.592.592,0,0,1-.065.155.552.552,0,0,1,.036-.167,2.378,2.378,0,0,1,.131-.465c.113-.405.292-1.007.536-1.787a44.09,44.09,0,0,1,2.526-6.345,22.562,22.562,0,0,1,2.562-4,15.885,15.885,0,0,1,4.093-3.575,21.122,21.122,0,0,1,5.583-2.2c2.014-.518,4.141-.87,6.3-1.293a37.422,37.422,0,0,0,6.167-1.644,34.829,34.829,0,0,0,13.239-8.77,32.728,32.728,0,0,0,4.171-5.362c.447-.667.733-1.227.953-1.591l.244-.417A.932.932,0,0,1,648.019,288Z" transform="translate(-571.68 -219.562)"/><path class="h" d="M680.61,270.938a4.72,4.72,0,0,0,.6-2.193,18.541,18.541,0,0,0,27.407-7.048,16.5,16.5,0,0,0,1.162-11.618,13.411,13.411,0,0,0-7.555-8.687,14.277,14.277,0,0,0-13.108,1.728,20.592,20.592,0,0,0-7.745,11.064,35.709,35.709,0,0,0-1.192,13.334,5.958,5.958,0,0,0-2.532-.042,1.43,1.43,0,0,0-1.12.715c-.238.6.352,1.257.989,1.347a3.223,3.223,0,0,0,1.829-.495,3.163,3.163,0,0,0-.775,1.484,1.09,1.09,0,0,0,.852,1.257A1.382,1.382,0,0,0,680.61,270.938Z" transform="translate(-602.03 -200.361)"/><path class="g" d="M700.061,243.149a7.253,7.253,0,0,1-.929.31,21,21,0,0,0-2.485.989,19.006,19.006,0,0,0-10.54,13.292,19.755,19.755,0,0,0-.4,2.639,7.8,7.8,0,0,1-.1.977.738.738,0,0,1,0-.25v-.733a16.764,16.764,0,0,1,.3-2.681,18.47,18.47,0,0,1,10.653-13.441,16.516,16.516,0,0,1,2.538-.906c.3-.089.548-.131.715-.167a.727.727,0,0,1,.244-.03Z" transform="translate(-605.722 -201.433)"/><path class="g" d="M685.443,280.765a9.013,9.013,0,0,1,.244-3.295,4.5,4.5,0,0,1,.03,1.656A4.583,4.583,0,0,1,685.443,280.765Z" transform="translate(-605.635 -215.306)"/></g><g transform="translate(313.19 187.377)"><path class="f" d="M549.01,426.394l12.357-75.214,39.883,68.494v6.721H589.763l.22-5.577H563.536l-1.3,5.577Z" transform="translate(-549.01 -351.18)"/><path class="f" d="M569.75,351.18l10.188,75.214h11.487v-5.636l26.227.215,1.3,5.422h11.7l-10.4-75.214Z" transform="translate(-557.393 -351.18)"/><path class="e" d="M580.126,426.662c-.083,0-2.52-16.569-5.446-37.029s-5.225-37.071-5.142-37.083,2.526,16.569,5.452,37.035S580.209,426.65,580.126,426.662Z" transform="translate(-557.307 -351.734)"/><path class="f" d="M618.567,368.633a.539.539,0,0,0-.036-.161.942.942,0,0,0-.286-.363,3.778,3.778,0,0,0-1.615-.6,9.413,9.413,0,0,0-2.58-.1,7.148,7.148,0,0,0-1.49.3,3.078,3.078,0,0,0-.727.334,1.6,1.6,0,0,0-.161.119.809.809,0,0,0-.143.143.6.6,0,0,0-.143.352.626.626,0,0,0,.143.358,1.039,1.039,0,0,0,.143.137,1.015,1.015,0,0,0,.161.119,3.078,3.078,0,0,0,.727.334,6.8,6.8,0,0,0,1.49.3,9.414,9.414,0,0,0,2.58-.1,3.778,3.778,0,0,0,1.615-.6.942.942,0,0,0,.286-.363c.03-.1.03-.161.036-.161a.6.6,0,0,1,0,.167.9.9,0,0,1-.28.387,3.775,3.775,0,0,1-1.621.655,9.079,9.079,0,0,1-2.6.119,7.056,7.056,0,0,1-1.513-.292,3.156,3.156,0,0,1-.751-.346,1.747,1.747,0,0,1-.167-.125,1.268,1.268,0,0,1-.155-.155.685.685,0,0,1-.167-.411.72.72,0,0,1,.167-.411l.155-.155a1.765,1.765,0,0,1,.167-.125,3.137,3.137,0,0,1,.751-.34,6.733,6.733,0,0,1,1.513-.3,9.313,9.313,0,0,1,2.6.119,3.777,3.777,0,0,1,1.621.655.9.9,0,0,1,.28.387A.6.6,0,0,1,618.567,368.633Z" transform="translate(-574.191 -357.7)"/><path class="f" d="M615.821,361.18a.18.18,0,0,1,0,.155.827.827,0,0,1-.256.316.506.506,0,0,0-.143.208.423.423,0,0,0,.054.274,2.49,2.49,0,0,0,.2.28.714.714,0,0,1,.137.375.382.382,0,0,1-.077.2c-.048.054-.1.1-.137.137a.315.315,0,0,0-.131.268c0,.2.2.334.292.483a.4.4,0,0,1,.065.4.167.167,0,0,1-.107.107.267.267,0,0,0,.077-.119.387.387,0,0,0-.089-.352c-.048-.066-.113-.131-.179-.209a.6.6,0,0,1-.149-.3.375.375,0,0,1,.036-.2.6.6,0,0,1,.119-.149c.1-.083.185-.167.185-.274a.548.548,0,0,0-.119-.322,2.26,2.26,0,0,1-.2-.292.417.417,0,0,1-.054-.334.464.464,0,0,1,.173-.238.855.855,0,0,0,.262-.286A.339.339,0,0,0,615.821,361.18Z" transform="translate(-575.819 -355.222)"/><path class="f" d="M617.214,361.18a.192.192,0,0,1,0,.155.776.776,0,0,1-.256.316.49.49,0,0,0-.137.208.357.357,0,0,0,.054.274,2.411,2.411,0,0,0,.2.28.625.625,0,0,1,.137.375.379.379,0,0,1-.078.2,1,1,0,0,1-.137.137.316.316,0,0,0-.131.268c0,.2.2.334.3.483a.411.411,0,0,1,.066.4.2.2,0,0,1-.107.107.3.3,0,0,0,.072-.119.381.381,0,0,0-.083-.352l-.185-.209a.6.6,0,0,1-.143-.3.285.285,0,0,1,.036-.2.488.488,0,0,1,.119-.149c.089-.083.179-.167.179-.274a.548.548,0,0,0-.119-.322,3.151,3.151,0,0,1-.2-.292.472.472,0,0,1-.054-.334.5.5,0,0,1,.173-.238.792.792,0,0,0,.262-.286C617.22,361.234,617.2,361.18,617.214,361.18Z" transform="translate(-576.383 -355.222)"/><path class="f" d="M618.594,361.18a.181.181,0,0,1,0,.155.751.751,0,0,1-.25.316.506.506,0,0,0-.143.209.357.357,0,0,0,.054.274,2.418,2.418,0,0,0,.2.28.626.626,0,0,1,.137.375.34.34,0,0,1-.078.2,1.436,1.436,0,0,1-.131.137.322.322,0,0,0-.137.268c0,.2.2.334.3.483a.4.4,0,0,1,.066.4.167.167,0,0,1-.107.107.234.234,0,0,0,.072-.119.382.382,0,0,0-.083-.352c-.048-.066-.113-.131-.179-.209a.6.6,0,0,1-.149-.3.322.322,0,0,1,.036-.2.6.6,0,0,1,.119-.149.453.453,0,0,0,.185-.274.549.549,0,0,0-.119-.322,3.2,3.2,0,0,1-.2-.292.471.471,0,0,1-.054-.334.537.537,0,0,1,.173-.238.744.744,0,0,0,.262-.286A.452.452,0,0,0,618.594,361.18Z" transform="translate(-576.941 -355.222)"/><path class="f" d="M618.356,374.8l-.047.06a1.917,1.917,0,0,1-.167.137,2.625,2.625,0,0,1-.709.34,8.816,8.816,0,0,1-2.568.364,9.082,9.082,0,0,1-2.574-.352,2.054,2.054,0,0,1-.7-.375,1.593,1.593,0,0,1-.149-.155c-.03-.042-.042-.066-.036-.066a2.323,2.323,0,0,0,.208.191,2.117,2.117,0,0,0,.691.34,9.535,9.535,0,0,0,2.556.322,9.764,9.764,0,0,0,2.55-.328,3.038,3.038,0,0,0,.709-.31C618.279,374.863,618.356,374.792,618.356,374.8Z" transform="translate(-574.231 -360.707)"/><path class="f" d="M617.863,375.139a1.4,1.4,0,0,1-.352.1,4.987,4.987,0,0,1-.882.077,4.8,4.8,0,0,1-.882-.083,1.332,1.332,0,0,1-.357-.1c0-.03.554.1,1.239.1S617.857,375.109,617.863,375.139Z" transform="translate(-575.841 -360.857)"/><path class="f" d="M590.43,381.307a1.626,1.626,0,0,1,1.716-1.638,1.656,1.656,0,0,1,1.3.56l-.471.435a1.025,1.025,0,0,0-.8-.369,1.013,1.013,0,1,0,.8,1.65l.471.435a1.65,1.65,0,0,1-1.311.566,1.62,1.62,0,0,1-1.71-1.639Z" transform="translate(-565.752 -362.694)"/><path class="f" d="M595.878,381.179a1.734,1.734,0,1,1,1.728,1.638,1.639,1.639,0,0,1-1.728-1.638Zm2.723,0a.995.995,0,1,0-.995,1.013.971.971,0,0,0,.995-1.013Z" transform="translate(-567.953 -362.566)"/><path class="f" d="M603.353,380.354v.834h1.466v.6h-1.466v1.156h-.733v-3.17H605v.6Z" transform="translate(-570.679 -362.736)"/><path class="f" d="M608.2,380.354v.834h1.466v.6H608.2v1.156h-.733v-3.17h2.383v.6Z" transform="translate(-572.639 -362.736)"/><path class="f" d="M614.769,382.344v.6H612.32v-3.17H614.7v.6h-1.668v.685h1.478v.6h-1.472v.733Z" transform="translate(-574.6 -362.736)"/><path class="f" d="M619.745,382.344v.6H617.29v-3.17h2.383v.6h-1.662v.685h1.49v.6h-1.466v.733Z" transform="translate(-576.608 -362.736)"/><path class="f" d="M623.07,382.514l.119-.179a1.406,1.406,0,0,0,1.013.393c.6,0,1.007-.25,1.007-.7,0-.781-1.674-.4-1.674-1.37,0-.6.518-.941,1.227-.941a1.615,1.615,0,0,1,.953.28l-.107.191a1.412,1.412,0,0,0-.858-.262c-.6,0-.983.262-.983.709,0,.792,1.674.417,1.674,1.364,0,.6-.542.929-1.257.929a1.543,1.543,0,0,1-1.114-.417Z" transform="translate(-578.945 -362.715)"/><path class="f" d="M631.309,379.76l-.638,3.17h-.244l.3-1.5H628.64l-.3,1.5h-.232l.632-3.17h.232l-.292,1.454H630.8l.292-1.454Z" transform="translate(-580.982 -362.732)"/><path class="f" d="M634.249,381.624a1.847,1.847,0,0,1,1.895-1.912,1.275,1.275,0,0,1,1.448,1.3,1.847,1.847,0,0,1-1.9,1.907,1.269,1.269,0,0,1-1.442-1.3Zm3.11-.6c0-.661-.423-1.1-1.239-1.1a1.626,1.626,0,0,0-1.644,1.686c0,.655.429,1.1,1.239,1.1a1.621,1.621,0,0,0,1.644-1.686Z" transform="translate(-583.463 -362.708)"/><path class="f" d="M643.472,380.636c0,.81-.56,1.257-1.46,1.257h-.941l-.209,1.037h-.232l.632-3.17h1.1C643.061,379.76,643.472,380.076,643.472,380.636Zm-.238,0c0-.447-.316-.685-.882-.685h-.906l-.346,1.716h.941c.745.024,1.192-.334,1.192-1.013Z" transform="translate(-586.042 -362.732)"/><path class="f" d="M623.35,391.1c0,.083-8.52.155-19.03.155s-19.03-.071-19.03-.155,8.514-.155,19.03-.155S623.35,391.022,623.35,391.1Z" transform="translate(-563.674 -367.255)"/><path class="f" d="M608.786,399.415c0,.089-4.766.155-10.683.155s-10.683-.066-10.683-.155,4.766-.155,10.683-.155S608.786,399.331,608.786,399.415Z" transform="translate(-564.535 -370.614)"/><path class="f" d="M647.25,398.453a3.319,3.319,0,0,1-1.418.155,3.277,3.277,0,0,1-1.412-.155,3.39,3.39,0,0,1,1.412-.155,3.433,3.433,0,0,1,1.418.155Z" transform="translate(-587.574 -370.218)"/><path class="f" d="M609.265,404.895c0,.089-4.766.155-10.683.155s-10.683-.066-10.683-.155,4.766-.155,10.683-.155S609.265,404.8,609.265,404.895Z" transform="translate(-564.729 -372.829)"/><path class="f" d="M647.72,403.883a3.276,3.276,0,0,1-1.412.155,3.318,3.318,0,0,1-1.418-.155,3.431,3.431,0,0,1,1.418-.155,3.39,3.39,0,0,1,1.412.155Z" transform="translate(-587.764 -372.413)"/><path class="f" d="M610.505,410.391c0,.083-4.766.155-10.683.155s-10.683-.072-10.683-.155,4.766-.161,10.683-.161S610.505,410.3,610.505,410.391Z" transform="translate(-565.23 -375.048)"/><path class="f" d="M648.93,409.428a3.432,3.432,0,0,1-1.418.155,3.389,3.389,0,0,1-1.412-.155,3.229,3.229,0,0,1,1.412-.161,3.265,3.265,0,0,1,1.418.161Z" transform="translate(-588.253 -374.651)"/><path class="f" d="M612.066,415.955c0,.083-4.766.155-10.683.155s-10.683-.071-10.683-.155,4.766-.155,10.683-.155S612.066,415.871,612.066,415.955Z" transform="translate(-565.861 -377.299)"/><path class="f" d="M650.53,414.993a3.433,3.433,0,0,1-1.418.155,3.389,3.389,0,0,1-1.412-.155,3.389,3.389,0,0,1,1.412-.155,3.431,3.431,0,0,1,1.418.155Z" transform="translate(-588.9 -376.903)"/><path class="f" d="M613.115,421.045c0,.083-4.766.155-10.683.155s-10.683-.072-10.683-.155,4.766-.155,10.683-.155S613.115,420.956,613.115,421.045Z" transform="translate(-566.285 -379.357)"/><path class="f" d="M651.58,420.083a3.432,3.432,0,0,1-1.418.155,3.391,3.391,0,0,1-1.412-.155,3.391,3.391,0,0,1,1.412-.155,3.432,3.432,0,0,1,1.418.155Z" transform="translate(-589.325 -378.961)"/><path class="f" d="M613.665,426.945c0,.089-4.766.155-10.683.155s-10.683-.066-10.683-.155,4.767-.155,10.683-.155S613.665,426.861,613.665,426.945Z" transform="translate(-566.508 -381.741)"/><path class="f" d="M652.13,425.983a3.318,3.318,0,0,1-1.418.155,3.277,3.277,0,0,1-1.412-.155,3.39,3.39,0,0,1,1.412-.155A3.432,3.432,0,0,1,652.13,425.983Z" transform="translate(-589.547 -381.345)"/><path class="f" d="M614.216,432.895c0,.089-4.766.161-10.683.161s-10.683-.072-10.683-.161,4.766-.155,10.683-.155S614.216,432.782,614.216,432.895Z" transform="translate(-566.73 -384.146)"/><path class="f" d="M652.68,431.878a3.432,3.432,0,0,1-1.418.155,3.391,3.391,0,0,1-1.412-.155,3.228,3.228,0,0,1,1.412-.161A3.265,3.265,0,0,1,652.68,431.878Z" transform="translate(-589.769 -383.725)"/><path class="f" d="M614.765,438.755c0,.083-4.766.155-10.683.155s-10.683-.071-10.683-.155,4.766-.155,10.683-.155S614.765,438.666,614.765,438.755Z" transform="translate(-566.952 -386.515)"/><path class="f" d="M653.23,437.792a3.432,3.432,0,0,1-1.418.155,3.391,3.391,0,0,1-1.412-.155,3.275,3.275,0,0,1,1.412-.155,3.32,3.32,0,0,1,1.418.155Z" transform="translate(-589.991 -386.118)"/><path class="f" d="M615.336,444.655c0,.083-4.766.155-10.683.155S594,444.738,594,444.655s4.766-.155,10.683-.155S615.336,444.572,615.336,444.655Z" transform="translate(-567.195 -388.9)"/><path class="f" d="M653.78,443.693a3.43,3.43,0,0,1-1.418.155,3.39,3.39,0,0,1-1.412-.155,3.39,3.39,0,0,1,1.412-.155A3.433,3.433,0,0,1,653.78,443.693Z" transform="translate(-590.214 -388.504)"/><path class="f" d="M615.865,450.555c0,.089-4.767.155-10.683.155s-10.683-.065-10.683-.155,4.766-.155,10.683-.155S615.865,450.471,615.865,450.555Z" transform="translate(-567.397 -391.284)"/><path class="f" d="M654.33,449.593a3.319,3.319,0,0,1-1.418.155,3.275,3.275,0,0,1-1.412-.155,3.39,3.39,0,0,1,1.412-.155A3.432,3.432,0,0,1,654.33,449.593Z" transform="translate(-590.436 -390.888)"/></g><g transform="translate(0 152.755)"><path class="h" d="M82.782,380.711a28.557,28.557,0,0,1,27.234-7.471,49.613,49.613,0,0,1-27.556,8.609" transform="translate(-47.242 -325.117)"/><path class="h" d="M98.314,315.955a27.637,27.637,0,0,1,8-22.885,37.264,37.264,0,0,1-8,22.885" transform="translate(-53.558 -293.07)"/><path class="h" d="M90.349,344.17a42.862,42.862,0,0,1,19.662-18.81A27.031,27.031,0,0,1,90.26,344.253" transform="translate(-50.395 -306.121)"/><path class="h" d="M88.74,356a51.019,51.019,0,0,0,14.436-1.275,23.913,23.913,0,0,0,12.3-7.34,48.289,48.289,0,0,0-26.662,8.115" transform="translate(-49.78 -315.022)"/><path class="h" d="M83.432,331.58c-2.461-9.223-6.518-15.6-13.769-20.77a19.179,19.179,0,0,0,13.769,20.77" transform="translate(-42.012 -300.24)"/><path class="h" d="M62.16,363.783a13.656,13.656,0,0,1,8.294-12.643c-.405,4.766-4.171,10.266-8.294,12.643" transform="translate(-39.037 -316.542)"/><path class="h" d="M49.232,347.54A20.329,20.329,0,0,0,35.91,330.19c1.674,7.7,6.131,14.121,13.322,17.35" transform="translate(-28.427 -308.074)"/><path class="h" d="M53.1,378.661a12.849,12.849,0,0,0-7.382-4.719,37.907,37.907,0,0,0-8.883-.882,20.758,20.758,0,0,0,16.039,6.679" transform="translate(-28.799 -325.402)"/><path class="h" d="M51.144,414.761A22.766,22.766,0,0,0,23.35,427.928a59.314,59.314,0,0,0,27.794-13.167" transform="translate(-23.35 -341.847)"/><path class="h" d="M87.884,404c-1.674,4.957-1.352,10.945,2.383,15.217A18.154,18.154,0,0,0,87.884,404" transform="translate(-49.044 -337.907)"/><path class="h" d="M99.53,399.36a18.649,18.649,0,0,0,10.3,15.133,1.192,1.192,0,0,0,.912.149c.453-.185.495-.8.441-1.293-.733-6.345-5.44-12.512-11.654-13.989" transform="translate(-54.142 -336.032)"/><path class="h" d="M106.71,397.809a15.294,15.294,0,0,0,22.343.119c-7.1-.781-15.294-1.3-22.343-.119" transform="translate(-57.044 -335.125)"/><path class="f" d="M93.792,303a.552.552,0,0,1-.066.208l-.22.6c-.2.536-.489,1.311-.852,2.3s-.828,2.222-1.335,3.646c-.256.709-.536,1.472-.822,2.276s-.6,1.668-.888,2.568c-1.257,3.575-2.657,7.912-4.171,12.72S82.4,337.443,80.875,343.05s-2.848,10.993-3.986,15.9-2.061,9.348-2.747,13.108c-.179.935-.346,1.829-.506,2.675s-.28,1.638-.405,2.383c-.256,1.49-.477,2.77-.6,3.825s-.286,1.859-.375,2.425c-.042.268-.077.477-.1.632a1.837,1.837,0,0,1-.042.214,1.19,1.19,0,0,1,0-.214l.077-.638c.077-.566.185-1.388.322-2.431s.34-2.347.6-3.843c.119-.745.25-1.543.387-2.383s.31-1.74.483-2.681c.661-3.754,1.6-8.192,2.693-13.108s2.455-10.3,3.968-15.914,3.092-10.927,4.588-15.741,2.937-9.116,4.218-12.7c.322-.9.6-1.752.906-2.562l.846-2.276c.524-1.418.977-2.645,1.376-3.634l.906-2.282.238-.6A1.364,1.364,0,0,1,93.792,303Z" transform="translate(-43.059 -297.084)"/><path class="f" d="M43,337.09l.119.119.34.357c.3.316.727.786,1.263,1.412a50,50,0,0,1,4.171,5.571,37.495,37.495,0,0,1,4.373,9.354,89.119,89.119,0,0,1,2.622,12.381c1.442,8.854,3.217,16.784,4.5,22.521.643,2.854,1.192,5.172,1.537,6.792.173.786.31,1.406.411,1.847l.1.483v.167a.655.655,0,0,1-.054-.161c-.03-.119-.072-.28-.125-.477-.113-.435-.262-1.055-.459-1.835-.387-1.621-.941-3.926-1.627-6.774-1.329-5.726-3.128-13.656-4.576-22.521A94.544,94.544,0,0,0,53,353.981a37.9,37.9,0,0,0-4.3-9.324,53.85,53.85,0,0,0-4.1-5.612c-.524-.632-.941-1.114-1.192-1.442l-.322-.375A1.523,1.523,0,0,0,43,337.09Z" transform="translate(-31.292 -310.863)"/><path class="f" d="M96.1,397.777a1.186,1.186,0,0,1-.256.048l-.733.077-.53.054-.632.1c-.447.065-.965.131-1.519.256l-.882.173-.947.244c-.655.149-1.335.387-2.061.6a30.646,30.646,0,0,0-4.516,1.99,25.39,25.39,0,0,0-4.034,2.8,20.736,20.736,0,0,0-1.549,1.484,17.39,17.39,0,0,0-1.192,1.412,13.649,13.649,0,0,0-.906,1.251,8.427,8.427,0,0,0-.6.989c-.155.25-.274.465-.381.632s-.137.22-.149.214a1.573,1.573,0,0,1,.1-.238l.334-.661a8.983,8.983,0,0,1,.6-1.019,13.533,13.533,0,0,1,.882-1.281,14.776,14.776,0,0,1,1.192-1.448,18.734,18.734,0,0,1,1.531-1.525,24.823,24.823,0,0,1,4.063-2.848,28.6,28.6,0,0,1,4.546-1.972c.733-.214,1.418-.447,2.085-.6l.953-.226.894-.161c.6-.113,1.084-.167,1.537-.215l.638-.077h.53l.745-.036A.858.858,0,0,1,96.1,397.777Z" transform="translate(-44.316 -335.39)"/><path class="f" d="M104.228,337.38a3.825,3.825,0,0,1-.512.495l-1.46,1.263c-1.245,1.066-2.979,2.514-4.892,4.105s-3.664,3.021-4.939,4.04l-1.519,1.192a3.457,3.457,0,0,1-.6.411,3.43,3.43,0,0,1,.512-.494l1.466-1.269c1.239-1.06,2.979-2.514,4.886-4.105s3.664-3.015,4.939-4.04l1.513-1.192a3.62,3.62,0,0,1,.6-.405Z" transform="translate(-50.415 -310.98)"/><path class="f" d="M105.238,353.146c0,.072-3.712,1.233-8.341,2.6s-8.383,2.413-8.407,2.341,3.712-1.233,8.341-2.6S105.214,353.057,105.238,353.146Z" transform="translate(-49.679 -317.351)"/><path class="f" d="M86.619,337.864a2.906,2.906,0,0,1-.387-.536l-.983-1.5c-.834-1.263-2.014-2.979-3.414-4.814s-2.753-3.426-3.742-4.57L76.9,325.1a3.4,3.4,0,0,1-.411-.512,2.91,2.91,0,0,1,.489.441c.3.3.733.739,1.245,1.293,1.037,1.108,2.383,2.687,3.819,4.528a52.117,52.117,0,0,1,3.36,4.874c.4.649.709,1.192.912,1.549a2.753,2.753,0,0,1,.3.59Z" transform="translate(-44.829 -305.81)"/><path class="f" d="M67.912,355.62a13.586,13.586,0,0,1-.876,1.418c-.56.876-1.317,2.1-2.1,3.473s-1.442,2.645-1.913,3.575a11.827,11.827,0,0,1-.786,1.49,8.646,8.646,0,0,1,.6-1.567c.429-.953,1.061-2.246,1.847-3.628s1.585-2.58,2.181-3.426A9.18,9.18,0,0,1,67.912,355.62Z" transform="translate(-39.069 -318.353)"/><path class="f" d="M55.3,379.733a19.7,19.7,0,0,1-1.895-.834c-1.192-.524-2.788-1.192-4.629-1.853s-3.533-1.12-4.766-1.436-2.008-.489-2-.53a2.38,2.38,0,0,1,.554.06c.357.054.87.149,1.5.286a41.6,41.6,0,0,1,9.438,3.3c.6.286,1.031.53,1.341.709a2.856,2.856,0,0,1,.465.3Z" transform="translate(-30.892 -326.218)"/><path class="f" d="M55.336,415.5a1.676,1.676,0,0,1-.226.077l-.673.173-2.479.6a79.888,79.888,0,0,0-8.1,2.139A36.1,36.1,0,0,0,36.3,422.06c-.906.6-1.609,1.078-2.079,1.448a7.238,7.238,0,0,1-.751.554,1.513,1.513,0,0,1,.167-.179c.119-.113.28-.268.512-.459a21.77,21.77,0,0,1,2.02-1.573,32.987,32.987,0,0,1,7.6-3.67,67.66,67.66,0,0,1,8.145-2.073l2.5-.489A6.849,6.849,0,0,1,55.336,415.5Z" transform="translate(-27.44 -342.556)"/><path class="f" d="M90.169,415.585c-.071,0-.518-2.6-.989-5.845s-.8-5.869-.727-5.88.518,2.6.995,5.845S90.247,415.573,90.169,415.585Z" transform="translate(-49.661 -337.851)"/><path class="f" d="M107.9,409.026a13.7,13.7,0,0,1-1.192-1.4c-.715-.888-1.7-2.1-2.806-3.426s-2.145-2.5-2.89-3.354a12.726,12.726,0,0,1-1.192-1.406,1.907,1.907,0,0,1,.375.322c.226.22.554.548.947.953.781.822,1.841,1.984,2.979,3.313s2.073,2.562,2.747,3.479c.34.459.6.834.781,1.1A1.842,1.842,0,0,1,107.9,409.026Z" transform="translate(-54.259 -336.064)"/><path class="e" d="M55.06,435.98v6.488h1.621l5.767,18.2H75.24l5.583-18.023,2.163-.179V435.98Z" transform="translate(-36.167 -350.834)"/><path class="f" d="M83.006,447.077c0,.072-5.648.137-12.613.137s-12.613-.066-12.613-.137,5.648-.137,12.613-.137S83.006,446.976,83.006,447.077Z" transform="translate(-37.266 -355.264)"/><path class="f" d="M101.728,377.12a5.552,5.552,0,0,1-.822.22l-2.246.542c-1.889.471-4.486,1.192-7.3,2.127s-5.321,1.954-7.108,2.723l-2.121.923a5.793,5.793,0,0,1-.786.322,4.828,4.828,0,0,1,.745-.417c.483-.25,1.192-.6,2.079-1.007a73.285,73.285,0,0,1,7.1-2.8,71.864,71.864,0,0,1,7.352-2.056c.953-.215,1.728-.369,2.27-.459A4.927,4.927,0,0,1,101.728,377.12Z" transform="translate(-46.789 -327.043)"/><path class="c" d="M81,464.041c0,.078-3.962.137-8.848.137s-8.848-.06-8.848-.137,3.962-.131,8.848-.131S81,463.964,81,464.041Z" transform="translate(-39.498 -362.123)"/><path class="c" d="M81.106,461.517c0,.071-4.171.137-9.378.137s-9.378-.065-9.378-.137,4.171-.137,9.378-.137S81.106,461.44,81.106,461.517Z" transform="translate(-39.114 -361.1)"/></g><g transform="translate(0.06 262.436)"><path class="f" d="M442.359,477.315c0,.083-93.785.155-209.443.155S23.45,477.4,23.45,477.315s93.762-.155,209.467-.155S442.359,477.225,442.359,477.315Z" transform="translate(-23.45 -477.16)"/></g></g></g></svg>