<svg width="19" height="16" viewBox="0 0 19 16" fill="none" xmlns="http://www.w3.org/2000/svg">
<g clip-path="url(#clip0_11706_62084)">
<path d="M12.9949 1C13.2959 1 13.5846 1.10536 13.7974 1.29289C14.0103 1.48043 14.1299 1.73478 14.1299 2V14C14.1299 14.2652 14.0103 14.5196 13.7974 14.7071C13.5846 14.8946 13.2959 15 12.9949 15H6.185C5.88399 15 5.5953 14.8946 5.38245 14.7071C5.1696 14.5196 5.05002 14.2652 5.05002 14V2C5.05002 1.73478 5.1696 1.48043 5.38245 1.29289C5.5953 1.10536 5.88399 1 6.185 1H12.9949ZM6.185 0C5.58297 0 5.0056 0.210714 4.5799 0.585786C4.15419 0.960859 3.91504 1.46957 3.91504 2V14C3.91504 14.5304 4.15419 15.0391 4.5799 15.4142C5.0056 15.7893 5.58297 16 6.185 16H12.9949C13.5969 16 14.1743 15.7893 14.6 15.4142C15.0257 15.0391 15.2648 14.5304 15.2648 14V2C15.2648 1.46957 15.0257 0.960859 14.6 0.585786C14.1743 0.210714 13.5969 0 12.9949 0L6.185 0Z" fill="#2C7BE5"/>
<path d="M9.59006 14C9.89107 14 10.1798 13.8946 10.3926 13.7071C10.6055 13.5196 10.725 13.2652 10.725 13C10.725 12.7348 10.6055 12.4804 10.3926 12.2929C10.1798 12.1054 9.89107 12 9.59006 12C9.28904 12 9.00036 12.1054 8.78751 12.2929C8.57466 12.4804 8.45508 12.7348 8.45508 13C8.45508 13.2652 8.57466 13.5196 8.78751 13.7071C9.00036 13.8946 9.28904 14 9.59006 14Z" fill="#2C7BE5"/>
</g>
<defs>
<clipPath id="clip0_11706_62084">
<rect width="18.1597" height="16" fill="white" transform="translate(0.509766)"/>
</clipPath>
</defs>
</svg>
