<svg width="144" height="139" viewBox="0 0 144 139" fill="none" xmlns="http://www.w3.org/2000/svg">
<g clip-path="url(#clip0)">
<path d="M6.71338 0H124.196V102.378H6.81444L6.71338 0Z" fill="#608E57"/>
<path d="M0 24.488V123.154C0 127.95 3.87723 130.603 8.67287 130.603H121.93C126.726 130.603 130.603 127.95 130.603 123.154V24.488C130.603 24.5901 0.102073 24.488 0 24.488ZM18.366 8.26457L6.12207 0V20.4066H18.3662L18.366 8.26457ZM124.481 0L112.237 8.16276V20.4066H124.481V0Z" fill="#7CCE6D"/>
<path d="M18.468 24.6411V8.31555L0 24.6411H18.468ZM112.339 8.31555V24.6408H130.909L112.339 8.31555Z" fill="#608E57"/>
<path d="M29.0797 48.1086C26.0188 48.1086 23.4678 50.6594 23.4678 53.7206C23.4678 56.7818 25.9165 59.3326 29.0797 59.3326C32.1406 59.3326 34.6917 56.7818 34.6917 53.7206C34.7938 50.6597 32.2427 48.1086 29.0797 48.1086ZM97.4422 48.1086C94.3813 48.1086 91.8302 50.6594 91.8302 53.7206C91.8302 56.7818 94.279 59.3326 97.4422 59.3326C100.503 59.3326 103.054 56.7818 103.054 53.7206C103.156 50.6597 100.605 48.1086 97.4422 48.1086Z" fill="#608E57"/>
<path d="M63.363 95.0443C43.0585 95.0443 26.6309 77.0864 26.6309 54.945C26.6309 53.4144 27.7531 52.1901 29.1817 52.1901C30.6102 52.1901 31.7325 53.4144 31.7325 54.945C31.7325 74.0252 45.9152 89.4323 63.3628 89.4323C80.8103 89.4323 94.9931 73.9231 94.9931 54.945C94.9931 53.4144 96.1154 52.1901 97.5439 52.1901C98.9724 52.1901 100.095 53.4144 100.095 54.945C100.095 77.0864 83.5658 95.0443 63.363 95.0443Z" fill="#608E57"/>
<path d="M63.5852 91.7189C43.2806 91.7189 26.853 75.0875 26.853 54.5788C26.853 53.1502 27.9753 52.028 29.4038 52.028C30.8323 52.028 31.9546 53.1502 31.9546 54.5788C31.9546 72.2304 46.1374 86.6174 63.5849 86.6174C81.0325 86.6174 95.2152 72.2307 95.2152 54.5788C95.2152 53.1502 96.3375 52.028 97.766 52.028C99.1945 52.028 100.317 53.1502 100.317 54.5788C100.317 75.0877 83.7879 91.7189 63.5852 91.7189Z" fill="white"/>
</g>
<g clip-path="url(#clip1)">
<path d="M123.311 104.952C121.615 105.372 119.841 105.372 118.144 104.952C109.31 102.767 101.913 103.605 101.999 120.263C102.042 128.797 110.034 139.861 118.432 137.968C119.943 137.629 121.511 137.629 123.022 137.968C131.421 139.861 139.412 128.797 139.456 120.263C139.541 103.606 132.145 102.767 123.311 104.952Z" fill="#D13834"/>
<path d="M106.105 116.008C105.888 116.008 105.679 115.921 105.525 115.767C105.371 115.613 105.284 115.404 105.284 115.186C105.284 110.658 108.6 106.973 112.676 106.973C112.894 106.973 113.103 107.06 113.257 107.214C113.411 107.368 113.497 107.577 113.497 107.795C113.497 108.012 113.411 108.221 113.257 108.375C113.103 108.529 112.894 108.616 112.676 108.616C109.506 108.616 106.927 111.564 106.927 115.186C106.927 115.404 106.84 115.613 106.686 115.767C106.532 115.921 106.323 116.008 106.105 116.008Z" fill="#F75B57"/>
<path d="M120.668 108.061C120.455 108.061 120.251 107.978 120.098 107.83C119.945 107.681 119.856 107.479 119.849 107.266C119.738 103.791 118.402 99.4272 114.985 97.6047C114.89 97.5539 114.806 97.4849 114.737 97.4015C114.669 97.3181 114.617 97.2221 114.586 97.1189C114.554 97.0157 114.544 96.9073 114.554 96.7999C114.565 96.6925 114.596 96.5883 114.647 96.4931C114.698 96.3979 114.767 96.3137 114.85 96.2452C114.934 96.1767 115.03 96.1253 115.133 96.0939C115.236 96.0625 115.344 96.0517 115.452 96.0623C115.559 96.0728 115.664 96.1043 115.759 96.1551C119.795 98.3069 121.366 103.278 121.491 107.214C121.494 107.322 121.476 107.429 121.438 107.53C121.4 107.631 121.342 107.724 121.269 107.802C121.195 107.881 121.106 107.944 121.008 107.988C120.909 108.033 120.803 108.057 120.696 108.061L120.668 108.061Z" fill="#4C312C"/>
<path d="M120.595 111.012C119.916 111.014 119.244 110.881 118.616 110.621C117.989 110.361 117.419 109.979 116.941 109.497C116.864 109.421 116.804 109.33 116.763 109.231C116.721 109.131 116.7 109.024 116.7 108.917C116.7 108.809 116.721 108.702 116.763 108.602C116.804 108.503 116.864 108.412 116.941 108.336C117.017 108.26 117.107 108.199 117.207 108.158C117.307 108.117 117.414 108.095 117.521 108.095C117.629 108.095 117.736 108.117 117.836 108.158C117.935 108.199 118.026 108.26 118.102 108.336C118.769 109.003 119.655 109.37 120.595 109.37C121.536 109.37 122.422 109.003 123.088 108.336C123.164 108.26 123.255 108.199 123.355 108.158C123.454 108.117 123.561 108.095 123.669 108.095C123.777 108.095 123.883 108.117 123.983 108.158C124.083 108.199 124.173 108.26 124.249 108.336C124.326 108.412 124.386 108.503 124.427 108.602C124.469 108.702 124.49 108.809 124.49 108.917C124.49 109.024 124.469 109.131 124.427 109.231C124.386 109.33 124.326 109.421 124.249 109.497C123.771 109.979 123.202 110.361 122.574 110.621C121.947 110.881 121.275 111.014 120.595 111.012Z" fill="#994530"/>
<path d="M119.88 102.346L120.38 98.9903C120.637 97.2641 121.442 95.6662 122.676 94.4321C123.911 93.198 125.508 92.393 127.235 92.1357L130.59 91.6364L130.089 94.9922C129.832 96.7184 129.027 98.3163 127.793 99.5504C126.559 100.784 124.961 101.589 123.235 101.847L119.88 102.346Z" fill="#659C35"/>
</g>
<defs>
<clipPath id="clip0">
<rect width="130.909" height="130.909" fill="white"/>
</clipPath>
<clipPath id="clip1">
<rect width="46.5455" height="46.5455" fill="white" transform="translate(97.4546 91.6364)"/>
</clipPath>
</defs>
</svg>
