<svg width="60" height="60" viewBox="0 0 60 60" fill="none" xmlns="http://www.w3.org/2000/svg">
<path fill-rule="evenodd" clip-rule="evenodd" d="M52.5525 10.9425C53.325 10.9425 53.955 11.565 53.955 12.33C53.955 13.0963 53.325 13.7175 52.5525 13.7175C51.7775 13.7175 51.1475 13.0963 51.1475 12.33C51.1475 11.565 51.7788 10.9425 52.5525 10.9425ZM52.5525 15.91C54.5487 15.91 56.1737 14.3038 56.1737 12.33C56.1737 10.355 54.5487 8.75 52.5525 8.75C50.5537 8.75 48.9288 10.3563 48.9288 12.33C48.9288 14.305 50.5537 15.91 52.5525 15.91ZM39.235 32.8238L39.8775 27.765H41.3338L41.9775 32.8238H39.235ZM42.3138 25.5737C42.8738 25.5737 43.345 25.985 43.4137 26.5337L44.335 33.7838C44.3548 33.9385 44.3409 34.0957 44.2943 34.2445C44.2477 34.3934 44.1695 34.5304 44.065 34.6462C43.9602 34.7629 43.8321 34.8561 43.6888 34.9199C43.5456 34.9837 43.3905 35.0165 43.2338 35.0163H37.9787C37.8217 35.0163 37.6664 34.9832 37.523 34.9193C37.3795 34.8553 37.2512 34.7618 37.1462 34.645C37.0424 34.5291 36.9646 34.3922 36.9182 34.2436C36.8719 34.095 36.858 33.9382 36.8775 33.7838L37.7975 26.5337C37.8325 26.2671 37.9635 26.0224 38.166 25.8454C38.3685 25.6685 38.6286 25.5714 38.8975 25.5725H42.3138V25.5737ZM54.995 17.695H54.9987C57.755 17.6975 60 19.915 60 22.6413V32.1787C59.9992 32.3237 59.9698 32.4671 59.9136 32.6007C59.8574 32.7343 59.7754 32.8555 59.6723 32.9574C59.5692 33.0593 59.4471 33.1399 59.3129 33.1946C59.1786 33.2493 59.0349 33.2771 58.89 33.2763C58.7452 33.2771 58.6017 33.2494 58.4676 33.1947C58.3335 33.1401 58.2115 33.0596 58.1086 32.9578C58.0056 32.856 57.9237 32.7349 57.8676 32.6014C57.8114 32.468 57.7821 32.3248 57.7812 32.18V22.6413C57.7812 21.1225 56.5312 19.8875 54.9937 19.8875H50.08C48.8225 19.8875 47.7162 20.725 47.39 21.925C47.095 23.0088 46.1662 23.7375 45.0788 23.7375H39.2675C39.1226 23.7383 38.979 23.7106 38.8448 23.6559C38.7107 23.6011 38.5886 23.5205 38.4856 23.4186C38.3827 23.3166 38.3008 23.1954 38.2447 23.0618C38.1886 22.9282 38.1594 22.7849 38.1588 22.64C38.1588 22.035 38.655 21.5438 39.2675 21.5438H45.08C45.1712 21.5438 45.2275 21.4212 45.2462 21.3562C45.8337 19.2 47.8212 17.6937 50.0812 17.6937H54.9937L54.995 17.695ZM54.995 31.0825H50.1062C49.8137 31.0808 49.5325 31.1954 49.3244 31.4009C49.1163 31.6065 48.9982 31.8862 48.9962 32.1787V45.5688C48.9962 46.175 49.4937 46.665 50.1062 46.665C50.7188 46.665 51.215 46.175 51.215 45.5688V33.275H53.885V45.5688C53.885 46.175 54.3812 46.665 54.9937 46.665C55.6062 46.665 56.1037 46.175 56.1037 45.5688V32.1787C56.1018 31.8862 55.9837 31.6065 55.7756 31.4009C55.5675 31.1954 55.2863 31.0808 54.9937 31.0825H54.995ZM30.5137 38.2575C31.3137 38.2575 31.9637 37.615 31.9637 36.825V30.9975C31.9637 30.2075 31.3137 29.565 30.5137 29.565H3.67C2.87 29.565 2.22 30.2075 2.22 30.9975V36.825C2.22 37.615 2.87 38.2588 3.67 38.2588H30.5137V38.2575ZM27.1163 43.76C27.1163 44.1525 26.7925 44.4725 26.395 44.4725C26.2051 44.4732 26.0228 44.3986 25.8878 44.265C25.7528 44.1315 25.6763 43.9499 25.675 43.76V40.45H27.1163V43.7588V43.76ZM8.5075 43.76C8.5075 44.1525 8.18625 44.4725 7.78875 44.4725C7.59867 44.4735 7.41596 44.399 7.28074 44.2654C7.14551 44.1319 7.06882 43.9501 7.0675 43.76V40.45H8.5075V43.7588V43.76ZM10.6012 20.33H23.5812L26.4375 27.37H7.745L10.6012 20.33ZM30.5137 27.3725H28.8288L25.3625 18.825C25.2787 18.6206 25.1357 18.4459 24.952 18.3232C24.7683 18.2005 24.5522 18.1354 24.3312 18.1362H9.85C9.6294 18.1354 9.41356 18.2003 9.23007 18.3228C9.04659 18.4453 8.90381 18.6197 8.82 18.8237L5.35375 27.3713H3.67C1.64625 27.3713 0 28.9963 0 30.9963V36.8237C0 38.8237 1.64625 40.4488 3.67 40.4488H4.84875V43.7588C4.84875 45.36 6.1675 46.6637 7.78875 46.6637C9.40875 46.6637 10.7263 45.36 10.7263 43.7588V40.45H23.4562V43.7588C23.4562 45.36 24.775 46.6637 26.395 46.6637C28.0162 46.6637 29.335 45.36 29.335 43.7588V40.45H30.5137C32.5362 40.45 34.1825 38.8225 34.1825 36.825V30.9963C34.1825 28.9963 32.5362 27.3713 30.5137 27.3713V27.3725ZM26.395 31.7138C25.8086 31.7104 25.2449 31.94 24.8277 32.352C24.4105 32.7641 24.174 33.3249 24.17 33.9112C24.17 35.1237 25.1687 36.1087 26.395 36.1087C27.6212 36.1087 28.62 35.1237 28.62 33.9112C28.62 32.6987 27.6212 31.7138 26.395 31.7138ZM5.5625 33.9112C5.5625 32.6987 6.56125 31.7138 7.7875 31.7138C9.015 31.7138 10.0125 32.6987 10.0125 33.9112C10.0085 34.4976 9.77197 35.0584 9.35477 35.4705C8.93757 35.8825 8.37386 36.1121 7.7875 36.1087C6.56125 36.1087 5.5625 35.1237 5.5625 33.9112Z" fill="#DD0030"/>
</svg>
