<svg width="60" height="38" viewBox="0 0 60 38" fill="none" xmlns="http://www.w3.org/2000/svg">
<g clip-path="url(#clip0)">
<path d="M26.1929 18.4843H20.4457C19.5886 18.4843 18.8986 19.1743 18.8986 20.0314C18.8986 20.8886 19.59 21.5786 20.4457 21.5786H26.1929C27.05 21.5786 27.74 20.8871 27.74 20.0314C27.74 19.1743 27.0486 18.4843 26.1929 18.4843ZM14.7043 29.1571C14.391 29.1571 14.0905 29.2816 13.8689 29.5032C13.6473 29.7247 13.5229 30.0252 13.5229 30.3386C13.5229 30.6519 13.6473 30.9524 13.8689 31.174C14.0905 31.3955 14.391 31.52 14.7043 31.52C15.0176 31.52 15.3181 31.3955 15.5397 31.174C15.7612 30.9524 15.8857 30.6519 15.8857 30.3386C15.8857 30.0252 15.7612 29.7247 15.5397 29.5032C15.3181 29.2816 15.0176 29.1571 14.7043 29.1571ZM45.6886 29.1571C45.3752 29.1571 45.0747 29.2816 44.8532 29.5032C44.6316 29.7247 44.5071 30.0252 44.5071 30.3386C44.5071 30.6519 44.6316 30.9524 44.8532 31.174C45.0747 31.3955 45.3752 31.52 45.6886 31.52C46.0019 31.52 46.3024 31.3955 46.524 31.174C46.7455 30.9524 46.87 30.6519 46.87 30.3386C46.87 30.0252 46.7455 29.7247 46.524 29.5032C46.3024 29.2816 46.0019 29.1571 45.6886 29.1571ZM51.7743 3.24C51.5115 3.24 51.2595 3.34438 51.0737 3.53018C50.888 3.71597 50.7836 3.96796 50.7836 4.23072C50.7836 4.49347 50.888 4.74546 51.0737 4.93126C51.2595 5.11705 51.5115 5.22143 51.7743 5.22143C52.037 5.22143 52.289 5.11705 52.4748 4.93126C52.6606 4.74546 52.765 4.49347 52.765 4.23072C52.765 3.96796 52.6606 3.71597 52.4748 3.53018C52.289 3.34438 52.037 3.24 51.7743 3.24ZM45.9614 3.24C45.8282 3.23494 45.6952 3.25682 45.5706 3.30433C45.446 3.35183 45.3323 3.424 45.2362 3.51649C45.1401 3.60899 45.0637 3.71992 45.0115 3.84264C44.9593 3.96536 44.9324 4.09735 44.9324 4.23072C44.9324 4.36408 44.9593 4.49607 45.0115 4.6188C45.0637 4.74152 45.1401 4.85245 45.2362 4.94494C45.3323 5.03744 45.446 5.1096 45.5706 5.15711C45.6952 5.20461 45.8282 5.22649 45.9614 5.22143C46.2177 5.2117 46.4602 5.10306 46.638 4.91833C46.8159 4.7336 46.9152 4.48715 46.9152 4.23072C46.9152 3.97429 46.8159 3.72783 46.638 3.5431C46.4602 3.35837 46.2177 3.24973 45.9614 3.24ZM48.8714 6.14286C48.6085 6.14286 48.3563 6.24731 48.1704 6.43324C47.9845 6.61917 47.88 6.87135 47.88 7.13429C47.88 7.39723 47.9845 7.64941 48.1704 7.83533C48.3563 8.02126 48.6085 8.12572 48.8714 8.12572C49.1277 8.11598 49.3702 8.00735 49.548 7.82262C49.7259 7.63789 49.8252 7.39143 49.8252 7.135C49.8252 6.87857 49.7259 6.63212 49.548 6.44739C49.3702 6.26266 49.1277 6.15402 48.8714 6.14429V6.14286ZM48.8714 11.9571C48.6085 11.9571 48.3563 12.0616 48.1704 12.2475C47.9845 12.4335 47.88 12.6856 47.88 12.9486C47.88 13.2115 47.9845 13.4637 48.1704 13.6496C48.3563 13.8355 48.6085 13.94 48.8714 13.94C49.1277 13.9303 49.3702 13.8216 49.548 13.6369C49.7259 13.4522 49.8252 13.2057 49.8252 12.9493C49.8252 12.6929 49.7259 12.4464 49.548 12.2617C49.3702 12.0769 49.1277 11.9683 48.8714 11.9586V11.9571ZM54.68 11.9571C54.4171 11.9571 54.1649 12.0616 53.979 12.2475C53.793 12.4335 53.6886 12.6856 53.6886 12.9486C53.6886 13.2115 53.793 13.4637 53.979 13.6496C54.1649 13.8355 54.4171 13.94 54.68 13.94C54.9428 13.94 55.1948 13.8356 55.3805 13.6498C55.5663 13.464 55.6707 13.212 55.6707 12.9493C55.6707 12.6865 55.5663 12.4345 55.3805 12.2487C55.1948 12.063 54.9428 11.9586 54.68 11.9586V11.9571ZM51.7743 9.05429C51.5117 9.05429 51.2599 9.15859 51.0743 9.34425C50.8886 9.52991 50.7843 9.78172 50.7843 10.0443C50.7843 10.3069 50.8886 10.5587 51.0743 10.7443C51.2599 10.93 51.5117 11.0343 51.7743 11.0343C52.0369 11.0343 52.2887 10.93 52.4743 10.7443C52.66 10.5587 52.7643 10.3069 52.7643 10.0443C52.7643 9.78172 52.66 9.52991 52.4743 9.34425C52.2887 9.15859 52.0369 9.05429 51.7743 9.05429ZM45.9614 9.05429C45.8282 9.04923 45.6952 9.0711 45.5706 9.11861C45.446 9.16612 45.3323 9.23828 45.2362 9.33078C45.1401 9.42327 45.0637 9.5342 45.0115 9.65692C44.9593 9.77965 44.9324 9.91164 44.9324 10.045C44.9324 10.1784 44.9593 10.3104 45.0115 10.4331C45.0637 10.5558 45.1401 10.6667 45.2362 10.7592C45.3323 10.8517 45.446 10.9239 45.5706 10.9714C45.6952 11.0189 45.8282 11.0408 45.9614 11.0357C46.2177 11.026 46.4602 10.9173 46.638 10.7326C46.8159 10.5479 46.9152 10.3014 46.9152 10.045C46.9152 9.78857 46.8159 9.54212 46.638 9.35739C46.4602 9.17266 46.2177 9.06402 45.9614 9.05429ZM51.7743 14.8629C51.6442 14.8629 51.5154 14.8885 51.3952 14.9383C51.275 14.9881 51.1657 15.061 51.0737 15.153C50.9818 15.245 50.9088 15.3542 50.859 15.4744C50.8092 15.5946 50.7836 15.7235 50.7836 15.8536C50.7836 15.9837 50.8092 16.1125 50.859 16.2327C50.9088 16.3529 50.9818 16.4621 51.0737 16.5541C51.1657 16.6461 51.275 16.7191 51.3952 16.7689C51.5154 16.8187 51.6442 16.8443 51.7743 16.8443C52.037 16.8443 52.289 16.7399 52.4748 16.5541C52.6606 16.3683 52.765 16.1163 52.765 15.8536C52.765 15.5908 52.6606 15.3388 52.4748 15.153C52.289 14.9672 52.037 14.8629 51.7743 14.8629ZM45.9614 14.8629C45.8313 14.8629 45.7025 14.8885 45.5823 14.9383C45.4621 14.9881 45.3529 15.061 45.2609 15.153C45.1689 15.245 45.0959 15.3542 45.0461 15.4744C44.9963 15.5946 44.9707 15.7235 44.9707 15.8536C44.9707 15.9837 44.9963 16.1125 45.0461 16.2327C45.0959 16.3529 45.1689 16.4621 45.2609 16.5541C45.3529 16.6461 45.4621 16.7191 45.5823 16.7689C45.7025 16.8187 45.8313 16.8443 45.9614 16.8443C46.2242 16.8443 46.4762 16.7399 46.662 16.5541C46.8478 16.3683 46.9521 16.1163 46.9521 15.8536C46.9521 15.5908 46.8478 15.3388 46.662 15.153C46.4762 14.9672 46.2242 14.8629 45.9614 14.8629ZM48.8714 17.7671C48.7382 17.7621 48.6052 17.784 48.4806 17.8315C48.356 17.879 48.2423 17.9511 48.1462 18.0436C48.0501 18.1361 47.9737 18.2471 47.9215 18.3698C47.8693 18.4925 47.8424 18.6245 47.8424 18.7579C47.8424 18.8912 47.8693 19.0232 47.9215 19.1459C47.9737 19.2687 48.0501 19.3796 48.1462 19.4721C48.2423 19.5646 48.356 19.6367 48.4806 19.6842C48.6052 19.7318 48.7382 19.7536 48.8714 19.7486C49.1277 19.7388 49.3702 19.6302 49.548 19.4455C49.7259 19.2607 49.8252 19.0143 49.8252 18.7579C49.8252 18.5014 49.7259 18.255 49.548 18.0702C49.3702 17.8855 49.1277 17.7769 48.8714 17.7671ZM54.68 17.7671C54.5467 17.7621 54.4138 17.784 54.2892 17.8315C54.1646 17.879 54.0508 17.9511 53.9548 18.0436C53.8587 18.1361 53.7823 18.2471 53.7301 18.3698C53.6779 18.4925 53.6509 18.6245 53.6509 18.7579C53.6509 18.8912 53.6779 19.0232 53.7301 19.1459C53.7823 19.2687 53.8587 19.3796 53.9548 19.4721C54.0508 19.5646 54.1646 19.6367 54.2892 19.6842C54.4138 19.7318 54.5467 19.7536 54.68 19.7486C54.9362 19.7388 55.1788 19.6302 55.3566 19.4455C55.5344 19.2607 55.6338 19.0143 55.6338 18.7579C55.6338 18.5014 55.5344 18.255 55.3566 18.0702C55.1788 17.8855 54.9362 17.7769 54.68 17.7671ZM54.68 23.58C54.4173 23.58 54.1653 23.6844 53.9795 23.8702C53.7937 24.056 53.6893 24.308 53.6893 24.5707C53.6893 24.8335 53.7937 25.0855 53.9795 25.2713C54.1653 25.4571 54.4173 25.5614 54.68 25.5614C54.9428 25.5614 55.1948 25.4571 55.3805 25.2713C55.5663 25.0855 55.6707 24.8335 55.6707 24.5707C55.6707 24.308 55.5663 24.056 55.3805 23.8702C55.1948 23.6844 54.9428 23.58 54.68 23.58ZM51.7743 20.6757C51.5115 20.6757 51.2595 20.7801 51.0737 20.9659C50.888 21.1517 50.7836 21.4037 50.7836 21.6664C50.7836 21.9292 50.888 22.1812 51.0737 22.367C51.2595 22.5528 51.5115 22.6571 51.7743 22.6571C52.037 22.6571 52.289 22.5528 52.4748 22.367C52.6606 22.1812 52.765 21.9292 52.765 21.6664C52.765 21.4037 52.6606 21.1517 52.4748 20.9659C52.289 20.7801 52.037 20.6757 51.7743 20.6757ZM45.9614 22.6571C46.2242 22.6571 46.4762 22.5528 46.662 22.367C46.8478 22.1812 46.9521 21.9292 46.9521 21.6664C46.9521 21.4037 46.8478 21.1517 46.662 20.9659C46.4762 20.7801 46.2242 20.6757 45.9614 20.6757C45.6987 20.6757 45.4467 20.7801 45.2609 20.9659C45.0751 21.1517 44.9707 21.4037 44.9707 21.6664C44.9707 21.9292 45.0751 22.1812 45.2609 22.367C45.4467 22.5528 45.6987 22.6571 45.9614 22.6571ZM40.1529 3.24C40.0196 3.23494 39.8867 3.25682 39.7621 3.30433C39.6374 3.35183 39.5237 3.424 39.4276 3.51649C39.3315 3.60899 39.2551 3.71992 39.2029 3.84264C39.1507 3.96536 39.1238 4.09735 39.1238 4.23072C39.1238 4.36408 39.1507 4.49607 39.2029 4.6188C39.2551 4.74152 39.3315 4.85245 39.4276 4.94494C39.5237 5.03744 39.6374 5.1096 39.7621 5.15711C39.8867 5.20461 40.0196 5.22649 40.1529 5.22143C40.4091 5.2117 40.6516 5.10306 40.8295 4.91833C41.0073 4.7336 41.1067 4.48715 41.1067 4.23072C41.1067 3.97429 41.0073 3.72783 40.8295 3.5431C40.6516 3.35837 40.4091 3.24973 40.1529 3.24ZM34.3386 3.24C34.2053 3.23494 34.0724 3.25682 33.9478 3.30433C33.8232 3.35183 33.7094 3.424 33.6133 3.51649C33.5173 3.60899 33.4408 3.71992 33.3886 3.84264C33.3364 3.96536 33.3095 4.09735 33.3095 4.23072C33.3095 4.36408 33.3364 4.49607 33.3886 4.6188C33.4408 4.74152 33.5173 4.85245 33.6133 4.94494C33.7094 5.03744 33.8232 5.1096 33.9478 5.15711C34.0724 5.20461 34.2053 5.22649 34.3386 5.22143C34.5948 5.2117 34.8373 5.10306 35.0152 4.91833C35.193 4.7336 35.2924 4.48715 35.2924 4.23072C35.2924 3.97429 35.193 3.72783 35.0152 3.5431C34.8373 3.35837 34.5948 3.24973 34.3386 3.24ZM37.2486 6.14286C36.9856 6.14286 36.7335 6.24731 36.5475 6.43324C36.3616 6.61917 36.2571 6.87135 36.2571 7.13429C36.2571 7.39723 36.3616 7.64941 36.5475 7.83533C36.7335 8.02126 36.9856 8.12572 37.2486 8.12572C37.5113 8.12572 37.7633 8.02134 37.9491 7.83554C38.1349 7.64975 38.2393 7.39776 38.2393 7.135C38.2393 6.87225 38.1349 6.62026 37.9491 6.43446C37.7633 6.24867 37.5113 6.14429 37.2486 6.14429V6.14286ZM43.0571 8.12572C43.3199 8.12572 43.5719 8.02134 43.7577 7.83554C43.9435 7.64975 44.0479 7.39776 44.0479 7.135C44.0479 6.87225 43.9435 6.62026 43.7577 6.43446C43.5719 6.24867 43.3199 6.14429 43.0571 6.14429C42.7944 6.14429 42.5424 6.24867 42.3566 6.43446C42.1708 6.62026 42.0664 6.87225 42.0664 7.135C42.0664 7.39776 42.1708 7.64975 42.3566 7.83554C42.5424 8.02134 42.7944 8.12572 43.0571 8.12572ZM37.2486 11.9571C36.9856 11.9571 36.7335 12.0616 36.5475 12.2475C36.3616 12.4335 36.2571 12.6856 36.2571 12.9486C36.2571 13.2115 36.3616 13.4637 36.5475 13.6496C36.7335 13.8355 36.9856 13.94 37.2486 13.94C37.5113 13.94 37.7633 13.8356 37.9491 13.6498C38.1349 13.464 38.2393 13.212 38.2393 12.9493C38.2393 12.6865 38.1349 12.4345 37.9491 12.2487C37.7633 12.063 37.5113 11.9586 37.2486 11.9586V11.9571ZM43.0571 11.9571C42.7942 11.9571 42.542 12.0616 42.3561 12.2475C42.1702 12.4335 42.0657 12.6856 42.0657 12.9486C42.0657 13.2115 42.1702 13.4637 42.3561 13.6496C42.542 13.8355 42.7942 13.94 43.0571 13.94C43.3134 13.9303 43.5559 13.8216 43.7337 13.6369C43.9116 13.4522 44.0109 13.2057 44.0109 12.9493C44.0109 12.6929 43.9116 12.4464 43.7337 12.2617C43.5559 12.0769 43.3134 11.9683 43.0571 11.9586V11.9571ZM40.1529 9.05429C40.0196 9.04923 39.8867 9.0711 39.7621 9.11861C39.6374 9.16612 39.5237 9.23828 39.4276 9.33078C39.3315 9.42327 39.2551 9.5342 39.2029 9.65692C39.1507 9.77965 39.1238 9.91164 39.1238 10.045C39.1238 10.1784 39.1507 10.3104 39.2029 10.4331C39.2551 10.5558 39.3315 10.6667 39.4276 10.7592C39.5237 10.8517 39.6374 10.9239 39.7621 10.9714C39.8867 11.0189 40.0196 11.0408 40.1529 11.0357C40.4091 11.026 40.6516 10.9173 40.8295 10.7326C41.0073 10.5479 41.1067 10.3014 41.1067 10.045C41.1067 9.78857 41.0073 9.54212 40.8295 9.35739C40.6516 9.17266 40.4091 9.06402 40.1529 9.05429ZM34.3386 9.05429C34.2053 9.04923 34.0724 9.0711 33.9478 9.11861C33.8232 9.16612 33.7094 9.23828 33.6133 9.33078C33.5173 9.42327 33.4408 9.5342 33.3886 9.65692C33.3364 9.77965 33.3095 9.91164 33.3095 10.045C33.3095 10.1784 33.3364 10.3104 33.3886 10.4331C33.4408 10.5558 33.5173 10.6667 33.6133 10.7592C33.7094 10.8517 33.8232 10.9239 33.9478 10.9714C34.0724 11.0189 34.2053 11.0408 34.3386 11.0357C34.5948 11.026 34.8373 10.9173 35.0152 10.7326C35.193 10.5479 35.2924 10.3014 35.2924 10.045C35.2924 9.78857 35.193 9.54212 35.0152 9.35739C34.8373 9.17266 34.5948 9.06402 34.3386 9.05429ZM40.1529 14.8629C40.0196 14.8578 39.8867 14.8797 39.7621 14.9272C39.6374 14.9747 39.5237 15.0469 39.4276 15.1393C39.3315 15.2318 39.2551 15.3428 39.2029 15.4655C39.1507 15.5882 39.1238 15.7202 39.1238 15.8536C39.1238 15.9869 39.1507 16.1189 39.2029 16.2417C39.2551 16.3644 39.3315 16.4753 39.4276 16.5678C39.5237 16.6603 39.6374 16.7325 39.7621 16.78C39.8867 16.8275 40.0196 16.8493 40.1529 16.8443C40.4091 16.8346 40.6516 16.7259 40.8295 16.5412C41.0073 16.3565 41.1067 16.11 41.1067 15.8536C41.1067 15.5971 41.0073 15.3507 40.8295 15.166C40.6516 14.9812 40.4091 14.8726 40.1529 14.8629ZM34.3386 14.8629C34.2053 14.8578 34.0724 14.8797 33.9478 14.9272C33.8232 14.9747 33.7094 15.0469 33.6133 15.1393C33.5173 15.2318 33.4408 15.3428 33.3886 15.4655C33.3364 15.5882 33.3095 15.7202 33.3095 15.8536C33.3095 15.9869 33.3364 16.1189 33.3886 16.2417C33.4408 16.3644 33.5173 16.4753 33.6133 16.5678C33.7094 16.6603 33.8232 16.7325 33.9478 16.78C34.0724 16.8275 34.2053 16.8493 34.3386 16.8443C34.5948 16.8346 34.8373 16.7259 35.0152 16.5412C35.193 16.3565 35.2924 16.11 35.2924 15.8536C35.2924 15.5971 35.193 15.3507 35.0152 15.166C34.8373 14.9812 34.5948 14.8726 34.3386 14.8629ZM37.2486 17.7671C37.1153 17.7621 36.9824 17.784 36.8578 17.8315C36.7332 17.879 36.6194 17.9511 36.5233 18.0436C36.4273 18.1361 36.3508 18.2471 36.2986 18.3698C36.2464 18.4925 36.2195 18.6245 36.2195 18.7579C36.2195 18.8912 36.2464 19.0232 36.2986 19.1459C36.3508 19.2687 36.4273 19.3796 36.5233 19.4721C36.6194 19.5646 36.7332 19.6367 36.8578 19.6842C36.9824 19.7318 37.1153 19.7536 37.2486 19.7486C37.5048 19.7388 37.7473 19.6302 37.9252 19.4455C38.103 19.2607 38.2024 19.0143 38.2024 18.7579C38.2024 18.5014 38.103 18.255 37.9252 18.0702C37.7473 17.8855 37.5048 17.7769 37.2486 17.7671ZM43.0571 19.7471C43.3197 19.7471 43.5715 19.6428 43.7572 19.4572C43.9428 19.2715 44.0471 19.0197 44.0471 18.7571C44.0471 18.4946 43.9428 18.2428 43.7572 18.0571C43.5715 17.8714 43.3197 17.7671 43.0571 17.7671C42.7946 17.7671 42.5428 17.8714 42.3571 18.0571C42.1714 18.2428 42.0671 18.4946 42.0671 18.7571C42.0671 19.0197 42.1714 19.2715 42.3571 19.4572C42.5428 19.6428 42.7946 19.7471 43.0571 19.7471ZM37.2486 23.58C36.9858 23.58 36.7338 23.6844 36.548 23.8702C36.3622 24.056 36.2579 24.308 36.2579 24.5707C36.2579 24.8335 36.3622 25.0855 36.548 25.2713C36.7338 25.4571 36.9858 25.5614 37.2486 25.5614C37.5113 25.5614 37.7633 25.4571 37.9491 25.2713C38.1349 25.0855 38.2393 24.8335 38.2393 24.5707C38.2393 24.308 38.1349 24.056 37.9491 23.8702C37.7633 23.6844 37.5113 23.58 37.2486 23.58ZM40.1529 20.6757C40.0196 20.6707 39.8867 20.6925 39.7621 20.74C39.6374 20.7875 39.5237 20.8597 39.4276 20.9522C39.3315 21.0447 39.2551 21.1556 39.2029 21.2784C39.1507 21.4011 39.1238 21.5331 39.1238 21.6664C39.1238 21.7998 39.1507 21.9318 39.2029 22.0545C39.2551 22.1772 39.3315 22.2882 39.4276 22.3807C39.5237 22.4732 39.6374 22.5453 39.7621 22.5928C39.8867 22.6403 40.0196 22.6622 40.1529 22.6571C40.4091 22.6474 40.6516 22.5388 40.8295 22.354C41.0073 22.1693 41.1067 21.9229 41.1067 21.6664C41.1067 21.41 41.0073 21.1635 40.8295 20.9788C40.6516 20.7941 40.4091 20.6854 40.1529 20.6757ZM34.3386 20.6757C34.2053 20.6707 34.0724 20.6925 33.9478 20.74C33.8232 20.7875 33.7094 20.8597 33.6133 20.9522C33.5173 21.0447 33.4408 21.1556 33.3886 21.2784C33.3364 21.4011 33.3095 21.5331 33.3095 21.6664C33.3095 21.7998 33.3364 21.9318 33.3886 22.0545C33.4408 22.1772 33.5173 22.2882 33.6133 22.3807C33.7094 22.4732 33.8232 22.5453 33.9478 22.5928C34.0724 22.6403 34.2053 22.6622 34.3386 22.6571C34.5948 22.6474 34.8373 22.5388 35.0152 22.354C35.193 22.1693 35.2924 21.9229 35.2924 21.6664C35.2924 21.41 35.193 21.1635 35.0152 20.9788C34.8373 20.7941 34.5948 20.6854 34.3386 20.6757ZM34.3386 26.4857C34.2053 26.4807 34.0724 26.5025 33.9478 26.55C33.8232 26.5975 33.7094 26.6697 33.6133 26.7622C33.5173 26.8547 33.4408 26.9656 33.3886 27.0884C33.3364 27.2111 33.3095 27.3431 33.3095 27.4764C33.3095 27.6098 33.3364 27.7418 33.3886 27.8645C33.4408 27.9872 33.5173 28.0982 33.6133 28.1907C33.7094 28.2831 33.8232 28.3553 33.9478 28.4028C34.0724 28.4503 34.2053 28.4722 34.3386 28.4671C34.6015 28.4671 34.8537 28.3627 35.0396 28.1768C35.2255 27.9908 35.33 27.7387 35.33 27.4757C35.33 27.2128 35.2255 26.9606 35.0396 26.7747C34.8537 26.5887 34.6015 26.4843 34.3386 26.4843V26.4857ZM31.4343 8.12572C31.697 8.12572 31.949 8.02134 32.1348 7.83554C32.3206 7.64975 32.425 7.39776 32.425 7.135C32.425 6.87225 32.3206 6.62026 32.1348 6.43446C31.949 6.24867 31.697 6.14429 31.4343 6.14429C31.1715 6.14429 30.9195 6.24867 30.7337 6.43446C30.548 6.62026 30.4436 6.87225 30.4436 7.135C30.4436 7.39776 30.548 7.64975 30.7337 7.83554C30.9195 8.02134 31.1715 8.12572 31.4343 8.12572ZM31.4343 11.9571C31.1713 11.9571 30.9192 12.0616 30.7332 12.2475C30.5473 12.4335 30.4429 12.6856 30.4429 12.9486C30.4429 13.2115 30.5473 13.4637 30.7332 13.6496C30.9192 13.8355 31.1713 13.94 31.4343 13.94C31.6905 13.9303 31.933 13.8216 32.1109 13.6369C32.2887 13.4522 32.3881 13.2057 32.3881 12.9493C32.3881 12.6929 32.2887 12.4464 32.1109 12.2617C31.933 12.0769 31.6905 11.9683 31.4343 11.9586V11.9571ZM31.4343 19.7471C31.5643 19.7471 31.693 19.7215 31.8131 19.6718C31.9333 19.622 32.0424 19.5491 32.1343 19.4572C32.2263 19.3652 32.2992 19.2561 32.3489 19.136C32.3987 19.0159 32.4243 18.8872 32.4243 18.7571C32.4243 18.6271 32.3987 18.4984 32.3489 18.3783C32.2992 18.2582 32.2263 18.149 32.1343 18.0571C32.0424 17.9652 31.9333 17.8923 31.8131 17.8425C31.693 17.7928 31.5643 17.7671 31.4343 17.7671C31.1717 17.7671 30.9199 17.8714 30.7343 18.0571C30.5486 18.2428 30.4443 18.4946 30.4443 18.7571C30.4443 19.0197 30.5486 19.2715 30.7343 19.4572C30.9199 19.6428 31.1717 19.7471 31.4343 19.7471ZM31.4343 23.58C31.3041 23.58 31.1752 23.6056 31.0549 23.6555C30.9346 23.7053 30.8253 23.7783 30.7332 23.8704C30.6412 23.9624 30.5681 24.0717 30.5183 24.192C30.4685 24.3123 30.4429 24.4412 30.4429 24.5714C30.4429 24.7016 30.4685 24.8305 30.5183 24.9508C30.5681 25.0711 30.6412 25.1804 30.7332 25.2725C30.8253 25.3645 30.9346 25.4376 31.0549 25.4874C31.1752 25.5372 31.3041 25.5629 31.4343 25.5629C31.6905 25.5531 31.933 25.4445 32.1109 25.2598C32.2887 25.075 32.3881 24.8286 32.3881 24.5721C32.3881 24.3157 32.2887 24.0693 32.1109 23.8845C31.933 23.6998 31.6905 23.5912 31.4343 23.5814V23.58Z" fill="#DD0030"/>
<path d="M55.4786 0.675717C55.3645 0.475476 55.1995 0.308962 55.0003 0.193054C54.8011 0.077147 54.5748 0.0159671 54.3443 0.0157166H22.2857C21.0772 0.0195497 19.8899 0.333033 18.837 0.92625C17.7841 1.51947 16.9008 2.37262 16.2714 3.40429L10.6757 12.66L4.44858 14.8571C3.43707 15.2164 2.56144 15.8798 1.94174 16.7563C1.32204 17.6327 0.988608 18.6794 0.987152 19.7529V30.3957C0.987152 31.1171 1.57001 31.7 2.29287 31.7H8.10715C8.40869 33.2285 9.2311 34.6051 10.4341 35.595C11.6372 36.585 13.1463 37.127 14.7043 37.1286C16.2628 37.1284 17.7729 36.5869 18.9764 35.5968C20.18 34.6066 21.0023 33.2292 21.3029 31.7H39.08C39.1514 32.0671 39.26 32.4229 39.3886 32.7686L39.42 32.8614C39.5697 33.2309 39.7488 33.5878 39.9557 33.9286C40.1288 34.216 40.3257 34.4884 40.5443 34.7429L40.6429 34.8529C40.8586 35.1 41.0914 35.3271 41.3386 35.5386C41.36 35.5529 41.3743 35.5743 41.3957 35.59C41.6529 35.8014 41.9272 35.9871 42.21 36.1614C42.604 36.4016 43.0226 36.5989 43.4586 36.75C43.7686 36.8586 44.0943 36.9514 44.4243 37.0143C44.4814 37.0243 44.5314 37.0286 44.5886 37.04C44.94 37.0971 45.3014 37.1371 45.6729 37.1371H45.6929C46.0643 37.1371 46.4214 37.1014 46.7757 37.04C46.8329 37.03 46.89 37.0243 46.9414 37.0143C47.2686 36.9494 47.5909 36.8615 47.9057 36.7514L48.1072 36.6786C48.409 36.5621 48.7022 36.4241 48.9843 36.2657C49.0414 36.2357 49.0986 36.1986 49.1557 36.1629C49.4386 35.9914 49.7129 35.8057 49.97 35.5957C49.99 35.58 50.0057 35.5586 50.0272 35.5443C50.2743 35.3329 50.5057 35.1057 50.7229 34.8586C50.7543 34.8214 50.79 34.7857 50.8214 34.75C51.0362 34.4923 51.2324 34.2197 51.4086 33.9343C51.4343 33.8871 51.4657 33.8457 51.4914 33.8C51.6844 33.4746 51.8484 33.1328 51.9814 32.7786C52.1137 32.4334 52.2174 32.0779 52.2914 31.7157H55.8657C56.4486 31.7157 56.9657 31.33 57.1243 30.7671C60.1586 20.0629 59.4814 7.69143 55.4786 0.675717ZM18.5114 4.76143C18.9068 4.11248 19.4621 3.57585 20.1242 3.20291C20.7862 2.82997 21.533 2.6332 22.2929 2.63143H27.0186V12.3971H13.89L18.5114 4.76143ZM14.71 34.5114C13.6187 34.5103 12.5723 34.0764 11.8005 33.3048C11.0287 32.5332 10.5944 31.4871 10.5929 30.3957C10.594 29.3041 11.0281 28.2576 11.8 27.4857C12.5719 26.7138 13.6184 26.2797 14.71 26.2786C15.8013 26.2801 16.8475 26.7144 17.6191 27.4862C18.3907 28.258 18.8246 29.3044 18.8257 30.3957C18.8242 31.4868 18.3901 32.5328 17.6186 33.3043C16.8471 34.0758 15.8011 34.5099 14.71 34.5114ZM45.6872 34.5114C44.5961 34.5099 43.5501 34.0758 42.7786 33.3043C42.0071 32.5328 41.573 31.4868 41.5714 30.3957C41.5714 29.9357 41.6643 29.5029 41.8029 29.09C42.0745 28.2735 42.5957 27.5629 43.2929 27.0585C43.9901 26.554 44.8281 26.2812 45.6886 26.2786C47.4986 26.2786 49.0257 27.46 49.5729 29.09C49.7114 29.5029 49.8043 29.9357 49.8043 30.3957C49.8028 31.4871 49.3685 32.5332 48.5967 33.3048C47.8248 34.0764 46.7785 34.5103 45.6872 34.5114ZM56.3657 16.8229C56.3657 17.4414 56.3614 18.0657 56.34 18.6943C56.34 18.7671 56.34 18.84 56.3357 18.9114C56.3357 18.9114 56.33 18.9114 56.33 18.9071C56.31 19.4071 56.2943 19.9071 56.2586 20.4129V20.4186C56.0579 23.3372 55.6087 26.2334 54.9157 29.0757H54.8757C54.8757 29.08 54.8757 29.0843 54.87 29.09H52.2757C52.23 28.8565 52.1713 28.6256 52.1 28.3986C52.2919 28.3318 52.4584 28.2073 52.5766 28.042C52.6948 27.8767 52.7589 27.6789 52.76 27.4757C52.76 27.213 52.6558 26.9611 52.4701 26.7752C52.2845 26.5893 52.0327 26.4847 51.77 26.4843C51.5811 26.4889 51.398 26.5501 51.2443 26.66C50.8322 26.0363 50.3173 25.4871 49.7214 25.0357C49.8053 24.895 49.8515 24.7352 49.8557 24.5714C49.8557 24.3087 49.7515 24.0568 49.5659 23.8709C49.3802 23.685 49.1284 23.5804 48.8657 23.58C48.4943 23.58 48.18 23.7971 48.0086 24.1014C47.3437 23.8556 46.6441 23.7163 45.9357 23.6886C45.94 23.6886 45.9457 23.6843 45.95 23.6786C45.8586 23.6729 45.77 23.6643 45.6786 23.6643C45.5843 23.6643 45.4972 23.6729 45.4043 23.6786C45.4086 23.6786 45.4143 23.6843 45.4243 23.6886C44.8629 23.71 44.3257 23.8171 43.81 23.9671C43.721 23.8483 43.6057 23.7516 43.4731 23.6847C43.3405 23.6178 43.1942 23.5824 43.0457 23.5814C42.7833 23.5818 42.5317 23.6862 42.3461 23.8718C42.1605 24.0574 42.0561 24.309 42.0557 24.5714C42.0557 24.6329 42.0814 24.6857 42.0929 24.7471C41.3609 25.2063 40.7249 25.8031 40.22 26.5043C40.1943 26.5043 40.1672 26.49 40.1414 26.49C40.0114 26.49 39.8827 26.5156 39.7626 26.5654C39.6425 26.6151 39.5333 26.688 39.4414 26.78C39.3495 26.8719 39.2766 26.981 39.2268 27.1011C39.177 27.2213 39.1514 27.35 39.1514 27.48C39.1564 27.7079 39.2402 27.927 39.3886 28.1C39.3686 28.1614 39.3372 28.2143 39.3172 28.2743C39.3114 28.27 39.3072 28.27 39.3014 28.27C39.2167 28.5411 39.1475 28.8168 39.0943 29.0957H21.3072C21.0049 27.5676 20.1822 26.1915 18.9794 25.2017C17.7765 24.2119 16.2678 23.6696 14.71 23.6671C13.1518 23.6677 11.642 24.2084 10.4378 25.1972C9.23359 26.186 8.40943 27.5617 8.10572 29.09H3.59715V19.7529C3.59715 18.6643 4.28858 17.6843 5.31572 17.3186L11.8672 15.0071H28.3129C28.4844 15.0075 28.6544 14.974 28.813 14.9085C28.9716 14.843 29.1157 14.7469 29.237 14.6256C29.3583 14.5042 29.4545 14.3601 29.52 14.2016C29.5854 14.043 29.619 13.873 29.6186 13.7014V2.63H53.7829C54.2614 3.74 54.68 4.94143 55.03 6.22143C54.9165 6.17702 54.7961 6.15284 54.6743 6.15C54.4117 6.15 54.1599 6.25431 53.9743 6.43997C53.7886 6.62563 53.6843 6.87744 53.6843 7.14C53.6843 7.40257 53.7886 7.65438 53.9743 7.84004C54.1599 8.0257 54.4117 8.13 54.6743 8.13C54.9743 8.13 55.2314 7.99143 55.4114 7.78C55.85 9.76 56.1443 11.8857 56.2729 14.0986C56.32 14.8671 56.3514 15.6471 56.3614 16.43C56.3714 16.5586 56.3657 16.6886 56.3657 16.8229Z" fill="#DD0030"/>
</g>
<defs>
<clipPath id="clip0">
<rect width="60" height="37.1429" fill="white"/>
</clipPath>
</defs>
</svg>
