<svg width="40" height="45" viewBox="0 0 40 45" fill="none" xmlns="http://www.w3.org/2000/svg">
<g clip-path="url(#clip0)">
<path d="M27.7867 27.9022H12.2333V24.3822C12.236 23.7129 12.5041 23.0719 12.9789 22.6001C13.4536 22.1283 14.0962 21.8641 14.7656 21.8656H18.77C19.4395 21.8638 20.0824 22.1278 20.5574 22.5997C21.0324 23.0716 21.3007 23.7127 21.3033 24.3822C21.3033 25.1056 21.89 25.6889 22.6167 25.6889H34.1933C34.92 25.6889 35.5067 25.1056 35.5067 24.3822C35.5067 23.66 34.92 23.0756 34.1933 23.0756H23.7644C23.4694 21.9787 22.8211 21.0097 21.9199 20.3183C21.0186 19.627 19.9147 19.2519 18.7789 19.2511H14.7744C11.9267 19.2511 9.61333 21.5511 9.61333 24.3822V27.9022H6.3V7.84H26.4733V19.1122C26.4733 19.8344 27.06 20.4189 27.7867 20.4189C28.5144 20.4189 29.1011 19.8356 29.1011 19.1122V7.84H31.4589C32.1867 7.84 32.7733 7.25667 32.7733 6.53333V1.30667C32.7733 0.584444 32.1867 0 31.4589 0H1.31444C0.586667 0 0 0.583333 0 1.30667V6.53333C0 7.25556 0.586667 7.84 1.31444 7.84H3.67111V43.1378C3.67111 43.86 4.25889 44.4444 4.98556 44.4444H27.7867C28.5144 44.4444 29.1011 43.8611 29.1011 43.1378V29.2C29.1011 28.4856 28.5144 27.9022 27.7867 27.9022ZM2.62889 5.22667V2.61333H30.1444V5.22667H2.62889ZM23.5111 41.84C23.42 41.6829 23.2897 41.5522 23.1329 41.4606C22.9761 41.3691 22.7982 41.3199 22.6167 41.3178C22.4353 41.3201 22.2576 41.3694 22.101 41.4609C21.9444 41.5525 21.8143 41.6831 21.7233 41.84H17.29C17.1989 41.6829 17.0686 41.5522 16.9118 41.4606C16.755 41.3691 16.5771 41.3199 16.3956 41.3178C16.214 41.3199 16.0361 41.3691 15.8793 41.4606C15.7225 41.5522 15.5922 41.6829 15.5011 41.84H11.0678C10.9767 41.6829 10.8464 41.5522 10.6896 41.4606C10.5328 41.3691 10.3549 41.3199 10.1733 41.3178C9.99196 41.3201 9.81429 41.3694 9.6577 41.4609C9.50111 41.5525 9.37097 41.6831 9.28 41.84H6.3V40.0189C6.49333 40.2111 6.75556 40.3244 7.04444 40.3244C7.18699 40.331 7.32938 40.3086 7.46301 40.2585C7.59665 40.2085 7.71875 40.1319 7.82193 40.0333C7.92512 39.9348 8.00726 39.8163 8.06337 39.6851C8.11949 39.5539 8.14842 39.4127 8.14842 39.27C8.14842 39.1273 8.11949 38.9861 8.06337 38.8549C8.00726 38.7237 7.92512 38.6052 7.82193 38.5067C7.71875 38.4081 7.59665 38.3315 7.46301 38.2815C7.32938 38.2314 7.18699 38.209 7.04444 38.2156C6.75556 38.2156 6.49333 38.3378 6.3 38.5211V33.8256C6.49333 34.0167 6.75556 34.13 7.04444 34.13C7.18783 34.1381 7.33135 34.1168 7.46623 34.0675C7.60111 34.0182 7.7245 33.9418 7.82886 33.8432C7.93322 33.7445 8.01636 33.6256 8.07317 33.4937C8.12999 33.3618 8.15929 33.2197 8.15929 33.0761C8.15929 32.9325 8.12999 32.7904 8.07317 32.6585C8.01636 32.5266 7.93322 32.4077 7.82886 32.309C7.7245 32.2104 7.60111 32.1341 7.46623 32.0847C7.33135 32.0354 7.18783 32.0142 7.04444 32.0222C6.75556 32.0222 6.49333 32.1444 6.3 32.3267V30.5067H9.26222C9.44667 30.8111 9.77111 31.0289 10.1567 31.0289C10.338 31.0266 10.5157 30.9773 10.6723 30.8857C10.8289 30.7942 10.959 30.6636 11.05 30.5067H15.4833C15.6678 30.8111 15.9922 31.0289 16.3778 31.0289C16.5591 31.0266 16.7368 30.9773 16.8934 30.8857C17.05 30.7942 17.1801 30.6636 17.2711 30.5067H21.7056C21.89 30.8111 22.2144 31.0289 22.6 31.0289C22.7814 31.0266 22.959 30.9773 23.1156 30.8857C23.2722 30.7942 23.4024 30.6636 23.4933 30.5067H26.4556V32.3278C26.3577 32.2303 26.2416 32.1532 26.1138 32.1008C25.986 32.0483 25.8492 32.0216 25.7111 32.0222C25.5677 32.0142 25.4242 32.0354 25.2893 32.0847C25.1544 32.1341 25.0311 32.2104 24.9267 32.309C24.8223 32.4077 24.7392 32.5266 24.6824 32.6585C24.6256 32.7904 24.5963 32.9325 24.5963 33.0761C24.5963 33.2197 24.6256 33.3618 24.6824 33.4937C24.7392 33.6256 24.8223 33.7445 24.9267 33.8432C25.0311 33.9418 25.1544 34.0182 25.2893 34.0675C25.4242 34.1168 25.5677 34.1381 25.7111 34.13C26 34.13 26.2622 34.0078 26.4556 33.8256V38.5211C26.3577 38.4237 26.2416 38.3465 26.1138 38.2941C25.986 38.2417 25.8492 38.215 25.7111 38.2156C25.5686 38.209 25.4262 38.2314 25.2925 38.2815C25.1589 38.3315 25.0368 38.4081 24.9336 38.5067C24.8304 38.6052 24.7483 38.7237 24.6922 38.8549C24.6361 38.9861 24.6071 39.1273 24.6071 39.27C24.6071 39.4127 24.6361 39.5539 24.6922 39.6851C24.7483 39.8163 24.8304 39.9348 24.9336 40.0333C25.0368 40.1319 25.1589 40.2085 25.2925 40.2585C25.4262 40.3086 25.5686 40.331 25.7111 40.3244C26 40.3244 26.2622 40.2022 26.4556 40.0189V41.84H23.5111Z" fill="#DD0030"/>
<path d="M12.3022 13.8678C12.3022 16.3167 14.3 18.3022 16.7622 18.3022C19.2244 18.3022 21.2222 16.3078 21.2222 13.8689C21.2222 11.4289 19.2244 9.43445 16.7622 9.43445C14.3 9.43445 12.3022 11.42 12.3022 13.8678ZM18.6022 13.8678C18.6022 14.3536 18.4092 14.8195 18.0657 15.163C17.7222 15.5065 17.2563 15.6994 16.7706 15.6994C16.2848 15.6994 15.8189 15.5065 15.4754 15.163C15.1319 14.8195 14.9389 14.3536 14.9389 13.8678C14.9389 13.382 15.1319 12.9161 15.4754 12.5726C15.8189 12.2291 16.2848 12.0361 16.7706 12.0361C17.2563 12.0361 17.7222 12.2291 18.0657 12.5726C18.4092 12.9161 18.6022 13.382 18.6022 13.8678ZM39.9933 36.8311L38.9778 27.3267C38.9426 27.0051 38.7897 26.708 38.5484 26.4925C38.3071 26.2771 37.9946 26.1586 37.6711 26.16H34.0178C33.3433 26.16 32.7822 26.6644 32.7122 27.3267L31.6956 36.8311C31.6511 37.1967 31.7733 37.5711 32.0289 37.8422C32.2733 38.12 32.6333 38.2767 33.01 38.2767H38.6967C39.0744 38.2767 39.4244 38.1211 39.6789 37.8411C39.9144 37.5633 40.0289 37.1967 39.9933 36.83V36.8311ZM34.4556 35.6644L35.1911 28.7733H36.48L37.2156 35.6633H34.4556V35.6644ZM19.4989 32.0222C19.3555 32.0142 19.212 32.0354 19.0771 32.0847C18.9422 32.1341 18.8188 32.2104 18.7145 32.309C18.6101 32.4077 18.527 32.5266 18.4702 32.6585C18.4133 32.7904 18.384 32.9325 18.384 33.0761C18.384 33.2197 18.4133 33.3618 18.4702 33.4937C18.527 33.6256 18.6101 33.7445 18.7145 33.8432C18.8188 33.9418 18.9422 34.0182 19.0771 34.0675C19.212 34.1168 19.3555 34.1381 19.4989 34.13C19.6377 34.1306 19.7753 34.1038 19.9037 34.0511C20.0321 33.9985 20.1489 33.921 20.2474 33.8232C20.3458 33.7254 20.424 33.6091 20.4775 33.481C20.5309 33.3529 20.5586 33.2155 20.5589 33.0767C20.5571 32.7966 20.4447 32.5286 20.2461 32.331C20.0476 32.1335 19.779 32.0225 19.4989 32.0222ZM22.6089 35.1144C22.4663 35.1079 22.324 35.1303 22.1903 35.1804C22.0567 35.2304 21.9346 35.307 21.8314 35.4056C21.7282 35.5041 21.6461 35.6226 21.59 35.7538C21.5338 35.885 21.5049 36.0262 21.5049 36.1689C21.5049 36.3116 21.5338 36.4528 21.59 36.584C21.6461 36.7152 21.7282 36.8336 21.8314 36.9322C21.9346 37.0308 22.0567 37.1074 22.1903 37.1574C22.324 37.2075 22.4663 37.2299 22.6089 37.2233C22.7479 37.2239 22.8856 37.197 23.0142 37.1443C23.1428 37.0915 23.2597 37.0138 23.3582 36.9157C23.4566 36.8177 23.5348 36.7011 23.5881 36.5727C23.6414 36.4444 23.6689 36.3068 23.6689 36.1678C23.6668 35.8879 23.5543 35.6202 23.3558 35.4229C23.1572 35.2256 22.8888 35.1147 22.6089 35.1144ZM19.4989 38.2156C19.3563 38.209 19.214 38.2314 19.0803 38.2815C18.9467 38.3315 18.8246 38.4081 18.7214 38.5067C18.6182 38.6052 18.5361 38.7237 18.48 38.8549C18.4238 38.9861 18.3949 39.1273 18.3949 39.27C18.3949 39.4127 18.4238 39.5539 18.48 39.6851C18.5361 39.8163 18.6182 39.9348 18.7214 40.0333C18.8246 40.1319 18.9467 40.2085 19.0803 40.2585C19.214 40.3086 19.3563 40.331 19.4989 40.3244C19.6414 40.331 19.7838 40.3086 19.9175 40.2585C20.0511 40.2085 20.1732 40.1319 20.2764 40.0333C20.3796 39.9348 20.4617 39.8163 20.5178 39.6851C20.5739 39.5539 20.6029 39.4127 20.6029 39.27C20.6029 39.1273 20.5739 38.9861 20.5178 38.8549C20.4617 38.7237 20.3796 38.6052 20.2764 38.5067C20.1732 38.4081 20.0511 38.3315 19.9175 38.2815C19.7838 38.2314 19.6414 38.209 19.4989 38.2156ZM13.27 32.0222C13.1266 32.0142 12.9831 32.0354 12.8482 32.0847C12.7133 32.1341 12.5899 32.2104 12.4856 32.309C12.3812 32.4077 12.2981 32.5266 12.2413 32.6585C12.1845 32.7904 12.1552 32.9325 12.1552 33.0761C12.1552 33.2197 12.1845 33.3618 12.2413 33.4937C12.2981 33.6256 12.3812 33.7445 12.4856 33.8432C12.5899 33.9418 12.7133 34.0182 12.8482 34.0675C12.9831 34.1168 13.1266 34.1381 13.27 34.13C13.4088 34.1306 13.5464 34.1038 13.6748 34.0511C13.8032 33.9985 13.92 33.921 14.0185 33.8232C14.1169 33.7254 14.1951 33.6091 14.2486 33.481C14.302 33.3529 14.3297 33.2155 14.33 33.0767C14.3282 32.7966 14.2158 32.5286 14.0173 32.331C13.8187 32.1335 13.5501 32.0225 13.27 32.0222ZM10.1578 35.1144C10.0152 35.1079 9.87284 35.1303 9.73921 35.1804C9.60558 35.2304 9.48348 35.307 9.38029 35.4056C9.2771 35.5041 9.19497 35.6226 9.13885 35.7538C9.08273 35.885 9.0538 36.0262 9.0538 36.1689C9.0538 36.3116 9.08273 36.4528 9.13885 36.584C9.19497 36.7152 9.2771 36.8336 9.38029 36.9322C9.48348 37.0308 9.60558 37.1074 9.73921 37.1574C9.87284 37.2075 10.0152 37.2299 10.1578 37.2233C10.2968 37.2239 10.4345 37.197 10.5631 37.1443C10.6917 37.0915 10.8086 37.0138 10.907 36.9157C11.0055 36.8177 11.0837 36.7011 11.137 36.5727C11.1903 36.4444 11.2178 36.3068 11.2178 36.1678C11.2157 35.8879 11.1032 35.6202 10.9046 35.4229C10.7061 35.2256 10.4377 35.1147 10.1578 35.1144ZM16.3889 35.1144C16.2463 35.1079 16.104 35.1303 15.9703 35.1804C15.8367 35.2304 15.7146 35.307 15.6114 35.4056C15.5082 35.5041 15.4261 35.6226 15.37 35.7538C15.3138 35.885 15.2849 36.0262 15.2849 36.1689C15.2849 36.3116 15.3138 36.4528 15.37 36.584C15.4261 36.7152 15.5082 36.8336 15.6114 36.9322C15.7146 37.0308 15.8367 37.1074 15.9703 37.1574C16.104 37.2075 16.2463 37.2299 16.3889 37.2233C16.5279 37.2239 16.6656 37.197 16.7942 37.1443C16.9228 37.0915 17.0397 37.0138 17.1382 36.9157C17.2366 36.8177 17.3148 36.7011 17.3681 36.5727C17.4214 36.4444 17.4489 36.3068 17.4489 36.1678C17.4468 35.8877 17.3341 35.6198 17.1354 35.4225C16.9366 35.2252 16.6679 35.1144 16.3878 35.1144H16.3889ZM13.27 38.2156C13.1275 38.209 12.9851 38.2314 12.8514 38.2815C12.7178 38.3315 12.5957 38.4081 12.4925 38.5067C12.3893 38.6052 12.3072 38.7237 12.2511 38.8549C12.195 38.9861 12.166 39.1273 12.166 39.27C12.166 39.4127 12.195 39.5539 12.2511 39.6851C12.3072 39.8163 12.3893 39.9348 12.4925 40.0333C12.5957 40.1319 12.7178 40.2085 12.8514 40.2585C12.9851 40.3086 13.1275 40.331 13.27 40.3244C13.4125 40.331 13.5549 40.3086 13.6886 40.2585C13.8222 40.2085 13.9443 40.1319 14.0475 40.0333C14.1507 39.9348 14.2328 39.8163 14.2889 39.6851C14.345 39.5539 14.374 39.4127 14.374 39.27C14.374 39.1273 14.345 38.9861 14.2889 38.8549C14.2328 38.7237 14.1507 38.6052 14.0475 38.5067C13.9443 38.4081 13.8222 38.3315 13.6886 38.2815C13.5549 38.2314 13.4125 38.209 13.27 38.2156Z" fill="#DD0030"/>
</g>
<defs>
<clipPath id="clip0">
<rect width="40" height="44.4444" fill="white"/>
</clipPath>
</defs>
</svg>
