<svg width="50" height="49" viewBox="0 0 50 49" fill="none" xmlns="http://www.w3.org/2000/svg">
<path fill-rule="evenodd" clip-rule="evenodd" d="M44.3611 37.1111H47.7319C48.1003 37.1111 48.4536 37.2574 48.714 37.5179C48.9745 37.7784 49.1208 38.1316 49.1208 38.5V45.9542C49.1208 46.3225 48.9745 46.6758 48.714 46.9363C48.4536 47.1967 48.1003 47.3431 47.7319 47.3431H1.38889C1.02053 47.3431 0.667263 47.1967 0.406796 46.9363C0.146329 46.6758 0 46.3225 0 45.9542V38.5C0 38.1316 0.146329 37.7784 0.406796 37.5179C0.667263 37.2574 1.02053 37.1111 1.38889 37.1111H3.77778L2.05556 30.4167V30.3611C2.05099 30.3242 2.05099 30.2869 2.05556 30.25C2.05104 30.1885 2.05104 30.1268 2.05556 30.0653C2.05099 30.0005 2.05099 29.9356 2.05556 29.8708C2.05143 29.8372 2.05143 29.8031 2.05556 29.7694V29.7139L4.22222 21.2972C4.38056 20.6875 4.92639 20.2597 5.55556 20.25H22.2681C22.9014 20.2556 23.4514 20.6847 23.6111 21.2972L25.7958 29.7139C25.7915 29.7322 25.7915 29.7512 25.7958 29.7694V29.8708C25.8004 29.9356 25.8004 30.0005 25.7958 30.0653C25.8004 30.1268 25.8004 30.1885 25.7958 30.25V30.3611C25.7915 30.3794 25.7915 30.3984 25.7958 30.4167L24.0736 37.1111H28.8431L27.4819 17.9542C27.1136 17.9542 26.7603 17.8078 26.4999 17.5474C26.2394 17.2869 26.0931 16.9336 26.0931 16.5653V9.89861C26.0931 9.53025 26.2394 9.17698 26.4999 8.91652C26.7603 8.65605 27.1136 8.50972 27.4819 8.50972H35.4347L36.3986 2.10277C36.422 1.91649 36.4825 1.73679 36.5765 1.57427C36.6705 1.41175 36.7962 1.26971 36.946 1.15654C37.0958 1.04337 37.2667 0.961362 37.4488 0.915354C37.6308 0.869345 37.8202 0.86027 38.0058 0.888666C38.1914 0.917061 38.3694 0.98235 38.5293 1.08068C38.6893 1.17901 38.8279 1.30839 38.937 1.46117C39.0461 1.61396 39.1235 1.78705 39.1646 1.97025C39.2057 2.15344 39.2097 2.34301 39.1764 2.52777L38.25 8.50972H45.7042C46.0725 8.50972 46.4258 8.65605 46.6863 8.91652C46.9467 9.17698 47.0931 9.53025 47.0931 9.89861V16.5653C47.0931 16.9336 46.9467 17.2869 46.6863 17.5474C46.4258 17.8078 46.0725 17.9542 45.7042 17.9542L44.3611 37.1111ZM28.8708 11.2875V15.1764H44.3333V11.2875H28.8708ZM31.5833 36.1861L31.3236 32.5278C31.5493 32.5005 31.7572 32.3912 31.9075 32.2206C32.0578 32.05 32.1402 31.8301 32.1389 31.6028C32.1389 31.3571 32.0413 31.1215 31.8676 30.9477C31.6938 30.774 31.4582 30.6764 31.2125 30.6764L30.9542 27.0653C31.0436 27.097 31.1372 27.1157 31.2319 27.1208C31.3565 27.1257 31.4808 27.1053 31.5973 27.0609C31.7138 27.0166 31.8202 26.9492 31.9101 26.8628C31.9999 26.7763 32.0714 26.6726 32.1202 26.5579C32.169 26.4432 32.1942 26.3198 32.1942 26.1951C32.1942 26.0705 32.169 25.9471 32.1202 25.8324C32.0714 25.7176 31.9999 25.614 31.9101 25.5275C31.8202 25.4411 31.7138 25.3737 31.5973 25.3293C31.4808 25.285 31.3565 25.2646 31.2319 25.2694C31.0931 25.2694 30.9556 25.3056 30.8333 25.3708L30.5556 21.4639C30.6564 21.5847 30.7863 21.6778 30.9331 21.7344C31.0799 21.7911 31.2387 21.8094 31.3945 21.7877C31.5503 21.766 31.6981 21.705 31.8238 21.6103C31.9495 21.5157 32.049 21.3907 32.113 21.2469C32.177 21.1032 32.2033 20.9455 32.1895 20.7888C32.1757 20.6321 32.1222 20.4814 32.034 20.3511C31.9459 20.2208 31.826 20.1151 31.6856 20.0439C31.5453 19.9728 31.3892 19.9385 31.2319 19.9444C31.0792 19.9488 30.9298 19.9909 30.7973 20.067C30.6647 20.1431 30.5531 20.2508 30.4722 20.3806L30.3056 17.9542H33.0833C33.0752 18.0248 33.0752 18.0961 33.0833 18.1667C33.0926 18.406 33.1942 18.6324 33.3668 18.7984C33.5394 18.9644 33.7695 19.0572 34.009 19.0572C34.2485 19.0572 34.4787 18.9644 34.6513 18.7984C34.8239 18.6324 34.9255 18.406 34.9347 18.1667C34.9434 18.0961 34.9434 18.0247 34.9347 17.9542H38.4264C38.4182 18.0248 38.4182 18.0961 38.4264 18.1667C38.4357 18.406 38.5372 18.6324 38.7098 18.7984C38.8824 18.9644 39.1126 19.0572 39.3521 19.0572C39.5916 19.0572 39.8218 18.9644 39.9943 18.7984C40.1669 18.6324 40.2685 18.406 40.2778 18.1667C40.2822 18.0959 40.2822 18.0249 40.2778 17.9542H43.0556L42.75 20.3708C42.6691 20.2413 42.5574 20.1338 42.4248 20.0579C42.2922 19.9821 42.143 19.9402 41.9903 19.9361C41.751 19.9454 41.5246 20.047 41.3585 20.2196C41.1925 20.3921 41.0998 20.6223 41.0998 20.8618C41.0998 21.1013 41.1925 21.3315 41.3585 21.5041C41.5246 21.6766 41.751 21.7782 41.9903 21.7875C42.121 21.7851 42.2498 21.755 42.368 21.6993C42.4863 21.6435 42.5914 21.5633 42.6764 21.4639L42.3986 25.4444C42.273 25.3774 42.1327 25.3426 41.9903 25.3431C41.751 25.3523 41.5246 25.4539 41.3585 25.6265C41.1925 25.7991 41.0998 26.0293 41.0998 26.2687C41.0998 26.5082 41.1925 26.7384 41.3585 26.911C41.5246 27.0836 41.751 27.1852 41.9903 27.1944C42.0883 27.1902 42.1852 27.1715 42.2778 27.1389L42.0278 30.75C41.9061 30.7439 41.7845 30.7618 41.6697 30.8027C41.555 30.8436 41.4494 30.9067 41.3591 30.9884C41.2688 31.0701 41.1954 31.1688 41.1432 31.2789C41.091 31.3889 41.061 31.5082 41.0549 31.6299C41.0488 31.7515 41.0667 31.8732 41.1076 31.9879C41.1485 32.1026 41.2116 32.2082 41.2933 32.2985C41.375 32.3889 41.4737 32.4623 41.5838 32.5145C41.6938 32.5667 41.8131 32.5967 41.9347 32.6028L41.6667 36.1764C41.4978 36.2459 41.3532 36.3639 41.2511 36.5154C41.1491 36.6668 41.0941 36.8451 41.0931 37.0278C41.0888 37.0554 41.0888 37.0835 41.0931 37.1111H37.5C37.5044 37.0835 37.5044 37.0554 37.5 37.0278C37.5048 36.9032 37.4845 36.7789 37.4401 36.6624C37.3958 36.5459 37.3284 36.4395 37.2419 36.3497C37.1555 36.2598 37.0518 36.1883 36.9371 36.1395C36.8224 36.0907 36.699 36.0655 36.5743 36.0655C36.4496 36.0655 36.3262 36.0907 36.2115 36.1395C36.0968 36.1883 35.9931 36.2598 35.9067 36.3497C35.8203 36.4395 35.7528 36.5459 35.7085 36.6624C35.6642 36.7789 35.6438 36.9032 35.6486 37.0278C35.6443 37.0554 35.6443 37.0835 35.6486 37.1111H32.1208V37.0278C32.1208 36.6667 31.9125 36.3375 31.5833 36.1861ZM21.1847 23.0097H6.63889L5.19444 28.7042H22.6389L21.1847 23.0097ZM22.6389 31.4819L21.1847 37.1306H6.63889L5.19444 31.4819H22.6389ZM2.77778 44.5833H46.3431V39.8889H2.77778V44.5833Z" fill="#DD0030"/>
<path d="M39.2958 24.4722C39.4204 24.477 39.5447 24.4567 39.6612 24.4123C39.7777 24.368 39.8841 24.3006 39.9739 24.2141C40.0638 24.1277 40.1353 24.024 40.1841 23.9093C40.2329 23.7946 40.2581 23.6712 40.2581 23.5465C40.2581 23.4219 40.2329 23.2985 40.1841 23.1837C40.1353 23.069 40.0638 22.9653 39.9739 22.8789C39.8841 22.7925 39.7777 22.7251 39.6612 22.6807C39.5447 22.6364 39.4204 22.616 39.2958 22.6208C39.0565 22.6301 38.8301 22.7317 38.6641 22.9043C38.498 23.0769 38.4053 23.307 38.4053 23.5465C38.4053 23.786 38.498 24.0162 38.6641 24.1888C38.8301 24.3614 39.0565 24.4629 39.2958 24.4722ZM39.2958 29.8611C39.4204 29.8659 39.5447 29.8456 39.6612 29.8012C39.7777 29.7569 39.8841 29.6895 39.9739 29.603C40.0638 29.5166 40.1353 29.4129 40.1841 29.2982C40.2329 29.1835 40.2581 29.0601 40.2581 28.9354C40.2581 28.8107 40.2329 28.6873 40.1841 28.5726C40.1353 28.4579 40.0638 28.3542 39.9739 28.2678C39.8841 28.1814 39.7777 28.114 39.6612 28.0696C39.5447 28.0253 39.4204 28.0049 39.2958 28.0097C39.0565 28.019 38.8301 28.1206 38.6641 28.2932C38.498 28.4657 38.4053 28.6959 38.4053 28.9354C38.4053 29.1749 38.498 29.4051 38.6641 29.5777C38.8301 29.7503 39.0565 29.8518 39.2958 29.8611ZM39.2958 35.25C39.4204 35.2548 39.5447 35.2345 39.6612 35.1901C39.7777 35.1458 39.8841 35.0784 39.9739 34.9919C40.0638 34.9055 40.1353 34.8018 40.1841 34.6871C40.2329 34.5724 40.2581 34.449 40.2581 34.3243C40.2581 34.1996 40.2329 34.0762 40.1841 33.9615C40.1353 33.8468 40.0638 33.7431 39.9739 33.6567C39.8841 33.5703 39.7777 33.5028 39.6612 33.4585C39.5447 33.4142 39.4204 33.3938 39.2958 33.3986C39.0565 33.4079 38.8301 33.5095 38.6641 33.6821C38.498 33.8546 38.4053 34.0848 38.4053 34.3243C38.4053 34.5638 38.498 34.794 38.6641 34.9666C38.8301 35.1391 39.0565 35.2407 39.2958 35.25ZM36.6014 21.7778C36.726 21.7826 36.8502 21.7622 36.9668 21.7179C37.0833 21.6735 37.1897 21.6061 37.2795 21.5197C37.3693 21.4333 37.4408 21.3296 37.4897 21.2149C37.5385 21.1001 37.5636 20.9768 37.5636 20.8521C37.5636 20.7274 37.5385 20.604 37.4897 20.4893C37.4408 20.3746 37.3693 20.2709 37.2795 20.1845C37.1897 20.098 37.0833 20.0306 36.9668 19.9863C36.8502 19.9419 36.726 19.9216 36.6014 19.9264C36.3621 19.9357 36.1357 20.0372 35.9696 20.2098C35.8036 20.3824 35.7109 20.6126 35.7109 20.8521C35.7109 21.0916 35.8036 21.3217 35.9696 21.4943C36.1357 21.6669 36.3621 21.7685 36.6014 21.7778ZM33.9069 24.4722C34.0315 24.477 34.1558 24.4567 34.2723 24.4123C34.3888 24.368 34.4952 24.3006 34.5851 24.2141C34.6749 24.1277 34.7464 24.024 34.7952 23.9093C34.844 23.7946 34.8692 23.6712 34.8692 23.5465C34.8692 23.4219 34.844 23.2985 34.7952 23.1837C34.7464 23.069 34.6749 22.9653 34.5851 22.8789C34.4952 22.7925 34.3888 22.7251 34.2723 22.6807C34.1558 22.6364 34.0315 22.616 33.9069 22.6208C33.6676 22.6301 33.4412 22.7317 33.2752 22.9043C33.1092 23.0769 33.0164 23.307 33.0164 23.5465C33.0164 23.786 33.1092 24.0162 33.2752 24.1888C33.4412 24.3614 33.6676 24.4629 33.9069 24.4722ZM36.6014 27.1667C36.8471 27.1667 37.0827 27.0691 37.2564 26.8953C37.4302 26.7216 37.5278 26.486 37.5278 26.2403C37.5278 25.9946 37.4302 25.759 37.2564 25.5852C37.0827 25.4115 36.8471 25.3139 36.6014 25.3139C36.3557 25.3139 36.1201 25.4115 35.9463 25.5852C35.7726 25.759 35.675 25.9946 35.675 26.2403C35.675 26.486 35.7726 26.7216 35.9463 26.8953C36.1201 27.0691 36.3557 27.1667 36.6014 27.1667ZM36.6014 32.5556C36.726 32.5604 36.8502 32.54 36.9668 32.4957C37.0833 32.4513 37.1897 32.3839 37.2795 32.2975C37.3693 32.211 37.4408 32.1074 37.4897 31.9926C37.5385 31.8779 37.5636 31.7545 37.5636 31.6299C37.5636 31.5052 37.5385 31.3818 37.4897 31.2671C37.4408 31.1524 37.3693 31.0487 37.2795 30.9622C37.1897 30.8758 37.0833 30.8084 36.9668 30.7641C36.8502 30.7197 36.726 30.6993 36.6014 30.7042C36.3557 30.7042 36.1201 30.8018 35.9463 30.9755C35.7726 31.1492 35.675 31.3849 35.675 31.6306C35.675 31.8762 35.7726 32.1119 35.9463 32.2856C36.1201 32.4593 36.3557 32.5569 36.6014 32.5569V32.5556ZM33.9069 29.8611C34.0315 29.8659 34.1558 29.8456 34.2723 29.8012C34.3888 29.7569 34.4952 29.6895 34.5851 29.603C34.6749 29.5166 34.7464 29.4129 34.7952 29.2982C34.844 29.1835 34.8692 29.0601 34.8692 28.9354C34.8692 28.8107 34.844 28.6873 34.7952 28.5726C34.7464 28.4579 34.6749 28.3542 34.5851 28.2678C34.4952 28.1814 34.3888 28.114 34.2723 28.0696C34.1558 28.0253 34.0315 28.0049 33.9069 28.0097C33.6676 28.019 33.4412 28.1206 33.2752 28.2932C33.1092 28.4657 33.0164 28.6959 33.0164 28.9354C33.0164 29.1749 33.1092 29.4051 33.2752 29.5777C33.4412 29.7503 33.6676 29.8518 33.9069 29.8611ZM33.9069 35.25C34.0315 35.2548 34.1558 35.2345 34.2723 35.1901C34.3888 35.1458 34.4952 35.0784 34.5851 34.9919C34.6749 34.9055 34.7464 34.8018 34.7952 34.6871C34.844 34.5724 34.8692 34.449 34.8692 34.3243C34.8692 34.1996 34.844 34.0762 34.7952 33.9615C34.7464 33.8468 34.6749 33.7431 34.5851 33.6567C34.4952 33.5703 34.3888 33.5028 34.2723 33.4585C34.1558 33.4142 34.0315 33.3938 33.9069 33.3986C33.6676 33.4079 33.4412 33.5095 33.2752 33.6821C33.1092 33.8546 33.0164 34.0848 33.0164 34.3243C33.0164 34.5638 33.1092 34.794 33.2752 34.9666C33.4412 35.1391 33.6676 35.2407 33.9069 35.25Z" fill="#DD0030"/>
</svg>
