<svg width="60" height="33" viewBox="0 0 60 33" fill="none" xmlns="http://www.w3.org/2000/svg">
<mask id="mask0" mask-type="alpha" maskUnits="userSpaceOnUse" x="0" y="0" width="60" height="33">
<path fill-rule="evenodd" clip-rule="evenodd" d="M0 0H59.2543V32.0983H0V0Z" fill="white"/>
</mask>
<g mask="url(#mask0)">
<path fill-rule="evenodd" clip-rule="evenodd" d="M53.101 15.9891C52.6604 16.0611 52.3193 16.428 52.3193 16.8891C52.3193 17.352 52.6604 17.7171 53.101 17.7909V22.188C52.6604 22.26 52.3193 22.6269 52.3193 23.0897C52.3193 23.5509 52.6604 23.9177 53.101 23.9897V28.3869C52.6604 28.4589 52.3193 28.8257 52.3193 29.2886C52.3193 29.3726 52.3467 29.4497 52.3673 29.5269H47.437C47.4593 29.4497 47.4867 29.3726 47.4867 29.2886C47.4867 28.7743 47.0701 28.3577 46.5593 28.3577C46.3604 28.3577 46.1856 28.4349 46.0347 28.5411V23.8337C46.1856 23.9417 46.3604 24.0189 46.5593 24.0189C47.0701 24.0189 47.4867 23.6023 47.4867 23.0897C47.4867 22.5754 47.0701 22.1589 46.5593 22.1589C46.3604 22.1589 46.1856 22.236 46.0347 22.344V17.6349C46.1856 17.7429 46.3604 17.8183 46.5593 17.8183C47.0701 17.8183 47.4867 17.4034 47.4867 16.8891C47.4867 16.3766 47.0701 15.96 46.5593 15.96C46.3604 15.96 46.1856 16.0371 46.0347 16.1434V15.4509H53.101V15.9891ZM43.4633 29.5269H38.245V12.8794H21.0078V29.5269H15.8238V12.8794V8.232H43.4633V12.8794V29.5269ZM30.913 29.5269H35.6736V15.4509H30.913V29.5269ZM23.5793 29.5269H28.3398V15.4509H23.5793V29.5269ZM13.2524 15.4509V15.9686C13.2353 15.9686 13.2216 15.96 13.2061 15.96C12.6953 15.96 12.2804 16.3766 12.2804 16.8891C12.2804 17.4034 12.6953 17.8183 13.2061 17.8183C13.2216 17.8183 13.2353 17.8097 13.2524 17.8097V22.1674C13.2353 22.1674 13.2216 22.1589 13.2061 22.1589C12.6953 22.1589 12.2804 22.5754 12.2804 23.0897C12.2804 23.6023 12.6953 24.0189 13.2061 24.0189C13.2216 24.0189 13.2353 24.0103 13.2524 24.0086V28.368C13.2353 28.3663 13.2216 28.3577 13.2061 28.3577C12.6953 28.3577 12.2804 28.7743 12.2804 29.2886C12.2804 29.3726 12.3061 29.4497 12.3267 29.5269H7.39812C7.42041 29.4497 7.44613 29.3726 7.44613 29.2886C7.44613 28.7743 7.03127 28.3577 6.5187 28.3577C6.40041 28.3577 6.28898 28.3851 6.18612 28.4263V23.952C6.28898 23.9914 6.40041 24.0189 6.5187 24.0189C7.03127 24.0189 7.44613 23.6023 7.44613 23.0897C7.44613 22.5754 7.03127 22.1589 6.5187 22.1589C6.40041 22.1589 6.28898 22.1863 6.18612 22.2274V17.7514C6.28898 17.7926 6.40041 17.8183 6.5187 17.8183C7.03127 17.8183 7.44613 17.4034 7.44613 16.8891C7.44613 16.3766 7.03127 15.96 6.5187 15.96C6.40041 15.96 6.28898 15.9874 6.18612 16.0269V15.4509H13.2524ZM19.405 5.66057H39.8821V2.57143H19.405V5.66057ZM57.9696 12.8794H55.6724H46.0347V5.66057H42.4536V2.57143H44.749C45.4587 2.57143 46.0347 1.99543 46.0347 1.28571C46.0347 0.576 45.4587 0 44.749 0H42.4536H16.8336H14.5381C13.8284 0 13.2524 0.576 13.2524 1.28571C13.2524 1.99543 13.8284 2.57143 14.5381 2.57143H16.8336V5.66057H13.2524V12.8794H3.6147H1.28498C0.575268 12.8794 -0.000732422 13.4554 -0.000732422 14.1651C-0.000732422 14.8749 0.575268 15.4509 1.28498 15.4509H3.6147V32.0983H13.2524H15.8238H21.0078H38.245H43.4633H46.0347H55.6724V15.4509H57.9696C58.6793 15.4509 59.2553 14.8749 59.2553 14.1651C59.2553 13.4554 58.6793 12.8794 57.9696 12.8794Z" fill="#DD0031"/>
<path fill-rule="evenodd" clip-rule="evenodd" d="M9.81366 20.911C10.3262 20.911 10.7411 20.4945 10.7411 19.9819C10.7411 19.4676 10.3262 19.051 9.81366 19.051C9.30109 19.051 8.88623 19.4676 8.88623 19.9819C8.88623 20.4945 9.30109 20.911 9.81366 20.911Z" fill="#DD0031"/>
<path fill-rule="evenodd" clip-rule="evenodd" d="M49.8533 20.911C50.3659 20.911 50.7808 20.4945 50.7808 19.9819C50.7808 19.4676 50.3659 19.051 49.8533 19.051C49.3408 19.051 48.9259 19.4676 48.9259 19.9819C48.9259 20.4945 49.3408 20.911 49.8533 20.911Z" fill="#DD0031"/>
<path fill-rule="evenodd" clip-rule="evenodd" d="M9.81366 27.1102C10.3262 27.1102 10.7411 26.6937 10.7411 26.1811C10.7411 25.6668 10.3262 25.2502 9.81366 25.2502C9.30109 25.2502 8.88623 25.6668 8.88623 26.1811C8.88623 26.6937 9.30109 27.1102 9.81366 27.1102Z" fill="#DD0031"/>
<path fill-rule="evenodd" clip-rule="evenodd" d="M49.8533 27.1102C50.3659 27.1102 50.7808 26.6937 50.7808 26.1811C50.7808 25.6668 50.3659 25.2502 49.8533 25.2502C49.3408 25.2502 48.9259 25.6668 48.9259 26.1811C48.9259 26.6937 49.3408 27.1102 49.8533 27.1102Z" fill="#DD0031"/>
</g>
</svg>
