<svg xmlns="http://www.w3.org/2000/svg" width="121.708" height="130.402" viewBox="0 0 121.708 130.402"><defs><style>.a{fill:#cfd1d3;}.b{fill:#d81212;}.c{fill:#010300;}.d{fill:#2b4d66;}.e{fill:#365e7d;}</style></defs><g transform="translate(0)"><path class="a" d="M51.417,24a2.222,2.222,0,0,0-2.03,2.243v21.66H45.04V26.247A2.223,2.223,0,0,0,43.011,24a2.173,2.173,0,0,0-2.318,2.169V47.906H36.347V26.247A2.222,2.222,0,0,0,34.317,24,2.173,2.173,0,0,0,32,26.173V53.7a8.693,8.693,0,0,0,1.739,5.216l4.781,6.375h8.693l4.781-6.375A8.693,8.693,0,0,0,53.734,53.7V26.173A2.173,2.173,0,0,0,51.417,24Z" transform="translate(-32 -21.826)"/><path class="b" d="M50.177,176l-2.171,80.274a4.392,4.392,0,0,0,4.442,4.487H56.6a4.392,4.392,0,0,0,4.442-4.487L58.871,176Z" transform="translate(-43.657 -132.532)"/><path class="b" d="M154.177,240l-2.171,62.887a4.392,4.392,0,0,0,4.442,4.487H160.6a4.392,4.392,0,0,0,4.441-4.487L162.871,240Z" transform="translate(-119.404 -179.145)"/><path class="a" d="M136.693,82.681v-6.52L128,73.987S130.173,24,145.387,24V82.681Z" transform="translate(-101.92 -21.827)"/><path class="c" d="M280.277,35.1a64.773,64.773,0,0,0-46.1-19.1A2.173,2.173,0,0,0,232,18.173v8.693a2.173,2.173,0,1,0,4.347,0V20.384a60.44,60.44,0,0,1,26.365,7.04L259.9,32.3a2.173,2.173,0,1,0,3.764,2.173l2.811-4.87a61.607,61.607,0,0,1,19.3,19.3L280.9,51.713a2.173,2.173,0,1,0,2.173,3.764l4.878-2.816a60.448,60.448,0,0,1,7.033,26.366h-6.478a2.173,2.173,0,0,0,0,4.347h6.478a60.447,60.447,0,0,1-7.033,26.366l-4.878-2.816a2.173,2.173,0,1,0-2.173,3.764l4.871,2.812a61.642,61.642,0,0,1-19.3,19.3l-2.707-4.69A2.174,2.174,0,0,0,260,130.282l2.712,4.7a60.446,60.446,0,0,1-26.366,7.033v-6.478a2.173,2.173,0,1,0-4.347,0v8.693a2.173,2.173,0,0,0,2.173,2.173,65.2,65.2,0,0,0,46.1-111.3Z" transform="translate(-177.666 -15.999)"/><path class="d" d="M184.64,172.356h16.87a1.916,1.916,0,1,0,0-3.83H186.626v-24.36a1.988,1.988,0,0,0-3.973,0v26.275A1.951,1.951,0,0,0,184.64,172.356Z" transform="translate(-126.429 -98.497)"/><ellipse class="e" cx="4.209" cy="4.209" rx="4.209" ry="4.209" transform="translate(54.343 67.586)"/></g></svg>